<?xml version="1.0" standalone="no"?>
<!DOCTYPE svg PUBLIC "-//W3C//DTD SVG 1.1//EN" "http://www.w3.org/Graphics/SVG/1.1/DTD/svg11.dtd" >
<svg xmlns="http://www.w3.org/2000/svg" xmlns:xlink="http://www.w3.org/1999/xlink" version="1.1">
<metadata>
Created by FontForge 20201107 at Wed Aug 29 01:23:10 2018
 By 
Mark Bloom and Joe Leadbeater (c) 2018
</metadata>
<defs>
<font id="Aeonik_Variable-Regular" horiz-adv-x="535" >
  <font-face 
    font-family="Aeonik_Variable"
    font-weight="400"
    font-stretch="normal"
    units-per-em="1000"
    panose-1="2 1 5 3 3 3 0 0 0 0"
    ascent="800"
    descent="-200"
    x-height="504"
    cap-height="700"
    bbox="-333 -206 2217 906"
    underline-thickness="8"
    underline-position="-200"
    unicode-range="U+0020-1F10C"
  />
<missing-glyph horiz-adv-x="620" 
d="M540 700v-768h-460v768h460z" />
    <glyph glyph-name="fi" unicode="fi" horiz-adv-x="436" 
d="M262 692h-64q-49 0 -69.5 -20.5t-20.5 -69.5v-98h255v-8h-255v-496h-8v496h-101v8h101v98q0 52 23 75t75 23h64v-8zM368 504v-504h-8v504h8zM375 673q4 -4 4 -11t-4 -11t-11 -4t-11 4t-4 11t4 11t11 4t11 -4z" />
    <glyph glyph-name="f_f.liga" unicode="ff" horiz-adv-x="525" 
d="M100 504v98q0 52 23 75t75 23h64v-8h-64q-49 0 -69.5 -20.5t-20.5 -69.5v-98h163v-8h-163v-496h-8v496h-101v8h101zM360 504v98q0 52 23 75t75 23h74v-8h-74q-49 0 -69.5 -20.5t-20.5 -69.5v-98h163v-8h-163v-496h-8v496h-106v8h106z" />
    <glyph glyph-name="f_f_i.liga" unicode="ffi" horiz-adv-x="696" 
d="M635 673q4 -4 4 -11t-4 -11t-11 -4t-11 4t-4 11t4 11t11 4t11 -4zM628 0h-8v504h8v-504zM100 504v98q0 52 23 75t75 23h64v-8h-64q-49 0 -69.5 -20.5t-20.5 -69.5v-98h163v-8h-163v-496h-8v496h-101v8h101zM360 504v98q0 52 23 75t75 23h64v-8h-64q-49 0 -69.5 -20.5
t-20.5 -69.5v-98h257v-8h-257v-496h-8v496h-106v8h106z" />
    <glyph glyph-name="f_f_t.liga" unicode="fft" horiz-adv-x="792" 
d="M628 504h143v-8h-143v-398q0 -49 20.5 -69.5t69.5 -20.5h53v-8h-53q-52 0 -75 23t-23 75v398h-101v8h101v140h8v-140zM100 504v98q0 52 23 75t75 23h64v-8h-64q-49 0 -69.5 -20.5t-20.5 -69.5v-98h163v-8h-163v-496h-8v496h-101v8h101zM360 504v98q0 52 23 75t75 23h64
v-8h-64q-49 0 -69.5 -20.5t-20.5 -69.5v-98h207v-8h-207v-496h-8v496h-106v8h106z" />
    <glyph glyph-name="f_t.liga" unicode="ft" horiz-adv-x="532" 
d="M360 496h-106v8h106v140h8v-140h143v-8h-143v-398q0 -49 20.5 -69.5t69.5 -20.5h53v-8h-53q-52 0 -75 23t-23 75v398zM100 504v98q0 52 23 75t75 23h64v-8h-64q-49 0 -69.5 -20.5t-20.5 -69.5v-98h163v-8h-163v-496h-8v496h-101v8h101z" />
    <glyph glyph-name="t_t.liga" unicode="tt" horiz-adv-x="532" 
d="M383 23q-23 23 -23 75v398h-134v8h134v140h8v-140h143v-8h-143v-398q0 -49 20.5 -69.5t69.5 -20.5h53v-8h-53q-52 0 -75 23zM123 23q-23 23 -23 75v398h-101v8h101v140h8v-140h143v-8h-143v-398q0 -49 20.5 -69.5t69.5 -20.5h43v-8h-43q-52 0 -75 23z" />
    <glyph glyph-name=".notdef" horiz-adv-x="620" 
d="M540 700v-768h-460v768h460z" />
    <glyph glyph-name=".null" horiz-adv-x="0" 
 />
    <glyph glyph-name="nonmarkingreturn" horiz-adv-x="333" 
 />
    <glyph glyph-name="space" unicode=" " horiz-adv-x="280" 
 />
    <glyph glyph-name="exclam" unicode="!" horiz-adv-x="180" 
d="M86 700h8v-504h-8v504zM81.5 0.5q-3.5 3.5 -3.5 8.5t3.5 8.5t8.5 3.5t8.5 -3.5t3.5 -8.5t-3.5 -8.5t-8.5 -3.5t-8.5 3.5z" />
    <glyph glyph-name="quotedbl" unicode="&#x22;" horiz-adv-x="311" 
d="M77 701.5q1 0.5 2 0.5t2 -0.5t2 -1.5v-193h-8v193q1 1 2 1.5zM230 701.5q1 0.5 2 0.5t2 -0.5t2 -1.5v-193h-8v193q1 1 2 1.5z" />
    <glyph glyph-name="numbersign" unicode="#" horiz-adv-x="598" 
d="M260 606l-32 -206h171l32 206h8l-32 -206h131v-8h-132l-27 -178h135v-8h-136l-32 -206h-8l32 206h-171l-32 -206h-8l32 206h-131v8h132l27 178h-135v8h136l32 206h8zM200 214h171l27 178h-171z" />
    <glyph glyph-name="dollar" unicode="$" horiz-adv-x="584" 
d="M306 808v-109h-8v109h8zM298 2h8v-109h-8v109zM172 19.5q-52 24.5 -82.5 70.5t-34.5 107h8q5 -89 67 -141.5t162 -52.5q106 0 167.5 48t61.5 131q0 57 -31.5 91t-79.5 50.5t-119 28.5l-5 1q-74 13 -116.5 27t-72 47.5t-29.5 93.5q0 58 28 100t80 64t123 22q61 0 109 -22
t77 -62t36 -95l-8 -1q-11 80 -68 126t-146 46q-103 0 -163 -47t-60 -131q0 -58 28.5 -90t71 -45t114.5 -26h1q73 -12 123 -29t82.5 -53t32.5 -96q0 -57 -29 -99.5t-82.5 -65t-125.5 -22.5q-68 0 -120 24.5z" />
    <glyph glyph-name="percent" unicode="%" horiz-adv-x="852" 
d="M150.5 397q-36.5 22 -57.5 59.5t-21 83.5t21 83.5t57.5 59.5t80.5 22t80.5 -22t57.5 -59.5t21 -83.5t-21 -83.5t-57.5 -59.5t-80.5 -22t-80.5 22zM653 700h9l-463 -700h-9zM307.5 403.5q34.5 20.5 54.5 56.5t20 80t-20 80t-54.5 56.5t-76.5 20.5t-76.5 -20.5t-54.5 -56.5
t-20 -80t20 -80t54.5 -56.5t76.5 -20.5t76.5 20.5zM540.5 16q-36.5 22 -57.5 59.5t-21 83.5t21 83.5t57.5 59.5t80.5 22t80.5 -22t57.5 -59.5t21 -83.5t-21 -83.5t-57.5 -59.5t-80.5 -22t-80.5 22zM697.5 22.5q34.5 20.5 54.5 56.5t20 80t-20 80t-54.5 56.5t-76.5 20.5
t-76.5 -20.5t-54.5 -56.5t-20 -80t20 -80t54.5 -56.5t76.5 -20.5t76.5 20.5z" />
    <glyph glyph-name="ampersand" unicode="&#x26;" horiz-adv-x="673" 
d="M389.5 470q44.5 43 44.5 102q0 55 -36.5 90.5t-92.5 35.5q-42 0 -76.5 -19t-54 -52t-19.5 -73q0 -34 10.5 -62t29.5 -55t62 -82q2 -3 5 -6t5 -6l238 -298q17 -21 34.5 -29t42.5 -8h59v-8h-62q-25 0 -44.5 9.5t-35.5 29.5l-237 298l-15 19q-41 52 -60 79t-29.5 55.5
t-10.5 63.5q0 43 20.5 77.5t56.5 54.5t81 20q39 0 70.5 -17t49 -47.5t17.5 -68.5q0 -41 -20 -74t-63.5 -64t-116.5 -65l-5 6q108 51 152.5 94zM95 276q-44 -46 -44 -110q0 -75 49.5 -119.5t125.5 -44.5q61 0 114 32t93 93l6 -5q-41 -62 -96 -95t-117 -33q-51 0 -92.5 20.5
t-66 60t-24.5 91.5q0 65 46 113.5t147 96.5l5 -6q-102 -48 -146 -94zM597 378h9l-166 -255l-6 5z" />
    <glyph glyph-name="quotesingle" unicode="'" horiz-adv-x="158" 
d="M77 701.5q1 0.5 2 0.5t2 -0.5t2 -1.5v-193h-8v193q1 1 2 1.5z" />
    <glyph glyph-name="parenleft" unicode="(" horiz-adv-x="255" 
d="M98 478.5q-38 -102.5 -38 -228.5q0 -125 38 -228t124 -222h8q-89 124 -125.5 224.5t-36.5 225.5t36.5 225.5t125.5 224.5h-8q-86 -119 -124 -221.5z" />
    <glyph glyph-name="parenright" unicode=")" horiz-adv-x="255" 
d="M157 478.5q38 -102.5 38 -228.5q0 -125 -38 -228t-124 -222h-8q89 124 125.5 224.5t36.5 225.5t-36.5 225.5t-125.5 224.5h8q86 -119 124 -221.5z" />
    <glyph glyph-name="asterisk" unicode="*" horiz-adv-x="414" 
d="M214 546l93 -113l-6 -5l-94 115l-94 -115l-6 5l93 113l-135 55l3 7l135 -56v149h8v-149l135 56l3 -7z" />
    <glyph glyph-name="plus" unicode="+" 
d="M271 486v-193h186v-8h-186v-193h-8v193h-185v8h185v193h8z" />
    <glyph glyph-name="comma" unicode="," horiz-adv-x="154" 
d="M55.5 17.5q3.5 3.5 9.5 3.5q14 0 25.5 -16.5t11.5 -39.5q0 -32 -20 -56.5t-52 -27.5v7q26 2 45 24t19 53t-20 44q-1 -12 -12 -12q-4 0 -7 3t-3 8q0 6 3.5 9.5z" />
    <glyph glyph-name="hyphen" unicode="-" horiz-adv-x="446" 
d="M68 288h310v-8h-310v8z" />
    <glyph glyph-name="period" unicode="." horiz-adv-x="154" 
d="M68.5 0.5q-3.5 3.5 -3.5 8.5t3.5 8.5t8.5 3.5t8.5 -3.5t3.5 -8.5t-3.5 -8.5t-8.5 -3.5t-8.5 3.5z" />
    <glyph glyph-name="slash" unicode="/" horiz-adv-x="302" 
d="M293 700h9l-293 -900h-9z" />
    <glyph glyph-name="zero" unicode="0" horiz-adv-x="598" 
d="M176 37.5q-53 43.5 -82 120.5t-29 176v32q0 99 29 176t82 120.5t123 43.5t123 -43.5t82 -120.5t29 -176v-32q0 -99 -29 -176t-82 -120.5t-123 -43.5t-123 43.5zM497 537.5q-28 75.5 -79.5 118t-118.5 42.5t-118.5 -42.5t-79.5 -118t-28 -171.5v-32q0 -96 28 -171.5
t79.5 -118t118.5 -42.5t118.5 42.5t79.5 118t28 171.5v32q0 96 -28 171.5z" />
    <glyph glyph-name="one" unicode="1" horiz-adv-x="268" 
d="M178 700v-700h-8v561q-6 -10 -16.5 -15.5t-25.5 -5.5h-128v8h128q21 0 31.5 11.5t10.5 32.5v108h8z" />
    <glyph glyph-name="two" unicode="2" horiz-adv-x="551" 
d="M321 270q4 3 7 6.5t7 7.5q45 42 72.5 73t47 70.5t19.5 85.5q0 85 -55 135t-149 50q-93 0 -147.5 -54.5t-54.5 -148.5v-16h-8v16q0 65 25.5 112.5t73 73t111.5 25.5q98 0 155 -52t57 -141q0 -46 -18.5 -85.5t-46 -71t-74.5 -77.5l-17 -16l-265 -255h434v-8h-445v8z" />
    <glyph glyph-name="three" unicode="3" horiz-adv-x="589" 
d="M123.5 46.5q-63.5 52.5 -63.5 143.5h8q0 -88 61.5 -138t162.5 -50q64 0 115 23.5t80 65t29 93.5q0 83 -62.5 127t-167.5 44h-47v8h47q61 0 109 22.5t74.5 61.5t26.5 87q0 47 -26 84.5t-72.5 58.5t-105.5 21q-92 0 -148 -47t-56 -127h-8q0 85 58 133.5t154 48.5
q62 0 110.5 -22t75 -61t26.5 -89q0 -70 -49.5 -118t-132.5 -56v0q62 -5 107.5 -26t70 -59t24.5 -91q0 -54 -29.5 -97.5t-82.5 -68t-120 -24.5q-105 0 -168.5 52.5z" />
    <glyph glyph-name="four" unicode="4" horiz-adv-x="577" 
d="M415 700h8v-491h129v-8h-129v-201h-8v201h-383v8zM415 209v479l-373 -479h373z" />
    <glyph glyph-name="five" unicode="5" horiz-adv-x="577" 
d="M473 700v-8h-354l-26 -359l-1 2q25 55 81 88t124 33q66 0 116 -29.5t77 -81.5t27 -118q0 -73 -31.5 -126t-83.5 -80t-113 -27q-66 0 -115 27.5t-76 73.5t-31 101h8q5 -53 31 -97t73 -70.5t110 -26.5q58 0 108.5 26.5t81 77.5t30.5 121q0 63 -26 113.5t-74 79t-112 28.5
q-72 0 -127.5 -36t-77.5 -96l-8 2l28 382h361z" />
    <glyph glyph-name="six" unicode="6" horiz-adv-x="598" 
d="M190 26.5q-51 32.5 -79 91.5q-22 46 -34 108.5t-12 126.5q0 102 26 181.5t80 125.5t136 46q58 0 101 -23t69 -63t35 -91h-8q-15 76 -64.5 122.5t-132.5 46.5q-117 0 -175.5 -95t-58.5 -250q0 -45 5.5 -88t16.5 -80q0 2 -0.5 3.5t-0.5 3.5q-2 20 -2 32q0 67 28.5 119
t79.5 81.5t117 29.5t115 -29t75 -81.5t26 -119.5t-27.5 -119t-77.5 -81.5t-116 -29.5q-71 0 -122 32.5zM424 30q48 28 74.5 78.5t26.5 115.5t-25 115.5t-72.5 78.5t-110.5 28q-64 0 -113.5 -28t-77 -78.5t-27.5 -115.5t26.5 -115.5t75 -78.5t111.5 -28q64 0 112 28z" />
    <glyph glyph-name="seven" unicode="7" horiz-adv-x="516" 
d="M486 700v-8l-391 -692h-9l391 692h-462v8h471z" />
    <glyph glyph-name="eight" unicode="8" horiz-adv-x="596" 
d="M177 17.5q-53 23.5 -82.5 65t-29.5 94.5q0 48 24 87t67.5 63.5t100.5 31.5v0q-51 7 -89.5 30.5t-60 59.5t-21.5 81q0 51 26.5 91t75 62.5t110.5 22.5t110.5 -22.5t75 -62.5t26.5 -91q0 -45 -21.5 -81t-60 -59.5t-89.5 -30.5v0q57 -7 100.5 -31.5t67.5 -63.5t24 -87
q0 -53 -29.5 -94.5t-82.5 -65t-121 -23.5t-121 23.5zM403.5 384.5q46.5 21.5 72.5 59.5t26 86q0 49 -26 87t-72.5 59.5t-105.5 21.5t-105.5 -21.5t-72.5 -59.5t-26 -87q0 -48 26 -86t72.5 -59.5t105.5 -21.5t105.5 21.5zM414 24.5q51 22.5 80 62t29 90.5t-29 91.5t-80 63.5
t-116 23q-66 0 -117 -22.5t-79.5 -63.5t-28.5 -92t28.5 -91t80 -62t116.5 -22t116 22.5z" />
    <glyph glyph-name="nine" unicode="9" horiz-adv-x="596" 
d="M411 671.5q52 -33.5 77 -90.5q21 -47 32.5 -110t10.5 -127q-1 -115 -30 -194t-84 -118t-134 -38q-84 2 -140.5 48.5t-71.5 133.5h8q15 -83 69 -127.5t135 -46.5q115 -2 176.5 85.5t63.5 256.5q1 44 -4 87.5t-16 82.5l1 -14q2 -18 2 -27q-1 -67 -30 -118.5t-81 -80
t-118 -27.5t-114 31.5t-73.5 83t-24.5 119.5t29.5 118t79 79t116.5 28q69 -1 121 -34.5zM177.5 672q-48.5 -27 -76 -76.5t-28.5 -114.5q-2 -99 53 -161.5t151 -64.5q64 -1 114 26.5t78.5 77.5t29.5 115t-24.5 115.5t-73.5 79t-111 29.5q-64 1 -112.5 -26z" />
    <glyph glyph-name="colon" unicode=":" horiz-adv-x="154" 
d="M68.5 417.5q-3.5 3.5 -3.5 8.5t3.5 8.5t8.5 3.5t8.5 -3.5t3.5 -8.5t-3.5 -8.5t-8.5 -3.5t-8.5 3.5zM68.5 0.5q-3.5 3.5 -3.5 8.5t3.5 8.5t8.5 3.5t8.5 -3.5t3.5 -8.5t-3.5 -8.5t-8.5 -3.5t-8.5 3.5z" />
    <glyph glyph-name="semicolon" unicode=";" horiz-adv-x="154" 
d="M55.5 17.5q3.5 3.5 9.5 3.5q14 0 25.5 -16.5t11.5 -39.5q0 -32 -20 -56.5t-52 -27.5v7q26 2 45 24t19 53t-20 44q-1 -12 -12 -12q-4 0 -7 3t-3 8q0 6 3.5 9.5zM68.5 417.5q-3.5 3.5 -3.5 8.5t3.5 8.5t8.5 3.5t8.5 -3.5t3.5 -8.5t-3.5 -8.5t-8.5 -3.5t-8.5 3.5z" />
    <glyph glyph-name="less" unicode="&#x3c;" 
d="M88 289l359 178v-9l-350 -174l350 -173v-9l-359 177v10z" />
    <glyph glyph-name="equal" unicode="=" 
d="M88 176h359v-8h-359v8zM88 376h359v-8h-359v8z" />
    <glyph glyph-name="greater" unicode="&#x3e;" 
d="M447 279l-359 -177v9l350 173l-350 174v9l359 -178v-10z" />
    <glyph glyph-name="question" unicode="?" horiz-adv-x="486" 
d="M75 606q25 47 70.5 73.5t104.5 26.5q53 0 94.5 -21t64 -57.5t22.5 -81.5q0 -37 -11 -66t-29 -51.5t-44 -43.5l-22 -18q-42 -31 -63 -57.5t-21 -68.5v-46h-8v46q0 30 12 53.5t29 40t46 39.5q5 4 10.5 8t10.5 8q40 34 61 68.5t21 87.5q0 43 -22 77.5t-61.5 54.5t-89.5 20
q-57 0 -100.5 -25t-67.5 -70.5t-24 -103.5h-8q0 60 25 107zM228.5 0.5q-3.5 3.5 -3.5 8.5t3.5 8.5t8.5 3.5t8.5 -3.5t3.5 -8.5t-3.5 -8.5t-8.5 -3.5t-8.5 3.5z" />
    <glyph glyph-name="at" unicode="@" horiz-adv-x="984" 
d="M563.5 91q45.5 31 71.5 86.5t26 125.5q0 72 -43 116.5t-113 44.5q-55 0 -103 -31t-77 -83t-29 -111q0 -50 20 -91t57.5 -64.5t86.5 -23.5q58 0 103.5 31zM267 -105q-98 51 -152.5 143.5t-54.5 212.5q0 118 61 216t165 155.5t229 57.5q118 0 211 -46.5t145.5 -128.5
t52.5 -186q0 -74 -25 -135.5t-68 -96.5t-95 -35q-45 0 -68.5 30t-17.5 86l4 39q-20 -72 -73.5 -113.5t-120.5 -41.5q-52 0 -91 24.5t-60 67t-21 95.5q0 62 29.5 115.5t79.5 85.5t108 32q64 0 108.5 -38t52.5 -98l12 126h8l-28 -294q-5 -52 16.5 -80t62.5 -28q49 0 90 34.5
t65 94t24 130.5q0 102 -51.5 182.5t-142.5 125.5t-207 45q-121 0 -224 -56t-163 -152.5t-60 -212.5q0 -118 53.5 -208.5t149.5 -140.5t221 -50q71 0 134 18t107 51l1 -8q-41 -31 -107 -50t-135 -19q-127 0 -225 51z" />
    <glyph glyph-name="A" unicode="A" horiz-adv-x="610" 
d="M300 700h10l275 -700h-9l-98 250h-346l-98 -250h-9zM475 258l-170 432l-170 -432h340z" />
    <glyph glyph-name="B" unicode="B" horiz-adv-x="605" 
d="M303 700q97 0 149.5 -46t52.5 -127q0 -68 -37.5 -111.5t-107.5 -55.5q87 -11 133.5 -55t46.5 -118q0 -88 -60 -137.5t-177 -49.5h-225v700h225zM86 363h217q92 0 143 43.5t51 120.5t-50.5 121t-143.5 44h-217v-329zM86 8h217q113 0 171 47.5t58 131.5q0 81 -59.5 124.5
t-169.5 43.5h-217v-347z" />
    <glyph glyph-name="C" unicode="C" horiz-adv-x="691" 
d="M202.5 39q-70.5 45 -109 126t-38.5 184q0 104 38.5 185t109 126.5t163.5 45.5q69 0 123 -23t91.5 -68t55.5 -111h-8q-28 95 -95 144.5t-167 49.5q-91 0 -159.5 -44.5t-106 -124t-37.5 -180.5t37.5 -180.5t106 -123.5t159.5 -44q101 0 167 49.5t93 146.5h8
q-18 -67 -54.5 -112.5t-90 -68t-123.5 -22.5q-93 0 -163.5 45z" />
    <glyph glyph-name="D" unicode="D" horiz-adv-x="646" 
d="M78 700h161q112 0 191 -42.5t120 -121t41 -186.5t-41 -186.5t-120 -121t-191 -42.5h-161v700zM239 8q109 0 186.5 41.5t117.5 118.5t40 182q0 106 -40 182.5t-117.5 118t-186.5 41.5h-153v-684h153z" />
    <glyph glyph-name="E" unicode="E" horiz-adv-x="531" 
d="M487 699v-8h-401v-328h340v-8h-340v-348h415v-8h-423v700h409z" />
    <glyph glyph-name="F" unicode="F" horiz-adv-x="487" 
d="M467 700v-8h-381v-338h320v-8h-320v-346h-8v700h389z" />
    <glyph glyph-name="G" unicode="G" horiz-adv-x="727" 
d="M197 39q-68 45 -105 126t-37 184q0 104 37.5 185t107.5 126.5t163 45.5q69 0 123 -23t92 -68t56 -111h-9q-28 95 -95 144.5t-167 49.5q-90 0 -158 -44.5t-105 -123.5t-37 -181q0 -101 36.5 -180t102 -123.5t151.5 -44.5q92 0 157 41.5t98 109.5t33 147v39h-257v8h265
v-346h-8v229q-21 -103 -95 -169t-193 -66q-88 0 -156 45z" />
    <glyph glyph-name="H" unicode="H" horiz-adv-x="636" 
d="M86 701v-338h464v338h8v-701h-8v355h-464v-355h-8v701h8z" />
    <glyph glyph-name="I" unicode="I" horiz-adv-x="164" 
d="M86 700v-700h-8v700h8z" />
    <glyph glyph-name="J" unicode="J" horiz-adv-x="323" 
d="M245 700v-581q0 -62 -28.5 -90.5t-90.5 -28.5h-96v8h96q59 0 85 26.5t26 84.5v581h8z" />
    <glyph glyph-name="K" unicode="K" horiz-adv-x="572" 
d="M86 700v-503l435 503h10l-251 -290l277 -410h-10l-273 403l-188 -218v-185h-8v700h8z" />
    <glyph glyph-name="L" unicode="L" horiz-adv-x="464" 
d="M78 700h8v-692h358v-8h-366v700z" />
    <glyph glyph-name="M" unicode="M" horiz-adv-x="790" 
d="M90 700l305 -691l305 691h12v-700h-8v689l-304 -689h-10l-304 689v-689h-8v700h12z" />
    <glyph glyph-name="N" unicode="N" horiz-adv-x="642" 
d="M78 700h10l468 -687v687h8v-700h-10l-468 688v-688h-8v700z" />
    <glyph glyph-name="O" unicode="O" horiz-adv-x="744" 
d="M536 660.5q72 -45.5 112.5 -126.5t40.5 -184t-40.5 -184t-112.5 -126.5t-164 -45.5t-164 45.5t-112.5 126.5t-40.5 184t40.5 184t112.5 126.5t164 45.5t164 -45.5zM212 654q-70 -44 -109.5 -123.5t-39.5 -180.5t39.5 -180.5t109.5 -123.5t160 -44t160 44t109.5 123.5
t39.5 180.5t-39.5 180.5t-109.5 123.5t-160 44t-160 -44z" />
    <glyph glyph-name="P" unicode="P" horiz-adv-x="552" 
d="M325 700q60 0 106 -24.5t71 -67.5t25 -97t-25 -96.5t-71.5 -66.5t-106.5 -24h-238v-324h-8v700h247zM86 332h238q58 0 102.5 23t68.5 64t24 92q0 52 -24 93t-68 64.5t-102 23.5h-239v-360z" />
    <glyph glyph-name="Q" unicode="Q" horiz-adv-x="745" 
d="M430 199q26 0 40.5 -8t34.5 -36l1 -2l70 -103q19 -27 34 -34.5t45 -7.5h46v-8h-46q-33 0 -50 8t-36 37l-70 104q-18 26 -32 34t-37 8h-63v8h63zM536 660.5q72 -45.5 112.5 -126.5t40.5 -184t-40.5 -184t-112.5 -126.5t-164 -45.5t-164 45.5t-112.5 126.5t-40.5 184
t40.5 184t112.5 126.5t164 45.5t164 -45.5zM212 654q-70 -44 -109.5 -123.5t-39.5 -180.5t39.5 -180.5t109.5 -123.5t160 -44t160 44t109.5 123.5t39.5 180.5t-39.5 180.5t-109.5 123.5t-160 44t-160 -44z" />
    <glyph glyph-name="R" unicode="R" horiz-adv-x="572" 
d="M325 700q61 0 106.5 -23t70.5 -66t25 -100q0 -81 -50.5 -131.5t-135.5 -55.5l179 -324h-10l-179 324h-245v-324h-8v700h247zM86 332h238q89 0 142 48.5t53 130.5q0 83 -53 132t-141 49h-239v-360z" />
    <glyph glyph-name="S" unicode="S" horiz-adv-x="584" 
d="M172 19.5q-52 24.5 -82.5 70.5t-34.5 107h8q5 -89 67 -141.5t162 -52.5q106 0 167.5 48t61.5 131q0 57 -31.5 91t-79.5 50.5t-119 28.5l-5 1q-74 13 -116.5 27t-72 47.5t-29.5 93.5q0 58 28 100t80 64t123 22q61 0 109 -22t77 -62t36 -95l-8 -1q-11 80 -68 126t-146 46
q-103 0 -163 -47t-60 -131q0 -58 28.5 -90t71 -45t114.5 -26h1q73 -12 123 -29t82.5 -53t32.5 -96q0 -57 -29 -99.5t-82.5 -65t-125.5 -22.5q-68 0 -120 24.5z" />
    <glyph glyph-name="T" unicode="T" horiz-adv-x="564" 
d="M544 700v-8h-258v-692h-8v692h-258v8h524z" />
    <glyph glyph-name="U" unicode="U" horiz-adv-x="633" 
d="M83 700v-424q0 -139 56 -206.5t176 -67.5q122 0 178.5 67.5t56.5 206.5v424h8v-424q0 -143 -58.5 -212.5t-184.5 -69.5q-125 0 -182.5 69.5t-57.5 212.5v424h8z" />
    <glyph glyph-name="V" unicode="V" horiz-adv-x="598" 
d="M29 700l270 -690l270 690h9l-274 -700h-10l-274 700h9z" />
    <glyph glyph-name="W" unicode="W" horiz-adv-x="952" 
d="M39 700l220 -687l212 687h10l210 -687l222 687h9l-226 -700h-10l-210 687l-212 -687h-10l-224 700h9z" />
    <glyph glyph-name="X" unicode="X" horiz-adv-x="593" 
d="M51 700h10l236 -336l235 336h10l-240 -342l255 -358h-10l-250 351l-251 -351h-10l256 357z" />
    <glyph glyph-name="Y" unicode="Y" horiz-adv-x="597" 
d="M30 701l268 -435l269 435h10l-275 -444v-257h-8v257l-274 444h10z" />
    <glyph glyph-name="Z" unicode="Z" horiz-adv-x="603" 
d="M568 700v-8l-523 -684h523v-8h-533v8l523 684h-488v8h498z" />
    <glyph glyph-name="bracketleft" unicode="[" horiz-adv-x="263" 
d="M238 701v-8h-152v-885h152v-8h-160v901h160z" />
    <glyph glyph-name="backslash" unicode="\" horiz-adv-x="302" 
d="M9 700h-9l293 -900h9z" />
    <glyph glyph-name="bracketright" unicode="]" horiz-adv-x="263" 
d="M25 -201v8h152v885h-152v8h160v-901h-160z" />
    <glyph glyph-name="asciicircum" unicode="^" horiz-adv-x="499" 
d="M244 700h10l189 -312h-9l-185 305l-184 -305h-9z" />
    <glyph glyph-name="underscore" unicode="_" horiz-adv-x="502" 
d="M70 -6h362v-8h-362v8z" />
    <glyph glyph-name="grave" unicode="`" horiz-adv-x="400" 
d="M106 700l99 -127h-10l-99 127h10z" />
    <glyph glyph-name="a" unicode="a" horiz-adv-x="529" 
d="M129 473.5q50 36.5 128 36.5q91 0 140.5 -47t49.5 -132v-257q0 -30 17 -48t45 -18h10v-8h-10q-32 0 -51 20t-19 54v79l1 -2q-17 -72 -76 -114.5t-152 -42.5q-77 0 -122 37.5t-45 101.5q0 65 50 102.5t143 37.5h201v58q0 81 -47.5 126t-134.5 45q-75 0 -122 -33.5
t-59 -91.5h-8q11 60 61 96.5zM238 265q-89 0 -137 -35.5t-48 -96.5q0 -60 43 -95.5t116 -35.5q71 0 122 25.5t78 71t27 102.5v64h-201z" />
    <glyph glyph-name="b" unicode="b" horiz-adv-x="575" 
d="M73 700v-383l-1 1q18 87 78 139.5t145 52.5q67 0 119 -33t81.5 -92t29.5 -133q0 -75 -29.5 -133.5t-81.5 -91.5t-119 -33q-85 0 -145 52t-78 140l1 1v-187h-8v700h8zM180.5 470q-50.5 -32 -79 -89t-28.5 -129q0 -73 28.5 -129.5t79 -88.5t114.5 -32t114.5 32t79 88.5
t28.5 129.5q0 72 -28.5 129t-79 89t-114.5 32t-114.5 -32z" />
    <glyph glyph-name="c" unicode="c" horiz-adv-x="529" 
d="M411.5 35.5q-54.5 -41.5 -131.5 -41.5q-67 0 -119 33t-81.5 92t-29.5 134t29.5 133.5t81.5 91t119 32.5q77 0 132 -42t69 -112h-8q-14 67 -66.5 106.5t-126.5 39.5q-64 0 -114.5 -31.5t-79 -88t-28.5 -129.5t28.5 -130t79 -89t114.5 -32q74 0 126 39t67 106h8
q-15 -70 -69.5 -111.5z" />
    <glyph glyph-name="d" unicode="d" horiz-adv-x="575" 
d="M510 700v-700h-8v187l1 -1q-18 -88 -78 -140t-145 -52q-67 0 -119 33t-81.5 91.5t-29.5 133.5q0 74 29.5 133t81.5 92t119 33q85 0 145 -52.5t78 -139.5l-1 -1v383h8zM165.5 470q-50.5 -32 -79 -89t-28.5 -129q0 -73 28.5 -129.5t79 -88.5t114.5 -32t114.5 32t79 88.5
t28.5 129.5q0 72 -28.5 129t-79 89t-114.5 32t-114.5 -32z" />
    <glyph glyph-name="e" unicode="e" horiz-adv-x="546" 
d="M161.5 27q-52.5 33 -82 92t-29.5 134t28.5 133.5t79 91t115.5 32.5q63 0 112 -27.5t78.5 -80.5t32.5 -127v-1.5v-1.5h-437q-1 -5 -1 -9.5v-9.5q0 -72 28.5 -129.5t79 -89.5t113.5 -32q72 0 127 44.5t74 118.5h8q-12 -51 -42.5 -90t-73.5 -60t-93 -21q-65 0 -117.5 33z
M168 474q-47 -28 -75.5 -78.5t-33.5 -115.5h428q-7 105 -65 163.5t-149 58.5q-58 0 -105 -28z" />
    <glyph glyph-name="f" unicode="f" horiz-adv-x="265" 
d="M100 504v98q0 52 23 75t75 23h74v-8h-74q-49 0 -69.5 -20.5t-20.5 -69.5v-98h163v-8h-163v-496h-8v496h-101v8h101z" />
    <glyph glyph-name="g" unicode="g" horiz-adv-x="575" 
d="M142 -165.5q-57 40.5 -72 115.5h9q14 -71 68.5 -109.5t137.5 -38.5q111 0 164 56.5t53 181.5v148l1 -1q-18 -88 -78 -140.5t-145 -52.5q-67 0 -119 33t-81.5 92t-29.5 134t29 133.5t81.5 91t119.5 32.5q85 0 145 -52t78 -139l-1 -1v186h8v-464q0 -130 -55.5 -188
t-169.5 -58q-86 0 -143 40.5zM394.5 34q50.5 32 79 89.5t28.5 130.5q0 72 -28.5 128.5t-79 88t-114.5 31.5t-114.5 -32t-79 -88.5t-28.5 -128.5q0 -73 28.5 -130t79 -89t114.5 -32t114.5 32z" />
    <glyph glyph-name="h" unicode="h" horiz-adv-x="528" 
d="M73 700v-385l-1 1q17 91 71 142.5t135 51.5q88 0 139 -58.5t51 -166.5v-285h-8v285q0 104 -49 160.5t-133 56.5q-62 0 -108.5 -32t-71.5 -91t-25 -137v-242h-8v700h8z" />
    <glyph glyph-name="i" unicode="i" horiz-adv-x="138" 
d="M73 504v-504h-8v504h8zM77.5 670.5q3.5 -3.5 3.5 -8.5t-3.5 -8.5t-8.5 -3.5t-8.5 3.5t-3.5 8.5t3.5 8.5t8.5 3.5t8.5 -3.5z" />
    <glyph glyph-name="j" unicode="j" horiz-adv-x="144" 
d="M83.5 670.5q3.5 -3.5 3.5 -8.5t-3.5 -8.5t-8.5 -3.5t-8.5 3.5t-3.5 8.5t3.5 8.5t8.5 3.5t8.5 -3.5zM-19 -192q49 0 69.5 20.5t20.5 69.5v606h8v-606q0 -52 -23 -75t-75 -23h-53v8h53z" />
    <glyph glyph-name="k" unicode="k" horiz-adv-x="468" 
d="M73 700v-548l349 352h11l-212 -213l232 -291h-10l-228 285l-142 -143v-142h-8v700h8z" />
    <glyph glyph-name="l" unicode="l" horiz-adv-x="138" 
d="M73 700v-700h-8v700h8z" />
    <glyph glyph-name="m" unicode="m" horiz-adv-x="865" 
d="M72 504v-191v1q14 91 64.5 143.5t125.5 52.5t121.5 -49t53.5 -140h-1q16 87 66.5 138t125.5 51q81 0 129 -59t48 -166v-285h-8v285q0 104 -45.5 160.5t-123.5 56.5q-81 0 -131.5 -60.5t-57.5 -160.5v-281h-8v285q0 104 -45.5 160.5t-123.5 56.5q-57 0 -100 -32t-66.5 -91
t-23.5 -137v-242h-7v504h7z" />
    <glyph glyph-name="n" unicode="n" horiz-adv-x="528" 
d="M73 504v-189l-1 1q17 91 71 142.5t135 51.5q88 0 139 -58.5t51 -166.5v-285h-8v285q0 104 -49 160.5t-133 56.5q-62 0 -108.5 -32t-71.5 -91t-25 -137v-242h-8v504h8z" />
    <glyph glyph-name="o" unicode="o" horiz-adv-x="560" 
d="M394.5 33.5q50.5 31.5 79 88.5t28.5 130t-28.5 130t-79 88.5t-114.5 31.5t-114.5 -31.5t-79 -88.5t-28.5 -130t28.5 -130t79 -88.5t114.5 -31.5t114.5 31.5zM161 27q-52 33 -81.5 91.5t-29.5 133.5t29.5 133.5t81.5 91.5t119 33t119 -33t81.5 -91.5t29.5 -133.5
t-29.5 -133.5t-81.5 -91.5t-119 -33t-119 33z" />
    <glyph glyph-name="p" unicode="p" horiz-adv-x="575" 
d="M414 477q52 -33 81.5 -92t29.5 -133q0 -75 -29.5 -133.5t-81.5 -91.5t-119 -33q-85 0 -145 52t-78 140l1 1v-387h-8v704h8v-187l-1 1q18 87 78 139.5t145 52.5q67 0 119 -33zM180.5 470q-50.5 -32 -79 -89t-28.5 -129q0 -73 28.5 -129.5t79 -88.5t114.5 -32t114.5 32
t79 88.5t28.5 129.5q0 72 -28.5 129t-79 89t-114.5 32t-114.5 -32z" />
    <glyph glyph-name="q" unicode="q" horiz-adv-x="575" 
d="M425 457.5q60 -52.5 78 -139.5l-1 -1v187h8v-704h-8v387l1 -1q-18 -88 -78 -140t-145 -52q-67 0 -119 33t-81.5 91.5t-29.5 133.5q0 74 29.5 133t81.5 92t119 33q85 0 145 -52.5zM165.5 470q-50.5 -32 -79 -89t-28.5 -129q0 -73 28.5 -129.5t79 -88.5t114.5 -32t114.5 32
t79 88.5t28.5 129.5q0 72 -28.5 129t-79 89t-114.5 32t-114.5 -32z" />
    <glyph glyph-name="r" unicode="r" horiz-adv-x="281" 
d="M73 504v-155v1q11 74 48.5 114t111.5 40h22v-8h-22q-93 0 -126.5 -63.5t-33.5 -180.5v-252h-8v504h8z" />
    <glyph glyph-name="s" unicode="s" horiz-adv-x="484" 
d="M105 31.5q-54 37.5 -58 108.5h8q4 -67 57 -102.5t139 -35.5q76 0 127 34t51 91q0 42 -24.5 67t-63 37t-96.5 22h-2l-11 2q-57 9 -92 19.5t-59.5 35t-24.5 68.5q0 39 23 69t65 46.5t96 16.5q79 0 130.5 -34t60.5 -99h-8q-10 62 -58.5 93.5t-124.5 31.5q-79 0 -127.5 -34.5
t-48.5 -89.5q0 -41 23.5 -64t57 -32.5t92.5 -19.5q2 0 3.5 -0.5t3.5 -0.5q61 -10 101 -22.5t66 -39.5t26 -72q0 -40 -24.5 -70.5t-67 -46.5t-94.5 -16q-92 0 -146 37.5z" />
    <glyph glyph-name="t" unicode="t" horiz-adv-x="272" 
d="M123 23q-23 23 -23 75v398h-101v8h101v140h8v-140h143v-8h-143v-398q0 -49 20.5 -69.5t69.5 -20.5h53v-8h-53q-52 0 -75 23z" />
    <glyph glyph-name="u" unicode="u" horiz-adv-x="522" 
d="M111 53q-51 59 -51 166v285h8v-285q0 -104 49 -160.5t130 -56.5q60 0 106 32t71 91t25 137v242h8v-504h-8v189l1 -1q-17 -91 -70.5 -142.5t-132.5 -51.5q-85 0 -136 59z" />
    <glyph glyph-name="v" unicode="v" horiz-adv-x="454" 
d="M24 504l203 -492l203 492h9l-208 -504h-8l-208 504h9z" />
    <glyph glyph-name="w" unicode="w" horiz-adv-x="770" 
d="M24 504l177 -490l180 490h9l168 -490l188 490h9l-193 -504h-8l-169 492l-180 -492h-8l-182 504h9z" />
    <glyph glyph-name="x" unicode="x" horiz-adv-x="442" 
d="M21 504h10l190 -241l190 241h10l-195 -248l201 -256h-11l-195 249l-196 -249h-10l201 256z" />
    <glyph glyph-name="y" unicode="y" horiz-adv-x="454" 
d="M24 504l203 -492l203 492h9l-252 -610q-17 -42 -29.5 -60.5t-29.5 -26t-48 -7.5h-50v8h50q30 0 46 7.5t26.5 24.5t26.5 57l43 104l-207 503h9z" />
    <glyph glyph-name="z" unicode="z" horiz-adv-x="451" 
d="M414 504v-10l-383 -486h398v-8h-407v10l383 486h-368v8h377z" />
    <glyph glyph-name="braceleft" unicode="{" horiz-adv-x="311" 
d="M150 89l-20 -108q-5 -28 -5 -47q0 -61 35 -93.5t101 -32.5h25v-8h-25q-68 0 -106 35t-38 99q0 20 5 48l20 108q6 29 6 52q0 47 -29 74.5t-84 29.5v8q55 2 84 29.5t29 74.5q0 24 -6 52l-20 108q-5 28 -5 48q0 64 38 99t106 35h25v-8h-25q-66 0 -101 -32.5t-35 -93.5
q0 -13 4 -43q1 -1 1 -2v-2l20 -108q6 -28 6 -51q0 -30 -11 -53t-32.5 -37.5t-51.5 -19.5v0q30 -5 51.5 -19.5t32.5 -37.5t11 -53q0 -22 -6 -51z" />
    <glyph glyph-name="bar" unicode="|" horiz-adv-x="164" 
d="M86 700v-900h-8v900h8z" />
    <glyph glyph-name="braceright" unicode="}" horiz-adv-x="311" 
d="M161 89l20 -108q5 -28 5 -47q0 -61 -35 -93.5t-101 -32.5h-25v-8h25q68 0 106 35t38 99q0 20 -5 48l-20 108q-6 29 -6 52q0 47 29 74.5t84 29.5v8q-55 2 -84 29.5t-29 74.5q0 24 6 52l20 108q5 28 5 48q0 64 -38 99t-106 35h-25v-8h25q66 0 101 -32.5t35 -93.5
q0 -13 -4 -43q-1 -1 -1 -2v-2l-20 -108q-6 -28 -6 -51q0 -30 11 -53t32.5 -37.5t51.5 -19.5v0q-30 -5 -51.5 -19.5t-32.5 -37.5t-11 -53q0 -22 6 -51z" />
    <glyph glyph-name="asciitilde" unicode="~" 
d="M120 300q-24 -26 -24 -66h-8q0 43 26.5 71t67.5 28q27 0 45.5 -11t42.5 -33q22 -21 40.5 -32t43.5 -11q38 0 62 26t24 65h8q0 -43 -26 -71t-68 -28q-28 0 -46.5 11t-42.5 34q-23 21 -40.5 31.5t-42.5 10.5q-38 1 -62 -25z" />
    <glyph glyph-name="exclamdown" unicode="&#xa1;" horiz-adv-x="180" 
d="M98 0h8v504h-8v-504zM93.5 699.5q-3.5 -3.5 -3.5 -8.5t3.5 -8.5t8.5 -3.5t8.5 3.5t3.5 8.5t-3.5 8.5t-8.5 3.5t-8.5 -3.5z" />
    <glyph glyph-name="cent" unicode="&#xa2;" horiz-adv-x="529" 
d="M290 700v-107h-8v107h8zM282 91h8v-91h-8v91zM411.5 126.5q-54.5 -41.5 -131.5 -41.5q-67 0 -119 33t-81.5 92t-29.5 134t29.5 133.5t81.5 91t119 32.5q77 0 132 -42t69 -112h-8q-14 67 -66.5 106.5t-126.5 39.5q-64 0 -114.5 -31.5t-79 -88t-28.5 -129.5t28.5 -130
t79 -89t114.5 -32q74 0 126 39t67 106h8q-15 -70 -69.5 -111.5z" />
    <glyph glyph-name="sterling" unicode="&#xa3;" horiz-adv-x="603" 
d="M156 341q-2 13 -5 25t-5 24q-8 35 -12.5 62.5t-4.5 57.5q0 54 27 99t73.5 71t101.5 26q61 0 104 -20.5t70 -61t38 -100.5h-8q-17 86 -67 130t-137 44q-53 0 -97.5 -25t-70.5 -68t-26 -95q0 -27 4 -52.5t12 -63.5q3 -13 6 -26.5t5 -26.5h241v-8h-239q16 -92 -6 -171.5
t-84 -153.5h466v-8h-478v7q63 73 87 154.5t6 171.5h-97v8h96z" />
    <glyph glyph-name="currency" unicode="&#xa4;" horiz-adv-x="591" 
d="M153 499q29 26 66 40.5t77 14.5t77 -14.5t66 -40.5l81 82l6 -6l-81 -82q30 -29 47 -68.5t17 -83.5q0 -41 -14.5 -78t-40.5 -66l72 -72l-5 -5l-72 72q-30 -30 -69.5 -47t-83.5 -17t-83.5 17t-69.5 47l-72 -72l-6 6l72 72q-25 29 -39.5 66t-14.5 77q0 44 17 83.5t47 68.5
l-81 82l5 5zM193 518.5q-47 -27.5 -74.5 -74.5t-27.5 -103t27.5 -103t74.5 -74.5t103 -27.5t103 27.5t74.5 74.5t27.5 103t-27.5 103t-74.5 74.5t-103 27.5t-103 -27.5z" />
    <glyph glyph-name="yen" unicode="&#xa5;" horiz-adv-x="597" 
d="M30 701l268 -435l269 435h10l-275 -444v-257h-8v257l-274 444h10zM83 264h430v-8h-430v8zM83 113h430v-8h-430v8z" />
    <glyph glyph-name="brokenbar" unicode="&#xa6;" horiz-adv-x="164" 
d="M86 700v-381h-8v381h8zM86 182v-382h-8v382h8z" />
    <glyph glyph-name="section" unicode="&#xa7;" horiz-adv-x="538" 
d="M416 196.5q44 34.5 44 94.5q0 42 -24.5 68.5t-60 41t-97.5 32.5l-4 1l-14 4q-50 14 -80.5 27t-51.5 40t-21 71q0 57 47 93.5t122 36.5q65 0 109 -35.5t47 -97.5h-8q-3 60 -44.5 92.5t-103.5 32.5q-72 0 -116.5 -34t-44.5 -88q0 -42 20 -67t49.5 -37.5t78.5 -26.5
q3 -1 6 -1.5t6 -1.5q4 -1 7 -2t7 -2q58 -16 94.5 -32t60.5 -43.5t24 -71.5q0 -64 -44.5 -99.5t-115.5 -43.5l-6 6q70 8 114 42.5zM122 404q-44 -34 -44 -94q0 -43 24.5 -69.5t60 -41t97.5 -32.5l4 -1l8 -2l8 -2q52 -15 81 -27.5t49.5 -39t20.5 -70.5q0 -58 -45 -94.5
t-116 -36.5q-68 0 -114.5 35.5t-49.5 97.5h8q3 -59 47 -92t109 -33q68 0 110.5 34t42.5 89q0 42 -20 66.5t-48.5 37t-77.5 25.5l-14 4l-14 4q-58 16 -94.5 32t-60.5 44t-24 72q0 63 45 98.5t116 43.5l5 -6q-70 -8 -114 -42z" />
    <glyph glyph-name="dieresis" unicode="&#xa8;" horiz-adv-x="400" 
d="M117.5 664.5q3.5 3.5 8.5 3.5t8.5 -3.5t3.5 -8.5t-3.5 -8.5t-8.5 -3.5t-8.5 3.5t-3.5 8.5t3.5 8.5zM265.5 664.5q3.5 3.5 8.5 3.5t8.5 -3.5t3.5 -8.5t-3.5 -8.5t-8.5 -3.5t-8.5 3.5t-3.5 8.5t3.5 8.5z" />
    <glyph glyph-name="copyright" unicode="&#xa9;" horiz-adv-x="835" 
d="M528 183q-45 -39 -111 -39q-59 0 -102 28.5t-65.5 76t-22.5 104.5q0 56 22.5 103t65.5 75t102 28q66 0 111 -39.5t60 -104.5h-8q-15 62 -57.5 99t-105.5 37q-56 0 -97.5 -26.5t-63 -72t-21.5 -99.5t21.5 -100t63 -73.5t97.5 -27.5q63 0 105 37t58 98h8q-15 -65 -60 -104z
M237 41.5q-82 47.5 -129.5 129.5t-47.5 179t47.5 179t129.5 129.5t180 47.5t180 -47.5t130 -129.5t48 -179t-48 -179t-130 -129.5t-180 -47.5t-180 47.5zM593.5 48.5q80.5 46.5 127 126.5t46.5 175t-46.5 175t-127 126.5t-176.5 46.5t-176 -46.5t-126.5 -126.5t-46.5 -175
t46.5 -175t126.5 -126.5t176 -46.5t176.5 46.5z" />
    <glyph glyph-name="ordfeminine" unicode="&#xaa;" horiz-adv-x="431" 
d="M100.5 404q-28.5 24 -28.5 65t30.5 64.5t86.5 23.5h127v36q0 50 -28.5 77.5t-82.5 27.5q-48 0 -77.5 -25t-36.5 -68h-8q6 46 39 73.5t83 27.5q57 0 88 -29.5t31 -83.5v-160q0 -19 9 -29t26 -10h17v-8h-17q-20 0 -31.5 12.5t-11.5 34.5v49q-13 -42 -48.5 -72t-88.5 -30
q-50 0 -78.5 24zM251 407.5q31 19.5 48 52t17 69.5v20h-127q-52 0 -80.5 -21.5t-28.5 -58.5q0 -38 26.5 -59.5t72.5 -21.5q41 0 72 19.5zM376 278v-8h-311v8h311z" />
    <glyph glyph-name="guillemotleft" unicode="&#xab;" horiz-adv-x="516" 
d="M76 252l166 -252h-9l-168 252l168 252h9zM280 251l166 -252h-9l-168 252l168 252h9z" />
    <glyph glyph-name="logicalnot" unicode="&#xac;" 
d="M410 323v-179h-8v171h-324v8h332z" />
    <glyph glyph-name="registered" unicode="&#xae;" horiz-adv-x="511" 
d="M265 631q32 0 49.5 -17t17.5 -45q0 -26 -16.5 -42.5t-43.5 -18.5l60 -105h-10l-60 105h-68v-105h-8v228h79zM194 516h71q25 0 42 14t17 39q0 26 -16.5 40t-42.5 14h-71v-107zM158.5 352q-43.5 25 -68.5 68.5t-25 95.5q0 53 25 96.5t68.5 69t96.5 25.5t97 -25t69 -68.5
t25 -96.5t-25 -96.5t-69 -68.5t-97 -25t-96.5 25zM348 359q42 24 66 66t24 92t-24 92t-66 66t-93 24q-50 0 -92 -24t-66 -66t-24 -93q0 -50 24 -91.5t66 -65.5t92 -24q51 0 93 24z" />
    <glyph glyph-name="macron" unicode="&#xaf;" horiz-adv-x="400" 
d="M85 660h230v-8h-230v8z" />
    <glyph glyph-name="degree" unicode="&#xb0;" horiz-adv-x="429" 
d="M144.5 434q-32.5 19 -51.5 51.5t-19 70.5t19 71t51.5 52t70.5 19t70.5 -19t51.5 -52t19 -71t-19 -70.5t-51.5 -51.5t-70.5 -19t-70.5 19zM289.5 427q34.5 20 54.5 54.5t20 74.5q0 41 -20 75.5t-54.5 54.5t-74.5 20q-41 0 -75.5 -20t-54.5 -54.5t-20 -75.5q0 -40 20 -74.5
t54.5 -54.5t75.5 -20q40 0 74.5 20z" />
    <glyph glyph-name="plusminus" unicode="&#xb1;" 
d="M78 8h379v-8h-379v8zM271 486v-193h186v-8h-186v-193h-8v193h-185v8h185v193h8z" />
    <glyph glyph-name="uni00B2" unicode="&#xb2;" horiz-adv-x="303" 
d="M39 698q0 50 31.5 79t81.5 29t81 -28t31 -72q0 -37 -19.5 -66t-57.5 -63l-146 -133h229v-8h-240v8l152 139q38 34 56 61t18 62q0 41 -29 66.5t-75 25.5q-47 0 -76 -26.5t-29 -73.5v-8h-8v8z" />
    <glyph glyph-name="uni00B3" unicode="&#xb3;" horiz-adv-x="311" 
d="M73.5 781q32.5 27 83.5 27q49 0 80 -26.5t31 -67.5q0 -35 -24 -58.5t-65 -29.5q46 -7 72.5 -31t26.5 -63q0 -44 -34 -72t-88 -28q-58 0 -92 28.5t-34 78.5h8q0 -47 32.5 -73t85.5 -26q50 0 82 25.5t32 66.5t-33 65.5t-86 24.5h-25v8h25q48 0 78.5 23t30.5 61t-29 62
t-74 24q-49 0 -78.5 -25t-29.5 -67h-8q0 46 32.5 73z" />
    <glyph glyph-name="acute" unicode="&#xb4;" horiz-adv-x="400" 
d="M295 700h10l-99 -127h-10z" />
    <glyph glyph-name="uni00B5" unicode="&#xb5;" horiz-adv-x="527" 
d="M136.5 32.5q-47.5 38.5 -63.5 110.5v-343h-8v704h8v-285q0 -104 49 -160.5t130 -56.5q60 0 106 32t71 91t25 137v242h8v-504h-8v185q-17 -89 -70.5 -140t-131.5 -51q-68 0 -115.5 38.5z" />
    <glyph glyph-name="paragraph" unicode="&#xb6;" horiz-adv-x="576" 
d="M401 244h-135q-70 0 -123.5 29t-83 80.5t-29.5 117.5t29 118t82.5 81.5t123.5 29.5h144v-700h-8v244zM498 700v-700h-8v700h8z" />
    <glyph glyph-name="periodcentered" unicode="&#xb7;" horiz-adv-x="154" 
d="M68.5 278.5q-3.5 3.5 -3.5 8.5t3.5 8.5t8.5 3.5t8.5 -3.5t3.5 -8.5t-3.5 -8.5t-8.5 -3.5t-8.5 3.5z" />
    <glyph glyph-name="cedilla" unicode="&#xb8;" horiz-adv-x="400" 
d="M204 0l-12 -58h23q33 0 54 -19.5t21 -50.5q0 -32 -21.5 -52t-55.5 -20h-71v8h71q31 0 50 17.5t19 46.5q0 27 -19 44.5t-48 17.5h-34l15 66h8z" />
    <glyph glyph-name="uni00B9" unicode="&#xb9;" horiz-adv-x="151" 
d="M90 437v274q-2 -3 -5.5 -5t-9.5 -2h-75v8h75q6 0 10.5 4.5t4.5 10.5v74h8v-364h-8z" />
    <glyph glyph-name="ordmasculine" unicode="&#xba;" horiz-adv-x="411" 
d="M308 661q40 -46 40 -118t-40 -117.5t-103 -45.5t-103 45.5t-40 117.5t40 118t103 46t103 -46zM108 655.5q-38 -43.5 -38 -112.5t38 -112t97 -43t97 43t38 112t-38 112.5t-97 43.5t-97 -43.5zM351 278v-8h-291v8h291z" />
    <glyph glyph-name="guillemotright" unicode="&#xbb;" horiz-adv-x="516" 
d="M440 252l-166 -252h9l168 252l-168 252h-9zM236 251l-166 -252h9l168 252l-168 252h-9z" />
    <glyph glyph-name="onequarter" unicode="&#xbc;" horiz-adv-x="538" 
d="M90 337v274q-2 -3 -5.5 -5t-9.5 -2h-75v8h75q6 0 10.5 4.5t4.5 10.5v74h8v-364h-8zM455 700h10l-444 -700h-10zM464 364v-252h66v-8h-66v-104h-8v104h-201v8l201 252h8zM265 112h191v239z" />
    <glyph glyph-name="onehalf" unicode="&#xbd;" horiz-adv-x="599" 
d="M90 337v274q-2 -3 -5.5 -5t-9.5 -2h-75v8h75q6 0 10.5 4.5t4.5 10.5v74h8v-364h-8zM455 700h10l-444 -700h-10zM340 262q0 50 31.5 79t81.5 29t81 -28t31 -72q0 -37 -19.5 -66t-57.5 -63l-146 -133h229v-8h-240v8l152 139q38 34 56 61t18 62q0 41 -29 66.5t-75 25.5
q-47 0 -76 -26.5t-29 -73.5v-8h-8v8z" />
    <glyph glyph-name="threequarters" unicode="&#xbe;" horiz-adv-x="698" 
d="M73.5 681q32.5 27 83.5 27q49 0 80 -26.5t31 -67.5q0 -35 -24 -58.5t-65 -29.5q46 -7 72.5 -31t26.5 -63q0 -44 -34 -72t-88 -28q-58 0 -92 28.5t-34 78.5h8q0 -47 32.5 -73t85.5 -26q50 0 82 25.5t32 66.5t-33 65.5t-86 24.5h-25v8h25q48 0 78.5 23t30.5 61t-29 62
t-74 24q-49 0 -78.5 -25t-29.5 -67h-8q0 46 32.5 73zM615 700h10l-444 -700h-10zM624 364v-252h66v-8h-66v-104h-8v104h-201v8l201 252h8zM425 112h191v239z" />
    <glyph glyph-name="questiondown" unicode="&#xbf;" horiz-adv-x="486" 
d="M411 94q-25 -47 -70.5 -73.5t-104.5 -26.5q-53 0 -94.5 21t-64 57.5t-22.5 81.5q0 37 11 66t29 51.5t44 43.5l22 18q42 31 63 57.5t21 68.5v46h8v-46q0 -30 -12 -53.5t-29 -40t-46 -39.5q-5 -4 -10.5 -8t-10.5 -8q-40 -34 -61 -68.5t-21 -87.5q0 -43 22 -77.5t61.5 -54.5
t89.5 -20q57 0 100.5 25t67.5 70.5t24 103.5h8q0 -60 -25 -107zM257.5 699.5q3.5 -3.5 3.5 -8.5t-3.5 -8.5t-8.5 -3.5t-8.5 3.5t-3.5 8.5t3.5 8.5t8.5 3.5t8.5 -3.5z" />
    <glyph glyph-name="Agrave" unicode="&#xc0;" horiz-adv-x="610" 
d="M300 700h10l275 -700h-9l-98 250h-346l-98 -250h-9zM475 258l-170 432l-170 -432h340zM211 896l99 -127h-10l-99 127h10z" />
    <glyph glyph-name="Aacute" unicode="&#xc1;" horiz-adv-x="610" 
d="M300 700h10l275 -700h-9l-98 250h-346l-98 -250h-9zM475 258l-170 432l-170 -432h340zM400 896h10l-99 -127h-10z" />
    <glyph glyph-name="Acircumflex" unicode="&#xc2;" horiz-adv-x="610" 
d="M300 700h10l275 -700h-9l-98 250h-346l-98 -250h-9zM475 258l-170 432l-170 -432h340zM183 768h-11l128 128h10l128 -128h-11l-122 121z" />
    <glyph glyph-name="Atilde" unicode="&#xc3;" horiz-adv-x="610" 
d="M300 700h10l275 -700h-9l-98 250h-346l-98 -250h-9zM475 258l-170 432l-170 -432h340zM278.5 864.5q-11.5 7.5 -28.5 7.5q-24 0 -35.5 -16.5t-11.5 -40.5h-8v1q0 28 14 46t41 18q21 0 33 -8t25 -24q12 -14 23.5 -21.5t28.5 -7.5q24 0 35.5 16.5t11.5 40.5h8v-1
q0 -28 -14 -46t-41 -18q-21 0 -33 8t-25 24q-12 14 -23.5 21.5z" />
    <glyph glyph-name="Adieresis" unicode="&#xc4;" horiz-adv-x="610" 
d="M300 700h10l275 -700h-9l-98 250h-346l-98 -250h-9zM475 258l-170 432l-170 -432h340zM222.5 860.5q3.5 3.5 8.5 3.5t8.5 -3.5t3.5 -8.5t-3.5 -8.5t-8.5 -3.5t-8.5 3.5t-3.5 8.5t3.5 8.5zM370.5 860.5q3.5 3.5 8.5 3.5t8.5 -3.5t3.5 -8.5t-3.5 -8.5t-8.5 -3.5t-8.5 3.5
t-3.5 8.5t3.5 8.5z" />
    <glyph glyph-name="Aring" unicode="&#xc5;" horiz-adv-x="610" 
d="M300 700h10l275 -700h-9l-98 250h-346l-98 -250h-9zM475 258l-170 432l-170 -432h340zM252 710q-24 14 -38 38t-14 53t14 53t38 38t53 14t53 -14t38 -38t14 -53t-14 -53t-38 -38t-53 -14t-53 14zM374 732.5q28 28.5 28 68.5q0 41 -28 69t-69 28q-40 0 -68.5 -28
t-28.5 -69q0 -40 28.5 -68.5t68.5 -28.5q41 0 69 28.5z" />
    <glyph glyph-name="AE" unicode="&#xc6;" horiz-adv-x="908" 
d="M168 229h289v-8h-294l-138 -221h-10l438 700h9zM864 700v-8h-401v-328h340v-8h-340v-348h415v-8h-423v700h409z" />
    <glyph glyph-name="Ccedilla" unicode="&#xc7;" horiz-adv-x="691" 
d="M202.5 39q-70.5 45 -109 126t-38.5 184q0 104 38.5 185t109 126.5t163.5 45.5q69 0 123 -23t91.5 -68t55.5 -111h-8q-28 95 -95 144.5t-167 49.5q-91 0 -159.5 -44.5t-106 -124t-37.5 -180.5t37.5 -180.5t106 -123.5t159.5 -44q101 0 167 49.5t93 146.5h8
q-18 -67 -54.5 -112.5t-90 -68t-123.5 -22.5q-93 0 -163.5 45zM377 0l-12 -58h23q33 0 54 -19.5t21 -50.5q0 -32 -21.5 -52t-55.5 -20h-71v8h71q31 0 50 17.5t19 46.5q0 27 -19 44.5t-48 17.5h-34l15 66h8z" />
    <glyph glyph-name="Egrave" unicode="&#xc8;" horiz-adv-x="531" 
d="M487 699v-8h-401v-328h340v-8h-340v-348h415v-8h-423v700h409zM171 896l99 -127h-10l-99 127h10z" />
    <glyph glyph-name="Eacute" unicode="&#xc9;" horiz-adv-x="531" 
d="M487 699v-8h-401v-328h340v-8h-340v-348h415v-8h-423v700h409zM360 896h10l-99 -127h-10z" />
    <glyph glyph-name="Ecircumflex" unicode="&#xca;" horiz-adv-x="531" 
d="M487 699v-8h-401v-328h340v-8h-340v-348h415v-8h-423v700h409zM143 768h-11l128 128h10l128 -128h-11l-122 121z" />
    <glyph glyph-name="Edieresis" unicode="&#xcb;" horiz-adv-x="531" 
d="M487 699v-8h-401v-328h340v-8h-340v-348h415v-8h-423v700h409zM182.5 860.5q3.5 3.5 8.5 3.5t8.5 -3.5t3.5 -8.5t-3.5 -8.5t-8.5 -3.5t-8.5 3.5t-3.5 8.5t3.5 8.5zM330.5 860.5q3.5 3.5 8.5 3.5t8.5 -3.5t3.5 -8.5t-3.5 -8.5t-8.5 -3.5t-8.5 3.5t-3.5 8.5t3.5 8.5z" />
    <glyph glyph-name="Igrave" unicode="&#xcc;" horiz-adv-x="164" 
d="M86 700v-700h-8v700h8zM-12 896l99 -127h-10l-99 127h10z" />
    <glyph glyph-name="Iacute" unicode="&#xcd;" horiz-adv-x="164" 
d="M86 700v-700h-8v700h8zM177 896h10l-99 -127h-10z" />
    <glyph glyph-name="Icircumflex" unicode="&#xce;" horiz-adv-x="164" 
d="M86 700v-700h-8v700h8zM-40 768h-11l128 128h10l128 -128h-11l-122 121z" />
    <glyph glyph-name="Idieresis" unicode="&#xcf;" horiz-adv-x="164" 
d="M86 700v-700h-8v700h8zM-0.5 860.5q3.5 3.5 8.5 3.5t8.5 -3.5t3.5 -8.5t-3.5 -8.5t-8.5 -3.5t-8.5 3.5t-3.5 8.5t3.5 8.5zM147.5 860.5q3.5 3.5 8.5 3.5t8.5 -3.5t3.5 -8.5t-3.5 -8.5t-8.5 -3.5t-8.5 3.5t-3.5 8.5t3.5 8.5z" />
    <glyph glyph-name="Eth" unicode="&#xd0;" horiz-adv-x="662" 
d="M280 363v-8h-281v8h281zM94 700h161q112 0 191 -42.5t120 -121t41 -186.5t-41 -186.5t-120 -121t-191 -42.5h-161v700zM255 8q109 0 186.5 41.5t117.5 118.5t40 182q0 106 -40 182.5t-117.5 118t-186.5 41.5h-153v-684h153z" />
    <glyph glyph-name="Ntilde" unicode="&#xd1;" horiz-adv-x="642" 
d="M78 700h10l468 -687v687h8v-700h-10l-468 688v-688h-8v700zM295.5 864.5q-11.5 7.5 -28.5 7.5q-24 0 -35.5 -16.5t-11.5 -40.5h-8v1q0 28 14 46t41 18q21 0 33 -8t25 -24q12 -14 23.5 -21.5t28.5 -7.5q24 0 35.5 16.5t11.5 40.5h8v-1q0 -28 -14 -46t-41 -18q-21 0 -33 8
t-25 24q-12 14 -23.5 21.5z" />
    <glyph glyph-name="Ograve" unicode="&#xd2;" horiz-adv-x="744" 
d="M536 660.5q72 -45.5 112.5 -126.5t40.5 -184t-40.5 -184t-112.5 -126.5t-164 -45.5t-164 45.5t-112.5 126.5t-40.5 184t40.5 184t112.5 126.5t164 45.5t164 -45.5zM212 654q-70 -44 -109.5 -123.5t-39.5 -180.5t39.5 -180.5t109.5 -123.5t160 -44t160 44t109.5 123.5
t39.5 180.5t-39.5 180.5t-109.5 123.5t-160 44t-160 -44zM279 896l99 -127h-10l-99 127h10z" />
    <glyph glyph-name="Oacute" unicode="&#xd3;" horiz-adv-x="744" 
d="M536 660.5q72 -45.5 112.5 -126.5t40.5 -184t-40.5 -184t-112.5 -126.5t-164 -45.5t-164 45.5t-112.5 126.5t-40.5 184t40.5 184t112.5 126.5t164 45.5t164 -45.5zM212 654q-70 -44 -109.5 -123.5t-39.5 -180.5t39.5 -180.5t109.5 -123.5t160 -44t160 44t109.5 123.5
t39.5 180.5t-39.5 180.5t-109.5 123.5t-160 44t-160 -44zM468 896h10l-99 -127h-10z" />
    <glyph glyph-name="Ocircumflex" unicode="&#xd4;" horiz-adv-x="744" 
d="M536 660.5q72 -45.5 112.5 -126.5t40.5 -184t-40.5 -184t-112.5 -126.5t-164 -45.5t-164 45.5t-112.5 126.5t-40.5 184t40.5 184t112.5 126.5t164 45.5t164 -45.5zM212 654q-70 -44 -109.5 -123.5t-39.5 -180.5t39.5 -180.5t109.5 -123.5t160 -44t160 44t109.5 123.5
t39.5 180.5t-39.5 180.5t-109.5 123.5t-160 44t-160 -44zM251 768h-11l128 128h10l128 -128h-11l-122 121z" />
    <glyph glyph-name="Otilde" unicode="&#xd5;" horiz-adv-x="744" 
d="M536 660.5q72 -45.5 112.5 -126.5t40.5 -184t-40.5 -184t-112.5 -126.5t-164 -45.5t-164 45.5t-112.5 126.5t-40.5 184t40.5 184t112.5 126.5t164 45.5t164 -45.5zM212 654q-70 -44 -109.5 -123.5t-39.5 -180.5t39.5 -180.5t109.5 -123.5t160 -44t160 44t109.5 123.5
t39.5 180.5t-39.5 180.5t-109.5 123.5t-160 44t-160 -44zM346.5 864.5q-11.5 7.5 -28.5 7.5q-24 0 -35.5 -16.5t-11.5 -40.5h-8v1q0 28 14 46t41 18q21 0 33 -8t25 -24q12 -14 23.5 -21.5t28.5 -7.5q24 0 35.5 16.5t11.5 40.5h8v-1q0 -28 -14 -46t-41 -18q-21 0 -33 8
t-25 24q-12 14 -23.5 21.5z" />
    <glyph glyph-name="Odieresis" unicode="&#xd6;" horiz-adv-x="744" 
d="M536 660.5q72 -45.5 112.5 -126.5t40.5 -184t-40.5 -184t-112.5 -126.5t-164 -45.5t-164 45.5t-112.5 126.5t-40.5 184t40.5 184t112.5 126.5t164 45.5t164 -45.5zM212 654q-70 -44 -109.5 -123.5t-39.5 -180.5t39.5 -180.5t109.5 -123.5t160 -44t160 44t109.5 123.5
t39.5 180.5t-39.5 180.5t-109.5 123.5t-160 44t-160 -44zM290.5 860.5q3.5 3.5 8.5 3.5t8.5 -3.5t3.5 -8.5t-3.5 -8.5t-8.5 -3.5t-8.5 3.5t-3.5 8.5t3.5 8.5zM438.5 860.5q3.5 3.5 8.5 3.5t8.5 -3.5t3.5 -8.5t-3.5 -8.5t-8.5 -3.5t-8.5 3.5t-3.5 8.5t3.5 8.5z" />
    <glyph glyph-name="multiply" unicode="&#xd7;" 
d="M268 292l161 161l5 -5l-161 -161l161 -161l-5 -5l-161 161l-161 -161l-5 5l161 161l-161 161l5 5z" />
    <glyph glyph-name="Oslash" unicode="&#xd8;" horiz-adv-x="744" 
d="M689 701l-628 -707l-6 5l628 707zM208 39.5q-72 45.5 -112.5 126.5t-40.5 184t40.5 184t112.5 126.5t164 45.5t164 -45.5t112.5 -126.5t40.5 -184t-40.5 -184t-112.5 -126.5t-164 -45.5t-164 45.5zM532 46q70 44 109.5 123.5t39.5 180.5t-39.5 180.5t-109.5 123.5
t-160 44t-160 -44t-109.5 -123.5t-39.5 -180.5t39.5 -180.5t109.5 -123.5t160 -44t160 44z" />
    <glyph glyph-name="Ugrave" unicode="&#xd9;" horiz-adv-x="633" 
d="M83 700v-424q0 -139 56 -206.5t176 -67.5q122 0 178.5 67.5t56.5 206.5v424h8v-424q0 -143 -58.5 -212.5t-184.5 -69.5q-125 0 -182.5 69.5t-57.5 212.5v424h8zM223 896l99 -127h-10l-99 127h10z" />
    <glyph glyph-name="Uacute" unicode="&#xda;" horiz-adv-x="633" 
d="M83 700v-424q0 -139 56 -206.5t176 -67.5q122 0 178.5 67.5t56.5 206.5v424h8v-424q0 -143 -58.5 -212.5t-184.5 -69.5q-125 0 -182.5 69.5t-57.5 212.5v424h8zM412 896h10l-99 -127h-10z" />
    <glyph glyph-name="Ucircumflex" unicode="&#xdb;" horiz-adv-x="633" 
d="M83 700v-424q0 -139 56 -206.5t176 -67.5q122 0 178.5 67.5t56.5 206.5v424h8v-424q0 -143 -58.5 -212.5t-184.5 -69.5q-125 0 -182.5 69.5t-57.5 212.5v424h8zM195 768h-11l128 128h10l128 -128h-11l-122 121z" />
    <glyph glyph-name="Udieresis" unicode="&#xdc;" horiz-adv-x="633" 
d="M83 700v-424q0 -139 56 -206.5t176 -67.5q122 0 178.5 67.5t56.5 206.5v424h8v-424q0 -143 -58.5 -212.5t-184.5 -69.5q-125 0 -182.5 69.5t-57.5 212.5v424h8zM234.5 860.5q3.5 3.5 8.5 3.5t8.5 -3.5t3.5 -8.5t-3.5 -8.5t-8.5 -3.5t-8.5 3.5t-3.5 8.5t3.5 8.5z
M382.5 860.5q3.5 3.5 8.5 3.5t8.5 -3.5t3.5 -8.5t-3.5 -8.5t-8.5 -3.5t-8.5 3.5t-3.5 8.5t3.5 8.5z" />
    <glyph glyph-name="Yacute" unicode="&#xdd;" horiz-adv-x="597" 
d="M30 701l268 -435l269 435h10l-275 -444v-257h-8v257l-274 444h10zM388 896h10l-99 -127h-10z" />
    <glyph glyph-name="Thorn" unicode="&#xde;" horiz-adv-x="531" 
d="M86 700v-143h199q73 0 122 -21.5t74 -65t25 -108.5q0 -66 -27 -109t-76.5 -63t-118.5 -20h-198v-170h-8v700h8zM86 178h198q104 0 159 46t55 138q0 95 -54.5 141t-158.5 46h-199v-371z" />
    <glyph glyph-name="germandbls" unicode="&#xdf;" horiz-adv-x="552" 
d="M199 14v9q51 -21 107 -21t99.5 23t68 64.5t24.5 92.5q0 93 -68.5 141t-181.5 48q-13 0 -21 -1h-4v8q103 1 159 48.5t56 121.5q0 68 -48 109t-123 41q-80 0 -130.5 -49t-50.5 -137v-512h-8v512q0 60 24 104t67 67t98 23q52 0 93 -20t63.5 -55.5t22.5 -82.5
q-1 -71 -45.5 -115.5t-119.5 -56.5q103 -5 164 -55.5t61 -138.5q0 -54 -25.5 -97t-71 -67t-103.5 -24q-53 0 -107 20z" />
    <glyph glyph-name="agrave" unicode="&#xe0;" horiz-adv-x="529" 
d="M129 473.5q50 36.5 128 36.5q91 0 140.5 -47t49.5 -132v-257q0 -30 17 -48t45 -18h10v-8h-10q-32 0 -51 20t-19 54v79l1 -2q-17 -72 -76 -114.5t-152 -42.5q-77 0 -122 37.5t-45 101.5q0 65 50 102.5t143 37.5h201v58q0 81 -47.5 126t-134.5 45q-75 0 -122 -33.5
t-59 -91.5h-8q11 60 61 96.5zM238 265q-89 0 -137 -35.5t-48 -96.5q0 -60 43 -95.5t116 -35.5q71 0 122 25.5t78 71t27 102.5v64h-201zM163 700l99 -127h-10l-99 127h10z" />
    <glyph glyph-name="aacute" unicode="&#xe1;" horiz-adv-x="529" 
d="M129 473.5q50 36.5 128 36.5q91 0 140.5 -47t49.5 -132v-257q0 -30 17 -48t45 -18h10v-8h-10q-32 0 -51 20t-19 54v79l1 -2q-17 -72 -76 -114.5t-152 -42.5q-77 0 -122 37.5t-45 101.5q0 65 50 102.5t143 37.5h201v58q0 81 -47.5 126t-134.5 45q-75 0 -122 -33.5
t-59 -91.5h-8q11 60 61 96.5zM238 265q-89 0 -137 -35.5t-48 -96.5q0 -60 43 -95.5t116 -35.5q71 0 122 25.5t78 71t27 102.5v64h-201zM352 700h10l-99 -127h-10z" />
    <glyph glyph-name="acircumflex" unicode="&#xe2;" horiz-adv-x="529" 
d="M129 473.5q50 36.5 128 36.5q91 0 140.5 -47t49.5 -132v-257q0 -30 17 -48t45 -18h10v-8h-10q-32 0 -51 20t-19 54v79l1 -2q-17 -72 -76 -114.5t-152 -42.5q-77 0 -122 37.5t-45 101.5q0 65 50 102.5t143 37.5h201v58q0 81 -47.5 126t-134.5 45q-75 0 -122 -33.5
t-59 -91.5h-8q11 60 61 96.5zM238 265q-89 0 -137 -35.5t-48 -96.5q0 -60 43 -95.5t116 -35.5q71 0 122 25.5t78 71t27 102.5v64h-201zM135 572h-11l128 128h10l128 -128h-11l-122 121z" />
    <glyph glyph-name="atilde" unicode="&#xe3;" horiz-adv-x="529" 
d="M129 473.5q50 36.5 128 36.5q91 0 140.5 -47t49.5 -132v-257q0 -30 17 -48t45 -18h10v-8h-10q-32 0 -51 20t-19 54v79l1 -2q-17 -72 -76 -114.5t-152 -42.5q-77 0 -122 37.5t-45 101.5q0 65 50 102.5t143 37.5h201v58q0 81 -47.5 126t-134.5 45q-75 0 -122 -33.5
t-59 -91.5h-8q11 60 61 96.5zM238 265q-89 0 -137 -35.5t-48 -96.5q0 -60 43 -95.5t116 -35.5q71 0 122 25.5t78 71t27 102.5v64h-201zM230.5 668.5q-11.5 7.5 -28.5 7.5q-24 0 -35.5 -16.5t-11.5 -40.5h-8v1q0 28 14 46t41 18q21 0 33 -8t25 -24q12 -14 23.5 -21.5
t28.5 -7.5q24 0 35.5 16.5t11.5 40.5h8v-1q0 -28 -14 -46t-41 -18q-21 0 -33 8t-25 24q-12 14 -23.5 21.5z" />
    <glyph glyph-name="adieresis" unicode="&#xe4;" horiz-adv-x="529" 
d="M129 473.5q50 36.5 128 36.5q91 0 140.5 -47t49.5 -132v-257q0 -30 17 -48t45 -18h10v-8h-10q-32 0 -51 20t-19 54v79l1 -2q-17 -72 -76 -114.5t-152 -42.5q-77 0 -122 37.5t-45 101.5q0 65 50 102.5t143 37.5h201v58q0 81 -47.5 126t-134.5 45q-75 0 -122 -33.5
t-59 -91.5h-8q11 60 61 96.5zM238 265q-89 0 -137 -35.5t-48 -96.5q0 -60 43 -95.5t116 -35.5q71 0 122 25.5t78 71t27 102.5v64h-201zM174.5 664.5q3.5 3.5 8.5 3.5t8.5 -3.5t3.5 -8.5t-3.5 -8.5t-8.5 -3.5t-8.5 3.5t-3.5 8.5t3.5 8.5zM322.5 664.5q3.5 3.5 8.5 3.5
t8.5 -3.5t3.5 -8.5t-3.5 -8.5t-8.5 -3.5t-8.5 3.5t-3.5 8.5t3.5 8.5z" />
    <glyph glyph-name="aring" unicode="&#xe5;" horiz-adv-x="529" 
d="M129 473.5q50 36.5 128 36.5q91 0 140.5 -47t49.5 -132v-257q0 -30 17 -48t45 -18h10v-8h-10q-32 0 -51 20t-19 54v79l1 -2q-17 -72 -76 -114.5t-152 -42.5q-77 0 -122 37.5t-45 101.5q0 65 50 102.5t143 37.5h201v58q0 81 -47.5 126t-134.5 45q-75 0 -122 -33.5
t-59 -91.5h-8q11 60 61 96.5zM238 265q-89 0 -137 -35.5t-48 -96.5q0 -60 43 -95.5t116 -35.5q71 0 122 25.5t78 71t27 102.5v64h-201zM204 575q-24 14 -38 38t-14 53t14 53t38 38t53 14t53 -14t38 -38t14 -53t-14 -53t-38 -38t-53 -14t-53 14zM326 597.5q28 28.5 28 68.5
q0 41 -28 69t-69 28q-40 0 -68.5 -28t-28.5 -69q0 -40 28.5 -68.5t68.5 -28.5q41 0 69 28.5z" />
    <glyph glyph-name="ae" unicode="&#xe6;" horiz-adv-x="935" 
d="M329.5 28q50.5 26 80 71.5t29.5 101.5v68h-202q-89 0 -136.5 -35.5t-47.5 -95.5q0 -64 43.5 -100t121.5 -36q61 0 111.5 26zM414.5 94q-30.5 -47 -82 -73.5t-114.5 -26.5q-82 0 -127.5 38t-45.5 106q0 64 49.5 101.5t142.5 37.5h202v54q0 80 -48 125.5t-134 45.5
q-75 0 -122 -33.5t-59 -91.5h-8q11 60 61 96.5t128 36.5q60 0 103 -21.5t65 -61.5t22 -96v-132h-1q-1 -58 -31.5 -105zM551 26.5q-52 32.5 -81.5 90.5t-29.5 131q0 76 28.5 135.5t79 93t114.5 33.5q63 0 112 -28t78.5 -81.5t32.5 -128.5v-1.5v-1.5h-438v-16
q0 -72 28.5 -129.5t79 -89.5t113.5 -32q72 0 127 44.5t74 118.5h8q-12 -51 -42.5 -90t-73.5 -60t-93 -21q-65 0 -117 32.5zM557 473.5q-47 -28.5 -75.5 -79.5t-33.5 -117h428q-7 107 -65 166t-149 59q-58 0 -105 -28.5z" />
    <glyph glyph-name="ccedilla" unicode="&#xe7;" horiz-adv-x="529" 
d="M411.5 35.5q-54.5 -41.5 -131.5 -41.5q-67 0 -119 33t-81.5 92t-29.5 134t29.5 133.5t81.5 91t119 32.5q77 0 132 -42t69 -112h-8q-14 67 -66.5 106.5t-126.5 39.5q-64 0 -114.5 -31.5t-79 -88t-28.5 -129.5t28.5 -130t79 -89t114.5 -32q74 0 126 39t67 106h8
q-15 -70 -69.5 -111.5zM284 0l-12 -58h23q33 0 54 -19.5t21 -50.5q0 -32 -21.5 -52t-55.5 -20h-71v8h71q31 0 50 17.5t19 46.5q0 27 -19 44.5t-48 17.5h-34l15 66h8z" />
    <glyph glyph-name="egrave" unicode="&#xe8;" horiz-adv-x="546" 
d="M161.5 27q-52.5 33 -82 92t-29.5 134t28.5 133.5t79 91t115.5 32.5q63 0 112 -27.5t78.5 -80.5t32.5 -127v-1.5v-1.5h-437q-1 -5 -1 -9.5v-9.5q0 -72 28.5 -129.5t79 -89.5t113.5 -32q72 0 127 44.5t74 118.5h8q-12 -51 -42.5 -90t-73.5 -60t-93 -21q-65 0 -117.5 33z
M168 474q-47 -28 -75.5 -78.5t-33.5 -115.5h428q-7 105 -65 163.5t-149 58.5q-58 0 -105 -28zM179 700l99 -127h-10l-99 127h10z" />
    <glyph glyph-name="eacute" unicode="&#xe9;" horiz-adv-x="546" 
d="M161.5 27q-52.5 33 -82 92t-29.5 134t28.5 133.5t79 91t115.5 32.5q63 0 112 -27.5t78.5 -80.5t32.5 -127v-1.5v-1.5h-437q-1 -5 -1 -9.5v-9.5q0 -72 28.5 -129.5t79 -89.5t113.5 -32q72 0 127 44.5t74 118.5h8q-12 -51 -42.5 -90t-73.5 -60t-93 -21q-65 0 -117.5 33z
M168 474q-47 -28 -75.5 -78.5t-33.5 -115.5h428q-7 105 -65 163.5t-149 58.5q-58 0 -105 -28zM368 700h10l-99 -127h-10z" />
    <glyph glyph-name="ecircumflex" unicode="&#xea;" horiz-adv-x="546" 
d="M161.5 27q-52.5 33 -82 92t-29.5 134t28.5 133.5t79 91t115.5 32.5q63 0 112 -27.5t78.5 -80.5t32.5 -127v-1.5v-1.5h-437q-1 -5 -1 -9.5v-9.5q0 -72 28.5 -129.5t79 -89.5t113.5 -32q72 0 127 44.5t74 118.5h8q-12 -51 -42.5 -90t-73.5 -60t-93 -21q-65 0 -117.5 33z
M168 474q-47 -28 -75.5 -78.5t-33.5 -115.5h428q-7 105 -65 163.5t-149 58.5q-58 0 -105 -28zM151 572h-11l128 128h10l128 -128h-11l-122 121z" />
    <glyph glyph-name="edieresis" unicode="&#xeb;" horiz-adv-x="546" 
d="M161.5 27q-52.5 33 -82 92t-29.5 134t28.5 133.5t79 91t115.5 32.5q63 0 112 -27.5t78.5 -80.5t32.5 -127v-1.5v-1.5h-437q-1 -5 -1 -9.5v-9.5q0 -72 28.5 -129.5t79 -89.5t113.5 -32q72 0 127 44.5t74 118.5h8q-12 -51 -42.5 -90t-73.5 -60t-93 -21q-65 0 -117.5 33z
M168 474q-47 -28 -75.5 -78.5t-33.5 -115.5h428q-7 105 -65 163.5t-149 58.5q-58 0 -105 -28zM190.5 664.5q3.5 3.5 8.5 3.5t8.5 -3.5t3.5 -8.5t-3.5 -8.5t-8.5 -3.5t-8.5 3.5t-3.5 8.5t3.5 8.5zM338.5 664.5q3.5 3.5 8.5 3.5t8.5 -3.5t3.5 -8.5t-3.5 -8.5t-8.5 -3.5
t-8.5 3.5t-3.5 8.5t3.5 8.5z" />
    <glyph glyph-name="igrave" unicode="&#xec;" horiz-adv-x="138" 
d="M73 504v-504h-8v504h8zM-25 700l99 -127h-10l-99 127h10z" />
    <glyph glyph-name="iacute" unicode="&#xed;" horiz-adv-x="138" 
d="M73 504v-504h-8v504h8zM164 700h10l-99 -127h-10z" />
    <glyph glyph-name="icircumflex" unicode="&#xee;" horiz-adv-x="138" 
d="M73 504v-504h-8v504h8zM-53 572h-11l128 128h10l128 -128h-11l-122 121z" />
    <glyph glyph-name="idieresis" unicode="&#xef;" horiz-adv-x="138" 
d="M73 504v-504h-8v504h8zM-13.5 664.5q3.5 3.5 8.5 3.5t8.5 -3.5t3.5 -8.5t-3.5 -8.5t-8.5 -3.5t-8.5 3.5t-3.5 8.5t3.5 8.5zM134.5 664.5q3.5 3.5 8.5 3.5t8.5 -3.5t3.5 -8.5t-3.5 -8.5t-8.5 -3.5t-8.5 3.5t-3.5 8.5t3.5 8.5z" />
    <glyph glyph-name="eth" unicode="&#xf0;" horiz-adv-x="571" 
d="M191 533l256 173l4 -7l-256 -173zM161 24.5q-52 30.5 -81.5 84.5t-29.5 123q0 68 29.5 122t81.5 84t119 30q73 1 128.5 -34t82.5 -95q-31 116 -111.5 212t-174.5 150l6 5q78 -45 146.5 -117.5t110.5 -162t43 -180.5q-1 -75 -29.5 -132.5t-80.5 -88.5t-121 -31
q-67 0 -119 30.5zM86.5 113.5q28.5 -52.5 79 -82t114.5 -29.5q67 0 117.5 30.5t78 86.5t27.5 130q-3 66 -34 114t-80.5 72.5t-108.5 24.5q-64 0 -114.5 -29t-79 -81t-28.5 -118t28.5 -118.5z" />
    <glyph glyph-name="ntilde" unicode="&#xf1;" horiz-adv-x="528" 
d="M73 504v-189l-1 1q17 91 71 142.5t135 51.5q88 0 139 -58.5t51 -166.5v-285h-8v285q0 104 -49 160.5t-133 56.5q-62 0 -108.5 -32t-71.5 -91t-25 -137v-242h-8v504h8zM251.5 668.5q-11.5 7.5 -28.5 7.5q-24 0 -35.5 -16.5t-11.5 -40.5h-8v1q0 28 14 46t41 18q21 0 33 -8
t25 -24q12 -14 23.5 -21.5t28.5 -7.5q24 0 35.5 16.5t11.5 40.5h8v-1q0 -28 -14 -46t-41 -18q-21 0 -33 8t-25 24q-12 14 -23.5 21.5z" />
    <glyph glyph-name="ograve" unicode="&#xf2;" horiz-adv-x="560" 
d="M394.5 33.5q50.5 31.5 79 88.5t28.5 130t-28.5 130t-79 88.5t-114.5 31.5t-114.5 -31.5t-79 -88.5t-28.5 -130t28.5 -130t79 -88.5t114.5 -31.5t114.5 31.5zM161 27q-52 33 -81.5 91.5t-29.5 133.5t29.5 133.5t81.5 91.5t119 33t119 -33t81.5 -91.5t29.5 -133.5
t-29.5 -133.5t-81.5 -91.5t-119 -33t-119 33zM186 700l99 -127h-10l-99 127h10z" />
    <glyph glyph-name="oacute" unicode="&#xf3;" horiz-adv-x="560" 
d="M394.5 33.5q50.5 31.5 79 88.5t28.5 130t-28.5 130t-79 88.5t-114.5 31.5t-114.5 -31.5t-79 -88.5t-28.5 -130t28.5 -130t79 -88.5t114.5 -31.5t114.5 31.5zM161 27q-52 33 -81.5 91.5t-29.5 133.5t29.5 133.5t81.5 91.5t119 33t119 -33t81.5 -91.5t29.5 -133.5
t-29.5 -133.5t-81.5 -91.5t-119 -33t-119 33zM375 700h10l-99 -127h-10z" />
    <glyph glyph-name="ocircumflex" unicode="&#xf4;" horiz-adv-x="560" 
d="M394.5 33.5q50.5 31.5 79 88.5t28.5 130t-28.5 130t-79 88.5t-114.5 31.5t-114.5 -31.5t-79 -88.5t-28.5 -130t28.5 -130t79 -88.5t114.5 -31.5t114.5 31.5zM161 27q-52 33 -81.5 91.5t-29.5 133.5t29.5 133.5t81.5 91.5t119 33t119 -33t81.5 -91.5t29.5 -133.5
t-29.5 -133.5t-81.5 -91.5t-119 -33t-119 33zM158 572h-11l128 128h10l128 -128h-11l-122 121z" />
    <glyph glyph-name="otilde" unicode="&#xf5;" horiz-adv-x="560" 
d="M394.5 33.5q50.5 31.5 79 88.5t28.5 130t-28.5 130t-79 88.5t-114.5 31.5t-114.5 -31.5t-79 -88.5t-28.5 -130t28.5 -130t79 -88.5t114.5 -31.5t114.5 31.5zM161 27q-52 33 -81.5 91.5t-29.5 133.5t29.5 133.5t81.5 91.5t119 33t119 -33t81.5 -91.5t29.5 -133.5
t-29.5 -133.5t-81.5 -91.5t-119 -33t-119 33zM253.5 668.5q-11.5 7.5 -28.5 7.5q-24 0 -35.5 -16.5t-11.5 -40.5h-8v1q0 28 14 46t41 18q21 0 33 -8t25 -24q12 -14 23.5 -21.5t28.5 -7.5q24 0 35.5 16.5t11.5 40.5h8v-1q0 -28 -14 -46t-41 -18q-21 0 -33 8t-25 24
q-12 14 -23.5 21.5z" />
    <glyph glyph-name="odieresis" unicode="&#xf6;" horiz-adv-x="560" 
d="M394.5 33.5q50.5 31.5 79 88.5t28.5 130t-28.5 130t-79 88.5t-114.5 31.5t-114.5 -31.5t-79 -88.5t-28.5 -130t28.5 -130t79 -88.5t114.5 -31.5t114.5 31.5zM161 27q-52 33 -81.5 91.5t-29.5 133.5t29.5 133.5t81.5 91.5t119 33t119 -33t81.5 -91.5t29.5 -133.5
t-29.5 -133.5t-81.5 -91.5t-119 -33t-119 33zM197.5 664.5q3.5 3.5 8.5 3.5t8.5 -3.5t3.5 -8.5t-3.5 -8.5t-8.5 -3.5t-8.5 3.5t-3.5 8.5t3.5 8.5zM345.5 664.5q3.5 3.5 8.5 3.5t8.5 -3.5t3.5 -8.5t-3.5 -8.5t-8.5 -3.5t-8.5 3.5t-3.5 8.5t3.5 8.5z" />
    <glyph glyph-name="divide" unicode="&#xf7;" 
d="M258.5 108.5q-3.5 3.5 -3.5 8.5t3.5 8.5t8.5 3.5t8.5 -3.5t3.5 -8.5t-3.5 -8.5t-8.5 -3.5t-8.5 3.5zM258.5 452.5q-3.5 3.5 -3.5 8.5t3.5 8.5t8.5 3.5t8.5 -3.5t3.5 -8.5t-3.5 -8.5t-8.5 -3.5t-8.5 3.5zM78 293h379v-8h-379v8z" />
    <glyph glyph-name="oslash" unicode="&#xf8;" horiz-adv-x="565" 
d="M79.5 385.5q29.5 58.5 81.5 91.5t119 33t119 -33t81.5 -91.5t29.5 -133.5t-29.5 -133.5t-81.5 -91.5t-119 -33t-119 33t-81.5 91.5t-29.5 133.5t29.5 133.5zM473.5 382q-28.5 57 -79 88.5t-114.5 31.5t-114.5 -31.5t-79 -88.5t-28.5 -130t28.5 -130t79 -88.5t114.5 -31.5
t114.5 31.5t79 88.5t28.5 130t-28.5 130zM515 505l-460 -511l-5 5l460 511z" />
    <glyph glyph-name="ugrave" unicode="&#xf9;" horiz-adv-x="522" 
d="M111 53q-51 59 -51 166v285h8v-285q0 -104 49 -160.5t130 -56.5q60 0 106 32t71 91t25 137v242h8v-504h-8v189l1 -1q-17 -91 -70.5 -142.5t-132.5 -51.5q-85 0 -136 59zM165 700l99 -127h-10l-99 127h10z" />
    <glyph glyph-name="uacute" unicode="&#xfa;" horiz-adv-x="522" 
d="M111 53q-51 59 -51 166v285h8v-285q0 -104 49 -160.5t130 -56.5q60 0 106 32t71 91t25 137v242h8v-504h-8v189l1 -1q-17 -91 -70.5 -142.5t-132.5 -51.5q-85 0 -136 59zM354 700h10l-99 -127h-10z" />
    <glyph glyph-name="ucircumflex" unicode="&#xfb;" horiz-adv-x="522" 
d="M111 53q-51 59 -51 166v285h8v-285q0 -104 49 -160.5t130 -56.5q60 0 106 32t71 91t25 137v242h8v-504h-8v189l1 -1q-17 -91 -70.5 -142.5t-132.5 -51.5q-85 0 -136 59zM137 572h-11l128 128h10l128 -128h-11l-122 121z" />
    <glyph glyph-name="udieresis" unicode="&#xfc;" horiz-adv-x="522" 
d="M111 53q-51 59 -51 166v285h8v-285q0 -104 49 -160.5t130 -56.5q60 0 106 32t71 91t25 137v242h8v-504h-8v189l1 -1q-17 -91 -70.5 -142.5t-132.5 -51.5q-85 0 -136 59zM176.5 664.5q3.5 3.5 8.5 3.5t8.5 -3.5t3.5 -8.5t-3.5 -8.5t-8.5 -3.5t-8.5 3.5t-3.5 8.5t3.5 8.5z
M324.5 664.5q3.5 3.5 8.5 3.5t8.5 -3.5t3.5 -8.5t-3.5 -8.5t-8.5 -3.5t-8.5 3.5t-3.5 8.5t3.5 8.5z" />
    <glyph glyph-name="yacute" unicode="&#xfd;" horiz-adv-x="454" 
d="M24 504l203 -492l203 492h9l-252 -610q-17 -42 -29.5 -60.5t-29.5 -26t-48 -7.5h-50v8h50q30 0 46 7.5t26.5 24.5t26.5 57l43 104l-207 503h9zM321 700h10l-99 -127h-10z" />
    <glyph glyph-name="thorn" unicode="&#xfe;" horiz-adv-x="575" 
d="M73 700v-379q18 86 78 137.5t144 51.5q67 0 119 -33t81.5 -92t29.5 -133q0 -75 -29.5 -133.5t-81.5 -91.5t-119 -33q-84 0 -144 51.5t-78 137.5v-383h-8v900h8zM409.5 34q50.5 32 79 88.5t28.5 129.5q0 72 -28.5 129t-79 89t-114.5 32t-114.5 -32t-79 -89t-28.5 -129
q0 -73 28.5 -129.5t79 -88.5t114.5 -32t114.5 32z" />
    <glyph glyph-name="ydieresis" unicode="&#xff;" horiz-adv-x="454" 
d="M24 504l203 -492l203 492h9l-252 -610q-17 -42 -29.5 -60.5t-29.5 -26t-48 -7.5h-50v8h50q30 0 46 7.5t26.5 24.5t26.5 57l43 104l-207 503h9zM143.5 664.5q3.5 3.5 8.5 3.5t8.5 -3.5t3.5 -8.5t-3.5 -8.5t-8.5 -3.5t-8.5 3.5t-3.5 8.5t3.5 8.5zM291.5 664.5
q3.5 3.5 8.5 3.5t8.5 -3.5t3.5 -8.5t-3.5 -8.5t-8.5 -3.5t-8.5 3.5t-3.5 8.5t3.5 8.5z" />
    <glyph glyph-name="Amacron" unicode="&#x100;" horiz-adv-x="610" 
d="M300 700h10l275 -700h-9l-98 250h-346l-98 -250h-9zM475 258l-170 432l-170 -432h340zM190 856h230v-8h-230v8z" />
    <glyph glyph-name="amacron" unicode="&#x101;" horiz-adv-x="529" 
d="M129 473.5q50 36.5 128 36.5q91 0 140.5 -47t49.5 -132v-257q0 -30 17 -48t45 -18h10v-8h-10q-32 0 -51 20t-19 54v79l1 -2q-17 -72 -76 -114.5t-152 -42.5q-77 0 -122 37.5t-45 101.5q0 65 50 102.5t143 37.5h201v58q0 81 -47.5 126t-134.5 45q-75 0 -122 -33.5
t-59 -91.5h-8q11 60 61 96.5zM238 265q-89 0 -137 -35.5t-48 -96.5q0 -60 43 -95.5t116 -35.5q71 0 122 25.5t78 71t27 102.5v64h-201zM142 660h230v-8h-230v8z" />
    <glyph glyph-name="Abreve" unicode="&#x102;" horiz-adv-x="610" 
d="M300 700h10l275 -700h-9l-98 250h-346l-98 -250h-9zM475 258l-170 432l-170 -432h340zM225.5 815.5q-30.5 31.5 -30.5 80.5h8q0 -45 28.5 -74.5t71.5 -29.5q45 0 74.5 29.5t29.5 74.5h8q0 -49 -31.5 -80.5t-80.5 -31.5q-47 0 -77.5 31.5z" />
    <glyph glyph-name="abreve" unicode="&#x103;" horiz-adv-x="529" 
d="M129 473.5q50 36.5 128 36.5q91 0 140.5 -47t49.5 -132v-257q0 -30 17 -48t45 -18h10v-8h-10q-32 0 -51 20t-19 54v79l1 -2q-17 -72 -76 -114.5t-152 -42.5q-77 0 -122 37.5t-45 101.5q0 65 50 102.5t143 37.5h201v58q0 81 -47.5 126t-134.5 45q-75 0 -122 -33.5
t-59 -91.5h-8q11 60 61 96.5zM238 265q-89 0 -137 -35.5t-48 -96.5q0 -60 43 -95.5t116 -35.5q71 0 122 25.5t78 71t27 102.5v64h-201zM177.5 619.5q-30.5 31.5 -30.5 80.5h8q0 -45 28.5 -74.5t71.5 -29.5q45 0 74.5 29.5t29.5 74.5h8q0 -49 -31.5 -80.5t-80.5 -31.5
q-47 0 -77.5 31.5z" />
    <glyph glyph-name="Aogonek" unicode="&#x104;" horiz-adv-x="610" 
d="M300 700h10l275 -700h-9l-98 250h-346l-98 -250h-9zM475 258l-170 432l-170 -432h340zM482.5 -181.5q-20.5 18.5 -20.5 50.5q0 36 28.5 65t89.5 71l5 -5l-15 -11q-53 -39 -76.5 -64t-23.5 -56q0 -29 18.5 -45t51.5 -16h55v-8h-55q-37 0 -57.5 18.5z" />
    <glyph glyph-name="aogonek" unicode="&#x105;" horiz-adv-x="529" 
d="M129 473.5q50 36.5 128 36.5q91 0 140.5 -47t49.5 -132v-257q0 -30 17 -48t45 -18h10v-8h-10q-32 0 -51 20t-19 54v79l1 -2q-17 -72 -76 -114.5t-152 -42.5q-77 0 -122 37.5t-45 101.5q0 65 50 102.5t143 37.5h201v58q0 81 -47.5 126t-134.5 45q-75 0 -122 -33.5
t-59 -91.5h-8q11 60 61 96.5zM238 265q-89 0 -137 -35.5t-48 -96.5q0 -60 43 -95.5t116 -35.5q71 0 122 25.5t78 71t27 102.5v64h-201zM416.5 -181.5q-20.5 18.5 -20.5 50.5q0 36 28.5 65t89.5 71l5 -5l-15 -11q-53 -39 -76.5 -64t-23.5 -56q0 -29 18.5 -45t51.5 -16h55v-8
h-55q-37 0 -57.5 18.5z" />
    <glyph glyph-name="Cacute" unicode="&#x106;" horiz-adv-x="691" 
d="M202.5 39q-70.5 45 -109 126t-38.5 184q0 104 38.5 185t109 126.5t163.5 45.5q69 0 123 -23t91.5 -68t55.5 -111h-8q-28 95 -95 144.5t-167 49.5q-91 0 -159.5 -44.5t-106 -124t-37.5 -180.5t37.5 -180.5t106 -123.5t159.5 -44q101 0 167 49.5t93 146.5h8
q-18 -67 -54.5 -112.5t-90 -68t-123.5 -22.5q-93 0 -163.5 45zM461 896h10l-99 -127h-10z" />
    <glyph glyph-name="cacute" unicode="&#x107;" horiz-adv-x="529" 
d="M411.5 35.5q-54.5 -41.5 -131.5 -41.5q-67 0 -119 33t-81.5 92t-29.5 134t29.5 133.5t81.5 91t119 32.5q77 0 132 -42t69 -112h-8q-14 67 -66.5 106.5t-126.5 39.5q-64 0 -114.5 -31.5t-79 -88t-28.5 -129.5t28.5 -130t79 -89t114.5 -32q74 0 126 39t67 106h8
q-15 -70 -69.5 -111.5zM375 700h10l-99 -127h-10z" />
    <glyph glyph-name="Ccircumflex" unicode="&#x108;" horiz-adv-x="691" 
d="M202.5 39q-70.5 45 -109 126t-38.5 184q0 104 38.5 185t109 126.5t163.5 45.5q69 0 123 -23t91.5 -68t55.5 -111h-8q-28 95 -95 144.5t-167 49.5q-91 0 -159.5 -44.5t-106 -124t-37.5 -180.5t37.5 -180.5t106 -123.5t159.5 -44q101 0 167 49.5t93 146.5h8
q-18 -67 -54.5 -112.5t-90 -68t-123.5 -22.5q-93 0 -163.5 45zM244 768h-11l128 128h10l128 -128h-11l-122 121z" />
    <glyph glyph-name="ccircumflex" unicode="&#x109;" horiz-adv-x="529" 
d="M411.5 35.5q-54.5 -41.5 -131.5 -41.5q-67 0 -119 33t-81.5 92t-29.5 134t29.5 133.5t81.5 91t119 32.5q77 0 132 -42t69 -112h-8q-14 67 -66.5 106.5t-126.5 39.5q-64 0 -114.5 -31.5t-79 -88t-28.5 -129.5t28.5 -130t79 -89t114.5 -32q74 0 126 39t67 106h8
q-15 -70 -69.5 -111.5zM158 572h-11l128 128h10l128 -128h-11l-122 121z" />
    <glyph glyph-name="Cdotaccent" unicode="&#x10a;" horiz-adv-x="691" 
d="M202.5 39q-70.5 45 -109 126t-38.5 184q0 104 38.5 185t109 126.5t163.5 45.5q69 0 123 -23t91.5 -68t55.5 -111h-8q-28 95 -95 144.5t-167 49.5q-91 0 -159.5 -44.5t-106 -124t-37.5 -180.5t37.5 -180.5t106 -123.5t159.5 -44q101 0 167 49.5t93 146.5h8
q-18 -67 -54.5 -112.5t-90 -68t-123.5 -22.5q-93 0 -163.5 45zM357.5 866.5q3.5 3.5 8.5 3.5t8.5 -3.5t3.5 -8.5t-3.5 -8.5t-8.5 -3.5t-8.5 3.5t-3.5 8.5t3.5 8.5z" />
    <glyph glyph-name="cdotaccent" unicode="&#x10b;" horiz-adv-x="529" 
d="M411.5 35.5q-54.5 -41.5 -131.5 -41.5q-67 0 -119 33t-81.5 92t-29.5 134t29.5 133.5t81.5 91t119 32.5q77 0 132 -42t69 -112h-8q-14 67 -66.5 106.5t-126.5 39.5q-64 0 -114.5 -31.5t-79 -88t-28.5 -129.5t28.5 -130t79 -89t114.5 -32q74 0 126 39t67 106h8
q-15 -70 -69.5 -111.5zM271.5 670.5q3.5 3.5 8.5 3.5t8.5 -3.5t3.5 -8.5t-3.5 -8.5t-8.5 -3.5t-8.5 3.5t-3.5 8.5t3.5 8.5z" />
    <glyph glyph-name="Ccaron" unicode="&#x10c;" horiz-adv-x="691" 
d="M202.5 39q-70.5 45 -109 126t-38.5 184q0 104 38.5 185t109 126.5t163.5 45.5q69 0 123 -23t91.5 -68t55.5 -111h-8q-28 95 -95 144.5t-167 49.5q-91 0 -159.5 -44.5t-106 -124t-37.5 -180.5t37.5 -180.5t106 -123.5t159.5 -44q101 0 167 49.5t93 146.5h8
q-18 -67 -54.5 -112.5t-90 -68t-123.5 -22.5q-93 0 -163.5 45zM488 896h11l-128 -128h-10l-128 128h11l122 -121z" />
    <glyph glyph-name="ccaron" unicode="&#x10d;" horiz-adv-x="529" 
d="M411.5 35.5q-54.5 -41.5 -131.5 -41.5q-67 0 -119 33t-81.5 92t-29.5 134t29.5 133.5t81.5 91t119 32.5q77 0 132 -42t69 -112h-8q-14 67 -66.5 106.5t-126.5 39.5q-64 0 -114.5 -31.5t-79 -88t-28.5 -129.5t28.5 -130t79 -89t114.5 -32q74 0 126 39t67 106h8
q-15 -70 -69.5 -111.5zM402 700h11l-128 -128h-10l-128 128h11l122 -121z" />
    <glyph glyph-name="Dcaron" unicode="&#x10e;" horiz-adv-x="646" 
d="M78 700h161q112 0 191 -42.5t120 -121t41 -186.5t-41 -186.5t-120 -121t-191 -42.5h-161v700zM239 8q109 0 186.5 41.5t117.5 118.5t40 182q0 106 -40 182.5t-117.5 118t-186.5 41.5h-153v-684h153zM401 896h11l-128 -128h-10l-128 128h11l122 -121z" />
    <glyph glyph-name="dcaron" unicode="&#x10f;" horiz-adv-x="608" 
d="M510 700v-700h-8v187l1 -1q-18 -88 -78 -140t-145 -52q-67 0 -119 33t-81.5 91.5t-29.5 133.5q0 74 29.5 133t81.5 92t119 33q85 0 145 -52.5t78 -139.5l-1 -1v383h8zM165.5 470q-50.5 -32 -79 -89t-28.5 -129q0 -73 28.5 -129.5t79 -88.5t114.5 -32t114.5 32t79 88.5
t28.5 129.5q0 72 -28.5 129t-79 89t-114.5 32t-114.5 -32zM617 700l-46 -143h-8l46 143h8z" />
    <glyph glyph-name="Dcroat" unicode="&#x110;" horiz-adv-x="662" 
d="M280 363v-8h-281v8h281zM94 700h161q112 0 191 -42.5t120 -121t41 -186.5t-41 -186.5t-120 -121t-191 -42.5h-161v700zM255 8q109 0 186.5 41.5t117.5 118.5t40 182q0 106 -40 182.5t-117.5 118t-186.5 41.5h-153v-684h153z" />
    <glyph glyph-name="dcroat" unicode="&#x111;" horiz-adv-x="585" 
d="M603 612v-8h-251v8h251zM510 700v-700h-8v187l1 -1q-18 -88 -78 -140t-145 -52q-67 0 -119 33t-81.5 91.5t-29.5 133.5q0 74 29.5 133t81.5 92t119 33q85 0 145 -52.5t78 -139.5l-1 -1v383h8zM165.5 470q-50.5 -32 -79 -89t-28.5 -129q0 -73 28.5 -129.5t79 -88.5
t114.5 -32t114.5 32t79 88.5t28.5 129.5q0 72 -28.5 129t-79 89t-114.5 32t-114.5 -32z" />
    <glyph glyph-name="Emacron" unicode="&#x112;" horiz-adv-x="531" 
d="M487 699v-8h-401v-328h340v-8h-340v-348h415v-8h-423v700h409zM150 856h230v-8h-230v8z" />
    <glyph glyph-name="emacron" unicode="&#x113;" horiz-adv-x="546" 
d="M161.5 27q-52.5 33 -82 92t-29.5 134t28.5 133.5t79 91t115.5 32.5q63 0 112 -27.5t78.5 -80.5t32.5 -127v-1.5v-1.5h-437q-1 -5 -1 -9.5v-9.5q0 -72 28.5 -129.5t79 -89.5t113.5 -32q72 0 127 44.5t74 118.5h8q-12 -51 -42.5 -90t-73.5 -60t-93 -21q-65 0 -117.5 33z
M168 474q-47 -28 -75.5 -78.5t-33.5 -115.5h428q-7 105 -65 163.5t-149 58.5q-58 0 -105 -28zM158 660h230v-8h-230v8z" />
    <glyph glyph-name="Ebreve" unicode="&#x114;" horiz-adv-x="531" 
d="M487 699v-8h-401v-328h340v-8h-340v-348h415v-8h-423v700h409zM185.5 815.5q-30.5 31.5 -30.5 80.5h8q0 -45 28.5 -74.5t71.5 -29.5q45 0 74.5 29.5t29.5 74.5h8q0 -49 -31.5 -80.5t-80.5 -31.5q-47 0 -77.5 31.5z" />
    <glyph glyph-name="ebreve" unicode="&#x115;" horiz-adv-x="546" 
d="M161.5 27q-52.5 33 -82 92t-29.5 134t28.5 133.5t79 91t115.5 32.5q63 0 112 -27.5t78.5 -80.5t32.5 -127v-1.5v-1.5h-437q-1 -5 -1 -9.5v-9.5q0 -72 28.5 -129.5t79 -89.5t113.5 -32q72 0 127 44.5t74 118.5h8q-12 -51 -42.5 -90t-73.5 -60t-93 -21q-65 0 -117.5 33z
M168 474q-47 -28 -75.5 -78.5t-33.5 -115.5h428q-7 105 -65 163.5t-149 58.5q-58 0 -105 -28zM193.5 619.5q-30.5 31.5 -30.5 80.5h8q0 -45 28.5 -74.5t71.5 -29.5q45 0 74.5 29.5t29.5 74.5h8q0 -49 -31.5 -80.5t-80.5 -31.5q-47 0 -77.5 31.5z" />
    <glyph glyph-name="Edotaccent" unicode="&#x116;" horiz-adv-x="531" 
d="M487 699v-8h-401v-328h340v-8h-340v-348h415v-8h-423v700h409zM256.5 866.5q3.5 3.5 8.5 3.5t8.5 -3.5t3.5 -8.5t-3.5 -8.5t-8.5 -3.5t-8.5 3.5t-3.5 8.5t3.5 8.5z" />
    <glyph glyph-name="edotaccent" unicode="&#x117;" horiz-adv-x="546" 
d="M161.5 27q-52.5 33 -82 92t-29.5 134t28.5 133.5t79 91t115.5 32.5q63 0 112 -27.5t78.5 -80.5t32.5 -127v-1.5v-1.5h-437q-1 -5 -1 -9.5v-9.5q0 -72 28.5 -129.5t79 -89.5t113.5 -32q72 0 127 44.5t74 118.5h8q-12 -51 -42.5 -90t-73.5 -60t-93 -21q-65 0 -117.5 33z
M168 474q-47 -28 -75.5 -78.5t-33.5 -115.5h428q-7 105 -65 163.5t-149 58.5q-58 0 -105 -28zM264.5 670.5q3.5 3.5 8.5 3.5t8.5 -3.5t3.5 -8.5t-3.5 -8.5t-8.5 -3.5t-8.5 3.5t-3.5 8.5t3.5 8.5z" />
    <glyph glyph-name="Eogonek" unicode="&#x118;" horiz-adv-x="531" 
d="M487 699v-8h-401v-328h340v-8h-340v-348h415v-8h-423v700h409zM398.5 -181.5q-20.5 18.5 -20.5 50.5q0 36 28.5 65t89.5 71l5 -5l-15 -11q-53 -39 -76.5 -64t-23.5 -56q0 -29 18.5 -45t51.5 -16h55v-8h-55q-37 0 -57.5 18.5z" />
    <glyph glyph-name="eogonek" unicode="&#x119;" horiz-adv-x="546" 
d="M161.5 27q-52.5 33 -82 92t-29.5 134t28.5 133.5t79 91t115.5 32.5q63 0 112 -27.5t78.5 -80.5t32.5 -127v-1.5v-1.5h-437q-1 -5 -1 -9.5v-9.5q0 -72 28.5 -129.5t79 -89.5t113.5 -32q72 0 127 44.5t74 118.5h8q-12 -51 -42.5 -90t-73.5 -60t-93 -21q-65 0 -117.5 33z
M168 474q-47 -28 -75.5 -78.5t-33.5 -115.5h428q-7 105 -65 163.5t-149 58.5q-58 0 -105 -28zM226.5 -181.5q-20.5 18.5 -20.5 50.5q0 36 28.5 65t89.5 71l5 -5l-15 -11q-53 -39 -76.5 -64t-23.5 -56q0 -29 18.5 -45t51.5 -16h55v-8h-55q-37 0 -57.5 18.5z" />
    <glyph glyph-name="Ecaron" unicode="&#x11a;" horiz-adv-x="531" 
d="M487 699v-8h-401v-328h340v-8h-340v-348h415v-8h-423v700h409zM387 896h11l-128 -128h-10l-128 128h11l122 -121z" />
    <glyph glyph-name="ecaron" unicode="&#x11b;" horiz-adv-x="546" 
d="M161.5 27q-52.5 33 -82 92t-29.5 134t28.5 133.5t79 91t115.5 32.5q63 0 112 -27.5t78.5 -80.5t32.5 -127v-1.5v-1.5h-437q-1 -5 -1 -9.5v-9.5q0 -72 28.5 -129.5t79 -89.5t113.5 -32q72 0 127 44.5t74 118.5h8q-12 -51 -42.5 -90t-73.5 -60t-93 -21q-65 0 -117.5 33z
M168 474q-47 -28 -75.5 -78.5t-33.5 -115.5h428q-7 105 -65 163.5t-149 58.5q-58 0 -105 -28zM395 700h11l-128 -128h-10l-128 128h11l122 -121z" />
    <glyph glyph-name="Gcircumflex" unicode="&#x11c;" horiz-adv-x="727" 
d="M197 39q-68 45 -105 126t-37 184q0 104 37.5 185t107.5 126.5t163 45.5q69 0 123 -23t92 -68t56 -111h-9q-28 95 -95 144.5t-167 49.5q-90 0 -158 -44.5t-105 -123.5t-37 -181q0 -101 36.5 -180t102 -123.5t151.5 -44.5q92 0 157 41.5t98 109.5t33 147v39h-257v8h265
v-346h-8v229q-21 -103 -95 -169t-193 -66q-88 0 -156 45zM240 768h-11l128 128h10l128 -128h-11l-122 121z" />
    <glyph glyph-name="gcircumflex" unicode="&#x11d;" horiz-adv-x="575" 
d="M142 -165.5q-57 40.5 -72 115.5h9q14 -71 68.5 -109.5t137.5 -38.5q111 0 164 56.5t53 181.5v148l1 -1q-18 -88 -78 -140.5t-145 -52.5q-67 0 -119 33t-81.5 92t-29.5 134t29 133.5t81.5 91t119.5 32.5q85 0 145 -52t78 -139l-1 -1v186h8v-464q0 -130 -55.5 -188
t-169.5 -58q-86 0 -143 40.5zM394.5 34q50.5 32 79 89.5t28.5 130.5q0 72 -28.5 128.5t-79 88t-114.5 31.5t-114.5 -32t-79 -88.5t-28.5 -128.5q0 -73 28.5 -130t79 -89t114.5 -32t114.5 32zM158 572h-11l128 128h10l128 -128h-11l-122 121z" />
    <glyph glyph-name="Gbreve" unicode="&#x11e;" horiz-adv-x="727" 
d="M197 39q-68 45 -105 126t-37 184q0 104 37.5 185t107.5 126.5t163 45.5q69 0 123 -23t92 -68t56 -111h-9q-28 95 -95 144.5t-167 49.5q-90 0 -158 -44.5t-105 -123.5t-37 -181q0 -101 36.5 -180t102 -123.5t151.5 -44.5q92 0 157 41.5t98 109.5t33 147v39h-257v8h265
v-346h-8v229q-21 -103 -95 -169t-193 -66q-88 0 -156 45zM282.5 815.5q-30.5 31.5 -30.5 80.5h8q0 -45 28.5 -74.5t71.5 -29.5q45 0 74.5 29.5t29.5 74.5h8q0 -49 -31.5 -80.5t-80.5 -31.5q-47 0 -77.5 31.5z" />
    <glyph glyph-name="gbreve" unicode="&#x11f;" horiz-adv-x="575" 
d="M142 -165.5q-57 40.5 -72 115.5h9q14 -71 68.5 -109.5t137.5 -38.5q111 0 164 56.5t53 181.5v148l1 -1q-18 -88 -78 -140.5t-145 -52.5q-67 0 -119 33t-81.5 92t-29.5 134t29 133.5t81.5 91t119.5 32.5q85 0 145 -52t78 -139l-1 -1v186h8v-464q0 -130 -55.5 -188
t-169.5 -58q-86 0 -143 40.5zM394.5 34q50.5 32 79 89.5t28.5 130.5q0 72 -28.5 128.5t-79 88t-114.5 31.5t-114.5 -32t-79 -88.5t-28.5 -128.5q0 -73 28.5 -130t79 -89t114.5 -32t114.5 32zM200.5 619.5q-30.5 31.5 -30.5 80.5h8q0 -45 28.5 -74.5t71.5 -29.5
q45 0 74.5 29.5t29.5 74.5h8q0 -49 -31.5 -80.5t-80.5 -31.5q-47 0 -77.5 31.5z" />
    <glyph glyph-name="Gdotaccent" unicode="&#x120;" horiz-adv-x="727" 
d="M197 39q-68 45 -105 126t-37 184q0 104 37.5 185t107.5 126.5t163 45.5q69 0 123 -23t92 -68t56 -111h-9q-28 95 -95 144.5t-167 49.5q-90 0 -158 -44.5t-105 -123.5t-37 -181q0 -101 36.5 -180t102 -123.5t151.5 -44.5q92 0 157 41.5t98 109.5t33 147v39h-257v8h265
v-346h-8v229q-21 -103 -95 -169t-193 -66q-88 0 -156 45zM353.5 866.5q3.5 3.5 8.5 3.5t8.5 -3.5t3.5 -8.5t-3.5 -8.5t-8.5 -3.5t-8.5 3.5t-3.5 8.5t3.5 8.5z" />
    <glyph glyph-name="gdotaccent" unicode="&#x121;" horiz-adv-x="575" 
d="M142 -165.5q-57 40.5 -72 115.5h9q14 -71 68.5 -109.5t137.5 -38.5q111 0 164 56.5t53 181.5v148l1 -1q-18 -88 -78 -140.5t-145 -52.5q-67 0 -119 33t-81.5 92t-29.5 134t29 133.5t81.5 91t119.5 32.5q85 0 145 -52t78 -139l-1 -1v186h8v-464q0 -130 -55.5 -188
t-169.5 -58q-86 0 -143 40.5zM394.5 34q50.5 32 79 89.5t28.5 130.5q0 72 -28.5 128.5t-79 88t-114.5 31.5t-114.5 -32t-79 -88.5t-28.5 -128.5q0 -73 28.5 -130t79 -89t114.5 -32t114.5 32zM271.5 670.5q3.5 3.5 8.5 3.5t8.5 -3.5t3.5 -8.5t-3.5 -8.5t-8.5 -3.5t-8.5 3.5
t-3.5 8.5t3.5 8.5z" />
    <glyph glyph-name="uni0122" unicode="&#x122;" horiz-adv-x="727" 
d="M197 39q-68 45 -105 126t-37 184q0 104 37.5 185t107.5 126.5t163 45.5q69 0 123 -23t92 -68t56 -111h-9q-28 95 -95 144.5t-167 49.5q-90 0 -158 -44.5t-105 -123.5t-37 -181q0 -101 36.5 -180t102 -123.5t151.5 -44.5q92 0 157 41.5t98 109.5t33 147v39h-257v8h265
v-346h-8v229q-21 -103 -95 -169t-193 -66q-88 0 -156 45zM357 -54l-43 -138h-8l43 138h8z" />
    <glyph glyph-name="uni0123" unicode="&#x123;" horiz-adv-x="575" 
d="M142 -165.5q-57 40.5 -72 115.5h9q14 -71 68.5 -109.5t137.5 -38.5q111 0 164 56.5t53 181.5v148l1 -1q-18 -88 -78 -140.5t-145 -52.5q-67 0 -119 33t-81.5 92t-29.5 134t29 133.5t81.5 91t119.5 32.5q85 0 145 -52t78 -139l-1 -1v186h8v-464q0 -130 -55.5 -188
t-169.5 -58q-86 0 -143 40.5zM394.5 34q50.5 32 79 89.5t28.5 130.5q0 72 -28.5 128.5t-79 88t-114.5 31.5t-114.5 -32t-79 -88.5t-28.5 -128.5q0 -73 28.5 -130t79 -89t114.5 -32t114.5 32zM268 562l43 138h8l-43 -138h-8z" />
    <glyph glyph-name="Hcircumflex" unicode="&#x124;" horiz-adv-x="636" 
d="M86 701v-338h464v338h8v-701h-8v355h-464v-355h-8v701h8zM196 768h-11l128 128h10l128 -128h-11l-122 121z" />
    <glyph glyph-name="hcircumflex" unicode="&#x125;" horiz-adv-x="528" 
d="M73 700v-385l-1 1q17 91 71 142.5t135 51.5q88 0 139 -58.5t51 -166.5v-285h-8v285q0 104 -49 160.5t-133 56.5q-62 0 -108.5 -32t-71.5 -91t-25 -137v-242h-8v700h8zM-53 758h-11l128 128h10l128 -128h-11l-122 121z" />
    <glyph glyph-name="Hbar" unicode="&#x126;" horiz-adv-x="646" 
d="M647 538v-8h-648v8h648zM91 701v-343h464v343h8v-701h-8v350h-464v-350h-8v701h8z" />
    <glyph glyph-name="hbar" unicode="&#x127;" horiz-adv-x="538" 
d="M233 612v-8h-251v8h251zM83 700v-385l-1 1q17 91 71 142.5t135 51.5q88 0 139 -58.5t51 -166.5v-285h-8v285q0 104 -49 160.5t-133 56.5q-62 0 -108.5 -32t-71.5 -91t-25 -137v-242h-8v700h8z" />
    <glyph glyph-name="Itilde" unicode="&#x128;" horiz-adv-x="164" 
d="M86 700v-700h-8v700h8zM55.5 864.5q-11.5 7.5 -28.5 7.5q-24 0 -35.5 -16.5t-11.5 -40.5h-8v1q0 28 14 46t41 18q21 0 33 -8t25 -24q12 -14 23.5 -21.5t28.5 -7.5q24 0 35.5 16.5t11.5 40.5h8v-1q0 -28 -14 -46t-41 -18q-21 0 -33 8t-25 24q-12 14 -23.5 21.5z" />
    <glyph glyph-name="itilde" unicode="&#x129;" horiz-adv-x="138" 
d="M73 504v-504h-8v504h8zM42.5 668.5q-11.5 7.5 -28.5 7.5q-24 0 -35.5 -16.5t-11.5 -40.5h-8v1q0 28 14 46t41 18q21 0 33 -8t25 -24q12 -14 23.5 -21.5t28.5 -7.5q24 0 35.5 16.5t11.5 40.5h8v-1q0 -28 -14 -46t-41 -18q-21 0 -33 8t-25 24q-12 14 -23.5 21.5z" />
    <glyph glyph-name="Imacron" unicode="&#x12a;" horiz-adv-x="164" 
d="M86 700v-700h-8v700h8zM-33 856h230v-8h-230v8z" />
    <glyph glyph-name="imacron" unicode="&#x12b;" horiz-adv-x="138" 
d="M73 504v-504h-8v504h8zM-46 660h230v-8h-230v8z" />
    <glyph glyph-name="Ibreve" unicode="&#x12c;" horiz-adv-x="164" 
d="M86 700v-700h-8v700h8zM2.5 815.5q-30.5 31.5 -30.5 80.5h8q0 -45 28.5 -74.5t71.5 -29.5q45 0 74.5 29.5t29.5 74.5h8q0 -49 -31.5 -80.5t-80.5 -31.5q-47 0 -77.5 31.5z" />
    <glyph glyph-name="ibreve" unicode="&#x12d;" horiz-adv-x="138" 
d="M73 504v-504h-8v504h8zM-10.5 619.5q-30.5 31.5 -30.5 80.5h8q0 -45 28.5 -74.5t71.5 -29.5q45 0 74.5 29.5t29.5 74.5h8q0 -49 -31.5 -80.5t-80.5 -31.5q-47 0 -77.5 31.5z" />
    <glyph glyph-name="Iogonek" unicode="&#x12e;" horiz-adv-x="164" 
d="M86 700v-700h-8v700h8zM-16.5 -181.5q-20.5 18.5 -20.5 50.5q0 36 28.5 65t89.5 71l5 -5l-15 -11q-53 -39 -76.5 -64t-23.5 -56q0 -29 18.5 -45t51.5 -16h55v-8h-55q-37 0 -57.5 18.5z" />
    <glyph glyph-name="iogonek" unicode="&#x12f;" horiz-adv-x="138" 
d="M73 504v-504h-8v504h8zM77.5 670.5q3.5 -3.5 3.5 -8.5t-3.5 -8.5t-8.5 -3.5t-8.5 3.5t-3.5 8.5t3.5 8.5t8.5 3.5t8.5 -3.5zM-29.5 -181.5q-20.5 18.5 -20.5 50.5q0 36 28.5 65t89.5 71l5 -5l-15 -11q-53 -39 -76.5 -64t-23.5 -56q0 -29 18.5 -45t51.5 -16h55v-8h-55
q-37 0 -57.5 18.5z" />
    <glyph glyph-name="Idotaccent" unicode="&#x130;" horiz-adv-x="164" 
d="M86 700v-700h-8v700h8zM73.5 866.5q3.5 3.5 8.5 3.5t8.5 -3.5t3.5 -8.5t-3.5 -8.5t-8.5 -3.5t-8.5 3.5t-3.5 8.5t3.5 8.5z" />
    <glyph glyph-name="dotlessi" unicode="&#x131;" horiz-adv-x="138" 
d="M73 504v-504h-8v504h8z" />
    <glyph glyph-name="IJ" unicode="&#x132;" horiz-adv-x="568" 
d="M83 700v-259h-8v259h8zM130 57.5q-55 63.5 -55 176.5h8q0 -110 53 -171t147 -61q100 0 151 55t51 187v456h8v-456q0 -136 -53.5 -193t-156.5 -57q-98 0 -153 63.5z" />
    <glyph glyph-name="ij" unicode="&#x133;" horiz-adv-x="282" 
d="M73 504v-504h-8v504h8zM77.5 670.5q3.5 -3.5 3.5 -8.5t-3.5 -8.5t-8.5 -3.5t-8.5 3.5t-3.5 8.5t3.5 8.5t8.5 3.5t8.5 -3.5zM221.5 670.5q3.5 -3.5 3.5 -8.5t-3.5 -8.5t-8.5 -3.5t-8.5 3.5t-3.5 8.5t3.5 8.5t8.5 3.5t8.5 -3.5zM119 -192q49 0 69.5 20.5t20.5 69.5v606h8
v-606q0 -52 -23 -75t-75 -23h-53v8h53z" />
    <glyph glyph-name="Jcircumflex" unicode="&#x134;" horiz-adv-x="323" 
d="M245 700v-581q0 -62 -28.5 -90.5t-90.5 -28.5h-96v8h96q59 0 85 26.5t26 84.5v581h8zM118 768h-11l128 128h10l128 -128h-11l-122 121z" />
    <glyph glyph-name="jcircumflex" unicode="&#x135;" horiz-adv-x="144" 
d="M-19 -192q49 0 69.5 20.5t20.5 69.5v606h8v-606q0 -52 -23 -75t-75 -23h-53v8h53zM-48 572h-11l128 128h10l128 -128h-11l-122 121z" />
    <glyph glyph-name="uni0136" unicode="&#x136;" horiz-adv-x="572" 
d="M86 700v-503l435 503h10l-251 -290l277 -410h-10l-273 403l-188 -218v-185h-8v700h8zM310 -55l-43 -138h-8l43 138h8z" />
    <glyph glyph-name="uni0137" unicode="&#x137;" horiz-adv-x="468" 
d="M73 700v-548l349 352h11l-212 -213l232 -291h-10l-228 285l-142 -143v-142h-8v700h8zM253 -55l-43 -138h-8l43 138h8z" />
    <glyph glyph-name="Lacute" unicode="&#x139;" horiz-adv-x="464" 
d="M78 700h8v-692h358v-8h-366v700zM177 896h10l-99 -127h-10z" />
    <glyph glyph-name="lacute" unicode="&#x13a;" horiz-adv-x="138" 
d="M73 700v-700h-8v700h8zM164 886h10l-99 -127h-10z" />
    <glyph glyph-name="uni013B" unicode="&#x13b;" horiz-adv-x="464" 
d="M78 700h8v-692h358v-8h-366v700zM265 -55l-43 -138h-8l43 138h8z" />
    <glyph glyph-name="uni013C" unicode="&#x13c;" horiz-adv-x="138" 
d="M73 700v-700h-8v700h8zM73 -55l-43 -138h-8l43 138h8z" />
    <glyph glyph-name="Lcaron" unicode="&#x13d;" horiz-adv-x="464" 
d="M78 700h8v-692h358v-8h-366v700zM229 700l-46 -143h-8l46 143h8z" />
    <glyph glyph-name="lcaron" unicode="&#x13e;" horiz-adv-x="171" 
d="M73 700v-700h-8v700h8zM180 700l-46 -143h-8l46 143h8z" />
    <glyph glyph-name="Ldot" unicode="&#x13f;" horiz-adv-x="464" 
d="M78 700h8v-692h358v-8h-366v700zM303.5 373.5q3.5 3.5 8.5 3.5t8.5 -3.5t3.5 -8.5t-3.5 -8.5t-8.5 -3.5t-8.5 3.5t-3.5 8.5t3.5 8.5z" />
    <glyph glyph-name="ldot" unicode="&#x140;" horiz-adv-x="243" 
d="M73 700v-700h-8v700h8zM177.5 374.5q3.5 3.5 8.5 3.5t8.5 -3.5t3.5 -8.5t-3.5 -8.5t-8.5 -3.5t-8.5 3.5t-3.5 8.5t3.5 8.5z" />
    <glyph glyph-name="Lslash" unicode="&#x141;" horiz-adv-x="482" 
d="M-1 296l284 150v-9l-284 -150v9zM96 700h8v-692h358v-8h-366v700z" />
    <glyph glyph-name="lslash" unicode="&#x142;" horiz-adv-x="238" 
d="M6 325l226 127v-9l-226 -127v9zM123 700v-700h-8v700h8z" />
    <glyph glyph-name="Nacute" unicode="&#x143;" horiz-adv-x="642" 
d="M78 700h10l468 -687v687h8v-700h-10l-468 688v-688h-8v700zM417 896h10l-99 -127h-10z" />
    <glyph glyph-name="nacute" unicode="&#x144;" horiz-adv-x="528" 
d="M73 504v-189l-1 1q17 91 71 142.5t135 51.5q88 0 139 -58.5t51 -166.5v-285h-8v285q0 104 -49 160.5t-133 56.5q-62 0 -108.5 -32t-71.5 -91t-25 -137v-242h-8v504h8zM373 700h10l-99 -127h-10z" />
    <glyph glyph-name="uni0145" unicode="&#x145;" horiz-adv-x="642" 
d="M78 700h10l468 -687v687h8v-700h-10l-468 688v-688h-8v700zM326 -55l-43 -138h-8l43 138h8z" />
    <glyph glyph-name="uni0146" unicode="&#x146;" horiz-adv-x="528" 
d="M73 504v-189l-1 1q17 91 71 142.5t135 51.5q88 0 139 -58.5t51 -166.5v-285h-8v285q0 104 -49 160.5t-133 56.5q-62 0 -108.5 -32t-71.5 -91t-25 -137v-242h-8v504h8zM270 -55l-43 -138h-8l43 138h8z" />
    <glyph glyph-name="Ncaron" unicode="&#x147;" horiz-adv-x="642" 
d="M78 700h10l468 -687v687h8v-700h-10l-468 688v-688h-8v700zM444 896h11l-128 -128h-10l-128 128h11l122 -121z" />
    <glyph glyph-name="ncaron" unicode="&#x148;" horiz-adv-x="528" 
d="M73 504v-189l-1 1q17 91 71 142.5t135 51.5q88 0 139 -58.5t51 -166.5v-285h-8v285q0 104 -49 160.5t-133 56.5q-62 0 -108.5 -32t-71.5 -91t-25 -137v-242h-8v504h8zM400 700h11l-128 -128h-10l-128 128h11l122 -121z" />
    <glyph glyph-name="napostrophe" unicode="&#x149;" horiz-adv-x="657" 
d="M55.5 700.5q3.5 3.5 9.5 3.5q14 0 25.5 -16.5t11.5 -39.5q0 -32 -20 -56.5t-52 -27.5v7q26 2 45 24t19 53t-20 44q-1 -12 -12 -12q-4 0 -7 3t-3 8q0 6 3.5 9.5zM202 504v-189l-1 1q17 91 71 142.5t135 51.5q88 0 139 -58.5t51 -166.5v-285h-8v285q0 104 -49 160.5
t-133 56.5q-62 0 -108.5 -32t-71.5 -91t-25 -137v-242h-8v504h8z" />
    <glyph glyph-name="Eng" unicode="&#x14a;" horiz-adv-x="642" 
d="M466 -192q49 0 69.5 20.5t20.5 69.5v112h8v-112q0 -52 -23 -75t-75 -23h-53v8h53zM78 700h10l468 -685v685h8v-700h-8l-470 688v-688h-8v700z" />
    <glyph glyph-name="eng" unicode="&#x14b;" horiz-adv-x="528" 
d="M417 451.5q51 -58.5 51 -166.5v-387q0 -52 -23 -75t-75 -23h-53v8h53q49 0 69.5 20.5t20.5 69.5v387q0 104 -49 160.5t-133 56.5q-62 0 -108.5 -32t-71.5 -91t-25 -137v-242h-8v504h8v-183q18 89 71.5 139t133.5 50q88 0 139 -58.5z" />
    <glyph glyph-name="Omacron" unicode="&#x14c;" horiz-adv-x="744" 
d="M536 660.5q72 -45.5 112.5 -126.5t40.5 -184t-40.5 -184t-112.5 -126.5t-164 -45.5t-164 45.5t-112.5 126.5t-40.5 184t40.5 184t112.5 126.5t164 45.5t164 -45.5zM212 654q-70 -44 -109.5 -123.5t-39.5 -180.5t39.5 -180.5t109.5 -123.5t160 -44t160 44t109.5 123.5
t39.5 180.5t-39.5 180.5t-109.5 123.5t-160 44t-160 -44zM258 856h230v-8h-230v8z" />
    <glyph glyph-name="omacron" unicode="&#x14d;" horiz-adv-x="560" 
d="M394.5 33.5q50.5 31.5 79 88.5t28.5 130t-28.5 130t-79 88.5t-114.5 31.5t-114.5 -31.5t-79 -88.5t-28.5 -130t28.5 -130t79 -88.5t114.5 -31.5t114.5 31.5zM161 27q-52 33 -81.5 91.5t-29.5 133.5t29.5 133.5t81.5 91.5t119 33t119 -33t81.5 -91.5t29.5 -133.5
t-29.5 -133.5t-81.5 -91.5t-119 -33t-119 33zM165 660h230v-8h-230v8z" />
    <glyph glyph-name="Obreve" unicode="&#x14e;" horiz-adv-x="744" 
d="M536 660.5q72 -45.5 112.5 -126.5t40.5 -184t-40.5 -184t-112.5 -126.5t-164 -45.5t-164 45.5t-112.5 126.5t-40.5 184t40.5 184t112.5 126.5t164 45.5t164 -45.5zM212 654q-70 -44 -109.5 -123.5t-39.5 -180.5t39.5 -180.5t109.5 -123.5t160 -44t160 44t109.5 123.5
t39.5 180.5t-39.5 180.5t-109.5 123.5t-160 44t-160 -44zM293.5 815.5q-30.5 31.5 -30.5 80.5h8q0 -45 28.5 -74.5t71.5 -29.5q45 0 74.5 29.5t29.5 74.5h8q0 -49 -31.5 -80.5t-80.5 -31.5q-47 0 -77.5 31.5z" />
    <glyph glyph-name="obreve" unicode="&#x14f;" horiz-adv-x="560" 
d="M394.5 33.5q50.5 31.5 79 88.5t28.5 130t-28.5 130t-79 88.5t-114.5 31.5t-114.5 -31.5t-79 -88.5t-28.5 -130t28.5 -130t79 -88.5t114.5 -31.5t114.5 31.5zM161 27q-52 33 -81.5 91.5t-29.5 133.5t29.5 133.5t81.5 91.5t119 33t119 -33t81.5 -91.5t29.5 -133.5
t-29.5 -133.5t-81.5 -91.5t-119 -33t-119 33zM200.5 619.5q-30.5 31.5 -30.5 80.5h8q0 -45 28.5 -74.5t71.5 -29.5q45 0 74.5 29.5t29.5 74.5h8q0 -49 -31.5 -80.5t-80.5 -31.5q-47 0 -77.5 31.5z" />
    <glyph glyph-name="Ohungarumlaut" unicode="&#x150;" horiz-adv-x="744" 
d="M536 660.5q72 -45.5 112.5 -126.5t40.5 -184t-40.5 -184t-112.5 -126.5t-164 -45.5t-164 45.5t-112.5 126.5t-40.5 184t40.5 184t112.5 126.5t164 45.5t164 -45.5zM212 654q-70 -44 -109.5 -123.5t-39.5 -180.5t39.5 -180.5t109.5 -123.5t160 -44t160 44t109.5 123.5
t39.5 180.5t-39.5 180.5t-109.5 123.5t-160 44t-160 -44zM388 896h10l-99 -127h-10zM535 896h10l-99 -127h-10z" />
    <glyph glyph-name="ohungarumlaut" unicode="&#x151;" horiz-adv-x="560" 
d="M394.5 33.5q50.5 31.5 79 88.5t28.5 130t-28.5 130t-79 88.5t-114.5 31.5t-114.5 -31.5t-79 -88.5t-28.5 -130t28.5 -130t79 -88.5t114.5 -31.5t114.5 31.5zM161 27q-52 33 -81.5 91.5t-29.5 133.5t29.5 133.5t81.5 91.5t119 33t119 -33t81.5 -91.5t29.5 -133.5
t-29.5 -133.5t-81.5 -91.5t-119 -33t-119 33zM295 700h10l-99 -127h-10zM442 700h10l-99 -127h-10z" />
    <glyph glyph-name="OE" unicode="&#x152;" horiz-adv-x="1135" 
d="M643 529.5q-39 79.5 -109 124t-161 44.5t-161.5 -44.5t-109.5 -124t-39 -180.5t39 -180t109.5 -123.5t161.5 -44.5t161 44.5t109 123.5t39 180t-39 180.5zM95 534q40 81 112.5 126.5t165.5 45.5t165 -45.5t111.5 -126.5t39.5 -185q0 -103 -39.5 -184t-111.5 -126
t-165 -45t-165.5 45t-112.5 126t-40 184q0 104 40 185zM1091 700v-8h-401v-328h340v-8h-340v-348h415v-8h-423v700h409z" />
    <glyph glyph-name="oe" unicode="&#x153;" horiz-adv-x="999" 
d="M614.5 27q-52.5 33 -82 92t-29.5 134t28.5 133.5t79 91t115.5 32.5q63 0 112 -27.5t78.5 -80.5t32.5 -127v-1.5v-1.5h-437q-1 -5 -1 -9.5v-9.5q0 -72 28.5 -129.5t79 -89.5t113.5 -32q72 0 127 44.5t74 118.5h8q-12 -51 -42.5 -90t-73.5 -60t-93 -21q-65 0 -117.5 33z
M621 474q-47 -28 -75.5 -78.5t-33.5 -115.5h428q-7 105 -65 163.5t-149 58.5q-58 0 -105 -28zM161 27q-52 33 -81.5 92t-29.5 134t29.5 133.5t81.5 91t119 32.5t119 -32.5t81.5 -91t29.5 -132.5q0 -76 -29.5 -135t-81.5 -92t-119 -33t-119 33zM394.5 34q50.5 32 79 89.5
t28.5 130.5q0 72 -28.5 128.5t-79 88t-114.5 31.5t-114.5 -32t-79 -88.5t-28.5 -128.5q0 -73 28.5 -130t79 -89t114.5 -32t114.5 32z" />
    <glyph glyph-name="Racute" unicode="&#x154;" horiz-adv-x="572" 
d="M325 700q61 0 106.5 -23t70.5 -66t25 -100q0 -81 -50.5 -131.5t-135.5 -55.5l179 -324h-10l-179 324h-245v-324h-8v700h247zM86 332h238q89 0 142 48.5t53 130.5q0 83 -53 132t-141 49h-239v-360zM378 896h10l-99 -127h-10z" />
    <glyph glyph-name="racute" unicode="&#x155;" horiz-adv-x="281" 
d="M73 504v-155v1q11 74 48.5 114t111.5 40h22v-8h-22q-93 0 -126.5 -63.5t-33.5 -180.5v-252h-8v504h8zM243 700h10l-99 -127h-10z" />
    <glyph glyph-name="uni0156" unicode="&#x156;" horiz-adv-x="572" 
d="M325 700q61 0 106.5 -23t70.5 -66t25 -100q0 -81 -50.5 -131.5t-135.5 -55.5l179 -324h-10l-179 324h-245v-324h-8v700h247zM86 332h238q89 0 142 48.5t53 130.5q0 83 -53 132t-141 49h-239v-360zM291 -55l-43 -138h-8l43 138h8z" />
    <glyph glyph-name="uni0157" unicode="&#x157;" horiz-adv-x="281" 
d="M73 504v-155v1q11 74 48.5 114t111.5 40h22v-8h-22q-93 0 -126.5 -63.5t-33.5 -180.5v-252h-8v504h8zM73 -55l-43 -138h-8l43 138h8z" />
    <glyph glyph-name="Rcaron" unicode="&#x158;" horiz-adv-x="572" 
d="M325 700q61 0 106.5 -23t70.5 -66t25 -100q0 -81 -50.5 -131.5t-135.5 -55.5l179 -324h-10l-179 324h-245v-324h-8v700h247zM86 332h238q89 0 142 48.5t53 130.5q0 83 -53 132t-141 49h-239v-360zM405 896h11l-128 -128h-10l-128 128h11l122 -121z" />
    <glyph glyph-name="rcaron" unicode="&#x159;" horiz-adv-x="281" 
d="M73 504v-155v1q11 74 48.5 114t111.5 40h22v-8h-22q-93 0 -126.5 -63.5t-33.5 -180.5v-252h-8v504h8zM270 700h11l-128 -128h-10l-128 128h11l122 -121z" />
    <glyph glyph-name="Sacute" unicode="&#x15a;" horiz-adv-x="584" 
d="M172 19.5q-52 24.5 -82.5 70.5t-34.5 107h8q5 -89 67 -141.5t162 -52.5q106 0 167.5 48t61.5 131q0 57 -31.5 91t-79.5 50.5t-119 28.5l-5 1q-74 13 -116.5 27t-72 47.5t-29.5 93.5q0 58 28 100t80 64t123 22q61 0 109 -22t77 -62t36 -95l-8 -1q-11 80 -68 126t-146 46
q-103 0 -163 -47t-60 -131q0 -58 28.5 -90t71 -45t114.5 -26h1q73 -12 123 -29t82.5 -53t32.5 -96q0 -57 -29 -99.5t-82.5 -65t-125.5 -22.5q-68 0 -120 24.5zM393 896h10l-99 -127h-10z" />
    <glyph glyph-name="sacute" unicode="&#x15b;" horiz-adv-x="484" 
d="M105 31.5q-54 37.5 -58 108.5h8q4 -67 57 -102.5t139 -35.5q76 0 127 34t51 91q0 42 -24.5 67t-63 37t-96.5 22h-2l-11 2q-57 9 -92 19.5t-59.5 35t-24.5 68.5q0 39 23 69t65 46.5t96 16.5q79 0 130.5 -34t60.5 -99h-8q-10 62 -58.5 93.5t-124.5 31.5q-79 0 -127.5 -34.5
t-48.5 -89.5q0 -41 23.5 -64t57 -32.5t92.5 -19.5q2 0 3.5 -0.5t3.5 -0.5q61 -10 101 -22.5t66 -39.5t26 -72q0 -40 -24.5 -70.5t-67 -46.5t-94.5 -16q-92 0 -146 37.5zM340 700h10l-99 -127h-10z" />
    <glyph glyph-name="Scircumflex" unicode="&#x15c;" horiz-adv-x="584" 
d="M172 19.5q-52 24.5 -82.5 70.5t-34.5 107h8q5 -89 67 -141.5t162 -52.5q106 0 167.5 48t61.5 131q0 57 -31.5 91t-79.5 50.5t-119 28.5l-5 1q-74 13 -116.5 27t-72 47.5t-29.5 93.5q0 58 28 100t80 64t123 22q61 0 109 -22t77 -62t36 -95l-8 -1q-11 80 -68 126t-146 46
q-103 0 -163 -47t-60 -131q0 -58 28.5 -90t71 -45t114.5 -26h1q73 -12 123 -29t82.5 -53t32.5 -96q0 -57 -29 -99.5t-82.5 -65t-125.5 -22.5q-68 0 -120 24.5zM176 768h-11l128 128h10l128 -128h-11l-122 121z" />
    <glyph glyph-name="scircumflex" unicode="&#x15d;" horiz-adv-x="484" 
d="M105 31.5q-54 37.5 -58 108.5h8q4 -67 57 -102.5t139 -35.5q76 0 127 34t51 91q0 42 -24.5 67t-63 37t-96.5 22h-2l-11 2q-57 9 -92 19.5t-59.5 35t-24.5 68.5q0 39 23 69t65 46.5t96 16.5q79 0 130.5 -34t60.5 -99h-8q-10 62 -58.5 93.5t-124.5 31.5q-79 0 -127.5 -34.5
t-48.5 -89.5q0 -41 23.5 -64t57 -32.5t92.5 -19.5q2 0 3.5 -0.5t3.5 -0.5q61 -10 101 -22.5t66 -39.5t26 -72q0 -40 -24.5 -70.5t-67 -46.5t-94.5 -16q-92 0 -146 37.5zM123 572h-11l128 128h10l128 -128h-11l-122 121z" />
    <glyph glyph-name="Scedilla" unicode="&#x15e;" horiz-adv-x="584" 
d="M172 19.5q-52 24.5 -82.5 70.5t-34.5 107h8q5 -89 67 -141.5t162 -52.5q106 0 167.5 48t61.5 131q0 57 -31.5 91t-79.5 50.5t-119 28.5l-5 1q-74 13 -116.5 27t-72 47.5t-29.5 93.5q0 58 28 100t80 64t123 22q61 0 109 -22t77 -62t36 -95l-8 -1q-11 80 -68 126t-146 46
q-103 0 -163 -47t-60 -131q0 -58 28.5 -90t71 -45t114.5 -26h1q73 -12 123 -29t82.5 -53t32.5 -96q0 -57 -29 -99.5t-82.5 -65t-125.5 -22.5q-68 0 -120 24.5zM302 0l-12 -58h23q33 0 54 -19.5t21 -50.5q0 -32 -21.5 -52t-55.5 -20h-71v8h71q31 0 50 17.5t19 46.5
q0 27 -19 44.5t-48 17.5h-34l15 66h8z" />
    <glyph glyph-name="scedilla" unicode="&#x15f;" horiz-adv-x="484" 
d="M105 31.5q-54 37.5 -58 108.5h8q4 -67 57 -102.5t139 -35.5q76 0 127 34t51 91q0 42 -24.5 67t-63 37t-96.5 22h-2l-11 2q-57 9 -92 19.5t-59.5 35t-24.5 68.5q0 39 23 69t65 46.5t96 16.5q79 0 130.5 -34t60.5 -99h-8q-10 62 -58.5 93.5t-124.5 31.5q-79 0 -127.5 -34.5
t-48.5 -89.5q0 -41 23.5 -64t57 -32.5t92.5 -19.5q2 0 3.5 -0.5t3.5 -0.5q61 -10 101 -22.5t66 -39.5t26 -72q0 -40 -24.5 -70.5t-67 -46.5t-94.5 -16q-92 0 -146 37.5zM263 0l-12 -58h23q33 0 54 -19.5t21 -50.5q0 -32 -21.5 -52t-55.5 -20h-71v8h71q31 0 50 17.5t19 46.5
q0 27 -19 44.5t-48 17.5h-34l15 66h8z" />
    <glyph glyph-name="Scaron" unicode="&#x160;" horiz-adv-x="584" 
d="M172 19.5q-52 24.5 -82.5 70.5t-34.5 107h8q5 -89 67 -141.5t162 -52.5q106 0 167.5 48t61.5 131q0 57 -31.5 91t-79.5 50.5t-119 28.5l-5 1q-74 13 -116.5 27t-72 47.5t-29.5 93.5q0 58 28 100t80 64t123 22q61 0 109 -22t77 -62t36 -95l-8 -1q-11 80 -68 126t-146 46
q-103 0 -163 -47t-60 -131q0 -58 28.5 -90t71 -45t114.5 -26h1q73 -12 123 -29t82.5 -53t32.5 -96q0 -57 -29 -99.5t-82.5 -65t-125.5 -22.5q-68 0 -120 24.5zM420 896h11l-128 -128h-10l-128 128h11l122 -121z" />
    <glyph glyph-name="scaron" unicode="&#x161;" horiz-adv-x="484" 
d="M105 31.5q-54 37.5 -58 108.5h8q4 -67 57 -102.5t139 -35.5q76 0 127 34t51 91q0 42 -24.5 67t-63 37t-96.5 22h-2l-11 2q-57 9 -92 19.5t-59.5 35t-24.5 68.5q0 39 23 69t65 46.5t96 16.5q79 0 130.5 -34t60.5 -99h-8q-10 62 -58.5 93.5t-124.5 31.5q-79 0 -127.5 -34.5
t-48.5 -89.5q0 -41 23.5 -64t57 -32.5t92.5 -19.5q2 0 3.5 -0.5t3.5 -0.5q61 -10 101 -22.5t66 -39.5t26 -72q0 -40 -24.5 -70.5t-67 -46.5t-94.5 -16q-92 0 -146 37.5zM367 700h11l-128 -128h-10l-128 128h11l122 -121z" />
    <glyph glyph-name="uni0162" unicode="&#x162;" horiz-adv-x="564" 
d="M544 700v-8h-258v-692h-8v692h-258v8h524zM286 -55l-43 -138h-8l43 138h8z" />
    <glyph glyph-name="uni0163" unicode="&#x163;" horiz-adv-x="272" 
d="M123 23q-23 23 -23 75v398h-101v8h101v140h8v-140h143v-8h-143v-398q0 -49 20.5 -69.5t69.5 -20.5h53v-8h-53q-52 0 -75 23zM188 -55l-43 -138h-8l43 138h8z" />
    <glyph glyph-name="Tcaron" unicode="&#x164;" horiz-adv-x="564" 
d="M544 700v-8h-258v-692h-8v692h-258v8h524zM404 896h11l-128 -128h-10l-128 128h11l122 -121z" />
    <glyph glyph-name="tcaron" unicode="&#x165;" horiz-adv-x="272" 
d="M123 23q-23 23 -23 75v398h-101v8h101v140h8v-140h143v-8h-143v-398q0 -49 20.5 -69.5t69.5 -20.5h53v-8h-53q-52 0 -75 23zM228 710l-46 -143h-8l46 143h8z" />
    <glyph glyph-name="Tbar" unicode="&#x166;" horiz-adv-x="564" 
d="M428 354v-8h-291v8h291zM544 700v-8h-258v-692h-8v692h-258v8h524z" />
    <glyph glyph-name="tbar" unicode="&#x167;" horiz-adv-x="278" 
d="M254 299v-8h-252v8h252zM126 23q-23 23 -23 75v398h-101v8h101v140h8v-140h143v-8h-143v-398q0 -49 20.5 -69.5t69.5 -20.5h53v-8h-53q-52 0 -75 23z" />
    <glyph glyph-name="Utilde" unicode="&#x168;" horiz-adv-x="633" 
d="M83 700v-424q0 -139 56 -206.5t176 -67.5q122 0 178.5 67.5t56.5 206.5v424h8v-424q0 -143 -58.5 -212.5t-184.5 -69.5q-125 0 -182.5 69.5t-57.5 212.5v424h8zM290.5 864.5q-11.5 7.5 -28.5 7.5q-24 0 -35.5 -16.5t-11.5 -40.5h-8v1q0 28 14 46t41 18q21 0 33 -8t25 -24
q12 -14 23.5 -21.5t28.5 -7.5q24 0 35.5 16.5t11.5 40.5h8v-1q0 -28 -14 -46t-41 -18q-21 0 -33 8t-25 24q-12 14 -23.5 21.5z" />
    <glyph glyph-name="utilde" unicode="&#x169;" horiz-adv-x="522" 
d="M111 53q-51 59 -51 166v285h8v-285q0 -104 49 -160.5t130 -56.5q60 0 106 32t71 91t25 137v242h8v-504h-8v189l1 -1q-17 -91 -70.5 -142.5t-132.5 -51.5q-85 0 -136 59zM232.5 668.5q-11.5 7.5 -28.5 7.5q-24 0 -35.5 -16.5t-11.5 -40.5h-8v1q0 28 14 46t41 18
q21 0 33 -8t25 -24q12 -14 23.5 -21.5t28.5 -7.5q24 0 35.5 16.5t11.5 40.5h8v-1q0 -28 -14 -46t-41 -18q-21 0 -33 8t-25 24q-12 14 -23.5 21.5z" />
    <glyph glyph-name="Umacron" unicode="&#x16a;" horiz-adv-x="633" 
d="M83 700v-424q0 -139 56 -206.5t176 -67.5q122 0 178.5 67.5t56.5 206.5v424h8v-424q0 -143 -58.5 -212.5t-184.5 -69.5q-125 0 -182.5 69.5t-57.5 212.5v424h8zM202 856h230v-8h-230v8z" />
    <glyph glyph-name="umacron" unicode="&#x16b;" horiz-adv-x="522" 
d="M111 53q-51 59 -51 166v285h8v-285q0 -104 49 -160.5t130 -56.5q60 0 106 32t71 91t25 137v242h8v-504h-8v189l1 -1q-17 -91 -70.5 -142.5t-132.5 -51.5q-85 0 -136 59zM144 660h230v-8h-230v8z" />
    <glyph glyph-name="Ubreve" unicode="&#x16c;" horiz-adv-x="633" 
d="M83 700v-424q0 -139 56 -206.5t176 -67.5q122 0 178.5 67.5t56.5 206.5v424h8v-424q0 -143 -58.5 -212.5t-184.5 -69.5q-125 0 -182.5 69.5t-57.5 212.5v424h8zM237.5 815.5q-30.5 31.5 -30.5 80.5h8q0 -45 28.5 -74.5t71.5 -29.5q45 0 74.5 29.5t29.5 74.5h8
q0 -49 -31.5 -80.5t-80.5 -31.5q-47 0 -77.5 31.5z" />
    <glyph glyph-name="ubreve" unicode="&#x16d;" horiz-adv-x="522" 
d="M111 53q-51 59 -51 166v285h8v-285q0 -104 49 -160.5t130 -56.5q60 0 106 32t71 91t25 137v242h8v-504h-8v189l1 -1q-17 -91 -70.5 -142.5t-132.5 -51.5q-85 0 -136 59zM179.5 619.5q-30.5 31.5 -30.5 80.5h8q0 -45 28.5 -74.5t71.5 -29.5q45 0 74.5 29.5t29.5 74.5h8
q0 -49 -31.5 -80.5t-80.5 -31.5q-47 0 -77.5 31.5z" />
    <glyph glyph-name="Uring" unicode="&#x16e;" horiz-adv-x="633" 
d="M83 700v-424q0 -139 56 -206.5t176 -67.5q122 0 178.5 67.5t56.5 206.5v424h8v-424q0 -143 -58.5 -212.5t-184.5 -69.5q-125 0 -182.5 69.5t-57.5 212.5v424h8zM264 709q-24 14 -38 38t-14 53t14 53t38 38t53 14t53 -14t38 -38t14 -53t-14 -53t-38 -38t-53 -14t-53 14z
M386 731.5q28 28.5 28 68.5q0 41 -28 69t-69 28q-40 0 -68.5 -28t-28.5 -69q0 -40 28.5 -68.5t68.5 -28.5q41 0 69 28.5z" />
    <glyph glyph-name="uring" unicode="&#x16f;" horiz-adv-x="522" 
d="M111 53q-51 59 -51 166v285h8v-285q0 -104 49 -160.5t130 -56.5q60 0 106 32t71 91t25 137v242h8v-504h-8v189l1 -1q-17 -91 -70.5 -142.5t-132.5 -51.5q-85 0 -136 59zM206 575q-24 14 -38 38t-14 53t14 53t38 38t53 14t53 -14t38 -38t14 -53t-14 -53t-38 -38t-53 -14
t-53 14zM328 597.5q28 28.5 28 68.5q0 41 -28 69t-69 28q-40 0 -68.5 -28t-28.5 -69q0 -40 28.5 -68.5t68.5 -28.5q41 0 69 28.5z" />
    <glyph glyph-name="Uhungarumlaut" unicode="&#x170;" horiz-adv-x="633" 
d="M83 700v-424q0 -139 56 -206.5t176 -67.5q122 0 178.5 67.5t56.5 206.5v424h8v-424q0 -143 -58.5 -212.5t-184.5 -69.5q-125 0 -182.5 69.5t-57.5 212.5v424h8zM332 896h10l-99 -127h-10zM479 896h10l-99 -127h-10z" />
    <glyph glyph-name="uhungarumlaut" unicode="&#x171;" horiz-adv-x="522" 
d="M111 53q-51 59 -51 166v285h8v-285q0 -104 49 -160.5t130 -56.5q60 0 106 32t71 91t25 137v242h8v-504h-8v189l1 -1q-17 -91 -70.5 -142.5t-132.5 -51.5q-85 0 -136 59zM274 700h10l-99 -127h-10zM421 700h10l-99 -127h-10z" />
    <glyph glyph-name="Uogonek" unicode="&#x172;" horiz-adv-x="633" 
d="M83 700v-424q0 -139 56 -206.5t176 -67.5q122 0 178.5 67.5t56.5 206.5v424h8v-424q0 -143 -58.5 -212.5t-184.5 -69.5q-125 0 -182.5 69.5t-57.5 212.5v424h8zM267.5 -181.5q-20.5 18.5 -20.5 50.5q0 36 28.5 65t89.5 71l5 -5l-15 -11q-53 -39 -76.5 -64t-23.5 -56
q0 -29 18.5 -45t51.5 -16h55v-8h-55q-37 0 -57.5 18.5z" />
    <glyph glyph-name="uogonek" unicode="&#x173;" horiz-adv-x="522" 
d="M111 53q-51 59 -51 166v285h8v-285q0 -104 49 -160.5t130 -56.5q60 0 106 32t71 91t25 137v242h8v-504h-8v189l1 -1q-17 -91 -70.5 -142.5t-132.5 -51.5q-85 0 -136 59zM354.5 -181.5q-20.5 18.5 -20.5 50.5q0 36 28.5 65t89.5 71l5 -5l-15 -11q-53 -39 -76.5 -64
t-23.5 -56q0 -29 18.5 -45t51.5 -16h55v-8h-55q-37 0 -57.5 18.5z" />
    <glyph glyph-name="Wcircumflex" unicode="&#x174;" horiz-adv-x="952" 
d="M39 700l220 -687l212 687h10l210 -687l222 687h9l-226 -700h-10l-210 687l-212 -687h-10l-224 700h9zM354 768h-11l128 128h10l128 -128h-11l-122 121z" />
    <glyph glyph-name="wcircumflex" unicode="&#x175;" horiz-adv-x="770" 
d="M24 504l177 -490l180 490h9l168 -490l188 490h9l-193 -504h-8l-169 492l-180 -492h-8l-182 504h9zM263 572h-11l128 128h10l128 -128h-11l-122 121z" />
    <glyph glyph-name="Ycircumflex" unicode="&#x176;" horiz-adv-x="597" 
d="M30 701l268 -435l269 435h10l-275 -444v-257h-8v257l-274 444h10zM171 768h-11l128 128h10l128 -128h-11l-122 121z" />
    <glyph glyph-name="ycircumflex" unicode="&#x177;" horiz-adv-x="454" 
d="M24 504l203 -492l203 492h9l-252 -610q-17 -42 -29.5 -60.5t-29.5 -26t-48 -7.5h-50v8h50q30 0 46 7.5t26.5 24.5t26.5 57l43 104l-207 503h9zM104 572h-11l128 128h10l128 -128h-11l-122 121z" />
    <glyph glyph-name="Ydieresis" unicode="&#x178;" horiz-adv-x="597" 
d="M30 701l268 -435l269 435h10l-275 -444v-257h-8v257l-274 444h10zM210.5 860.5q3.5 3.5 8.5 3.5t8.5 -3.5t3.5 -8.5t-3.5 -8.5t-8.5 -3.5t-8.5 3.5t-3.5 8.5t3.5 8.5zM358.5 860.5q3.5 3.5 8.5 3.5t8.5 -3.5t3.5 -8.5t-3.5 -8.5t-8.5 -3.5t-8.5 3.5t-3.5 8.5t3.5 8.5z
" />
    <glyph glyph-name="Zacute" unicode="&#x179;" horiz-adv-x="603" 
d="M568 700v-8l-523 -684h523v-8h-533v8l523 684h-488v8h498zM397 896h10l-99 -127h-10z" />
    <glyph glyph-name="zacute" unicode="&#x17a;" horiz-adv-x="451" 
d="M414 504v-10l-383 -486h398v-8h-407v10l383 486h-368v8h377zM321 700h10l-99 -127h-10z" />
    <glyph glyph-name="Zdotaccent" unicode="&#x17b;" horiz-adv-x="603" 
d="M568 700v-8l-523 -684h523v-8h-533v8l523 684h-488v8h498zM293.5 866.5q3.5 3.5 8.5 3.5t8.5 -3.5t3.5 -8.5t-3.5 -8.5t-8.5 -3.5t-8.5 3.5t-3.5 8.5t3.5 8.5z" />
    <glyph glyph-name="zdotaccent" unicode="&#x17c;" horiz-adv-x="451" 
d="M414 504v-10l-383 -486h398v-8h-407v10l383 486h-368v8h377zM217.5 670.5q3.5 3.5 8.5 3.5t8.5 -3.5t3.5 -8.5t-3.5 -8.5t-8.5 -3.5t-8.5 3.5t-3.5 8.5t3.5 8.5z" />
    <glyph glyph-name="Zcaron" unicode="&#x17d;" horiz-adv-x="603" 
d="M568 700v-8l-523 -684h523v-8h-533v8l523 684h-488v8h498zM424 896h11l-128 -128h-10l-128 128h11l122 -121z" />
    <glyph glyph-name="zcaron" unicode="&#x17e;" horiz-adv-x="451" 
d="M414 504v-10l-383 -486h398v-8h-407v10l383 486h-368v8h377zM348 700h11l-128 -128h-10l-128 128h11l122 -121z" />
    <glyph glyph-name="florin" unicode="&#x192;" horiz-adv-x="485" 
d="M114 -98q48 0 71 21t27 69l53 611q4 52 29.5 74.5t77.5 22.5h83v-8h-84q-48 0 -71 -21t-27 -69l-53 -611q-4 -52 -29.5 -74.5t-77.5 -22.5h-83v8h84zM388 351v-8h-279v8h279z" />
    <glyph glyph-name="AEacute" unicode="&#x1fc;" horiz-adv-x="908" 
d="M168 229h289v-8h-294l-138 -221h-10l438 699h9zM864 699v-8h-401v-328h340v-8h-340v-348h415v-8h-423v700h409zM737 896h10l-99 -127h-10z" />
    <glyph glyph-name="aeacute" unicode="&#x1fd;" horiz-adv-x="935" 
d="M439 269h-202q-89 0 -136.5 -35.5t-47.5 -95.5q0 -64 43.5 -100t121.5 -36q61 0 111.5 26t80 71.5t29.5 101.5v68zM414.5 94q-30.5 -47 -82 -73.5t-114.5 -26.5q-82 0 -127.5 38t-45.5 106q0 64 49.5 101.5t142.5 37.5h202v54q0 80 -48 125.5t-134 45.5q-75 0 -122 -33.5
t-59 -91.5h-8q11 60 61 96.5t128 36.5q60 0 103 -21.5t65 -61.5t22 -96v-132h-1q-1 -58 -31.5 -105zM468.5 383.5q28.5 59.5 79 93t114.5 33.5q63 0 112 -28t78.5 -81.5t32.5 -128.5v-1.5v-1.5h-438v-16q0 -72 28.5 -129.5t79 -89.5t113.5 -32q72 0 127 44.5t74 118.5h8
q-12 -51 -42.5 -90t-73.5 -60t-93 -21q-65 0 -117 32.5t-81.5 90.5t-29.5 131q0 76 28.5 135.5zM876 277q-7 107 -65 166t-149 59q-58 0 -105 -28.5t-75.5 -79.5t-33.5 -117h428zM547 700h10l-99 -127h-10z" />
    <glyph glyph-name="uni0218" unicode="&#x218;" horiz-adv-x="584" 
d="M172 19.5q-52 24.5 -82.5 70.5t-34.5 107h8q5 -89 67 -141.5t162 -52.5q106 0 167.5 48t61.5 131q0 57 -31.5 91t-79.5 50.5t-119 28.5l-5 1q-74 13 -116.5 27t-72 47.5t-29.5 93.5q0 58 28 100t80 64t123 22q61 0 109 -22t77 -62t36 -95l-8 -1q-11 80 -68 126t-146 46
q-103 0 -163 -47t-60 -131q0 -58 28.5 -90t71 -45t114.5 -26h1q73 -12 123 -29t82.5 -53t32.5 -96q0 -57 -29 -99.5t-82.5 -65t-125.5 -22.5q-68 0 -120 24.5zM302 -55l-43 -138h-8l43 138h8z" />
    <glyph glyph-name="uni0219" unicode="&#x219;" horiz-adv-x="484" 
d="M105 31.5q-54 37.5 -58 108.5h8q4 -67 57 -102.5t139 -35.5q76 0 127 34t51 91q0 42 -24.5 67t-63 37t-96.5 22h-2l-11 2q-57 9 -92 19.5t-59.5 35t-24.5 68.5q0 39 23 69t65 46.5t96 16.5q79 0 130.5 -34t60.5 -99h-8q-10 62 -58.5 93.5t-124.5 31.5q-79 0 -127.5 -34.5
t-48.5 -89.5q0 -41 23.5 -64t57 -32.5t92.5 -19.5q2 0 3.5 -0.5t3.5 -0.5q61 -10 101 -22.5t66 -39.5t26 -72q0 -40 -24.5 -70.5t-67 -46.5t-94.5 -16q-92 0 -146 37.5zM263 -55l-43 -138h-8l43 138h8z" />
    <glyph glyph-name="uni021A" unicode="&#x21a;" horiz-adv-x="564" 
d="M544 700v-8h-258v-692h-8v692h-258v8h524zM286 -55l-43 -138h-8l43 138h8z" />
    <glyph glyph-name="uni021B" unicode="&#x21b;" horiz-adv-x="272" 
d="M123 23q-23 23 -23 75v398h-101v8h101v140h8v-140h143v-8h-143v-398q0 -49 20.5 -69.5t69.5 -20.5h53v-8h-53q-52 0 -75 23zM188 -55l-43 -138h-8l43 138h8z" />
    <glyph glyph-name="uni0237" unicode="&#x237;" horiz-adv-x="144" 
d="M-19 -192q49 0 69.5 20.5t20.5 69.5v606h8v-606q0 -52 -23 -75t-75 -23h-53v8h53z" />
    <glyph glyph-name="uni02BC" unicode="&#x2bc;" horiz-adv-x="287" 
d="M167 700l-46 -143h-8l46 143h8z" />
    <glyph glyph-name="circumflex" unicode="&#x2c6;" horiz-adv-x="400" 
d="M78 572h-11l128 128h10l128 -128h-11l-122 121z" />
    <glyph glyph-name="caron" unicode="&#x2c7;" horiz-adv-x="400" 
d="M322 700h11l-128 -128h-10l-128 128h11l122 -121z" />
    <glyph glyph-name="breve" unicode="&#x2d8;" horiz-adv-x="400" 
d="M120.5 619.5q-30.5 31.5 -30.5 80.5h8q0 -45 28.5 -74.5t71.5 -29.5q45 0 74.5 29.5t29.5 74.5h8q0 -49 -31.5 -80.5t-80.5 -31.5q-47 0 -77.5 31.5z" />
    <glyph glyph-name="dotaccent" unicode="&#x2d9;" horiz-adv-x="400" 
d="M191.5 670.5q3.5 3.5 8.5 3.5t8.5 -3.5t3.5 -8.5t-3.5 -8.5t-8.5 -3.5t-8.5 3.5t-3.5 8.5t3.5 8.5z" />
    <glyph glyph-name="ring" unicode="&#x2da;" horiz-adv-x="400" 
d="M147 575q-24 14 -38 38t-14 53t14 53t38 38t53 14t53 -14t38 -38t14 -53t-14 -53t-38 -38t-53 -14t-53 14zM269 597.5q28 28.5 28 68.5q0 41 -28 69t-69 28q-40 0 -68.5 -28t-28.5 -69q0 -40 28.5 -68.5t68.5 -28.5q41 0 69 28.5z" />
    <glyph glyph-name="ogonek" unicode="&#x2db;" horiz-adv-x="400" 
d="M97.5 -181.5q-20.5 18.5 -20.5 50.5q0 36 28.5 65t89.5 71l5 -5l-15 -11q-53 -39 -76.5 -64t-23.5 -56q0 -29 18.5 -45t51.5 -16h55v-8h-55q-37 0 -57.5 18.5z" />
    <glyph glyph-name="tilde" unicode="&#x2dc;" horiz-adv-x="400" 
d="M173.5 668.5q-11.5 7.5 -28.5 7.5q-24 0 -35.5 -16.5t-11.5 -40.5h-8v1q0 28 14 46t41 18q21 0 33 -8t25 -24q12 -14 23.5 -21.5t28.5 -7.5q24 0 35.5 16.5t11.5 40.5h8v-1q0 -28 -14 -46t-41 -18q-21 0 -33 8t-25 24q-12 14 -23.5 21.5z" />
    <glyph glyph-name="hungarumlaut" unicode="&#x2dd;" horiz-adv-x="407" 
d="M215 700h10l-99 -127h-10zM362 700h10l-99 -127h-10z" />
    <glyph glyph-name="gravecomb" unicode="&#x300;" horiz-adv-x="0" 
d="M-294 700l99 -127h-10l-99 127h10z" />
    <glyph glyph-name="acutecomb" unicode="&#x301;" horiz-adv-x="0" 
d="M-105 700h10l-99 -127h-10z" />
    <glyph glyph-name="uni0302" unicode="&#x302;" horiz-adv-x="0" 
d="M-322 572h-11l128 128h10l128 -128h-11l-122 121z" />
    <glyph glyph-name="tildecomb" unicode="&#x303;" horiz-adv-x="0" 
d="M-226.5 668.5q-11.5 7.5 -28.5 7.5q-24 0 -35.5 -16.5t-11.5 -40.5h-8v1q0 28 14 46t41 18q21 0 33 -8t25 -24q12 -14 23.5 -21.5t28.5 -7.5q24 0 35.5 16.5t11.5 40.5h8v-1q0 -28 -14 -46t-41 -18q-21 0 -33 8t-25 24q-12 14 -23.5 21.5z" />
    <glyph glyph-name="uni0304" unicode="&#x304;" horiz-adv-x="0" 
d="M-315 660h230v-8h-230v8z" />
    <glyph glyph-name="uni0306" unicode="&#x306;" horiz-adv-x="0" 
d="M-279.5 619.5q-30.5 31.5 -30.5 80.5h8q0 -45 28.5 -74.5t71.5 -29.5q45 0 74.5 29.5t29.5 74.5h8q0 -49 -31.5 -80.5t-80.5 -31.5q-47 0 -77.5 31.5z" />
    <glyph glyph-name="uni0307" unicode="&#x307;" horiz-adv-x="0" 
d="M-208.5 670.5q3.5 3.5 8.5 3.5t8.5 -3.5t3.5 -8.5t-3.5 -8.5t-8.5 -3.5t-8.5 3.5t-3.5 8.5t3.5 8.5z" />
    <glyph glyph-name="uni0308" unicode="&#x308;" horiz-adv-x="0" 
d="M-282.5 664.5q3.5 3.5 8.5 3.5t8.5 -3.5t3.5 -8.5t-3.5 -8.5t-8.5 -3.5t-8.5 3.5t-3.5 8.5t3.5 8.5zM-134.5 664.5q3.5 3.5 8.5 3.5t8.5 -3.5t3.5 -8.5t-3.5 -8.5t-8.5 -3.5t-8.5 3.5t-3.5 8.5t3.5 8.5z" />
    <glyph glyph-name="uni030A" unicode="&#x30a;" horiz-adv-x="0" 
d="M-253 575q-24 14 -38 38t-14 53t14 53t38 38t53 14t53 -14t38 -38t14 -53t-14 -53t-38 -38t-53 -14t-53 14zM-131 597.5q28 28.5 28 68.5q0 41 -28 69t-69 28q-40 0 -68.5 -28t-28.5 -69q0 -40 28.5 -68.5t68.5 -28.5q41 0 69 28.5z" />
    <glyph glyph-name="uni030B" unicode="&#x30b;" horiz-adv-x="0" 
d="M-185 700h10l-99 -127h-10zM-38 700h10l-99 -127h-10z" />
    <glyph glyph-name="uni030C" unicode="&#x30c;" horiz-adv-x="0" 
d="M-78 700h11l-128 -128h-10l-128 128h11l122 -121z" />
    <glyph glyph-name="uni0312" unicode="&#x312;" horiz-adv-x="0" 
d="M-212 562l43 138h8l-43 -138h-8z" />
    <glyph glyph-name="uni0326" unicode="&#x326;" horiz-adv-x="0" 
d="M-196 -55l-43 -138h-8l43 138h8z" />
    <glyph glyph-name="uni0327" unicode="&#x327;" horiz-adv-x="0" 
d="M-196 0l-12 -58h23q33 0 54 -19.5t21 -50.5q0 -32 -21.5 -52t-55.5 -20h-71v8h71q31 0 50 17.5t19 46.5q0 27 -19 44.5t-48 17.5h-34l15 66h8z" />
    <glyph glyph-name="uni0328" unicode="&#x328;" horiz-adv-x="0" 
d="M-302.5 -181.5q-20.5 18.5 -20.5 50.5q0 36 28.5 65t89.5 71l5 -5l-15 -11q-53 -39 -76.5 -64t-23.5 -56q0 -29 18.5 -45t51.5 -16h55v-8h-55q-37 0 -57.5 18.5z" />
    <glyph glyph-name="pi" unicode="&#x3c0;" horiz-adv-x="592" 
d="M130 0h-8v504h8v-504zM470 0h-8v504h8v-504zM572 496h-552v8h552v-8z" />
    <glyph glyph-name="uni0E3F" unicode="&#xe3f;" horiz-adv-x="605" 
d="M276 799v-900h-8v900h8zM303 700q97 0 149.5 -46t52.5 -127q0 -69 -39.5 -112.5t-114.5 -54.5q93 -10 141 -54t48 -119q0 -88 -60 -137.5t-177 -49.5h-225v700h225zM86 363h217q92 0 143 43.5t51 120.5t-50.5 121t-143.5 44h-217v-329zM86 8h217q113 0 171 47.5t58 131.5
q0 81 -59.5 124.5t-169.5 43.5h-217v-347z" />
    <glyph glyph-name="Wgrave" unicode="&#x1e80;" horiz-adv-x="952" 
d="M39 700l220 -687l212 687h10l210 -687l222 687h9l-226 -700h-10l-210 687l-212 -687h-10l-224 700h9zM382 896l99 -127h-10l-99 127h10z" />
    <glyph glyph-name="wgrave" unicode="&#x1e81;" horiz-adv-x="770" 
d="M24 504l177 -490l180 490h9l168 -490l188 490h9l-193 -504h-8l-169 492l-180 -492h-8l-182 504h9zM291 700l99 -127h-10l-99 127h10z" />
    <glyph glyph-name="Wacute" unicode="&#x1e82;" horiz-adv-x="952" 
d="M39 700l220 -687l212 687h10l210 -687l222 687h9l-226 -700h-10l-210 687l-212 -687h-10l-224 700h9zM571 896h10l-99 -127h-10z" />
    <glyph glyph-name="wacute" unicode="&#x1e83;" horiz-adv-x="770" 
d="M24 504l177 -490l180 490h9l168 -490l188 490h9l-193 -504h-8l-169 492l-180 -492h-8l-182 504h9zM480 700h10l-99 -127h-10z" />
    <glyph glyph-name="Wdieresis" unicode="&#x1e84;" horiz-adv-x="952" 
d="M39 700l220 -687l212 687h10l210 -687l222 687h9l-226 -700h-10l-210 687l-212 -687h-10l-224 700h9zM393.5 860.5q3.5 3.5 8.5 3.5t8.5 -3.5t3.5 -8.5t-3.5 -8.5t-8.5 -3.5t-8.5 3.5t-3.5 8.5t3.5 8.5zM541.5 860.5q3.5 3.5 8.5 3.5t8.5 -3.5t3.5 -8.5t-3.5 -8.5
t-8.5 -3.5t-8.5 3.5t-3.5 8.5t3.5 8.5z" />
    <glyph glyph-name="wdieresis" unicode="&#x1e85;" horiz-adv-x="770" 
d="M24 504l177 -490l180 490h9l168 -490l188 490h9l-193 -504h-8l-169 492l-180 -492h-8l-182 504h9zM302.5 664.5q3.5 3.5 8.5 3.5t8.5 -3.5t3.5 -8.5t-3.5 -8.5t-8.5 -3.5t-8.5 3.5t-3.5 8.5t3.5 8.5zM450.5 664.5q3.5 3.5 8.5 3.5t8.5 -3.5t3.5 -8.5t-3.5 -8.5t-8.5 -3.5
t-8.5 3.5t-3.5 8.5t3.5 8.5z" />
    <glyph glyph-name="Ygrave" unicode="&#x1ef2;" horiz-adv-x="597" 
d="M30 701l268 -435l269 435h10l-275 -444v-257h-8v257l-274 444h10zM199 896l99 -127h-10l-99 127h10z" />
    <glyph glyph-name="ygrave" unicode="&#x1ef3;" horiz-adv-x="454" 
d="M24 504l203 -492l203 492h9l-252 -610q-17 -42 -29.5 -60.5t-29.5 -26t-48 -7.5h-50v8h50q30 0 46 7.5t26.5 24.5t26.5 57l43 104l-207 503h9zM132 700l99 -127h-10l-99 127h10z" />
    <glyph glyph-name="endash" unicode="&#x2013;" horiz-adv-x="576" 
d="M68 288h440v-8h-440v8z" />
    <glyph glyph-name="emdash" unicode="&#x2014;" horiz-adv-x="916" 
d="M848 289v-8h-780v8h780z" />
    <glyph glyph-name="quoteleft" unicode="&#x2018;" horiz-adv-x="154" 
d="M98.5 568.5q-3.5 -3.5 -9.5 -3.5q-14 0 -25.5 16.5t-11.5 39.5q0 32 20 56.5t52 27.5v-7q-26 -2 -45 -24t-19 -53t20 -44q1 12 12 12q4 0 7 -3t3 -8q0 -6 -3.5 -9.5z" />
    <glyph glyph-name="quoteright" unicode="&#x2019;" horiz-adv-x="154" 
d="M55.5 700.5q3.5 3.5 9.5 3.5q14 0 25.5 -16.5t11.5 -39.5q0 -32 -20 -56.5t-52 -27.5v7q26 2 45 24t19 53t-20 44q-1 -12 -12 -12q-4 0 -7 3t-3 8q0 6 3.5 9.5z" />
    <glyph glyph-name="quotesinglbase" unicode="&#x201a;" horiz-adv-x="154" 
d="M55.5 17.5q3.5 3.5 9.5 3.5q14 0 25.5 -16.5t11.5 -39.5q0 -32 -20 -56.5t-52 -27.5v7q26 2 45 24t19 53t-20 44q-1 -12 -12 -12q-4 0 -7 3t-3 8q0 6 3.5 9.5z" />
    <glyph glyph-name="quotedblleft" unicode="&#x201c;" horiz-adv-x="272" 
d="M98.5 568.5q-3.5 -3.5 -9.5 -3.5q-14 0 -25.5 16.5t-11.5 39.5q0 32 20 56.5t52 27.5v-7q-26 -2 -45 -24t-19 -53t20 -44q1 12 12 12q4 0 7 -3t3 -8q0 -6 -3.5 -9.5zM216.5 568.5q-3.5 -3.5 -9.5 -3.5q-14 0 -25.5 16.5t-11.5 39.5q0 32 20 56.5t52 27.5v-7
q-26 -2 -45 -24t-19 -53t20 -44q1 12 12 12q4 0 7 -3t3 -8q0 -6 -3.5 -9.5z" />
    <glyph glyph-name="quotedblright" unicode="&#x201d;" horiz-adv-x="272" 
d="M55.5 700.5q3.5 3.5 9.5 3.5q14 0 25.5 -16.5t11.5 -39.5q0 -32 -20 -56.5t-52 -27.5v7q26 2 45 24t19 53t-20 44q-1 -12 -12 -12q-4 0 -7 3t-3 8q0 6 3.5 9.5zM173.5 700.5q3.5 3.5 9.5 3.5q14 0 25.5 -16.5t11.5 -39.5q0 -32 -20 -56.5t-52 -27.5v7q26 2 45 24t19 53
t-20 44q-1 -12 -12 -12q-4 0 -7 3t-3 8q0 6 3.5 9.5z" />
    <glyph glyph-name="quotedblbase" unicode="&#x201e;" horiz-adv-x="272" 
d="M55.5 17.5q3.5 3.5 9.5 3.5q14 0 25.5 -16.5t11.5 -39.5q0 -32 -20 -56.5t-52 -27.5v7q26 2 45 24t19 53t-20 44q-1 -12 -12 -12q-4 0 -7 3t-3 8q0 6 3.5 9.5zM173.5 17.5q3.5 3.5 9.5 3.5q14 0 25.5 -16.5t11.5 -39.5q0 -32 -20 -56.5t-52 -27.5v7q26 2 45 24t19 53
t-20 44q-1 -12 -12 -12q-4 0 -7 3t-3 8q0 6 3.5 9.5z" />
    <glyph glyph-name="dagger" unicode="&#x2020;" horiz-adv-x="514" 
d="M261 700v-700h-8v700h8zM469 459h-424v8h424v-8z" />
    <glyph glyph-name="daggerdbl" unicode="&#x2021;" horiz-adv-x="515" 
d="M261 700v-700h-8v700h8zM469 492h-424v8h424v-8zM469 200h-424v8h424v-8z" />
    <glyph glyph-name="bullet" unicode="&#x2022;" horiz-adv-x="242" 
d="M102.5 308.5q-8.5 4.5 -13 13t-4.5 18.5t4.5 18.5t13 13t18.5 4.5t18.5 -4.5t13 -13t4.5 -18.5t-4.5 -18.5t-13 -13t-18.5 -4.5t-18.5 4.5z" />
    <glyph glyph-name="ellipsis" unicode="&#x2026;" horiz-adv-x="426" 
d="M68.5 0.5q-3.5 3.5 -3.5 8.5t3.5 8.5t8.5 3.5t8.5 -3.5t3.5 -8.5t-3.5 -8.5t-8.5 -3.5t-8.5 3.5zM204.5 0.5q-3.5 3.5 -3.5 8.5t3.5 8.5t8.5 3.5t8.5 -3.5t3.5 -8.5t-3.5 -8.5t-8.5 -3.5t-8.5 3.5zM340.5 0.5q-3.5 3.5 -3.5 8.5t3.5 8.5t8.5 3.5t8.5 -3.5t3.5 -8.5
t-3.5 -8.5t-8.5 -3.5t-8.5 3.5z" />
    <glyph glyph-name="perthousand" unicode="&#x2030;" horiz-adv-x="1232" 
d="M920.5 16q-36.5 22 -57.5 59.5t-21 83.5t21 83.5t57.5 59.5t80.5 22t80.5 -22t57.5 -59.5t21 -83.5t-21 -83.5t-57.5 -59.5t-80.5 -22t-80.5 22zM1077.5 22.5q34.5 20.5 54.5 56.5t20 80t-20 80t-54.5 56.5t-76.5 20.5t-76.5 -20.5t-54.5 -56.5t-20 -80t20 -80
t54.5 -56.5t76.5 -20.5t76.5 20.5zM150.5 397q-36.5 22 -57.5 59.5t-21 83.5t21 83.5t57.5 59.5t80.5 22t80.5 -22t57.5 -59.5t21 -83.5t-21 -83.5t-57.5 -59.5t-80.5 -22t-80.5 22zM653 700h9l-463 -700h-9zM307.5 403.5q34.5 20.5 54.5 56.5t20 80t-20 80t-54.5 56.5
t-76.5 20.5t-76.5 -20.5t-54.5 -56.5t-20 -80t20 -80t54.5 -56.5t76.5 -20.5t76.5 20.5zM540.5 16q-36.5 22 -57.5 59.5t-21 83.5t21 83.5t57.5 59.5t80.5 22t80.5 -22t57.5 -59.5t21 -83.5t-21 -83.5t-57.5 -59.5t-80.5 -22t-80.5 22zM697.5 22.5q34.5 20.5 54.5 56.5
t20 80t-20 80t-54.5 56.5t-76.5 20.5t-76.5 -20.5t-54.5 -56.5t-20 -80t20 -80t54.5 -56.5t76.5 -20.5t76.5 20.5z" />
    <glyph glyph-name="guilsinglleft" unicode="&#x2039;" horiz-adv-x="312" 
d="M76 252l166 -252h-9l-168 252l168 252h9z" />
    <glyph glyph-name="guilsinglright" unicode="&#x203a;" horiz-adv-x="312" 
d="M236 252l-166 -252h9l168 252l-168 252h-9z" />
    <glyph glyph-name="uni2042" unicode="&#x2042;" horiz-adv-x="950" 
d="M477 586l93 -113l-6 -5l-94 115l-94 -115l-6 5l93 113l-135 55l3 7l135 -56v149h8v-149l135 56l3 -7zM227 76l93 -113l-6 -5l-94 115l-94 -115l-6 5l93 113l-135 55l3 7l135 -56v149h8v-149l135 56l3 -7zM737 76l93 -113l-6 -5l-94 115l-94 -115l-6 5l93 113l-135 55l3 7
l135 -56v149h8v-149l135 56l3 -7z" />
    <glyph glyph-name="fraction" unicode="&#x2044;" horiz-adv-x="174" 
d="M304 700h10l-444 -700h-10z" />
    <glyph glyph-name="uni2051" unicode="&#x2051;" horiz-adv-x="440" 
d="M227 586l93 -113l-6 -5l-94 115l-94 -115l-6 5l93 113l-135 55l3 7l135 -56v149h8v-149l135 56l3 -7zM227 72l93 -113l-6 -5l-94 115l-94 -115l-6 5l93 113l-135 55l3 7l135 -56v149h8v-149l135 56l3 -7z" />
    <glyph glyph-name="uni2070" unicode="&#x2070;" horiz-adv-x="332" 
d="M69.5 484.5q-36.5 53.5 -36.5 134.5t36.5 134.5t96.5 53.5t96.5 -53.5t36.5 -134.5t-36.5 -134.5t-96.5 -53.5t-96.5 53.5zM256.5 491q34.5 52 34.5 128t-34.5 128t-90.5 52t-90.5 -52t-34.5 -128t34.5 -128t90.5 -52t90.5 52z" />
    <glyph glyph-name="uni2074" unicode="&#x2074;" horiz-adv-x="321" 
d="M232 800v-252h66v-8h-66v-104h-8v104h-201v8l201 252h8zM33 548h191v239z" />
    <glyph glyph-name="uni2075" unicode="&#x2075;" horiz-adv-x="309" 
d="M253 792h-196l-10 -177q17 27 46.5 42t63.5 15q52 0 85.5 -33.5t33.5 -86.5q0 -54 -35 -88t-88 -34q-49 0 -82 27t-38 71h8q5 -40 36 -65t76 -25q49 0 82 32t33 82q0 49 -31 80.5t-80 31.5q-37 1 -66 -16t-45 -47l-7 1l11 198h203v-8z" />
    <glyph glyph-name="uni2076" unicode="&#x2076;" horiz-adv-x="319" 
d="M69 480q-31 49 -31 132q0 89 36.5 142t98.5 53q42 0 73 -26t38 -73h-8q-9 44 -36.5 67.5t-66.5 23.5q-59 0 -93 -51t-34 -136q0 -18 1.5 -35t3.5 -34q-3 32 10.5 60.5t40.5 46t65 17.5q53 0 85 -32.5t32 -85.5t-32 -85.5t-85 -32.5q-67 0 -98 49zM246 469q30 30 30 80
t-30 80t-79 30q-50 0 -80 -30t-30 -79t30.5 -80t79.5 -31t79 30z" />
    <glyph glyph-name="uni2077" unicode="&#x2077;" horiz-adv-x="300" 
d="M274 800v-7l-193 -358h-9l193 358l-237 -1v8h246z" />
    <glyph glyph-name="uni2078" unicode="&#x2078;" horiz-adv-x="312" 
d="M67.5 458.5q-34.5 27.5 -34.5 70.5q0 39 28 66t73 32q-40 5 -65 29.5t-25 60.5q0 39 31.5 64.5t80.5 25.5t80.5 -25.5t31.5 -64.5q0 -36 -25 -60.5t-65 -29.5q45 -5 73 -32t28 -66q0 -43 -34.5 -70.5t-88.5 -27.5t-88.5 27.5zM238.5 464.5q32.5 25.5 32.5 64.5
q0 41 -32.5 67.5t-82.5 26.5t-82.5 -26.5t-32.5 -67.5q0 -39 32.5 -64.5t82.5 -25.5t82.5 25.5zM231 655q29 24 29 62q0 36 -29 59t-75 23t-75 -23t-29 -59q0 -38 29 -62t75 -24t75 24z" />
    <glyph glyph-name="uni2079" unicode="&#x2079;" horiz-adv-x="312" 
d="M249 758q31 -49 31 -132q0 -89 -36.5 -142t-98.5 -53q-42 0 -73 26t-38 73h8q9 -44 36.5 -67.5t66.5 -23.5q59 0 93 51t34 136q0 18 -1.5 35t-3.5 34q3 -32 -10.5 -60.5t-40.5 -46t-65 -17.5q-53 0 -85 32.5t-32 85.5t32 85.5t85 32.5q67 0 98 -49zM72 769
q-30 -30 -30 -80t30 -80t79 -30q50 0 80 30t30 79t-30.5 80t-79.5 31t-79 -30z" />
    <glyph glyph-name="uni2080" unicode="&#x2080;" horiz-adv-x="331" 
d="M68.5 -52.5q-36.5 53.5 -36.5 134.5t36.5 134.5t96.5 53.5t96.5 -53.5t36.5 -134.5t-36.5 -134.5t-96.5 -53.5t-96.5 53.5zM255.5 -46q34.5 52 34.5 128t-34.5 128t-90.5 52t-90.5 -52t-34.5 -128t34.5 -128t90.5 -52t90.5 52z" />
    <glyph glyph-name="uni2081" unicode="&#x2081;" horiz-adv-x="151" 
d="M90 -100v274q-2 -3 -5.5 -5t-9.5 -2h-75v8h75q6 0 10.5 4.5t4.5 10.5v74h8v-364h-8z" />
    <glyph glyph-name="uni2082" unicode="&#x2082;" horiz-adv-x="303" 
d="M39 162q0 50 31.5 79t81.5 29t81 -28t31 -72q0 -37 -19.5 -66t-57.5 -63l-146 -133h229v-8h-240v8l152 139q38 34 56 61t18 62q0 41 -29 66.5t-75 25.5q-47 0 -76 -26.5t-29 -73.5v-8h-8v8z" />
    <glyph glyph-name="uni2083" unicode="&#x2083;" horiz-adv-x="311" 
d="M73.5 243q32.5 27 83.5 27q49 0 80 -26.5t31 -67.5q0 -35 -24 -58.5t-65 -29.5q46 -7 72.5 -31t26.5 -63q0 -44 -34 -72t-88 -28q-58 0 -92 28.5t-34 78.5h8q0 -47 32.5 -73t85.5 -26q50 0 82 25.5t32 66.5t-33 65.5t-86 24.5h-25v8h25q48 0 78.5 23t30.5 61t-29 62
t-74 24q-49 0 -78.5 -25t-29.5 -67h-8q0 46 32.5 73z" />
    <glyph glyph-name="uni2084" unicode="&#x2084;" horiz-adv-x="321" 
d="M232 264v-252h66v-8h-66v-104h-8v104h-201v8l201 252h8zM33 12h191v239z" />
    <glyph glyph-name="uni2085" unicode="&#x2085;" horiz-adv-x="309" 
d="M253 256h-196l-10 -177q17 27 46.5 42t63.5 15q52 0 85.5 -33.5t33.5 -86.5q0 -54 -35 -88t-88 -34q-49 0 -82 27t-38 71h8q5 -40 36 -65t76 -25q49 0 82 32t33 82q0 49 -31 80.5t-80 31.5q-37 1 -66 -16t-45 -47l-7 1l11 198h203v-8z" />
    <glyph glyph-name="uni2086" unicode="&#x2086;" horiz-adv-x="319" 
d="M69 -57q-31 49 -31 132q0 89 36.5 142t98.5 53q42 0 73 -26t38 -73h-8q-9 44 -36.5 67.5t-66.5 23.5q-59 0 -93 -51t-34 -136q0 -18 1.5 -35t3.5 -34q-3 32 10.5 60.5t40.5 46t65 17.5q53 0 85 -32.5t32 -85.5t-32 -85.5t-85 -32.5q-67 0 -98 49zM246 -68q30 30 30 80
t-30 80t-79 30q-50 0 -80 -30t-30 -79t30.5 -80t79.5 -31t79 30z" />
    <glyph glyph-name="uni2087" unicode="&#x2087;" horiz-adv-x="300" 
d="M274 265v-7l-193 -358h-9l193 358l-237 -1v8h246z" />
    <glyph glyph-name="uni2088" unicode="&#x2088;" horiz-adv-x="312" 
d="M67.5 -78.5q-34.5 27.5 -34.5 70.5q0 39 28 66t73 32q-40 5 -65 29.5t-25 60.5q0 39 31.5 64.5t80.5 25.5t80.5 -25.5t31.5 -64.5q0 -36 -25 -60.5t-65 -29.5q45 -5 73 -32t28 -66q0 -43 -34.5 -70.5t-88.5 -27.5t-88.5 27.5zM238.5 -72.5q32.5 25.5 32.5 64.5
q0 41 -32.5 67.5t-82.5 26.5t-82.5 -26.5t-32.5 -67.5q0 -39 32.5 -64.5t82.5 -25.5t82.5 25.5zM231 118q29 24 29 62q0 36 -29 59t-75 23t-75 -23t-29 -59q0 -38 29 -62t75 -24t75 24z" />
    <glyph glyph-name="uni2089" unicode="&#x2089;" horiz-adv-x="312" 
d="M249 221q31 -49 31 -132q0 -89 -36.5 -142t-98.5 -53q-42 0 -73 26t-38 73h8q9 -44 36.5 -67.5t66.5 -23.5q59 0 93 51t34 136q0 18 -1.5 35t-3.5 34q3 -32 -10.5 -60.5t-40.5 -46t-65 -17.5q-53 0 -85 32.5t-32 85.5t32 85.5t85 32.5q67 0 98 -49zM72 232
q-30 -30 -30 -80t30 -80t79 -30q50 0 80 30t30 79t-30.5 80t-79.5 31t-79 -30z" />
    <glyph glyph-name="franc" unicode="&#x20a3;" horiz-adv-x="497" 
d="M277 171v-8h-281v8h281zM477 700v-8h-381v-338h320v-8h-320v-346h-8v700h389z" />
    <glyph glyph-name="uni20A8" unicode="&#x20a8;" horiz-adv-x="642" 
d="M597 700l-2 -8h-212q63 -17 99 -63t37 -114h55l-2 -8h-53q-1 -80 -51.5 -129t-134.5 -54l179 -324h-10l-179 324h-245v8h238q88 0 141 47.5t54 127.5h-433v8h433q-2 81 -54 129t-140 48h-239v8h519z" />
    <glyph glyph-name="Euro" unicode="&#x20ac;" horiz-adv-x="634" 
d="M180.5 65.5q-68.5 71.5 -84.5 198.5h-71v8h70q-2 19 -2.5 39t-0.5 38q0 12 0.5 26.5t1.5 31.5h-69v8h70q6 90 39.5 156t89 100.5t126.5 34.5q92 0 153.5 -52.5t75.5 -134.5h-8q-13 79 -73 129t-148 50q-69 0 -122.5 -34t-86 -97.5t-38.5 -151.5h241l-2 -8h-240
q-1 -17 -1.5 -31t-0.5 -27q0 -18 0.5 -38t2.5 -39h213l-2 -8h-210q15 -123 81.5 -192.5t166.5 -69.5q87 0 144 48.5t74 128.5h8q-18 -83 -77 -134t-149 -51q-103 0 -171.5 71.5z" />
    <glyph glyph-name="uni20BF" unicode="&#x20bf;" horiz-adv-x="615" 
d="M182 700v105h8v-105h115v105h8v-105q97 0 149.5 -46t52.5 -127q0 -68 -37.5 -111.5t-107.5 -55.5q87 -11 133.5 -55t46.5 -118q0 -88 -60 -137.5t-177 -49.5v-96h-8v96h-115v-96h-8v96h-104v700h104zM86 363h227q92 0 143 43.5t51 120.5t-50.5 121t-143.5 44h-227v-329z
M86 8h227q113 0 171 47.5t58 131.5q0 81 -59.5 124.5t-169.5 43.5h-227v-347z" />
    <glyph glyph-name="trademark" unicode="&#x2122;" horiz-adv-x="668" 
d="M264 700v-8h-114v-261h-8v261h-114v8h236zM325 700l135 -259l137 259h11v-269h-8v257l-137 -257h-7l-134 257v-257h-8v269h11z" />
    <glyph glyph-name="uni2126" unicode="&#x2126;" horiz-adv-x="754" 
d="M466 73q114 60 164.5 133.5t50.5 180.5q0 89 -39.5 160t-109 111t-155.5 40t-155.5 -40t-109 -111t-39.5 -160q0 -107 50.5 -180.5t164.5 -133.5v-73h-222v8h214v61q-113 58 -164 134t-51 184q0 91 40.5 163.5t111.5 114t160 41.5t160 -41.5t111.5 -114t40.5 -163.5
q0 -108 -51 -184t-164 -134v-61h214v-8h-222v73z" />
    <glyph glyph-name="uni2153" unicode="&#x2153;" horiz-adv-x="631" 
d="M90 337v274q-2 -3 -5.5 -5t-9.5 -2h-75v8h75q6 0 10.5 4.5t4.5 10.5v74h8v-364h-8zM455 700h10l-444 -700h-10zM398.5 343q32.5 27 83.5 27q49 0 80 -26.5t31 -67.5q0 -35 -24 -58.5t-65 -29.5q46 -7 72.5 -31t26.5 -63q0 -44 -34 -72t-88 -28q-58 0 -92 28.5t-34 78.5h8
q0 -47 32.5 -73t85.5 -26q50 0 82 25.5t32 66.5t-33 65.5t-86 24.5h-25v8h25q48 0 78.5 23t30.5 61t-29 62t-74 24q-49 0 -78.5 -25t-29.5 -67h-8q0 46 32.5 73z" />
    <glyph glyph-name="uni2155" unicode="&#x2155;" horiz-adv-x="606" 
d="M90 337v274q-2 -3 -5.5 -5t-9.5 -2h-75v8h75q6 0 10.5 4.5t4.5 10.5v74h8v-364h-8zM455 700h10l-444 -700h-10zM555 356h-196l-10 -177q17 27 46.5 42t63.5 15q52 0 85.5 -33.5t33.5 -86.5q0 -54 -35 -88t-88 -34q-49 0 -82 27t-38 71h8q5 -40 36 -65t76 -25q49 0 82 32
t33 82q0 49 -31 80.5t-80 31.5q-37 1 -66 -16t-45 -47l-7 1l11 198h203v-8z" />
    <glyph glyph-name="uni2156" unicode="&#x2156;" horiz-adv-x="758" 
d="M39 598q0 50 31.5 79t81.5 29t81 -28t31 -72q0 -37 -19.5 -66t-57.5 -63l-146 -133h229v-8h-240v8l152 139q38 34 56 61t18 62q0 41 -29 66.5t-75 25.5q-47 0 -76 -26.5t-29 -73.5v-8h-8v8zM607 700h10l-444 -700h-10zM707 356h-196l-10 -177q17 27 46.5 42t63.5 15
q52 0 85.5 -33.5t33.5 -86.5q0 -54 -35 -88t-88 -34q-49 0 -82 27t-38 71h8q5 -40 36 -65t76 -25q49 0 82 32t33 82q0 49 -31 80.5t-80 31.5q-37 1 -66 -16t-45 -47l-7 1l11 198h203v-8z" />
    <glyph glyph-name="uni2157" unicode="&#x2157;" horiz-adv-x="766" 
d="M73.5 681q32.5 27 83.5 27q49 0 80 -26.5t31 -67.5q0 -35 -24 -58.5t-65 -29.5q46 -7 72.5 -31t26.5 -63q0 -44 -34 -72t-88 -28q-58 0 -92 28.5t-34 78.5h8q0 -47 32.5 -73t85.5 -26q50 0 82 25.5t32 66.5t-33 65.5t-86 24.5h-25v8h25q48 0 78.5 23t30.5 61t-29 62
t-74 24q-49 0 -78.5 -25t-29.5 -67h-8q0 46 32.5 73zM615 700h10l-444 -700h-10zM715 356h-196l-10 -177q17 27 46.5 42t63.5 15q52 0 85.5 -33.5t33.5 -86.5q0 -54 -35 -88t-88 -34q-49 0 -82 27t-38 71h8q5 -40 36 -65t76 -25q49 0 82 32t33 82q0 49 -31 80.5t-80 31.5
q-37 1 -66 -16t-45 -47l-7 1l11 198h203v-8z" />
    <glyph glyph-name="uni2158" unicode="&#x2158;" horiz-adv-x="776" 
d="M232 700v-252h66v-8h-66v-104h-8v104h-201v8l201 252h8zM33 448h191v239zM625 700h10l-444 -700h-10zM725 356h-196l-10 -177q17 27 46.5 42t63.5 15q52 0 85.5 -33.5t33.5 -86.5q0 -54 -35 -88t-88 -34q-49 0 -82 27t-38 71h8q5 -40 36 -65t76 -25q49 0 82 32t33 82
q0 49 -31 80.5t-80 31.5q-37 1 -66 -16t-45 -47l-7 1l11 198h203v-8z" />
    <glyph glyph-name="uni2159" unicode="&#x2159;" horiz-adv-x="595" 
d="M90 337v274q-2 -3 -5.5 -5t-9.5 -2h-75v8h75q6 0 10.5 4.5t4.5 10.5v74h8v-364h-8zM455 700h10l-444 -700h-10zM352 43q-31 49 -31 132q0 89 36.5 142t98.5 53q42 0 73 -26t38 -73h-8q-9 44 -36.5 67.5t-66.5 23.5q-59 0 -93 -51t-34 -136q0 -18 1.5 -35t3.5 -34
q-3 32 10.5 60.5t40.5 46t65 17.5q53 0 85 -32.5t32 -85.5t-32 -85.5t-85 -32.5q-67 0 -98 49zM529 32q30 30 30 80t-30 80t-79 30q-50 0 -80 -30t-30 -79t30.5 -80t79.5 -31t79 30z" />
    <glyph glyph-name="oneeighth" unicode="&#x215b;" horiz-adv-x="608" 
d="M90 337v274q-2 -3 -5.5 -5t-9.5 -2h-75v8h75q6 0 10.5 4.5t4.5 10.5v74h8v-364h-8zM455 700h10l-444 -700h-10zM368.5 21.5q-34.5 27.5 -34.5 70.5q0 39 28 66t73 32q-40 5 -65 29.5t-25 60.5q0 39 31.5 64.5t80.5 25.5t80.5 -25.5t31.5 -64.5q0 -36 -25 -60.5t-65 -29.5
q45 -5 73 -32t28 -66q0 -43 -34.5 -70.5t-88.5 -27.5t-88.5 27.5zM539.5 27.5q32.5 25.5 32.5 64.5q0 41 -32.5 67.5t-82.5 26.5t-82.5 -26.5t-32.5 -67.5q0 -39 32.5 -64.5t82.5 -25.5t82.5 25.5zM532 218q29 24 29 62q0 36 -29 59t-75 23t-75 -23t-29 -59q0 -38 29 -62
t75 -24t75 24z" />
    <glyph glyph-name="threeeighths" unicode="&#x215c;" horiz-adv-x="768" 
d="M73.5 681q32.5 27 83.5 27q49 0 80 -26.5t31 -67.5q0 -35 -24 -58.5t-65 -29.5q46 -7 72.5 -31t26.5 -63q0 -44 -34 -72t-88 -28q-58 0 -92 28.5t-34 78.5h8q0 -47 32.5 -73t85.5 -26q50 0 82 25.5t32 66.5t-33 65.5t-86 24.5h-25v8h25q48 0 78.5 23t30.5 61t-29 62
t-74 24q-49 0 -78.5 -25t-29.5 -67h-8q0 46 32.5 73zM615 700h10l-444 -700h-10zM528.5 21.5q-34.5 27.5 -34.5 70.5q0 39 28 66t73 32q-40 5 -65 29.5t-25 60.5q0 39 31.5 64.5t80.5 25.5t80.5 -25.5t31.5 -64.5q0 -36 -25 -60.5t-65 -29.5q45 -5 73 -32t28 -66
q0 -43 -34.5 -70.5t-88.5 -27.5t-88.5 27.5zM699.5 27.5q32.5 25.5 32.5 64.5q0 41 -32.5 67.5t-82.5 26.5t-82.5 -26.5t-32.5 -67.5q0 -39 32.5 -64.5t82.5 -25.5t82.5 25.5zM692 218q29 24 29 62q0 36 -29 59t-75 23t-75 -23t-29 -59q0 -38 29 -62t75 -24t75 24z" />
    <glyph glyph-name="fiveeighths" unicode="&#x215d;" horiz-adv-x="766" 
d="M253 692h-196l-10 -177q17 27 46.5 42t63.5 15q52 0 85.5 -33.5t33.5 -86.5q0 -54 -35 -88t-88 -34q-49 0 -82 27t-38 71h8q5 -40 36 -65t76 -25q49 0 82 32t33 82q0 49 -31 80.5t-80 31.5q-37 1 -66 -16t-45 -47l-7 1l11 198h203v-8zM613 700h10l-444 -700h-10z
M526.5 21.5q-34.5 27.5 -34.5 70.5q0 39 28 66t73 32q-40 5 -65 29.5t-25 60.5q0 39 31.5 64.5t80.5 25.5t80.5 -25.5t31.5 -64.5q0 -36 -25 -60.5t-65 -29.5q45 -5 73 -32t28 -66q0 -43 -34.5 -70.5t-88.5 -27.5t-88.5 27.5zM697.5 27.5q32.5 25.5 32.5 64.5
q0 41 -32.5 67.5t-82.5 26.5t-82.5 -26.5t-32.5 -67.5q0 -39 32.5 -64.5t82.5 -25.5t82.5 25.5zM690 218q29 24 29 62q0 36 -29 59t-75 23t-75 -23t-29 -59q0 -38 29 -62t75 -24t75 24z" />
    <glyph glyph-name="seveneighths" unicode="&#x215e;" horiz-adv-x="757" 
d="M274 700v-7l-193 -358h-9l193 358l-237 -1v8h246zM604 700h10l-444 -700h-10zM517.5 21.5q-34.5 27.5 -34.5 70.5q0 39 28 66t73 32q-40 5 -65 29.5t-25 60.5q0 39 31.5 64.5t80.5 25.5t80.5 -25.5t31.5 -64.5q0 -36 -25 -60.5t-65 -29.5q45 -5 73 -32t28 -66
q0 -43 -34.5 -70.5t-88.5 -27.5t-88.5 27.5zM688.5 27.5q32.5 25.5 32.5 64.5q0 41 -32.5 67.5t-82.5 26.5t-82.5 -26.5t-32.5 -67.5q0 -39 32.5 -64.5t82.5 -25.5t82.5 25.5zM681 218q29 24 29 62q0 36 -29 59t-75 23t-75 -23t-29 -59q0 -38 29 -62t75 -24t75 24z" />
    <glyph glyph-name="arrowleft" unicode="&#x2190;" horiz-adv-x="538" 
d="M260 22l6 6l-235 237h442v8h-442l234 235l-6 6l-244 -245z" />
    <glyph glyph-name="arrowup" unicode="&#x2191;" horiz-adv-x="622" 
d="M551 259l-237 235v-494h-8v494l-235 -234l-6 6l245 244l247 -245z" />
    <glyph glyph-name="arrowright" unicode="&#x2192;" horiz-adv-x="538" 
d="M278 23l-6 6l235 237h-442v8h442l-234 235l6 6l244 -245z" />
    <glyph glyph-name="arrowdown" unicode="&#x2193;" horiz-adv-x="622" 
d="M551 245l-237 -235v494h-8v-494l-235 234l-6 -6l245 -244l247 245z" />
    <glyph glyph-name="arrowboth" unicode="&#x2194;" horiz-adv-x="843" 
d="M778 269l-245 -247l-6 6l235 237h-681l235 -237l-6 -6l-245 247l244 245l6 -6l-234 -235h681l-234 235l6 6z" />
    <glyph glyph-name="arrowupdn" unicode="&#x2195;" horiz-adv-x="622" 
d="M310 707l247 -245l-6 -6l-237 235v-681l237 235l6 -6l-247 -245l-245 244l6 6l235 -234v681l-235 -234l-6 6z" />
    <glyph glyph-name="uni2196" unicode="&#x2196;" horiz-adv-x="477" 
d="M65 156h8v334l314 -313l6 5l-314 314h333v8h-347v-348z" />
    <glyph glyph-name="uni2197" unicode="&#x2197;" horiz-adv-x="477" 
d="M412 156h-8v334l-314 -313l-6 5l314 314h-333v8h347v-348z" />
    <glyph glyph-name="uni2198" unicode="&#x2198;" horiz-adv-x="477" 
d="M399 6l-315 315l6 5l314 -314v335h8v-348h-347v8z" />
    <glyph glyph-name="uni2199" unicode="&#x2199;" horiz-adv-x="477" 
d="M73 13l314 314l6 -5l-315 -315l334 1v-8h-347v348h8v-335z" />
    <glyph glyph-name="partialdiff" unicode="&#x2202;" horiz-adv-x="571" 
d="M161 24.5q-52 30.5 -81.5 84.5t-29.5 123q0 68 29.5 121.5t81.5 84t119 30.5q75 0 134.5 -38t83.5 -104q-14 89 -57 169.5t-123.5 136.5t-196.5 66v8q136 -13 224 -84.5t127 -171t39 -201.5q0 -77 -28.5 -134.5t-81 -89t-121.5 -31.5q-67 0 -119 30.5zM86.5 113.5
q28.5 -52.5 79 -82t114.5 -29.5q67 0 117.5 30.5t78 86.5t27.5 130q0 66 -31 113.5t-82 72.5t-110 25q-64 0 -114.5 -29t-79 -81t-28.5 -118t28.5 -118.5z" />
    <glyph glyph-name="emptyset" unicode="&#x2205;" horiz-adv-x="608" 
d="M523 613l-460 -511l-5 5l460 511zM178.5 128.5q-57.5 34.5 -90.5 93.5t-33 130t33 130t90.5 93.5t125.5 34.5t125.5 -34.5t90.5 -93.5t33 -130t-33 -130t-90.5 -93.5t-125.5 -34.5t-125.5 34.5zM425.5 135.5q55.5 33.5 87.5 91t32 125.5t-32 125.5t-87.5 91t-121.5 33.5
t-121.5 -33.5t-87.5 -91t-32 -125.5t32 -125.5t87.5 -91t121.5 -33.5t121.5 33.5z" />
    <glyph glyph-name="uni2206" unicode="&#x2206;" horiz-adv-x="645" 
d="M25 8l292 692h10l293 -692v-8h-595v8zM610 8l-288 682l-288 -682h576z" />
    <glyph glyph-name="product" unicode="&#x220f;" horiz-adv-x="683" 
d="M653 700v-8h-623v8h623zM133 696v-802h-8v802h8zM558 696v-802h-8v802h8z" />
    <glyph glyph-name="summation" unicode="&#x2211;" horiz-adv-x="603" 
d="M353 303l-285 389v8h487v-8h-477l283 -385v-7l-305 -398h507v-8h-517v8z" />
    <glyph glyph-name="minus" unicode="&#x2212;" 
d="M78 293h379v-8h-379v8z" />
    <glyph glyph-name="radical" unicode="&#x221a;" horiz-adv-x="526" 
d="M18 383l-3 7l89 40l165 -419l204 689h8l-207 -700h-9l-165 419z" />
    <glyph glyph-name="infinity" unicode="&#x221e;" horiz-adv-x="745" 
d="M677 190.5q-18 -35.5 -50.5 -55t-74.5 -19.5q-52 0 -91 32.5t-88 116.5q-49 -84 -88.5 -116.5t-91.5 -32.5q-42 0 -74.5 19.5t-50.5 55t-18 82.5t18 82.5t50.5 55t74.5 19.5q52 0 91 -32.5t88 -116.5q49 84 88.5 116.5t91.5 32.5q42 0 74.5 -19.5t50.5 -55t18 -82.5
t-18 -82.5zM95.5 164q37.5 -40 97.5 -40q34 0 60.5 13t53.5 45t61 90q-50 86 -87.5 118t-87.5 32q-60 0 -97.5 -40t-37.5 -109t37.5 -109zM464 390.5q-38 -31.5 -87 -116.5q49 -86 87 -118t88 -32q60 0 97.5 40t37.5 109t-37.5 109t-97.5 40q-50 0 -88 -31.5z" />
    <glyph glyph-name="integral" unicode="&#x222b;" horiz-adv-x="364" 
d="M88 -98q49 0 69.5 20.5t20.5 69.5v610q0 52 23 75t75 23h53v-8h-53q-49 0 -69.5 -20.5t-20.5 -69.5v-610q0 -52 -23 -75t-75 -23h-53v8h53z" />
    <glyph glyph-name="approxequal" unicode="&#x2248;" 
d="M120 197q-24 -26 -24 -66h-8q0 43 26.5 71t67.5 28q27 0 45.5 -11t42.5 -33q22 -21 40.5 -32t43.5 -11q38 0 62 26t24 65h8q0 -43 -26 -71t-68 -28q-28 0 -46.5 11t-42.5 34q-23 21 -40.5 31.5t-42.5 10.5q-38 1 -62 -25zM120 397q-24 -26 -24 -66h-8q0 43 26.5 71
t67.5 28q27 0 45.5 -11t42.5 -33q22 -21 40.5 -32t43.5 -11q38 0 62 26t24 65h8q0 -43 -26 -71t-68 -28q-28 0 -46.5 11t-42.5 34q-23 21 -40.5 31.5t-42.5 10.5q-38 1 -62 -25z" />
    <glyph glyph-name="notequal" unicode="&#x2260;" 
d="M88 176h359v-8h-359v8zM88 376h359v-8h-359v8zM336 488h9l-149 -431h-9z" />
    <glyph glyph-name="lessequal" unicode="&#x2264;" 
d="M88 8h359v-8h-359v8zM88 319l359 178v-9l-350 -174l350 -173v-9l-359 177v10z" />
    <glyph glyph-name="greaterequal" unicode="&#x2265;" 
d="M88 8h359v-8h-359v8zM447 309l-359 -177v9l350 173l-350 174v9l359 -178v-10z" />
    <glyph glyph-name="dotmath" unicode="&#x22c5;" horiz-adv-x="154" 
d="M68.5 278.5q-3.5 3.5 -3.5 8.5t3.5 8.5t8.5 3.5t8.5 -3.5t3.5 -8.5t-3.5 -8.5t-8.5 -3.5t-8.5 3.5z" />
    <glyph glyph-name="filledbox" unicode="&#x25a0;" horiz-adv-x="860" 
d="M782 700v-700h-704v700h704z" />
    <glyph glyph-name="uni25A1" unicode="&#x25a1;" horiz-adv-x="856" 
d="M778 700v-700h-700v700h700zM86 8h684v684h-684v-684z" />
    <glyph glyph-name="uni25AF" unicode="&#x25af;" horiz-adv-x="583" 
d="M505 700v-700h-427v700h427zM86 8h411v684h-411v-684z" />
    <glyph glyph-name="triagup" unicode="&#x25b2;" horiz-adv-x="892" 
d="M856 0h-820l411 712z" />
    <glyph glyph-name="uni25B3" unicode="&#x25b3;" horiz-adv-x="892" 
d="M856 0h-820l411 712zM50 8h792l-395 687z" />
    <glyph glyph-name="uni25B6" unicode="&#x25b6;" horiz-adv-x="536" 
d="M511 250l-446 -256v512z" />
    <glyph glyph-name="uni25B7" unicode="&#x25b7;" horiz-adv-x="536" 
d="M65 -4l446 256l-446 256v-512zM73 494l422 -242l-422 -242v484z" />
    <glyph glyph-name="uni25C0" unicode="&#x25c0;" horiz-adv-x="536" 
d="M25 250l446 -256v512z" />
    <glyph glyph-name="uni25C1" unicode="&#x25c1;" horiz-adv-x="536" 
d="M471 -4l-446 256l446 256v-512zM463 494l-422 -242l422 -242v484z" />
    <glyph glyph-name="lozenge" unicode="&#x25ca;" horiz-adv-x="553" 
d="M488 350l-207 -351h-9l-207 351l207 350h9zM479 350l-202 342l-203 -342l203 -343z" />
    <glyph glyph-name="circle" unicode="&#x25cb;" horiz-adv-x="825" 
d="M592 658.5q82 -47.5 130 -129.5t48 -179t-48 -179t-130 -129.5t-180 -47.5t-180 47.5t-129.5 129.5t-47.5 179t47.5 179t129.5 129.5t180 47.5t180 -47.5zM236 651.5q-80 -46.5 -126.5 -126.5t-46.5 -175t46.5 -175t126.5 -126.5t176 -46.5t176.5 46.5t127 126.5
t46.5 175t-46.5 175t-127 126.5t-176.5 46.5t-176 -46.5z" />
    <glyph glyph-name="uni25CF" unicode="&#x25cf;" horiz-adv-x="822" 
d="M229.5 659.5q-81.5 -46.5 -128 -128t-46.5 -181.5t46.5 -181.5t128 -128t181.5 -46.5t181.5 46.5t128 128t46.5 181.5t-46.5 181.5t-128 128t-181.5 46.5t-181.5 -46.5z" />
    <glyph glyph-name="uni25FD" unicode="&#x25fd;" horiz-adv-x="634" 
d="M569 504v-504h-504v504h504zM73 8h488v488h-488v-488z" />
    <glyph glyph-name="uni25FE" unicode="&#x25fe;" horiz-adv-x="634" 
d="M569 504v-504h-504v504h504z" />
    <glyph glyph-name="uni262E" unicode="&#x262e;" horiz-adv-x="822" 
d="M229.5 40.5q-81.5 46.5 -128 128t-46.5 181.5t46.5 181.5t128 128t181.5 46.5t181.5 -46.5t128 -128t46.5 -181.5t-46.5 -181.5t-128 -128t-181.5 -46.5t-181.5 46.5zM407 698q-97 -1 -175.5 -46.5t-123.5 -124.5t-45 -177q0 -74 26 -138t74 -112l244 253v345zM714 527
q-45 79 -123.5 124.5t-175.5 46.5v-345l244 -253q48 48 74 112t26 138q0 98 -45 177zM415 2q70 1 131 25t107 68l-238 247v-340zM169 95q46 -44 107 -68t131 -25v340z" />
    <glyph glyph-name="uni26AA" unicode="&#x26aa;" horiz-adv-x="616" 
d="M437 474.5q59 -34.5 94 -93.5t35 -129t-35 -129t-94 -93.5t-129 -34.5t-129 34.5t-94 93.5t-35 129t35 129t94 93.5t129 34.5t129 -34.5zM182.5 467.5q-57.5 -33.5 -91 -90.5t-33.5 -125t33.5 -125t91 -90.5t125.5 -33.5t125.5 33.5t91 90.5t33.5 125t-33.5 125t-91 90.5
t-125.5 33.5t-125.5 -33.5z" />
    <glyph glyph-name="uni26AB" unicode="&#x26ab;" horiz-adv-x="616" 
d="M437 474.5q59 -34.5 94 -93.5t35 -129t-35 -129t-94 -93.5t-129 -34.5t-129 34.5t-94 93.5t-35 129t35 129t94 93.5t129 34.5t129 -34.5z" />
    <glyph glyph-name="uni2713" unicode="&#x2713;" horiz-adv-x="1111" 
d="M44 357l340 -341l683 684l8 -8l-691 -692l-348 349z" />
    <glyph glyph-name="uni2715" unicode="&#x2715;" horiz-adv-x="798" 
d="M399 359l341 341l8 -8l-341 -341l341 -342l-8 -8l-341 341l-341 -341l-8 8l341 342l-341 341l8 8z" />
    <glyph glyph-name="uni2780" unicode="&#x2780;" horiz-adv-x="825" 
d="M592 658.5q82 -47.5 130 -129.5t48 -179t-48 -179t-130 -129.5t-180 -47.5t-180 47.5t-129.5 129.5t-47.5 179t47.5 179t129.5 129.5t180 47.5t180 -47.5zM236 651.5q-80 -46.5 -126.5 -126.5t-46.5 -175t46.5 -175t126.5 -126.5t176 -46.5t176.5 46.5t127 126.5
t46.5 175t-46.5 175t-127 126.5t-176.5 46.5t-176 -46.5zM414 168v274q-2 -3 -5.5 -5t-9.5 -2h-75v8h75q6 0 10.5 4.5t4.5 10.5v74h8v-364h-8z" />
    <glyph glyph-name="uni2781" unicode="&#x2781;" horiz-adv-x="825" 
d="M592 658.5q82 -47.5 130 -129.5t48 -179t-48 -179t-130 -129.5t-180 -47.5t-180 47.5t-129.5 129.5t-47.5 179t47.5 179t129.5 129.5t180 47.5t180 -47.5zM236 651.5q-80 -46.5 -126.5 -126.5t-46.5 -175t46.5 -175t126.5 -126.5t176 -46.5t176.5 46.5t127 126.5
t46.5 175t-46.5 175t-127 126.5t-176.5 46.5t-176 -46.5zM296 430q0 50 31.5 79t81.5 29t81 -28t31 -72q0 -37 -19.5 -66t-57.5 -63l-146 -133h229v-8h-240v8l152 139q38 34 56 61t18 62q0 41 -29 66.5t-75 25.5q-47 0 -76 -26.5t-29 -73.5v-8h-8v8z" />
    <glyph glyph-name="uni2782" unicode="&#x2782;" horiz-adv-x="825" 
d="M592 658.5q82 -47.5 130 -129.5t48 -179t-48 -179t-130 -129.5t-180 -47.5t-180 47.5t-129.5 129.5t-47.5 179t47.5 179t129.5 129.5t180 47.5t180 -47.5zM236 651.5q-80 -46.5 -126.5 -126.5t-46.5 -175t46.5 -175t126.5 -126.5t176 -46.5t176.5 46.5t127 126.5
t46.5 175t-46.5 175t-127 126.5t-176.5 46.5t-176 -46.5zM331.5 511q32.5 27 83.5 27q49 0 80 -26.5t31 -67.5q0 -35 -24 -58.5t-65 -29.5q46 -7 72.5 -31t26.5 -63q0 -44 -34 -72t-88 -28q-58 0 -92 28.5t-34 78.5h8q0 -47 32.5 -73t85.5 -26q50 0 82 25.5t32 66.5
t-33 65.5t-86 24.5h-25v8h25q48 0 78.5 23t30.5 61t-29 62t-74 24q-49 0 -78.5 -25t-29.5 -67h-8q0 46 32.5 73z" />
    <glyph glyph-name="uni2783" unicode="&#x2783;" horiz-adv-x="825" 
d="M592 658.5q82 -47.5 130 -129.5t48 -179t-48 -179t-130 -129.5t-180 -47.5t-180 47.5t-129.5 129.5t-47.5 179t47.5 179t129.5 129.5t180 47.5t180 -47.5zM236 651.5q-80 -46.5 -126.5 -126.5t-46.5 -175t46.5 -175t126.5 -126.5t176 -46.5t176.5 46.5t127 126.5
t46.5 175t-46.5 175t-127 126.5t-176.5 46.5t-176 -46.5zM464 532v-252h66v-8h-66v-104h-8v104h-201v8l201 252h8zM265 280h191v239z" />
    <glyph glyph-name="uni2784" unicode="&#x2784;" horiz-adv-x="825" 
d="M592 658.5q82 -47.5 130 -129.5t48 -179t-48 -179t-130 -129.5t-180 -47.5t-180 47.5t-129.5 129.5t-47.5 179t47.5 179t129.5 129.5t180 47.5t180 -47.5zM236 651.5q-80 -46.5 -126.5 -126.5t-46.5 -175t46.5 -175t126.5 -126.5t176 -46.5t176.5 46.5t127 126.5
t46.5 175t-46.5 175t-127 126.5t-176.5 46.5t-176 -46.5zM518 524h-196l-10 -177q17 27 46.5 42t63.5 15q52 0 85.5 -33.5t33.5 -86.5q0 -54 -35 -88t-88 -34q-49 0 -82 27t-38 71h8q5 -40 36 -65t76 -25q49 0 82 32t33 82q0 49 -31 80.5t-80 31.5q-37 1 -66 -16t-45 -47
l-7 1l11 198h203v-8z" />
    <glyph glyph-name="uni2785" unicode="&#x2785;" horiz-adv-x="825" 
d="M592 658.5q82 -47.5 130 -129.5t48 -179t-48 -179t-130 -129.5t-180 -47.5t-180 47.5t-129.5 129.5t-47.5 179t47.5 179t129.5 129.5t180 47.5t180 -47.5zM236 651.5q-80 -46.5 -126.5 -126.5t-46.5 -175t46.5 -175t126.5 -126.5t176 -46.5t176.5 46.5t127 126.5
t46.5 175t-46.5 175t-127 126.5t-176.5 46.5t-176 -46.5zM314 211q-31 49 -31 132q0 89 36.5 142t98.5 53q42 0 73 -26t38 -73h-8q-9 44 -36.5 67.5t-66.5 23.5q-59 0 -93 -51t-34 -136q0 -18 1.5 -35t3.5 -34q-3 32 10.5 60.5t40.5 46t65 17.5q53 0 85 -32.5t32 -85.5
t-32 -85.5t-85 -32.5q-67 0 -98 49zM491 200q30 30 30 80t-30 80t-79 30q-50 0 -80 -30t-30 -79t30.5 -80t79.5 -31t79 30z" />
    <glyph glyph-name="uni2786" unicode="&#x2786;" horiz-adv-x="825" 
d="M592 658.5q82 -47.5 130 -129.5t48 -179t-48 -179t-130 -129.5t-180 -47.5t-180 47.5t-129.5 129.5t-47.5 179t47.5 179t129.5 129.5t180 47.5t180 -47.5zM236 651.5q-80 -46.5 -126.5 -126.5t-46.5 -175t46.5 -175t126.5 -126.5t176 -46.5t176.5 46.5t127 126.5
t46.5 175t-46.5 175t-127 126.5t-176.5 46.5t-176 -46.5zM542 533v-7l-193 -358h-9l193 358l-237 -1v8h246z" />
    <glyph glyph-name="uni2787" unicode="&#x2787;" horiz-adv-x="825" 
d="M592 658.5q82 -47.5 130 -129.5t48 -179t-48 -179t-130 -129.5t-180 -47.5t-180 47.5t-129.5 129.5t-47.5 179t47.5 179t129.5 129.5t180 47.5t180 -47.5zM236 651.5q-80 -46.5 -126.5 -126.5t-46.5 -175t46.5 -175t126.5 -126.5t176 -46.5t176.5 46.5t127 126.5
t46.5 175t-46.5 175t-127 126.5t-176.5 46.5t-176 -46.5zM324.5 189.5q-34.5 27.5 -34.5 70.5q0 39 28 66t73 32q-40 5 -65 29.5t-25 60.5q0 39 31.5 64.5t80.5 25.5t80.5 -25.5t31.5 -64.5q0 -36 -25 -60.5t-65 -29.5q45 -5 73 -32t28 -66q0 -43 -34.5 -70.5t-88.5 -27.5
t-88.5 27.5zM495.5 195.5q32.5 25.5 32.5 64.5q0 41 -32.5 67.5t-82.5 26.5t-82.5 -26.5t-32.5 -67.5q0 -39 32.5 -64.5t82.5 -25.5t82.5 25.5zM488 386q29 24 29 62q0 36 -29 59t-75 23t-75 -23t-29 -59q0 -38 29 -62t75 -24t75 24z" />
    <glyph glyph-name="uni2788" unicode="&#x2788;" horiz-adv-x="825" 
d="M592 658.5q82 -47.5 130 -129.5t48 -179t-48 -179t-130 -129.5t-180 -47.5t-180 47.5t-129.5 129.5t-47.5 179t47.5 179t129.5 129.5t180 47.5t180 -47.5zM236 651.5q-80 -46.5 -126.5 -126.5t-46.5 -175t46.5 -175t126.5 -126.5t176 -46.5t176.5 46.5t127 126.5
t46.5 175t-46.5 175t-127 126.5t-176.5 46.5t-176 -46.5zM505 489q31 -49 31 -132q0 -89 -36.5 -142t-98.5 -53q-42 0 -73 26t-38 73h8q9 -44 36.5 -67.5t66.5 -23.5q59 0 93 51t34 136q0 18 -1.5 35t-3.5 34q3 -32 -10.5 -60.5t-40.5 -46t-65 -17.5q-53 0 -85 32.5
t-32 85.5t32 85.5t85 32.5q67 0 98 -49zM328 500q-30 -30 -30 -80t30 -80t79 -30q50 0 80 30t30 79t-30.5 80t-79.5 31t-79 -30z" />
    <glyph glyph-name="uni278A" unicode="&#x278a;" horiz-adv-x="822" 
d="M229.5 658.5q-81.5 -46.5 -128 -128t-46.5 -181.5t46.5 -181.5t128 -128t181.5 -46.5t181.5 46.5t128 128t46.5 181.5t-46.5 181.5t-128 128t-181.5 46.5t-181.5 -46.5zM412 167v274q-2 -3 -5.5 -5t-9.5 -2h-75v8h75q6 0 10.5 4.5t4.5 10.5v74h8v-364h-8z" />
    <glyph glyph-name="uni278B" unicode="&#x278b;" horiz-adv-x="822" 
d="M229.5 659.5q-81.5 -46.5 -128 -128t-46.5 -181.5t46.5 -181.5t128 -128t181.5 -46.5t181.5 46.5t128 128t46.5 181.5t-46.5 181.5t-128 128t-181.5 46.5t-181.5 -46.5zM294 430q0 50 31.5 79t81.5 29t81 -28t31 -72q0 -37 -19.5 -66t-57.5 -63l-146 -133h229v-8h-240v8
l152 139q38 34 56 61t18 62q0 41 -29 66.5t-75 25.5q-47 0 -76 -26.5t-29 -73.5v-8h-8v8z" />
    <glyph glyph-name="uni278C" unicode="&#x278c;" horiz-adv-x="822" 
d="M229.5 659.5q-81.5 -46.5 -128 -128t-46.5 -181.5t46.5 -181.5t128 -128t181.5 -46.5t181.5 46.5t128 128t46.5 181.5t-46.5 181.5t-128 128t-181.5 46.5t-181.5 -46.5zM329.5 511q32.5 27 83.5 27q49 0 80 -26.5t31 -67.5q0 -35 -24 -58.5t-65 -29.5q46 -7 72.5 -31
t26.5 -63q0 -44 -34 -72t-88 -28q-58 0 -92 28.5t-34 78.5h8q0 -47 32.5 -73t85.5 -26q50 0 82 25.5t32 66.5t-33 65.5t-86 24.5h-25v8h25q48 0 78.5 23t30.5 61t-29 62t-74 24q-49 0 -78.5 -25t-29.5 -67h-8q0 46 32.5 73z" />
    <glyph glyph-name="uni278D" unicode="&#x278d;" horiz-adv-x="822" 
d="M229.5 659.5q-81.5 -46.5 -128 -128t-46.5 -181.5t46.5 -181.5t128 -128t181.5 -46.5t181.5 46.5t128 128t46.5 181.5t-46.5 181.5t-128 128t-181.5 46.5t-181.5 -46.5zM462 532v-252h66v-8h-66v-104h-8v104h-201v8l201 252h8zM263 280h191v239z" />
    <glyph glyph-name="uni278E" unicode="&#x278e;" horiz-adv-x="822" 
d="M229.5 659.5q-81.5 -46.5 -128 -128t-46.5 -181.5t46.5 -181.5t128 -128t181.5 -46.5t181.5 46.5t128 128t46.5 181.5t-46.5 181.5t-128 128t-181.5 46.5t-181.5 -46.5zM516 524h-196l-10 -177q17 27 46.5 42t63.5 15q52 0 85.5 -33.5t33.5 -86.5q0 -54 -35 -88t-88 -34
q-49 0 -82 27t-38 71h8q5 -40 36 -65t76 -25q49 0 82 32t33 82q0 49 -31 80.5t-80 31.5q-37 1 -66 -16t-45 -47l-7 1l11 198h203v-8z" />
    <glyph glyph-name="uni278F" unicode="&#x278f;" horiz-adv-x="822" 
d="M229.5 659.5q-81.5 -46.5 -128 -128t-46.5 -181.5t46.5 -181.5t128 -128t181.5 -46.5t181.5 46.5t128 128t46.5 181.5t-46.5 181.5t-128 128t-181.5 46.5t-181.5 -46.5zM312 211q-31 49 -31 132q0 89 36.5 142t98.5 53q42 0 73 -26t38 -73h-8q-9 44 -36.5 67.5
t-66.5 23.5q-59 0 -93 -51t-34 -136q0 -18 1.5 -35t3.5 -34q-3 32 10.5 60.5t40.5 46t65 17.5q53 0 85 -32.5t32 -85.5t-32 -85.5t-85 -32.5q-67 0 -98 49zM489 200q30 30 30 80t-30 80t-79 30q-50 0 -80 -30t-30 -79t30.5 -80t79.5 -31t79 30z" />
    <glyph glyph-name="uni2790" unicode="&#x2790;" horiz-adv-x="822" 
d="M229.5 659.5q-81.5 -46.5 -128 -128t-46.5 -181.5t46.5 -181.5t128 -128t181.5 -46.5t181.5 46.5t128 128t46.5 181.5t-46.5 181.5t-128 128t-181.5 46.5t-181.5 -46.5zM540 533v-7l-193 -358h-9l193 358l-237 -1v8h246z" />
    <glyph glyph-name="uni2791" unicode="&#x2791;" horiz-adv-x="822" 
d="M229.5 659.5q-81.5 -46.5 -128 -128t-46.5 -181.5t46.5 -181.5t128 -128t181.5 -46.5t181.5 46.5t128 128t46.5 181.5t-46.5 181.5t-128 128t-181.5 46.5t-181.5 -46.5zM322.5 189.5q-34.5 27.5 -34.5 70.5q0 39 28 66t73 32q-40 5 -65 29.5t-25 60.5q0 39 31.5 64.5
t80.5 25.5t80.5 -25.5t31.5 -64.5q0 -36 -25 -60.5t-65 -29.5q45 -5 73 -32t28 -66q0 -43 -34.5 -70.5t-88.5 -27.5t-88.5 27.5zM493.5 195.5q32.5 25.5 32.5 64.5q0 41 -32.5 67.5t-82.5 26.5t-82.5 -26.5t-32.5 -67.5q0 -39 32.5 -64.5t82.5 -25.5t82.5 25.5zM486 386
q29 24 29 62q0 36 -29 59t-75 23t-75 -23t-29 -59q0 -38 29 -62t75 -24t75 24z" />
    <glyph glyph-name="uni2792" unicode="&#x2792;" horiz-adv-x="822" 
d="M229.5 659.5q-81.5 -46.5 -128 -128t-46.5 -181.5t46.5 -181.5t128 -128t181.5 -46.5t181.5 46.5t128 128t46.5 181.5t-46.5 181.5t-128 128t-181.5 46.5t-181.5 -46.5zM503 489q31 -49 31 -132q0 -89 -36.5 -142t-98.5 -53q-42 0 -73 26t-38 73h8q9 -44 36.5 -67.5
t66.5 -23.5q59 0 93 51t34 136q0 18 -1.5 35t-3.5 34q3 -32 -10.5 -60.5t-40.5 -46t-65 -17.5q-53 0 -85 32.5t-32 85.5t32 85.5t85 32.5q67 0 98 -49zM326 500q-30 -30 -30 -80t30 -80t79 -30q50 0 80 30t30 79t-30.5 80t-79.5 31t-79 -30z" />
    <glyph glyph-name="fl" unicode="&#xfb02;" horiz-adv-x="403" 
d="M100 504v98q0 52 23 75t75 23h74v-8h-74q-49 0 -69.5 -20.5t-20.5 -69.5v-98h163v-8h-163v-496h-8v496h-101v8h101zM338 700v-700h-8v700h8z" />
    <glyph glyph-name="u1F10B" unicode="&#x1f10b;" horiz-adv-x="825" 
d="M592 658.5q82 -47.5 130 -129.5t48 -179t-48 -179t-130 -129.5t-180 -47.5t-180 47.5t-129.5 129.5t-47.5 179t47.5 179t129.5 129.5t180 47.5t180 -47.5zM236 651.5q-80 -46.5 -126.5 -126.5t-46.5 -175t46.5 -175t126.5 -126.5t176 -46.5t176.5 46.5t127 126.5
t46.5 175t-46.5 175t-127 126.5t-176.5 46.5t-176 -46.5zM316.5 215.5q-36.5 53.5 -36.5 134.5t36.5 134.5t96.5 53.5t96.5 -53.5t36.5 -134.5t-36.5 -134.5t-96.5 -53.5t-96.5 53.5zM503.5 222q34.5 52 34.5 128t-34.5 128t-90.5 52t-90.5 -52t-34.5 -128t34.5 -128
t90.5 -52t90.5 52z" />
    <glyph glyph-name="u1F10C" unicode="&#x1f10c;" horiz-adv-x="822" 
d="M229.5 659.5q-81.5 -46.5 -128 -128t-46.5 -181.5t46.5 -181.5t128 -128t181.5 -46.5t181.5 46.5t128 128t46.5 181.5t-46.5 181.5t-128 128t-181.5 46.5t-181.5 -46.5zM314.5 215.5q-36.5 53.5 -36.5 134.5t36.5 134.5t96.5 53.5t96.5 -53.5t36.5 -134.5t-36.5 -134.5
t-96.5 -53.5t-96.5 53.5zM501.5 222q34.5 52 34.5 128t-34.5 128t-90.5 52t-90.5 -52t-34.5 -128t34.5 -128t90.5 -52t90.5 52z" />
    <glyph glyph-name="J.ss06" 
d="M97 57.5q-55 63.5 -55 176.5h8q0 -110 53 -171t147 -61q100 0 151 55t51 187v456h8v-456q0 -136 -53.5 -193t-156.5 -57q-98 0 -153 63.5z" />
    <glyph glyph-name="Jcircumflex.ss06" 
d="M97 57.5q-55 63.5 -55 176.5h8q0 -110 53 -171t147 -61q100 0 151 55t51 187v456h8v-456q0 -136 -53.5 -193t-156.5 -57q-98 0 -153 63.5zM334 768h-11l128 128h10l128 -128h-11l-122 121z" />
    <glyph glyph-name="Q.ss07" horiz-adv-x="744" 
d="M403 197l170 -275h-9l-170 275h9zM536 660.5q72 -45.5 112.5 -126.5t40.5 -184t-40.5 -184t-112.5 -126.5t-164 -45.5t-164 45.5t-112.5 126.5t-40.5 184t40.5 184t112.5 126.5t164 45.5t164 -45.5zM212 654q-70 -44 -109.5 -123.5t-39.5 -180.5t39.5 -180.5
t109.5 -123.5t160 -44t160 44t109.5 123.5t39.5 180.5t-39.5 180.5t-109.5 123.5t-160 44t-160 -44z" />
    <glyph glyph-name="i.loclTRK" horiz-adv-x="138" 
d="M73 504v-504h-8v504h8zM60.5 670.5q3.5 3.5 8.5 3.5t8.5 -3.5t3.5 -8.5t-3.5 -8.5t-8.5 -3.5t-8.5 3.5t-3.5 8.5t3.5 8.5z" />
    <glyph glyph-name="f.calt" horiz-adv-x="230" 
d="M88 677q23 23 75 23h74v-8h-74q-49 0 -69.5 -20.5t-20.5 -69.5v-98h163v-8h-163v-496h-8v602q0 52 23 75z" />
    <glyph glyph-name="t.calt" horiz-adv-x="237" 
d="M65 644h8v-140h143v-8h-143v-398q0 -49 20.5 -69.5t69.5 -20.5h53v-8h-53q-52 0 -75 23t-23 75v546z" />
    <glyph glyph-name="tbar.calt" horiz-adv-x="237" 
d="M73 496v-197h143v-8h-143v-193q0 -49 20.5 -69.5t69.5 -20.5h53v-8h-53q-52 0 -75 23t-23 75v546h8v-140h143v-8h-143z" />
    <glyph glyph-name="tcaron.calt" horiz-adv-x="237" 
d="M65 644h8v-140h143v-8h-143v-398q0 -49 20.5 -69.5t69.5 -20.5h53v-8h-53q-52 0 -75 23t-23 75v546zM190 710l-46 -143h-8l46 143h8z" />
    <glyph glyph-name="uni0163.calt" horiz-adv-x="237" 
d="M65 644h8v-140h143v-8h-143v-398q0 -49 20.5 -69.5t69.5 -20.5h53v-8h-53q-52 0 -75 23t-23 75v546zM133 -55l-43 -138h-8l43 138h8z" />
    <glyph glyph-name="uni021B.calt" horiz-adv-x="237" 
d="M65 644h8v-140h143v-8h-143v-398q0 -49 20.5 -69.5t69.5 -20.5h53v-8h-53q-52 0 -75 23t-23 75v546zM133 -55l-43 -138h-8l43 138h8z" />
    <glyph glyph-name="j.short" horiz-adv-x="144" 
d="M66.5 670.5q3.5 3.5 8.5 3.5t8.5 -3.5t3.5 -8.5t-3.5 -8.5t-8.5 -3.5t-8.5 3.5t-3.5 8.5t3.5 8.5zM-19 -192q49 0 69.5 20.5t20.5 69.5v606h8v-606q0 -52 -23 -75t-75 -23h-23v8h23z" />
    <glyph glyph-name="uni0237.short" horiz-adv-x="144" 
d="M-19 -192q49 0 69.5 20.5t20.5 69.5v606h8v-606q0 -52 -23 -75t-75 -23h-23v8h23z" />
    <glyph glyph-name="jcircumflex.short" horiz-adv-x="144" 
d="M-19 -192q49 0 69.5 20.5t20.5 69.5v606h8v-606q0 -52 -23 -75t-75 -23h-23v8h23zM-47 572h-11l128 128h10l128 -128h-11l-122 121z" />
    <glyph glyph-name="a.ss01" horiz-adv-x="575" 
d="M425 457.5q60 -52.5 78 -139.5l-1 -1v187h8v-504h-8v188l1 -1q-18 -88 -78 -140.5t-145 -52.5q-67 0 -119 33t-81.5 91.5t-29.5 133.5q0 74 29.5 133t81.5 92t119 33q85 0 145 -52.5zM165.5 470q-50.5 -32 -79 -89t-28.5 -129q0 -73 28.5 -129.5t79 -88.5t114.5 -32
t114.5 32t79 89t28.5 130q0 72 -28.5 128.5t-79 88.5t-114.5 32t-114.5 -32z" />
    <glyph glyph-name="aacute.ss01" horiz-adv-x="575" 
d="M425 457.5q60 -52.5 78 -139.5l-1 -1v187h8v-504h-8v188l1 -1q-18 -88 -78 -140.5t-145 -52.5q-67 0 -119 33t-81.5 91.5t-29.5 133.5q0 74 29.5 133t81.5 92t119 33q85 0 145 -52.5zM165.5 470q-50.5 -32 -79 -89t-28.5 -129q0 -73 28.5 -129.5t79 -88.5t114.5 -32
t114.5 32t79 89t28.5 130q0 72 -28.5 128.5t-79 88.5t-114.5 32t-114.5 -32zM376 700h10l-99 -127h-10z" />
    <glyph glyph-name="abreve.ss01" horiz-adv-x="575" 
d="M425 457.5q60 -52.5 78 -139.5l-1 -1v187h8v-504h-8v188l1 -1q-18 -88 -78 -140.5t-145 -52.5q-67 0 -119 33t-81.5 91.5t-29.5 133.5q0 74 29.5 133t81.5 92t119 33q85 0 145 -52.5zM165.5 470q-50.5 -32 -79 -89t-28.5 -129q0 -73 28.5 -129.5t79 -88.5t114.5 -32
t114.5 32t79 89t28.5 130q0 72 -28.5 128.5t-79 88.5t-114.5 32t-114.5 -32zM201.5 619.5q-30.5 31.5 -30.5 80.5h8q0 -45 28.5 -74.5t71.5 -29.5q45 0 74.5 29.5t29.5 74.5h8q0 -49 -31.5 -80.5t-80.5 -31.5q-47 0 -77.5 31.5z" />
    <glyph glyph-name="acircumflex.ss01" horiz-adv-x="575" 
d="M425 457.5q60 -52.5 78 -139.5l-1 -1v187h8v-504h-8v188l1 -1q-18 -88 -78 -140.5t-145 -52.5q-67 0 -119 33t-81.5 91.5t-29.5 133.5q0 74 29.5 133t81.5 92t119 33q85 0 145 -52.5zM165.5 470q-50.5 -32 -79 -89t-28.5 -129q0 -73 28.5 -129.5t79 -88.5t114.5 -32
t114.5 32t79 89t28.5 130q0 72 -28.5 128.5t-79 88.5t-114.5 32t-114.5 -32zM159 572h-11l128 128h10l128 -128h-11l-122 121z" />
    <glyph glyph-name="adieresis.ss01" horiz-adv-x="575" 
d="M425 457.5q60 -52.5 78 -139.5l-1 -1v187h8v-504h-8v188l1 -1q-18 -88 -78 -140.5t-145 -52.5q-67 0 -119 33t-81.5 91.5t-29.5 133.5q0 74 29.5 133t81.5 92t119 33q85 0 145 -52.5zM165.5 470q-50.5 -32 -79 -89t-28.5 -129q0 -73 28.5 -129.5t79 -88.5t114.5 -32
t114.5 32t79 89t28.5 130q0 72 -28.5 128.5t-79 88.5t-114.5 32t-114.5 -32zM198.5 664.5q3.5 3.5 8.5 3.5t8.5 -3.5t3.5 -8.5t-3.5 -8.5t-8.5 -3.5t-8.5 3.5t-3.5 8.5t3.5 8.5zM346.5 664.5q3.5 3.5 8.5 3.5t8.5 -3.5t3.5 -8.5t-3.5 -8.5t-8.5 -3.5t-8.5 3.5t-3.5 8.5
t3.5 8.5z" />
    <glyph glyph-name="agrave.ss01" horiz-adv-x="575" 
d="M425 457.5q60 -52.5 78 -139.5l-1 -1v187h8v-504h-8v188l1 -1q-18 -88 -78 -140.5t-145 -52.5q-67 0 -119 33t-81.5 91.5t-29.5 133.5q0 74 29.5 133t81.5 92t119 33q85 0 145 -52.5zM165.5 470q-50.5 -32 -79 -89t-28.5 -129q0 -73 28.5 -129.5t79 -88.5t114.5 -32
t114.5 32t79 89t28.5 130q0 72 -28.5 128.5t-79 88.5t-114.5 32t-114.5 -32zM187 700l99 -127h-10l-99 127h10z" />
    <glyph glyph-name="amacron.ss01" horiz-adv-x="575" 
d="M425 457.5q60 -52.5 78 -139.5l-1 -1v187h8v-504h-8v188l1 -1q-18 -88 -78 -140.5t-145 -52.5q-67 0 -119 33t-81.5 91.5t-29.5 133.5q0 74 29.5 133t81.5 92t119 33q85 0 145 -52.5zM165.5 470q-50.5 -32 -79 -89t-28.5 -129q0 -73 28.5 -129.5t79 -88.5t114.5 -32
t114.5 32t79 89t28.5 130q0 72 -28.5 128.5t-79 88.5t-114.5 32t-114.5 -32zM166 660h230v-8h-230v8z" />
    <glyph glyph-name="aogonek.ss01" horiz-adv-x="575" 
d="M425 457.5q60 -52.5 78 -139.5l-1 -1v187h8v-504h-8v188l1 -1q-18 -88 -78 -140.5t-145 -52.5q-67 0 -119 33t-81.5 91.5t-29.5 133.5q0 74 29.5 133t81.5 92t119 33q85 0 145 -52.5zM165.5 470q-50.5 -32 -79 -89t-28.5 -129q0 -73 28.5 -129.5t79 -88.5t114.5 -32
t114.5 32t79 89t28.5 130q0 72 -28.5 128.5t-79 88.5t-114.5 32t-114.5 -32zM407.5 -181.5q-20.5 18.5 -20.5 50.5q0 36 28.5 65t89.5 71l5 -5l-15 -11q-53 -39 -76.5 -64t-23.5 -56q0 -29 18.5 -45t51.5 -16h55v-8h-55q-37 0 -57.5 18.5z" />
    <glyph glyph-name="aring.ss01" horiz-adv-x="575" 
d="M425 457.5q60 -52.5 78 -139.5l-1 -1v187h8v-504h-8v188l1 -1q-18 -88 -78 -140.5t-145 -52.5q-67 0 -119 33t-81.5 91.5t-29.5 133.5q0 74 29.5 133t81.5 92t119 33q85 0 145 -52.5zM165.5 470q-50.5 -32 -79 -89t-28.5 -129q0 -73 28.5 -129.5t79 -88.5t114.5 -32
t114.5 32t79 89t28.5 130q0 72 -28.5 128.5t-79 88.5t-114.5 32t-114.5 -32zM228 575q-24 14 -38 38t-14 53t14 53t38 38t53 14t53 -14t38 -38t14 -53t-14 -53t-38 -38t-53 -14t-53 14zM350 597.5q28 28.5 28 68.5q0 41 -28 69t-69 28q-40 0 -68.5 -28t-28.5 -69
q0 -40 28.5 -68.5t68.5 -28.5q41 0 69 28.5z" />
    <glyph glyph-name="atilde.ss01" horiz-adv-x="575" 
d="M425 457.5q60 -52.5 78 -139.5l-1 -1v187h8v-504h-8v188l1 -1q-18 -88 -78 -140.5t-145 -52.5q-67 0 -119 33t-81.5 91.5t-29.5 133.5q0 74 29.5 133t81.5 92t119 33q85 0 145 -52.5zM165.5 470q-50.5 -32 -79 -89t-28.5 -129q0 -73 28.5 -129.5t79 -88.5t114.5 -32
t114.5 32t79 89t28.5 130q0 72 -28.5 128.5t-79 88.5t-114.5 32t-114.5 -32zM254.5 668.5q-11.5 7.5 -28.5 7.5q-24 0 -35.5 -16.5t-11.5 -40.5h-8v1q0 28 14 46t41 18q21 0 33 -8t25 -24q12 -14 23.5 -21.5t28.5 -7.5q24 0 35.5 16.5t11.5 40.5h8v-1q0 -28 -14 -46t-41 -18
q-21 0 -33 8t-25 24q-12 14 -23.5 21.5z" />
    <glyph glyph-name="imacron.ss01" horiz-adv-x="153" 
d="M88 504v-504h-8v496h-78v8h86zM-31 660h230v-8h-230v8z" />
    <glyph glyph-name="y.ss01" horiz-adv-x="522" 
d="M399 -144.5q50 53.5 50 153.5v180l1 -1q-11 -60 -39 -103.5t-69.5 -66.5t-94.5 -23q-85 0 -136 58.5t-51 165.5v285h8v-285q0 -103 48.5 -159.5t130.5 -56.5q60 0 106 32t71 90.5t25 136.5v242h8v-495q0 -104 -52 -159.5t-150 -55.5q-81 0 -130.5 39t-63.5 112h9
q14 -70 61 -106.5t124 -36.5q94 0 144 53.5z" />
    <glyph glyph-name="yacute.ss01" horiz-adv-x="522" 
d="M399 -144.5q50 53.5 50 153.5v180l1 -1q-11 -60 -39 -103.5t-69.5 -66.5t-94.5 -23q-85 0 -136 58.5t-51 165.5v285h8v-285q0 -103 48.5 -159.5t130.5 -56.5q60 0 106 32t71 90.5t25 136.5v242h8v-495q0 -104 -52 -159.5t-150 -55.5q-81 0 -130.5 39t-63.5 112h9
q14 -70 61 -106.5t124 -36.5q94 0 144 53.5zM354 700h10l-99 -127h-10z" />
    <glyph glyph-name="ycircumflex.ss01" horiz-adv-x="522" 
d="M399 -144.5q50 53.5 50 153.5v180l1 -1q-11 -60 -39 -103.5t-69.5 -66.5t-94.5 -23q-85 0 -136 58.5t-51 165.5v285h8v-285q0 -103 48.5 -159.5t130.5 -56.5q60 0 106 32t71 90.5t25 136.5v242h8v-495q0 -104 -52 -159.5t-150 -55.5q-81 0 -130.5 39t-63.5 112h9
q14 -70 61 -106.5t124 -36.5q94 0 144 53.5zM137 572h-11l128 128h10l128 -128h-11l-122 121z" />
    <glyph glyph-name="ydieresis.ss01" horiz-adv-x="522" 
d="M399 -144.5q50 53.5 50 153.5v180l1 -1q-11 -60 -39 -103.5t-69.5 -66.5t-94.5 -23q-85 0 -136 58.5t-51 165.5v285h8v-285q0 -103 48.5 -159.5t130.5 -56.5q60 0 106 32t71 90.5t25 136.5v242h8v-495q0 -104 -52 -159.5t-150 -55.5q-81 0 -130.5 39t-63.5 112h9
q14 -70 61 -106.5t124 -36.5q94 0 144 53.5zM176.5 664.5q3.5 3.5 8.5 3.5t8.5 -3.5t3.5 -8.5t-3.5 -8.5t-8.5 -3.5t-8.5 3.5t-3.5 8.5t3.5 8.5zM324.5 664.5q3.5 3.5 8.5 3.5t8.5 -3.5t3.5 -8.5t-3.5 -8.5t-8.5 -3.5t-8.5 3.5t-3.5 8.5t3.5 8.5z" />
    <glyph glyph-name="ygrave.ss01" horiz-adv-x="522" 
d="M399 -144.5q50 53.5 50 153.5v180l1 -1q-11 -60 -39 -103.5t-69.5 -66.5t-94.5 -23q-85 0 -136 58.5t-51 165.5v285h8v-285q0 -103 48.5 -159.5t130.5 -56.5q60 0 106 32t71 90.5t25 136.5v242h8v-495q0 -104 -52 -159.5t-150 -55.5q-81 0 -130.5 39t-63.5 112h9
q14 -70 61 -106.5t124 -36.5q94 0 144 53.5zM165 700l99 -127h-10l-99 127h10z" />
    <glyph glyph-name="a.ss02" horiz-adv-x="504" 
d="M374 52q56 50 61 133v80h-203q-83 0 -131 -36t-48 -99q0 -59 44 -93.5t121 -34.5q100 0 156 50zM436 141l1 -2q-19 -67 -74.5 -106t-144.5 -39q-81 0 -127 36.5t-46 99.5q0 67 50 105t137 38h203v68q0 74 -48.5 117.5t-135.5 43.5q-71 0 -117 -33.5t-58 -91.5h-8
q11 60 60 96.5t123 36.5q91 0 142 -46t51 -123v-341h-8v141z" />
    <glyph glyph-name="aacute.ss02" horiz-adv-x="504" 
d="M374 52q56 50 61 133v80h-203q-83 0 -131 -36t-48 -99q0 -59 44 -93.5t121 -34.5q100 0 156 50zM436 141l1 -2q-19 -67 -74.5 -106t-144.5 -39q-81 0 -127 36.5t-46 99.5q0 67 50 105t137 38h203v68q0 74 -48.5 117.5t-135.5 43.5q-71 0 -117 -33.5t-58 -91.5h-8
q11 60 60 96.5t123 36.5q91 0 142 -46t51 -123v-341h-8v141zM346 700h10l-99 -127h-10z" />
    <glyph glyph-name="abreve.ss02" horiz-adv-x="504" 
d="M374 52q56 50 61 133v80h-203q-83 0 -131 -36t-48 -99q0 -59 44 -93.5t121 -34.5q100 0 156 50zM436 141l1 -2q-19 -67 -74.5 -106t-144.5 -39q-81 0 -127 36.5t-46 99.5q0 67 50 105t137 38h203v68q0 74 -48.5 117.5t-135.5 43.5q-71 0 -117 -33.5t-58 -91.5h-8
q11 60 60 96.5t123 36.5q91 0 142 -46t51 -123v-341h-8v141zM171.5 619.5q-30.5 31.5 -30.5 80.5h8q0 -45 28.5 -74.5t71.5 -29.5q45 0 74.5 29.5t29.5 74.5h8q0 -49 -31.5 -80.5t-80.5 -31.5q-47 0 -77.5 31.5z" />
    <glyph glyph-name="acircumflex.ss02" horiz-adv-x="504" 
d="M374 52q56 50 61 133v80h-203q-83 0 -131 -36t-48 -99q0 -59 44 -93.5t121 -34.5q100 0 156 50zM436 141l1 -2q-19 -67 -74.5 -106t-144.5 -39q-81 0 -127 36.5t-46 99.5q0 67 50 105t137 38h203v68q0 74 -48.5 117.5t-135.5 43.5q-71 0 -117 -33.5t-58 -91.5h-8
q11 60 60 96.5t123 36.5q91 0 142 -46t51 -123v-341h-8v141zM129 572h-11l128 128h10l128 -128h-11l-122 121z" />
    <glyph glyph-name="adieresis.ss02" horiz-adv-x="504" 
d="M374 52q56 50 61 133v80h-203q-83 0 -131 -36t-48 -99q0 -59 44 -93.5t121 -34.5q100 0 156 50zM436 141l1 -2q-19 -67 -74.5 -106t-144.5 -39q-81 0 -127 36.5t-46 99.5q0 67 50 105t137 38h203v68q0 74 -48.5 117.5t-135.5 43.5q-71 0 -117 -33.5t-58 -91.5h-8
q11 60 60 96.5t123 36.5q91 0 142 -46t51 -123v-341h-8v141zM168.5 664.5q3.5 3.5 8.5 3.5t8.5 -3.5t3.5 -8.5t-3.5 -8.5t-8.5 -3.5t-8.5 3.5t-3.5 8.5t3.5 8.5zM316.5 664.5q3.5 3.5 8.5 3.5t8.5 -3.5t3.5 -8.5t-3.5 -8.5t-8.5 -3.5t-8.5 3.5t-3.5 8.5t3.5 8.5z" />
    <glyph glyph-name="agrave.ss02" horiz-adv-x="504" 
d="M374 52q56 50 61 133v80h-203q-83 0 -131 -36t-48 -99q0 -59 44 -93.5t121 -34.5q100 0 156 50zM436 141l1 -2q-19 -67 -74.5 -106t-144.5 -39q-81 0 -127 36.5t-46 99.5q0 67 50 105t137 38h203v68q0 74 -48.5 117.5t-135.5 43.5q-71 0 -117 -33.5t-58 -91.5h-8
q11 60 60 96.5t123 36.5q91 0 142 -46t51 -123v-341h-8v141zM157 700l99 -127h-10l-99 127h10z" />
    <glyph glyph-name="amacron.ss02" horiz-adv-x="504" 
d="M374 52q56 50 61 133v80h-203q-83 0 -131 -36t-48 -99q0 -59 44 -93.5t121 -34.5q100 0 156 50zM436 141l1 -2q-19 -67 -74.5 -106t-144.5 -39q-81 0 -127 36.5t-46 99.5q0 67 50 105t137 38h203v68q0 74 -48.5 117.5t-135.5 43.5q-71 0 -117 -33.5t-58 -91.5h-8
q11 60 60 96.5t123 36.5q91 0 142 -46t51 -123v-341h-8v141zM136 660h230v-8h-230v8z" />
    <glyph glyph-name="aogonek.ss02" horiz-adv-x="504" 
d="M374 52q56 50 61 133v80h-203q-83 0 -131 -36t-48 -99q0 -59 44 -93.5t121 -34.5q100 0 156 50zM436 141l1 -2q-19 -67 -74.5 -106t-144.5 -39q-81 0 -127 36.5t-46 99.5q0 67 50 105t137 38h203v68q0 74 -48.5 117.5t-135.5 43.5q-71 0 -117 -33.5t-58 -91.5h-8
q11 60 60 96.5t123 36.5q91 0 142 -46t51 -123v-341h-8v141zM342.5 -181.5q-20.5 18.5 -20.5 50.5q0 36 28.5 65t89.5 71l5 -5l-15 -11q-53 -39 -76.5 -64t-23.5 -56q0 -29 18.5 -45t51.5 -16h55v-8h-55q-37 0 -57.5 18.5z" />
    <glyph glyph-name="aring.ss02" horiz-adv-x="504" 
d="M374 52q56 50 61 133v80h-203q-83 0 -131 -36t-48 -99q0 -59 44 -93.5t121 -34.5q100 0 156 50zM436 141l1 -2q-19 -67 -74.5 -106t-144.5 -39q-81 0 -127 36.5t-46 99.5q0 67 50 105t137 38h203v68q0 74 -48.5 117.5t-135.5 43.5q-71 0 -117 -33.5t-58 -91.5h-8
q11 60 60 96.5t123 36.5q91 0 142 -46t51 -123v-341h-8v141zM198 575q-24 14 -38 38t-14 53t14 53t38 38t53 14t53 -14t38 -38t14 -53t-14 -53t-38 -38t-53 -14t-53 14zM320 597.5q28 28.5 28 68.5q0 41 -28 69t-69 28q-40 0 -68.5 -28t-28.5 -69q0 -40 28.5 -68.5
t68.5 -28.5q41 0 69 28.5z" />
    <glyph glyph-name="atilde.ss02" horiz-adv-x="504" 
d="M374 52q56 50 61 133v80h-203q-83 0 -131 -36t-48 -99q0 -59 44 -93.5t121 -34.5q100 0 156 50zM436 141l1 -2q-19 -67 -74.5 -106t-144.5 -39q-81 0 -127 36.5t-46 99.5q0 67 50 105t137 38h203v68q0 74 -48.5 117.5t-135.5 43.5q-71 0 -117 -33.5t-58 -91.5h-8
q11 60 60 96.5t123 36.5q91 0 142 -46t51 -123v-341h-8v141zM224.5 668.5q-11.5 7.5 -28.5 7.5q-24 0 -35.5 -16.5t-11.5 -40.5h-8v1q0 28 14 46t41 18q21 0 33 -8t25 -24q12 -14 23.5 -21.5t28.5 -7.5q24 0 35.5 16.5t11.5 40.5h8v-1q0 -28 -14 -46t-41 -18q-21 0 -33 8
t-25 24q-12 14 -23.5 21.5z" />
    <glyph glyph-name="i.ss03" horiz-adv-x="153" 
d="M2 496v8h86v-504h-8v496h-78zM92.5 670.5q3.5 -3.5 3.5 -8.5t-3.5 -8.5t-8.5 -3.5t-8.5 3.5t-3.5 8.5t3.5 8.5t8.5 3.5t8.5 -3.5z" />
    <glyph glyph-name="dotlessi.ss03" horiz-adv-x="153" 
d="M88 504v-504h-8v496h-78v8h86z" />
    <glyph glyph-name="iacute.ss03" horiz-adv-x="153" 
d="M88 504v-504h-8v496h-78v8h86zM179 700h10l-99 -127h-10z" />
    <glyph glyph-name="ibreve.ss03" horiz-adv-x="153" 
d="M88 504v-504h-8v496h-78v8h86zM4.5 619.5q-30.5 31.5 -30.5 80.5h8q0 -45 28.5 -74.5t71.5 -29.5q45 0 74.5 29.5t29.5 74.5h8q0 -49 -31.5 -80.5t-80.5 -31.5q-47 0 -77.5 31.5z" />
    <glyph glyph-name="icircumflex.ss03" horiz-adv-x="153" 
d="M88 504v-504h-8v496h-78v8h86zM-38 572h-11l128 128h10l128 -128h-11l-122 121z" />
    <glyph glyph-name="idieresis.ss03" horiz-adv-x="153" 
d="M88 504v-504h-8v496h-78v8h86zM1.5 664.5q3.5 3.5 8.5 3.5t8.5 -3.5t3.5 -8.5t-3.5 -8.5t-8.5 -3.5t-8.5 3.5t-3.5 8.5t3.5 8.5zM149.5 664.5q3.5 3.5 8.5 3.5t8.5 -3.5t3.5 -8.5t-3.5 -8.5t-8.5 -3.5t-8.5 3.5t-3.5 8.5t3.5 8.5z" />
    <glyph glyph-name="i.loclTRK.ss03" horiz-adv-x="153" 
d="M88 504v-504h-8v496h-78v8h86zM75.5 670.5q3.5 3.5 8.5 3.5t8.5 -3.5t3.5 -8.5t-3.5 -8.5t-8.5 -3.5t-8.5 3.5t-3.5 8.5t3.5 8.5z" />
    <glyph glyph-name="igrave.ss03" horiz-adv-x="153" 
d="M88 504v-504h-8v496h-78v8h86zM-10 700l99 -127h-10l-99 127h10z" />
    <glyph glyph-name="ij.ss03" horiz-adv-x="291" 
d="M73 504v-504h-8v504h8zM77.5 670.5q3.5 -3.5 3.5 -8.5t-3.5 -8.5t-8.5 -3.5t-8.5 3.5t-3.5 8.5t3.5 8.5t8.5 3.5t8.5 -3.5zM213.5 670.5q3.5 3.5 8.5 3.5t8.5 -3.5t3.5 -8.5t-3.5 -8.5t-8.5 -3.5t-8.5 3.5t-3.5 8.5t3.5 8.5zM128 -192q49 0 69.5 20.5t20.5 69.5v598h-78
v8h86v-606q0 -52 -23 -75t-75 -23h-53v8h53z" />
    <glyph glyph-name="iogonek.ss03" horiz-adv-x="153" 
d="M2 496v8h86v-504h-8v496h-78zM92.5 670.5q3.5 -3.5 3.5 -8.5t-3.5 -8.5t-8.5 -3.5t-8.5 3.5t-3.5 8.5t3.5 8.5t8.5 3.5t8.5 -3.5zM-14.5 -181.5q-20.5 18.5 -20.5 50.5q0 36 28.5 65t89.5 71l5 -5l-15 -11q-53 -39 -76.5 -64t-23.5 -56q0 -29 18.5 -45t51.5 -16h55v-8
h-55q-37 0 -57.5 18.5z" />
    <glyph glyph-name="itilde.ss03" horiz-adv-x="153" 
d="M88 504v-504h-8v496h-78v8h86zM57.5 668.5q-11.5 7.5 -28.5 7.5q-24 0 -35.5 -16.5t-11.5 -40.5h-8v1q0 28 14 46t41 18q21 0 33 -8t25 -24q12 -14 23.5 -21.5t28.5 -7.5q24 0 35.5 16.5t11.5 40.5h8v-1q0 -28 -14 -46t-41 -18q-21 0 -33 8t-25 24q-12 14 -23.5 21.5z
" />
    <glyph glyph-name="j.ss03" horiz-adv-x="153" 
d="M75.5 670.5q3.5 3.5 8.5 3.5t8.5 -3.5t3.5 -8.5t-3.5 -8.5t-8.5 -3.5t-8.5 3.5t-3.5 8.5t3.5 8.5zM-10 -192q49 0 69.5 20.5t20.5 69.5v598h-78v8h86v-606q0 -52 -23 -75t-75 -23h-53v8h53z" />
    <glyph glyph-name="uni0237.ss03" horiz-adv-x="153" 
d="M-10 -192q49 0 69.5 20.5t20.5 69.5v598h-78v8h86v-606q0 -52 -23 -75t-75 -23h-53v8h53z" />
    <glyph glyph-name="jcircumflex.ss03" horiz-adv-x="153" 
d="M-10 -192q49 0 69.5 20.5t20.5 69.5v598h-78v8h86v-606q0 -52 -23 -75t-75 -23h-53v8h53zM-38 572h-11l128 128h10l128 -128h-11l-122 121z" />
    <glyph glyph-name="ij.ss04" horiz-adv-x="276" 
d="M73 504v-504h-8v504h8zM77.5 670.5q3.5 -3.5 3.5 -8.5t-3.5 -8.5t-8.5 -3.5t-8.5 3.5t-3.5 8.5t3.5 8.5t8.5 3.5t8.5 -3.5zM198.5 670.5q3.5 3.5 8.5 3.5t8.5 -3.5t3.5 -8.5t-3.5 -8.5t-8.5 -3.5t-8.5 3.5t-3.5 8.5t3.5 8.5zM211 504v-704h-8v704h8z" />
    <glyph glyph-name="j.ss04" horiz-adv-x="138" 
d="M60.5 670.5q3.5 3.5 8.5 3.5t8.5 -3.5t3.5 -8.5t-3.5 -8.5t-8.5 -3.5t-8.5 3.5t-3.5 8.5t3.5 8.5zM73 504v-704h-8v704h8z" />
    <glyph glyph-name="uni0237.ss04" horiz-adv-x="138" 
d="M73 504v-704h-8v704h8z" />
    <glyph glyph-name="jcircumflex.ss04" horiz-adv-x="138" 
d="M73 504v-704h-8v704h8zM-53 572h-11l128 128h10l128 -128h-11l-122 121z" />
    <glyph glyph-name="t.ss05" horiz-adv-x="260" 
d="M100 504v140h8v-140h142v-8h-142v-496h-8v496h-101v8h101z" />
    <glyph glyph-name="tbar.ss05" horiz-adv-x="266" 
d="M103 504v140h8v-140h142v-8h-142v-496h-8v496h-101v8h101zM253 299v-8h-251v8h251z" />
    <glyph glyph-name="tcaron.ss05" horiz-adv-x="260" 
d="M100 504v140h8v-140h142v-8h-142v-496h-8v496h-101v8h101zM228 700l-46 -143h-8l46 143h8z" />
    <glyph glyph-name="uni0163.ss05" horiz-adv-x="260" 
d="M100 504v140h8v-140h142v-8h-142v-496h-8v496h-101v8h101zM107 -55l-43 -138h-8l43 138h8z" />
    <glyph glyph-name="uni021B.ss05" horiz-adv-x="260" 
d="M100 504v140h8v-140h142v-8h-142v-496h-8v496h-101v8h101zM107 -55l-43 -138h-8l43 138h8z" />
    <glyph glyph-name="w_w_w" horiz-adv-x="2232" 
d="M24 504l177 -490l180 490h9l168 -490l188 490h9l-193 -504h-8l-169 492l-180 -492h-8l-182 504h9zM755 504l177 -490l180 490h9l168 -490l188 490h9l-193 -504h-8l-169 492l-180 -492h-8l-182 504h9zM1486 504l177 -490l180 490h9l168 -490l188 490h9l-193 -504h-8
l-169 492l-180 -492h-8l-182 504h9z" />
    <glyph glyph-name="zero.osf" horiz-adv-x="610" 
d="M179.5 28.5q-57.5 34.5 -90.5 93.5t-33 130t33 130t90.5 93.5t125.5 34.5t125.5 -34.5t90.5 -93.5t33 -130t-33 -130t-90.5 -93.5t-125.5 -34.5t-125.5 34.5zM426.5 35.5q55.5 33.5 87.5 91t32 125.5t-32 125.5t-87.5 91t-121.5 33.5t-121.5 -33.5t-87.5 -91t-32 -125.5
t32 -125.5t87.5 -91t121.5 -33.5t121.5 33.5z" />
    <glyph glyph-name="one.osf" horiz-adv-x="232" 
d="M102 356q21 0 31.5 11.5t10.5 32.5v104h8v-504h-8v369q-6 -10 -16.5 -15.5t-25.5 -5.5h-102v8h102z" />
    <glyph glyph-name="two.osf" horiz-adv-x="495" 
d="M50 333q0 51 24.5 91.5t67.5 63t98 22.5q53 0 94.5 -19.5t64.5 -55t23 -80.5q0 -59 -32.5 -99t-106.5 -91l-234 -159l-1 2h396v-8h-405v8l238 162q48 33 76.5 58t44.5 56t16 71q0 65 -48.5 106t-125.5 41q-52 0 -93.5 -21.5t-65 -60t-23.5 -87.5v-17h-8v17z" />
    <glyph glyph-name="three.osf" horiz-adv-x="552" 
d="M103 -133.5q-61 52.5 -61 144.5h8q0 -89 59.5 -139t159.5 -50q62 0 110.5 22.5t76 63.5t27.5 93q0 75 -59.5 120t-157.5 45h-47v8h47q60 0 105.5 21t70 58t24.5 82q0 48 -24.5 85.5t-69 58.5t-100.5 21q-92 0 -147 -44t-55 -121h-8q0 54 26 93t73.5 59.5t110.5 20.5
q59 0 105 -22t71.5 -61.5t25.5 -89.5q0 -66 -46.5 -111.5t-125.5 -52.5v0q88 -8 138.5 -53.5t50.5 -116.5q0 -54 -28.5 -96.5t-79 -66.5t-114.5 -24q-105 0 -166 52.5z" />
    <glyph glyph-name="four.osf" horiz-adv-x="557" 
d="M418 504v-496h119v-8h-119v-180h-8v180h-380v8l380 496h8zM40 8h370v484z" />
    <glyph glyph-name="five.osf" horiz-adv-x="571" 
d="M471 503v-8h-353l-26 -348l-1 2q27 56 80.5 87.5t121.5 31.5q67 0 117 -29t77.5 -81t27.5 -117q0 -72 -30.5 -123t-81 -77.5t-110.5 -26.5q-66 0 -115.5 28t-77 74.5t-31.5 102.5h8q5 -53 31.5 -98t74 -72t110.5 -27q57 0 106 25.5t78.5 75t29.5 118.5q0 62 -26.5 112
t-75 78.5t-112.5 28.5q-71 0 -124.5 -34.5t-78.5 -97.5l-8 3l28 372h361z" />
    <glyph glyph-name="six.osf" horiz-adv-x="580" 
d="M444 644.5q51 -49.5 65 -128.5h-8q-15 76 -63 123t-130 47q-120 0 -180 -93t-60 -243q0 -45 5.5 -88t16.5 -80q-1 5 -1.5 10t-0.5 10q-1 6 -1 19q0 66 27.5 117.5t78 80t115.5 28.5t113 -28.5t73.5 -80t25.5 -117.5t-27 -117.5t-76 -80.5t-114 -29q-70 0 -120 32.5
t-78 91.5q-21 46 -33 107.5t-12 124.5q0 153 62 248.5t186 95.5q85 0 136 -49.5zM196.5 411.5q-48.5 -27.5 -75.5 -77t-27 -113.5t26 -114t73.5 -77.5t109.5 -27.5q63 0 110 27.5t73 77t26 114.5q0 98 -55 158t-149 60q-63 0 -111.5 -27.5z" />
    <glyph glyph-name="seven.osf" horiz-adv-x="480" 
d="M449 504v-8l-354 -676h-9l354 676h-424v8h433z" />
    <glyph glyph-name="eight.osf" horiz-adv-x="578" 
d="M168 17q-53 23 -82.5 64t-29.5 93q0 71 52 119.5t137 59.5v0q-50 7 -88 29.5t-59 58.5t-21 80q0 50 26.5 89.5t75 61.5t110.5 22t110.5 -22t75 -61.5t26.5 -89.5q0 -44 -21 -80t-59 -58.5t-88 -29.5v0q85 -11 137 -59.5t52 -119.5q0 -52 -29.5 -93t-82.5 -64t-121 -23
t-121 23zM394.5 378q46.5 21 72.5 58t26 85t-26 85.5t-72.5 58.5t-105.5 21t-105.5 -21t-72.5 -58.5t-26 -85.5t26 -85t72.5 -58t105.5 -21t105.5 21zM405 24q51 22 80 61t29 89t-29 90t-80 62.5t-116 22.5q-66 0 -117 -22.5t-79.5 -62.5t-28.5 -90t28.5 -89t80 -61
t116.5 -22t116 22z" />
    <glyph glyph-name="nine.osf" horiz-adv-x="580" 
d="M397 476.5q50 -32.5 78 -90.5q21 -45 33 -106t12 -124q0 -152 -62 -247t-186 -95q-85 0 -136 49.5t-65 129.5h8q15 -77 63 -124t130 -47q120 0 180 92.5t60 241.5q0 31 -3 62t-8 61q-2 11 -5 22.5t-6 22.5q3 -19 3 -39q0 -65 -27.5 -115.5t-78 -79t-115.5 -28.5t-113 28
t-73.5 79t-25.5 116t27 116t76 79.5t114 28.5q70 0 120 -32.5zM167 474q-47 -27 -73 -76t-26 -113q0 -96 55 -155.5t149 -59.5q63 0 111.5 27t75.5 76t27 112t-26 112.5t-73.5 76.5t-109.5 27q-63 0 -110 -27z" />
    <glyph glyph-name="one.osf.ss08" horiz-adv-x="600" 
d="M526 8v-8h-446v8h446zM251 356q21 0 31.5 11.5t10.5 32.5v104h8v-504h-8v369q-6 -10 -16.5 -15.5t-25.5 -5.5h-142v8h142z" />
    <glyph glyph-name="seven.osf.ss08" horiz-adv-x="519" 
d="M488 504v-8l-354 -676h-9l354 676h-426v-156h-8v164h443z" />
    <glyph glyph-name="four.osf.ss09" horiz-adv-x="503" 
d="M418 504v-684h-8v180h-380v8l380 496h8zM40 8h370v484z" />
    <glyph glyph-name="zero.osf.zero" horiz-adv-x="610" 
d="M484 427l-354 -356l-4 6l354 356zM179.5 28.5q-57.5 34.5 -90.5 93.5t-33 130t33 130t90.5 93.5t125.5 34.5t125.5 -34.5t90.5 -93.5t33 -130t-33 -130t-90.5 -93.5t-125.5 -34.5t-125.5 34.5zM426.5 35.5q55.5 33.5 87.5 91t32 125.5t-32 125.5t-87.5 91t-121.5 33.5
t-121.5 -33.5t-87.5 -91t-32 -125.5t32 -125.5t87.5 -91t121.5 -33.5t121.5 33.5z" />
    <glyph glyph-name="one.ss08" horiz-adv-x="510" 
d="M458 8v-8h-432v8h432zM252 700v-700h-8v561q-6 -10 -16.5 -15.5t-25.5 -5.5h-128v8h128q21 0 31.5 11.5t10.5 32.5v108h8z" />
    <glyph glyph-name="seven.ss08" horiz-adv-x="553" 
d="M58 700v-164h-8v164h8zM523 700v-8l-391 -692h-9l391 692h-462v8h471z" />
    <glyph glyph-name="four.ss09" horiz-adv-x="523" 
d="M423 699v-700h-8v201h-390v8l390 491h8zM35 208h380v479z" />
    <glyph glyph-name="zero.tf" horiz-adv-x="600" 
d="M177 38.5q-53 43.5 -82 120.5t-29 176v32q0 99 29 176t82 120.5t123 43.5t123 -43.5t82 -120.5t29 -176v-32q0 -99 -29 -176t-82 -120.5t-123 -43.5t-123 43.5zM418.5 45.5q51.5 42.5 79.5 118t28 171.5v32q0 96 -28 171.5t-79.5 118t-118.5 42.5t-118.5 -42.5
t-79.5 -118t-28 -171.5v-32q0 -96 28 -171.5t79.5 -118t118.5 -42.5t118.5 42.5z" />
    <glyph glyph-name="one.tf" horiz-adv-x="600" 
d="M530 8v-8h-432v8h432zM324 700v-700h-8v561q-6 -10 -16.5 -15.5t-25.5 -5.5h-128v8h128q21 0 31.5 11.5t10.5 32.5v108h8z" />
    <glyph glyph-name="two.tf" horiz-adv-x="600" 
d="M338 270q4 3 7 6.5t7 7.5q45 42 72.5 73t47 70.5t19.5 85.5q0 85 -55 135t-149 50q-93 0 -147.5 -54.5t-54.5 -148.5v-16h-8v16q0 65 25.5 112.5t73 73t111.5 25.5q98 0 155 -52t57 -141q0 -46 -18.5 -85.5t-46 -71t-74.5 -77.5l-17 -16l-265 -255h434v-8h-445v8z" />
    <glyph glyph-name="three.tf" horiz-adv-x="600" 
d="M129.5 46.5q-63.5 52.5 -63.5 143.5h8q0 -88 61.5 -138t162.5 -50q64 0 115 23.5t80 65t29 93.5q0 83 -62.5 127t-167.5 44h-47v8h47q61 0 109 22.5t74.5 61.5t26.5 87q0 47 -26 84.5t-72.5 58.5t-105.5 21q-92 0 -148 -47t-56 -127h-8q0 85 58 133.5t154 48.5
q62 0 110.5 -22t75 -61t26.5 -89q0 -70 -49.5 -118t-132.5 -56v0q62 -5 107.5 -26t70 -59t24.5 -91q0 -54 -29.5 -97.5t-82.5 -68t-120 -24.5q-105 0 -168.5 52.5z" />
    <glyph glyph-name="four.tf" horiz-adv-x="600" 
d="M425 700h8v-491h129v-8h-129v-201h-8v201h-383v8zM425 209v479l-373 -479h373z" />
    <glyph glyph-name="five.tf" horiz-adv-x="600" 
d="M485 700v-8h-354l-26 -359l-1 2q25 55 81 88t124 33q66 0 116 -29.5t77 -81.5t27 -118q0 -73 -31.5 -126t-83.5 -80t-113 -27q-66 0 -115 27.5t-76 73.5t-31 101h8q5 -53 31 -97t73 -70.5t110 -26.5q58 0 108.5 26.5t81 77.5t30.5 121q0 63 -26 113.5t-74 79t-112 28.5
q-72 0 -127.5 -36t-77.5 -96l-8 2l28 382h361z" />
    <glyph glyph-name="six.tf" horiz-adv-x="600" 
d="M191 26.5q-51 32.5 -79 91.5q-22 46 -34 108.5t-12 126.5q0 102 26 181.5t80 125.5t136 46q58 0 101 -23t69 -63t35 -91h-8q-15 76 -64.5 122.5t-132.5 46.5q-117 0 -175.5 -95t-58.5 -250q0 -45 5.5 -88t16.5 -80q0 2 -0.5 3.5t-0.5 3.5q-2 20 -2 32q0 67 28.5 119
t79.5 81.5t117 29.5t115 -29t75 -81.5t26 -119.5t-27.5 -119t-77.5 -81.5t-116 -29.5q-71 0 -122 32.5zM425 30q48 28 74.5 78.5t26.5 115.5t-25 115.5t-72.5 78.5t-110.5 28q-64 0 -113.5 -28t-77 -78.5t-27.5 -115.5t26.5 -115.5t75 -78.5t111.5 -28q64 0 112 28z" />
    <glyph glyph-name="seven.tf" horiz-adv-x="600" 
d="M536 700v-8l-391 -692h-9l391 692h-462v8h471z" />
    <glyph glyph-name="eight.tf" horiz-adv-x="600" 
d="M177 17.5q-53 23.5 -82.5 65t-29.5 94.5q0 48 24 87t67.5 63.5t100.5 31.5v0q-51 7 -89.5 30.5t-60 59.5t-21.5 81q0 51 26.5 91t75 62.5t110.5 22.5t110.5 -22.5t75 -62.5t26.5 -91q0 -45 -21.5 -81t-60 -59.5t-89.5 -30.5v0q57 -7 100.5 -31.5t67.5 -63.5t24 -87
q0 -53 -29.5 -94.5t-82.5 -65t-121 -23.5t-121 23.5zM403.5 384.5q46.5 21.5 72.5 59.5t26 86q0 49 -26 87t-72.5 59.5t-105.5 21.5t-105.5 -21.5t-72.5 -59.5t-26 -87q0 -48 26 -86t72.5 -59.5t105.5 -21.5t105.5 21.5zM414 24.5q51 22.5 80 62t29 90.5t-29 91.5t-80 63.5
t-116 23q-66 0 -117 -22.5t-79.5 -63.5t-28.5 -92t28.5 -91t80 -62t116.5 -22t116 22.5z" />
    <glyph glyph-name="nine.tf" horiz-adv-x="600" 
d="M413 671.5q52 -33.5 77 -90.5q21 -47 32.5 -110t10.5 -127q-1 -115 -30 -194t-84 -118t-134 -38q-84 2 -140.5 48.5t-71.5 133.5h8q15 -83 69 -127.5t135 -46.5q115 -2 176.5 85.5t63.5 256.5q1 44 -4 87.5t-16 82.5l1 -14q2 -18 2 -27q-1 -67 -30 -118.5t-81 -80
t-118 -27.5t-114 31.5t-73.5 83t-24.5 119.5t29.5 118t79 79t116.5 28q69 -1 121 -34.5zM179.5 672q-48.5 -27 -76 -76.5t-28.5 -114.5q-2 -99 53 -161.5t151 -64.5q64 -1 114 26.5t78.5 77.5t29.5 115t-24.5 115.5t-73.5 79t-111 29.5q-64 1 -112.5 -26z" />
    <glyph glyph-name="seven.tf.ss08" horiz-adv-x="600" 
d="M67 700v-164h-8v164h8zM532 700v-8l-391 -692h-9l391 692h-462v8h471z" />
    <glyph glyph-name="four.tf.ss09" horiz-adv-x="600" 
d="M458 699v-700h-8v201h-390v8l390 491h8zM70 208h380v479z" />
    <glyph glyph-name="zero.tf.zero" horiz-adv-x="600" 
d="M494 557l-386 -410l-5 6l386 410zM177 38.5q-53 43.5 -82 120.5t-29 176v32q0 99 29 176t82 120.5t123 43.5t123 -43.5t82 -120.5t29 -176v-32q0 -99 -29 -176t-82 -120.5t-123 -43.5t-123 43.5zM418.5 45.5q51.5 42.5 79.5 118t28 171.5v32q0 96 -28 171.5t-79.5 118
t-118.5 42.5t-118.5 -42.5t-79.5 -118t-28 -171.5v-32q0 -96 28 -171.5t79.5 -118t118.5 -42.5t118.5 42.5z" />
    <glyph glyph-name="zero.tosf" horiz-adv-x="600" 
d="M177 28q-56 34 -88.5 93t-32.5 130t32.5 130.5t88.5 94t123 34.5t123 -34.5t88.5 -94t32.5 -130.5t-32.5 -130t-88.5 -93t-123 -34t-123 34zM419 35q54 33 85.5 90.5t31.5 125.5q0 69 -31.5 126.5t-85.5 91t-119 33.5t-119.5 -33.5t-86 -91t-31.5 -126.5
q0 -68 31.5 -125.5t86 -90.5t119.5 -33t119 33z" />
    <glyph glyph-name="one.tosf" horiz-adv-x="600" 
d="M526 8v-8h-446v8h446zM251 356q21 0 31.5 11.5t10.5 32.5v104h8v-504h-8v369q-6 -10 -16.5 -15.5t-25.5 -5.5h-142v8h142z" />
    <glyph glyph-name="two.tosf" horiz-adv-x="600" 
d="M111 333q0 51 24.5 91.5t67.5 63t98 22.5q53 0 94.5 -19.5t64.5 -55t23 -80.5q0 -59 -32.5 -99t-106.5 -91l-234 -159l-1 2h396v-8h-405v8l238 162q48 33 76.5 58t44.5 56t16 71q0 65 -48.5 106t-125.5 41q-52 0 -93.5 -21.5t-65 -60t-23.5 -87.5v-17h-8v17z" />
    <glyph glyph-name="three.tosf" horiz-adv-x="600" 
d="M125.5 -149.5q-63.5 52.5 -63.5 143.5h8q0 -88 61.5 -138t162.5 -50q64 0 115 23.5t80 65t29 93.5q0 83 -62.5 127t-167.5 44h-47v8h47q61 0 109 22.5t74.5 61.5t26.5 87q0 47 -26 84.5t-72.5 58.5t-105.5 21q-92 0 -148 -47t-56 -127h-8q0 85 58 133.5t154 48.5
q62 0 110.5 -22t75 -61t26.5 -89q0 -70 -49.5 -118t-132.5 -56v0q62 -5 107.5 -26t70 -59t24.5 -91q0 -54 -29.5 -97.5t-82.5 -68t-120 -24.5q-105 0 -168.5 52.5z" />
    <glyph glyph-name="four.tosf" horiz-adv-x="600" 
d="M418 504v-496h119v-8h-119v-180h-8v180h-380v8l380 496h8zM40 8h370v484z" />
    <glyph glyph-name="five.tosf" horiz-adv-x="600" 
d="M480 504v-8h-353l-26 -348l-1 2q27 56 80.5 87.5t121.5 31.5q67 0 117 -29t77.5 -81t27.5 -117q0 -72 -30.5 -123t-81 -77.5t-110.5 -26.5q-66 0 -115.5 28t-77 74.5t-31.5 102.5h8q5 -53 31.5 -98t74 -72t110.5 -27q57 0 106 25.5t78.5 75t29.5 118.5q0 62 -26.5 112
t-75 78.5t-112.5 28.5q-71 0 -124.5 -34.5t-78.5 -97.5l-8 3l28 372h361z" />
    <glyph glyph-name="six.tosf" horiz-adv-x="600" 
d="M454 644.5q51 -49.5 65 -128.5h-8q-15 76 -63 123t-130 47q-120 0 -180 -93t-60 -243q0 -45 5.5 -88t16.5 -80q-1 5 -1.5 10t-0.5 10q-1 6 -1 19q0 66 27.5 117.5t78 80t115.5 28.5t113 -28.5t73.5 -80t25.5 -117.5t-27 -117.5t-76 -80.5t-114 -29q-70 0 -120 32.5
t-78 91.5q-21 46 -33 107.5t-12 124.5q0 153 62 248.5t186 95.5q85 0 136 -49.5zM206.5 411.5q-48.5 -27.5 -75.5 -77t-27 -113.5t26 -114t73.5 -77.5t109.5 -27.5q63 0 110 27.5t73 77t26 114.5q0 98 -55 158t-149 60q-63 0 -111.5 -27.5z" />
    <glyph glyph-name="seven.tosf" horiz-adv-x="600" 
d="M497 504v-8l-354 -676h-9l354 676h-424v8h433z" />
    <glyph glyph-name="eight.tosf" horiz-adv-x="600" 
d="M179 17q-53 23 -82.5 64t-29.5 93q0 71 52 119.5t137 59.5v0q-50 7 -88 29.5t-59 58.5t-21 80q0 50 26.5 89.5t75 61.5t110.5 22t110.5 -22t75 -61.5t26.5 -89.5q0 -44 -21 -80t-59 -58.5t-88 -29.5v0q85 -11 137 -59.5t52 -119.5q0 -52 -29.5 -93t-82.5 -64t-121 -23
t-121 23zM405.5 378q46.5 21 72.5 58t26 85t-26 85.5t-72.5 58.5t-105.5 21t-105.5 -21t-72.5 -58.5t-26 -85.5t26 -85t72.5 -58t105.5 -21t105.5 21zM416 24q51 22 80 61t29 89t-29 90t-80 62.5t-116 22.5q-66 0 -117 -22.5t-79.5 -62.5t-28.5 -90t28.5 -89t80 -61
t116.5 -22t116 22z" />
    <glyph glyph-name="nine.tosf" horiz-adv-x="600" 
d="M407 476.5q50 -32.5 78 -90.5q21 -45 33 -106t12 -124q0 -152 -62 -247t-186 -95q-85 0 -136 49.5t-65 129.5h8q15 -77 63 -124t130 -47q120 0 180 92.5t60 241.5q0 31 -3 62t-8 61q-2 11 -5 22.5t-6 22.5q3 -19 3 -39q0 -65 -27.5 -115.5t-78 -79t-115.5 -28.5t-113 28
t-73.5 79t-25.5 116t27 116t76 79.5t114 28.5q70 0 120 -32.5zM177 474q-47 -27 -73 -76t-26 -113q0 -96 55 -155.5t149 -59.5q63 0 111.5 27t75.5 76t27 112t-26 112.5t-73.5 76.5t-109.5 27q-63 0 -110 -27z" />
    <glyph glyph-name="seven.tosf.ss08" horiz-adv-x="600" 
d="M512 504v-8l-354 -676h-9l354 676h-426v-156h-8v164h443z" />
    <glyph glyph-name="four.tosf.ss09" horiz-adv-x="600" 
d="M458 504v-700h-8v201h-390v8l390 491h8zM70 13h380v479z" />
    <glyph glyph-name="zero.tosf.zero" horiz-adv-x="600" 
d="M177 28q-56 34 -88.5 93t-32.5 130t32.5 130.5t88.5 94t123 34.5t123 -34.5t88.5 -94t32.5 -130.5t-32.5 -130t-88.5 -93t-123 -34t-123 34zM419 35q54 33 85.5 90.5t31.5 125.5q0 69 -31.5 126.5t-85.5 91t-119 33.5t-119.5 -33.5t-86 -91t-31.5 -126.5
q0 -68 31.5 -125.5t86 -90.5t119.5 -33t119 33zM473 430l4 -6l-349 -350l-4 6z" />
    <glyph glyph-name="zero.zero" horiz-adv-x="598" 
d="M493 557l-386 -410l-5 6l386 410zM180.5 45.5q-51.5 42.5 -79.5 118t-28 171.5v32q0 96 28 171.5t79.5 118t118.5 42.5t118.5 -42.5t79.5 -118t28 -171.5v-32q0 -96 -28 -171.5t-79.5 -118t-118.5 -42.5t-118.5 42.5zM504 543q-29 77 -82 120.5t-123 43.5t-123 -43.5
t-82 -120.5t-29 -176v-32q0 -99 29 -176t82 -120.5t123 -43.5t123 43.5t82 120.5t29 176v32q0 99 -29 176z" />
    <glyph glyph-name="u1F10C.zero" horiz-adv-x="822" 
d="M229.5 662.5q-81.5 -46.5 -128 -128t-46.5 -181.5t46.5 -181.5t128 -128t181.5 -46.5t181.5 46.5t128 128t46.5 181.5t-46.5 181.5t-128 128t-181.5 46.5t-181.5 -46.5zM507.5 487.5q36.5 -53.5 36.5 -134.5t-36.5 -134.5t-96.5 -53.5t-96.5 53.5t-36.5 134.5t36.5 134.5
t96.5 53.5t96.5 -53.5zM320.5 481q-34.5 -52 -34.5 -128q0 -59 22 -106l201 222q-35 64 -98 64q-56 0 -90.5 -52zM501.5 225q34.5 52 34.5 128q0 62 -23 108l-201 -222q16 -31 41.5 -48.5t57.5 -17.5q56 0 90.5 52z" />
    <glyph glyph-name="u1F10B.zero" horiz-adv-x="825" 
d="M592 658.5q82 -47.5 130 -129.5t48 -179t-48 -179t-130 -129.5t-180 -47.5t-180 47.5t-129.5 129.5t-47.5 179t47.5 179t129.5 129.5t180 47.5t180 -47.5zM236 651.5q-80 -46.5 -126.5 -126.5t-46.5 -175t46.5 -175t126.5 -126.5t176 -46.5t176.5 46.5t127 126.5
t46.5 175t-46.5 175t-127 126.5t-176.5 46.5t-176 -46.5zM509.5 484.5q36.5 -53.5 36.5 -134.5t-36.5 -134.5t-96.5 -53.5t-96.5 53.5t-36.5 134.5t36.5 134.5t96.5 53.5t96.5 -53.5zM322.5 478q-34.5 -52 -34.5 -128q0 -59 22 -106l201 222q-35 64 -98 64q-56 0 -90.5 -52z
M503.5 222q34.5 52 34.5 128q0 62 -23 108l-201 -222q16 -31 41.5 -48.5t57.5 -17.5q56 0 90.5 52z" />
    <glyph glyph-name="zero.dnom" horiz-adv-x="332" 
d="M69.5 47.5q-36.5 53.5 -36.5 134.5t36.5 134.5t96.5 53.5t96.5 -53.5t36.5 -134.5t-36.5 -134.5t-96.5 -53.5t-96.5 53.5zM256.5 54q34.5 52 34.5 128t-34.5 128t-90.5 52t-90.5 -52t-34.5 -128t34.5 -128t90.5 -52t90.5 52z" />
    <glyph glyph-name="one.dnom" horiz-adv-x="151" 
d="M90 0v274q-2 -3 -5.5 -5t-9.5 -2h-75v8h75q6 0 10.5 4.5t4.5 10.5v74h8v-364h-8z" />
    <glyph glyph-name="two.dnom" horiz-adv-x="303" 
d="M39 262q0 50 31.5 79t81.5 29t81 -28t31 -72q0 -37 -19.5 -66t-57.5 -63l-146 -133h229v-8h-240v8l152 139q38 34 56 61t18 62q0 41 -29 66.5t-75 25.5q-47 0 -76 -26.5t-29 -73.5v-8h-8v8z" />
    <glyph glyph-name="three.dnom" horiz-adv-x="311" 
d="M73.5 343q32.5 27 83.5 27q49 0 80 -26.5t31 -67.5q0 -35 -24 -58.5t-65 -29.5q46 -7 72.5 -31t26.5 -63q0 -44 -34 -72t-88 -28q-58 0 -92 28.5t-34 78.5h8q0 -47 32.5 -73t85.5 -26q50 0 82 25.5t32 66.5t-33 65.5t-86 24.5h-25v8h25q48 0 78.5 23t30.5 61t-29 62
t-74 24q-49 0 -78.5 -25t-29.5 -67h-8q0 46 32.5 73z" />
    <glyph glyph-name="four.dnom" horiz-adv-x="321" 
d="M232 364v-252h66v-8h-66v-104h-8v104h-201v8l201 252h8zM33 112h191v239z" />
    <glyph glyph-name="five.dnom" horiz-adv-x="309" 
d="M253 356h-196l-10 -177q17 27 46.5 42t63.5 15q52 0 85.5 -33.5t33.5 -86.5q0 -54 -35 -88t-88 -34q-49 0 -82 27t-38 71h8q5 -40 36 -65t76 -25q49 0 82 32t33 82q0 49 -31 80.5t-80 31.5q-37 1 -66 -16t-45 -47l-7 1l11 198h203v-8z" />
    <glyph glyph-name="six.dnom" horiz-adv-x="319" 
d="M69 43q-31 49 -31 132q0 89 36.5 142t98.5 53q42 0 73 -26t38 -73h-8q-9 44 -36.5 67.5t-66.5 23.5q-59 0 -93 -51t-34 -136q0 -18 1.5 -35t3.5 -34q-3 32 10.5 60.5t40.5 46t65 17.5q53 0 85 -32.5t32 -85.5t-32 -85.5t-85 -32.5q-67 0 -98 49zM246 32q30 30 30 80
t-30 80t-79 30q-50 0 -80 -30t-30 -79t30.5 -80t79.5 -31t79 30z" />
    <glyph glyph-name="seven.dnom" horiz-adv-x="300" 
d="M274 365v-7l-193 -358h-9l193 358l-237 -1v8h246z" />
    <glyph glyph-name="eight.dnom" horiz-adv-x="312" 
d="M67.5 21.5q-34.5 27.5 -34.5 70.5q0 39 28 66t73 32q-40 5 -65 29.5t-25 60.5q0 39 31.5 64.5t80.5 25.5t80.5 -25.5t31.5 -64.5q0 -36 -25 -60.5t-65 -29.5q45 -5 73 -32t28 -66q0 -43 -34.5 -70.5t-88.5 -27.5t-88.5 27.5zM238.5 27.5q32.5 25.5 32.5 64.5
q0 41 -32.5 67.5t-82.5 26.5t-82.5 -26.5t-32.5 -67.5q0 -39 32.5 -64.5t82.5 -25.5t82.5 25.5zM231 218q29 24 29 62q0 36 -29 59t-75 23t-75 -23t-29 -59q0 -38 29 -62t75 -24t75 24z" />
    <glyph glyph-name="nine.dnom" horiz-adv-x="312" 
d="M249 321q31 -49 31 -132q0 -89 -36.5 -142t-98.5 -53q-42 0 -73 26t-38 73h8q9 -44 36.5 -67.5t66.5 -23.5q59 0 93 51t34 136q0 18 -1.5 35t-3.5 34q3 -32 -10.5 -60.5t-40.5 -46t-65 -17.5q-53 0 -85 32.5t-32 85.5t32 85.5t85 32.5q67 0 98 -49zM72 332
q-30 -30 -30 -80t30 -80t79 -30q50 0 80 30t30 79t-30.5 80t-79.5 31t-79 -30z" />
    <glyph glyph-name="zero.numr" horiz-adv-x="332" 
d="M69.5 384.5q-36.5 53.5 -36.5 134.5t36.5 134.5t96.5 53.5t96.5 -53.5t36.5 -134.5t-36.5 -134.5t-96.5 -53.5t-96.5 53.5zM256.5 391q34.5 52 34.5 128t-34.5 128t-90.5 52t-90.5 -52t-34.5 -128t34.5 -128t90.5 -52t90.5 52z" />
    <glyph glyph-name="one.numr" horiz-adv-x="151" 
d="M90 337v274q-2 -3 -5.5 -5t-9.5 -2h-75v8h75q6 0 10.5 4.5t4.5 10.5v74h8v-364h-8z" />
    <glyph glyph-name="two.numr" horiz-adv-x="303" 
d="M39 598q0 50 31.5 79t81.5 29t81 -28t31 -72q0 -37 -19.5 -66t-57.5 -63l-146 -133h229v-8h-240v8l152 139q38 34 56 61t18 62q0 41 -29 66.5t-75 25.5q-47 0 -76 -26.5t-29 -73.5v-8h-8v8z" />
    <glyph glyph-name="three.numr" horiz-adv-x="311" 
d="M73.5 681q32.5 27 83.5 27q49 0 80 -26.5t31 -67.5q0 -35 -24 -58.5t-65 -29.5q46 -7 72.5 -31t26.5 -63q0 -44 -34 -72t-88 -28q-58 0 -92 28.5t-34 78.5h8q0 -47 32.5 -73t85.5 -26q50 0 82 25.5t32 66.5t-33 65.5t-86 24.5h-25v8h25q48 0 78.5 23t30.5 61t-29 62
t-74 24q-49 0 -78.5 -25t-29.5 -67h-8q0 46 32.5 73z" />
    <glyph glyph-name="four.numr" horiz-adv-x="321" 
d="M232 700v-252h66v-8h-66v-104h-8v104h-201v8l201 252h8zM33 448h191v239z" />
    <glyph glyph-name="five.numr" horiz-adv-x="309" 
d="M253 692h-196l-10 -177q17 27 46.5 42t63.5 15q52 0 85.5 -33.5t33.5 -86.5q0 -54 -35 -88t-88 -34q-49 0 -82 27t-38 71h8q5 -40 36 -65t76 -25q49 0 82 32t33 82q0 49 -31 80.5t-80 31.5q-37 1 -66 -16t-45 -47l-7 1l11 198h203v-8z" />
    <glyph glyph-name="six.numr" horiz-adv-x="319" 
d="M69 380q-31 49 -31 132q0 89 36.5 142t98.5 53q42 0 73 -26t38 -73h-8q-9 44 -36.5 67.5t-66.5 23.5q-59 0 -93 -51t-34 -136q0 -18 1.5 -35t3.5 -34q-3 32 10.5 60.5t40.5 46t65 17.5q53 0 85 -32.5t32 -85.5t-32 -85.5t-85 -32.5q-67 0 -98 49zM246 369q30 30 30 80
t-30 80t-79 30q-50 0 -80 -30t-30 -79t30.5 -80t79.5 -31t79 30z" />
    <glyph glyph-name="seven.numr" horiz-adv-x="300" 
d="M274 700v-7l-193 -358h-9l193 358l-237 -1v8h246z" />
    <glyph glyph-name="eight.numr" horiz-adv-x="312" 
d="M67.5 358.5q-34.5 27.5 -34.5 70.5q0 39 28 66t73 32q-40 5 -65 29.5t-25 60.5q0 39 31.5 64.5t80.5 25.5t80.5 -25.5t31.5 -64.5q0 -36 -25 -60.5t-65 -29.5q45 -5 73 -32t28 -66q0 -43 -34.5 -70.5t-88.5 -27.5t-88.5 27.5zM238.5 364.5q32.5 25.5 32.5 64.5
q0 41 -32.5 67.5t-82.5 26.5t-82.5 -26.5t-32.5 -67.5q0 -39 32.5 -64.5t82.5 -25.5t82.5 25.5zM231 555q29 24 29 62q0 36 -29 59t-75 23t-75 -23t-29 -59q0 -38 29 -62t75 -24t75 24z" />
    <glyph glyph-name="nine.numr" horiz-adv-x="312" 
d="M249 658q31 -49 31 -132q0 -89 -36.5 -142t-98.5 -53q-42 0 -73 26t-38 73h8q9 -44 36.5 -67.5t66.5 -23.5q59 0 93 51t34 136q0 18 -1.5 35t-3.5 34q3 -32 -10.5 -60.5t-40.5 -46t-65 -17.5q-53 0 -85 32.5t-32 85.5t32 85.5t85 32.5q67 0 98 -49zM72 669
q-30 -30 -30 -80t30 -80t79 -30q50 0 80 30t30 79t-30.5 80t-79.5 31t-79 -30z" />
    <glyph glyph-name="uni2080.zero" horiz-adv-x="332" 
d="M262.5 216.5q36.5 -53.5 36.5 -134.5t-36.5 -134.5t-96.5 -53.5t-96.5 53.5t-36.5 134.5t36.5 134.5t96.5 53.5t96.5 -53.5zM75.5 210q-34.5 -52 -34.5 -128q0 -59 22 -106l201 222q-35 64 -98 64q-56 0 -90.5 -52zM256.5 -46q34.5 52 34.5 128q0 62 -23 108l-201 -222
q16 -31 41.5 -48.5t57.5 -17.5q56 0 90.5 52z" />
    <glyph glyph-name="zero.dnom.zero" horiz-adv-x="332" 
d="M262.5 316.5q36.5 -53.5 36.5 -134.5t-36.5 -134.5t-96.5 -53.5t-96.5 53.5t-36.5 134.5t36.5 134.5t96.5 53.5t96.5 -53.5zM75.5 310q-34.5 -52 -34.5 -128q0 -59 22 -106l201 222q-35 64 -98 64q-56 0 -90.5 -52zM256.5 54q34.5 52 34.5 128q0 62 -23 108l-201 -222
q16 -31 41.5 -48.5t57.5 -17.5q56 0 90.5 52z" />
    <glyph glyph-name="zero.numr.zero" horiz-adv-x="332" 
d="M262.5 653.5q36.5 -53.5 36.5 -134.5t-36.5 -134.5t-96.5 -53.5t-96.5 53.5t-36.5 134.5t36.5 134.5t96.5 53.5t96.5 -53.5zM75.5 647q-34.5 -52 -34.5 -128q0 -59 22 -106l201 222q-35 64 -98 64q-56 0 -90.5 -52zM256.5 391q34.5 52 34.5 128q0 62 -23 108l-201 -222
q16 -31 41.5 -48.5t57.5 -17.5q56 0 90.5 52z" />
    <glyph glyph-name="uni2070.zero" horiz-adv-x="332" 
d="M262.5 753.5q36.5 -53.5 36.5 -134.5t-36.5 -134.5t-96.5 -53.5t-96.5 53.5t-36.5 134.5t36.5 134.5t96.5 53.5t96.5 -53.5zM75.5 747q-34.5 -52 -34.5 -128q0 -59 22 -106l201 222q-35 64 -98 64q-56 0 -90.5 -52zM256.5 491q34.5 52 34.5 128q0 62 -23 108l-201 -222
q16 -31 41.5 -48.5t57.5 -17.5q56 0 90.5 52z" />
    <glyph glyph-name="colon.case" horiz-adv-x="154" 
d="M68.5 517.5q-3.5 3.5 -3.5 8.5t3.5 8.5t8.5 3.5t8.5 -3.5t3.5 -8.5t-3.5 -8.5t-8.5 -3.5t-8.5 3.5zM68.5 100.5q-3.5 3.5 -3.5 8.5t3.5 8.5t8.5 3.5t8.5 -3.5t3.5 -8.5t-3.5 -8.5t-8.5 -3.5t-8.5 3.5z" />
    <glyph glyph-name="semicolon.case" horiz-adv-x="154" 
d="M55.5 117.5q3.5 3.5 9.5 3.5q14 0 25.5 -16.5t11.5 -39.5q0 -32 -20 -56.5t-52 -27.5v7q26 2 45 24t19 53t-20 44q-1 -12 -12 -12q-4 0 -7 3t-3 8q0 6 3.5 9.5zM68.5 517.5q-3.5 3.5 -3.5 8.5t3.5 8.5t8.5 3.5t8.5 -3.5t3.5 -8.5t-3.5 -8.5t-8.5 -3.5t-8.5 3.5z" />
    <glyph glyph-name="periodcentered.case" horiz-adv-x="194" 
d="M88.5 350.5q-3.5 3.5 -3.5 8.5t3.5 8.5t8.5 3.5t8.5 -3.5t3.5 -8.5t-3.5 -8.5t-8.5 -3.5t-8.5 3.5z" />
    <glyph glyph-name="slash.case" horiz-adv-x="288" 
d="M268 700l-239 -700h-9l239 700h9z" />
    <glyph glyph-name="backslash.case" horiz-adv-x="288" 
d="M20 700l239 -700h9l-239 700h-9z" />
    <glyph glyph-name="parenleft.case" horiz-adv-x="218" 
d="M89 161.5q-29 94.5 -29 188.5t29 188t79 162h10q-51 -66 -80.5 -160.5t-29.5 -189.5q0 -96 29.5 -190.5t80.5 -159.5h-10q-50 67 -79 161.5z" />
    <glyph glyph-name="parenright.case" horiz-adv-x="218" 
d="M129 161.5q29 94.5 29 188.5t-29 188t-79 162h-10q51 -66 80.5 -160.5t29.5 -189.5q0 -96 -29.5 -190.5t-80.5 -159.5h10q50 67 79 161.5z" />
    <glyph glyph-name="braceleft.case" horiz-adv-x="301" 
d="M276 692h-19q-61 0 -91 -30.5t-30 -91.5q0 -27 6 -60v-2.5t1 -2.5q1 -10 2 -19t1 -17q0 -35 -12 -60t-31.5 -39.5t-44.5 -18.5v0q25 -5 44.5 -19.5t31.5 -39.5t12 -60q0 -8 -1 -17t-2 -19q-1 -1 -1 -2.5v-2.5q-6 -33 -6 -60q0 -62 30 -92.5t91 -30.5h19v-8h-19
q-64 0 -97 32.5t-33 98.5q0 13 1.5 26.5t3.5 27.5q0 2 0.5 4t0.5 4v1.5v1.5q4 26 4 35q0 55 -29 85.5t-73 30.5v8q44 0 73 30t29 85q0 9 -4 35v3q-6 33 -6 61q0 66 33 98.5t97 32.5h19v-8z" />
    <glyph glyph-name="braceright.case" horiz-adv-x="301" 
d="M25 692h19q61 0 91 -30.5t30 -91.5q0 -27 -6 -60v-2.5t-1 -2.5q-1 -10 -2 -19t-1 -17q0 -35 12 -60t31.5 -39.5t44.5 -18.5v0q-25 -5 -44.5 -19.5t-31.5 -39.5t-12 -60q0 -8 1 -17t2 -19q1 -1 1 -2.5v-2.5q6 -33 6 -60q0 -62 -30 -92.5t-91 -30.5h-19v-8h19q64 0 97 32.5
t33 98.5q0 13 -1.5 26.5t-3.5 27.5q0 2 -0.5 4t-0.5 4v1.5v1.5q-4 26 -4 35q0 55 29 85.5t73 30.5v8q-44 0 -73 30t-29 85q0 9 4 35v3q6 33 6 61q0 66 -33 98.5t-97 32.5h-19v-8z" />
    <glyph glyph-name="bracketleft.case" horiz-adv-x="263" 
d="M238 700v-8h-152v-684h152v-8h-160v700h160z" />
    <glyph glyph-name="bracketright.case" horiz-adv-x="263" 
d="M25 700v-8h152v-684h-152v-8h160v700h-160z" />
    <glyph glyph-name="hyphen.case" horiz-adv-x="456" 
d="M73 363h310v-8h-310v8z" />
    <glyph glyph-name="endash.case" horiz-adv-x="586" 
d="M73 363h440v-8h-440v8z" />
    <glyph glyph-name="emdash.case" horiz-adv-x="926" 
d="M853 363v-8h-780v8h780z" />
    <glyph glyph-name="guillemotleft.case" horiz-adv-x="526" 
d="M81 347l166 -252h-9l-168 252l168 252h9zM285 346l166 -252h-9l-168 252l168 252h9z" />
    <glyph glyph-name="guillemotright.case" horiz-adv-x="526" 
d="M445 347l-166 -252h9l168 252l-168 252h-9zM241 346l-166 -252h9l168 252l-168 252h-9z" />
    <glyph glyph-name="guilsinglleft.case" horiz-adv-x="312" 
d="M242 598l-166 -252l166 -252h-9l-168 252l168 252h9z" />
    <glyph glyph-name="guilsinglright.case" horiz-adv-x="312" 
d="M70 598l166 -252l-166 -252h9l168 252l-168 252h-9z" />
    <glyph glyph-name="dotmath.case" horiz-adv-x="154" 
d="M68.5 350.5q-3.5 3.5 -3.5 8.5t3.5 8.5t8.5 3.5t8.5 -3.5t3.5 -8.5t-3.5 -8.5t-8.5 -3.5t-8.5 3.5z" />
    <glyph glyph-name="plus.case" 
d="M271 556v-193h186v-8h-186v-193h-8v193h-185v8h185v193h8z" />
    <glyph glyph-name="minus.case" 
d="M78 363h379v-8h-379v8z" />
    <glyph glyph-name="multiply.case" 
d="M268 362l161 161l5 -5l-161 -161l161 -161l-5 -5l-161 161l-161 -161l-5 5l161 161l-161 161l5 5z" />
    <glyph glyph-name="divide.case" 
d="M258.5 178.5q-3.5 3.5 -3.5 8.5t3.5 8.5t8.5 3.5t8.5 -3.5t3.5 -8.5t-3.5 -8.5t-8.5 -3.5t-8.5 3.5zM258.5 522.5q-3.5 3.5 -3.5 8.5t3.5 8.5t8.5 3.5t8.5 -3.5t3.5 -8.5t-3.5 -8.5t-8.5 -3.5t-8.5 3.5zM78 363h379v-8h-379v8z" />
    <glyph glyph-name="equal.case" 
d="M88 246h359v-8h-359v8zM88 446h359v-8h-359v8z" />
    <glyph glyph-name="notequal.case" 
d="M88 246h359v-8h-359v8zM88 446h359v-8h-359v8zM336 558h9l-149 -431h-9z" />
    <glyph glyph-name="greater.case" 
d="M447 349l-359 -177v9l350 173l-350 174v9l359 -178v-10z" />
    <glyph glyph-name="less.case" 
d="M88 359l359 178v-9l-350 -174l350 -173v-9l-359 177v10z" />
    <glyph glyph-name="greaterequal.case" 
d="M88 48h359v-8h-359v8zM447 349l-359 -177v9l350 173l-350 174v9l359 -178v-10z" />
    <glyph glyph-name="lessequal.case" 
d="M88 48h359v-8h-359v8zM88 359l359 178v-9l-350 -174l350 -173v-9l-359 177v10z" />
    <glyph glyph-name="plusminus.case" 
d="M271 556v-193h186v-8h-186v-193h-8v193h-185v8h185v193h8zM78 48h379v-8h-379v8z" />
    <glyph glyph-name="approxequal.case" horiz-adv-x="536" 
d="M120 267q-24 -26 -24 -66h-8q0 43 26.5 71t67.5 28q27 0 45.5 -11t42.5 -33q22 -21 40.5 -32t43.5 -11q38 0 62 26t24 65h8q0 -43 -26 -71t-68 -28q-28 0 -46.5 11t-42.5 34q-23 21 -40.5 31.5t-42.5 10.5q-38 1 -62 -25zM120 467q-24 -26 -24 -66h-8q0 43 26.5 71
t67.5 28q27 0 45.5 -11t42.5 -33q22 -21 40.5 -32t43.5 -11q38 0 62 26t24 65h8q0 -43 -26 -71t-68 -28q-28 0 -46.5 11t-42.5 34q-23 21 -40.5 31.5t-42.5 10.5q-38 1 -62 -25z" />
    <glyph glyph-name="asciitilde.case" horiz-adv-x="536" 
d="M120 370q-24 -26 -24 -66h-8q0 43 26.5 71t67.5 28q27 0 45.5 -11t42.5 -33q22 -21 40.5 -32t43.5 -11q38 0 62 26t24 65h8q0 -43 -26 -71t-68 -28q-28 0 -46.5 11t-42.5 34q-23 21 -40.5 31.5t-42.5 10.5q-38 1 -62 -25z" />
    <glyph glyph-name="logicalnot.case" 
d="M410 393v-179h-8v171h-324v8h332z" />
    <glyph glyph-name="arrowup.case" horiz-adv-x="729" 
d="M366 707l298 -299l-6 -6l-288 289v-692h-8v692l-291 -291l-6 6z" />
    <glyph glyph-name="uni2197.case" horiz-adv-x="632" 
d="M567 700v-422h-8v408l-488 -489l-6 6l489 489h-411v8h424z" />
    <glyph glyph-name="arrowright.case" horiz-adv-x="838" 
d="M773 359l-299 -298l-6 6l289 288h-692v8h692l-291 291l6 6z" />
    <glyph glyph-name="uni2198.case" horiz-adv-x="633" 
d="M146 8l409 -1l-490 490l6 6l489 -489v411h8v-425h-422v8z" />
    <glyph glyph-name="arrowdown.case" horiz-adv-x="729" 
d="M366 -8l298 299l-6 6l-288 -289v692h-8v-692l-291 291l-6 -6z" />
    <glyph glyph-name="uni2199.case" horiz-adv-x="632" 
d="M567 497l-489 -489h411v-8h-424v422h8l-1 -408l489 489z" />
    <glyph glyph-name="arrowleft.case" horiz-adv-x="838" 
d="M65 359l299 -298l6 6l-289 288h692v8h-692l291 291l-6 6z" />
    <glyph glyph-name="uni2196.case" horiz-adv-x="632" 
d="M489 692h-411l489 -489l-6 -6l-489 489l1 -408h-8v422h424v-8z" />
    <glyph glyph-name="arrowboth.case" horiz-adv-x="885" 
d="M617 110l247 247l6 -6l-247 -247zM15 351l6 6l247 -245l-6 -6zM15 351l245 248l6 -6l-245 -248zM25 355h836v-8h-836v8zM619 593l6 6l245 -248l-6 -6z" />
    <glyph glyph-name="bar.case" horiz-adv-x="164" 
d="M86 700v-700h-8v700h8z" />
    <glyph glyph-name="brokenbar.case" horiz-adv-x="164" 
d="M86 700v-317h-8v317h8zM86 313v-313h-8v313h8z" />
    </font>
</defs>
</svg>
