<svg width="163" height="48" viewBox="0 0 163 48" fill="none" xmlns="http://www.w3.org/2000/svg">
<path d="M139.089 0H144.052V35.3662H162.249V39.9296H139.089V0Z" fill="#15161A"/>
<path d="M134.337 0V4.56338H114.486V17.9113H130.914V22.4746H114.486V39.9296H109.523V0H134.337Z" fill="#15161A"/>
<path d="M96.0012 37.2486C96.0012 36.2979 96.3244 35.5183 96.9709 34.9099C97.6554 34.2634 98.5871 33.9401 99.766 33.9401C101.135 33.9401 102.219 34.5106 103.017 35.6514C103.854 36.7542 104.272 38.1232 104.272 39.7584C104.272 42.1542 103.55 44.0366 102.105 45.4056C100.698 46.8127 98.7392 47.5542 96.2294 47.6303V44.9493C97.9026 44.9113 99.1195 44.4359 99.8801 43.5232C100.641 42.6106 101.021 41.5648 101.021 40.3859C101.021 40.0437 101.002 39.7965 100.964 39.6444C100.508 40.1007 99.861 40.3289 99.0244 40.3289C98.1498 40.3289 97.4272 40.0627 96.8568 39.5303C96.2864 38.9979 96.0012 38.2373 96.0012 37.2486Z" fill="#15161A"/>
<path d="M72.3411 0H78.2165L93.3897 39.9296H88.0848L83.8637 29.1486H66.4658L62.2447 39.9296H57.1109L72.3411 0ZM82.3806 24.6423L75.1362 5.41902L67.9489 24.6423H82.3806Z" fill="#15161A"/>
<path d="M53.1945 0V39.9296H48.2319V0H53.1945Z" fill="#15161A"/>
<path d="M6.78043 0L20.9269 33.1415L34.9023 0H41.0628V39.9296H36.2142V8.44225L22.9804 39.9296H18.5882L5.35438 8.44225V39.9296H0.505783V0H6.78043Z" fill="#15161A"/>
</svg>
