<svg width="269" height="42" viewBox="0 0 269 42" fill="none" xmlns="http://www.w3.org/2000/svg">
<path d="M260.462 4.96619C260.462 4.01549 260.786 3.23591 261.432 2.62746C262.117 1.98098 263.048 1.65775 264.227 1.65775C265.596 1.65775 266.68 2.22817 267.479 3.36901C268.315 4.47183 268.733 5.84084 268.733 7.47605C268.733 9.87183 268.011 11.7732 266.566 13.1803C265.159 14.5493 263.2 15.2718 260.691 15.3479V12.6669C262.364 12.6289 263.581 12.1535 264.341 11.2408C265.102 10.3282 265.482 9.28239 265.482 8.10352C265.482 7.76126 265.463 7.51408 265.425 7.36197C264.969 7.81831 264.322 8.04647 263.486 8.04647C262.611 8.04647 261.888 7.78027 261.318 7.24788C260.748 6.71548 260.462 5.95493 260.462 4.96619Z" fill="#15161A"/>
<path d="M248.852 2H254.556V27.7831H261.002V32.1754H254.556V41.9296H249.764V32.1754H228.83V27.8972L248.852 2ZM249.764 27.7831V7.36198L233.964 27.7831H249.764Z" fill="#15161A"/>
<path d="M215.023 24.4176C215.137 24.3035 215.251 24.1894 215.366 24.0754C215.518 23.9613 215.651 23.8662 215.765 23.7901C217.058 22.6493 218.123 21.5845 218.959 20.5958C219.834 19.607 220.518 18.5613 221.013 17.4585C221.545 16.3176 221.811 15.1007 221.811 13.8077C221.811 11.2979 221.032 9.35846 219.473 7.98944C217.913 6.5824 215.784 5.87888 213.084 5.87888C210.498 5.87888 208.425 6.67747 206.866 8.27465C205.307 9.87183 204.528 12.0394 204.528 14.7775V15.519H199.736V14.4923C199.736 11.9824 200.287 9.75775 201.39 7.81831C202.493 5.87888 204.052 4.35774 206.068 3.25493C208.121 2.15211 210.46 1.60071 213.084 1.60071C217.343 1.60071 220.67 2.68451 223.066 4.85211C225.5 7.01972 226.717 9.92888 226.717 13.5796C226.717 15.3289 226.394 16.9451 225.747 18.4282C225.101 19.9113 224.245 21.2803 223.18 22.5352C222.116 23.7521 220.766 25.0831 219.13 26.5282L218.104 27.3838L206.125 37.5373H227.002V41.9296H199.508V37.8796L215.023 24.4176Z" fill="#15161A"/>
<path d="M197.177 23.7331V27.612H150.574V23.7331H197.177Z" fill="#15161A"/>
<g clip-path="url(#clip0_6_2)">
<path d="M30.7004 13.6394C30.5517 13.6394 30.4247 13.5375 30.3903 13.397C29.1225 8.01156 24.6916 5.29426 19.1055 5.29426C9.46748 5.29426 5.38486 12.9807 5.38486 21.1625C5.38486 30.1118 9.46749 37.5804 19.1617 37.5804C26.0882 37.5804 30.2633 32.8888 30.8183 26.5549C30.8328 26.3951 30.9688 26.2703 31.1339 26.2703H35.8658C36.0581 26.2703 36.2086 26.4355 36.1868 26.6199C35.0025 36.2385 28.8486 41.9734 18.7083 41.9734C6.17926 41.9717 0 32.9679 0 21.5471C0 10.1264 6.69072 0.90126 19.1635 0.90126C27.4902 0.90126 34.4384 5.16779 35.7769 13.2793C35.8078 13.4672 35.6554 13.6394 35.4577 13.6394H30.7004Z" fill="#15161A"/>
<path d="M104.841 13.3112C104.679 13.3112 104.547 13.1935 104.525 13.0389C103.81 7.57972 100.045 5.29452 94.5225 5.29452C89.9302 5.29452 85.4522 6.8859 85.4522 11.9938C85.4522 21.658 111.363 14.8499 111.363 30.2789C111.363 38.6241 102.914 41.9737 95.5436 41.9737C86.5731 41.9737 78.99 37.7318 78.8213 28.4522C78.8177 28.2783 78.9646 28.136 79.1442 28.136H83.6095C83.7836 28.136 83.9215 28.2713 83.9251 28.4399C84.0974 34.8125 89.6854 37.5807 95.7141 37.5807C100.589 37.5807 105.976 36.0982 105.976 30.4423C105.976 19.6802 80.0655 26.7642 80.0655 12.3785C80.0655 4.47248 87.3221 0.903275 94.7492 0.903275C102.922 0.903275 109.215 4.59543 109.647 12.9862C109.656 13.1636 109.507 13.3129 109.324 13.3129H104.839L104.841 13.3112Z" fill="#15161A"/>
<path d="M59.9463 24.8444C66.3323 24.0101 69.7076 19.8788 69.7076 13.4201C69.7076 6.11663 65.3982 1.83429 57.291 1.83429H39.865C39.6891 1.83429 39.5458 1.97305 39.5458 2.14343V40.7284C39.5458 40.8988 39.6891 41.0376 39.865 41.0376H44.6115C44.7874 41.0376 44.9307 40.8988 44.9307 40.7284V25.3151C44.9307 25.1448 45.074 25.006 45.2499 25.006H54.273L64.8251 40.897C64.8831 40.9849 64.9847 41.0393 65.0935 41.0393H70.3786C70.6325 41.0393 70.7849 40.7653 70.6452 40.5598L59.9463 24.8462V24.8444ZM44.9307 20.613V6.53643C44.9307 6.36605 45.074 6.22729 45.2499 6.22729H55.4755C61.5985 6.22729 64.3191 8.75313 64.3191 13.4201C64.3191 18.0872 61.5967 20.6675 55.4755 20.613H44.9307Z" fill="#15161A"/>
<path d="M77.0258 1.83429H72.7473C72.571 1.83429 72.4281 1.9727 72.4281 2.14343V14.6075C72.4281 14.7783 72.571 14.9167 72.7473 14.9167H77.0258C77.2021 14.9167 77.345 14.7783 77.345 14.6075V2.14343C77.345 1.9727 77.2021 1.83429 77.0258 1.83429Z" fill="#15161A"/>
<path d="M125.575 0.901413C118.393 0.901413 112.367 6.36412 112.367 13.5218C112.367 20.6796 118.393 26.2775 125.573 26.2775C132.753 26.2775 138.71 20.8148 138.71 13.5218C138.71 6.22887 132.721 0.901413 125.575 0.901413ZM132.293 20.7235L128.248 14.6759C130.744 14.2613 132.057 12.7911 132.057 10.4005C132.057 7.34073 130.2 5.85298 126.38 5.85298H120.143V21.2926H123.159V14.9147H125.19L129.358 21.2926H131.56C131.643 21.2926 131.681 21.3962 131.616 21.4454C129.964 22.7224 127.876 23.4654 125.569 23.4654C119.943 23.4654 115.692 19.1936 115.692 13.5271C115.692 7.86065 119.943 3.71181 125.569 3.71181C131.195 3.71181 135.383 7.98361 135.383 13.5271C135.383 16.4236 134.262 18.9529 132.429 20.7375C132.389 20.7762 132.322 20.7692 132.291 20.7235H132.293ZM125.328 12.4346H123.159V8.33315H125.994C128.128 8.33315 129.039 8.92158 129.039 10.2987C129.039 12.2853 127.57 12.4346 125.328 12.4346Z" fill="#15161A"/>
</g>
<defs>
<clipPath id="clip0_6_2">
<rect width="138.71" height="41.0704" fill="white" transform="translate(0 0.90126)"/>
</clipPath>
</defs>
</svg>
