<svg width="1158" height="204" viewBox="0 0 1158 204" fill="none" xmlns="http://www.w3.org/2000/svg">
<g clip-path="url(#clip0_1_57)">
<path d="M143.584 63.6128C142.873 63.6128 142.32 63.1272 142.162 62.3987C136.235 35.7697 115.531 22.3337 89.3748 22.3337C44.2528 22.2528 25.2083 60.2943 25.2083 100.764C25.2083 145.038 44.3318 181.946 89.6909 181.946C122.09 181.946 141.609 158.717 144.217 127.393C144.217 126.584 144.928 126.017 145.718 126.017H167.844C168.714 126.017 169.425 126.827 169.346 127.717C163.814 175.309 135.05 203.638 87.5573 203.638C28.9223 203.719 0 159.202 0 102.707C0 46.2109 31.293 0.561035 89.6118 0.561035C128.57 0.561035 161.048 21.6862 167.291 61.8322C167.449 62.7225 166.738 63.6128 165.79 63.6128H143.505H143.584Z" fill="#F1F1F1"/>
<path d="M362.715 5.17456H490.495C491.285 5.17456 491.996 5.82208 491.996 6.71241V25.4094C491.996 26.2188 491.364 26.9473 490.495 26.9473H387.923C387.133 26.9473 386.422 27.5948 386.422 28.4851V87.0852C386.422 87.8946 387.054 88.6231 387.923 88.6231H483.304C484.094 88.6231 484.805 89.2706 484.805 90.1609V108.858C484.805 109.667 484.173 110.396 483.304 110.396H387.923C387.133 110.396 386.422 111.043 386.422 111.934V175.957C386.422 176.766 387.054 177.495 387.923 177.495H491.285C492.075 177.495 492.786 178.142 492.786 179.032V197.729C492.786 198.539 492.154 199.267 491.285 199.267H362.715C361.925 199.267 361.213 198.62 361.213 197.729V6.71241C361.213 5.90302 361.846 5.17456 362.715 5.17456Z" fill="#F1F1F1"/>
<path d="M623.49 61.9131C622.7 61.9131 622.147 61.3465 621.989 60.5371C618.67 33.5034 601.048 22.2528 575.207 22.2528C553.713 22.2528 532.772 30.1039 532.772 55.357C532.772 103.192 653.993 69.5214 653.993 145.847C653.993 187.126 614.481 203.719 580.027 203.719C538.066 203.719 502.585 182.756 501.795 136.863C501.795 135.973 502.427 135.325 503.296 135.325H524.158C524.949 135.325 525.581 135.973 525.66 136.863C526.45 168.348 552.607 182.108 580.818 182.108C603.655 182.108 628.785 174.743 628.785 146.819C628.785 93.5604 507.564 128.607 507.564 57.4614C507.564 18.3677 541.543 0.7229 576.234 0.7229C614.481 0.7229 643.878 19.0152 645.932 60.4562C645.932 61.3465 645.3 62.075 644.431 62.075H623.49V61.9131Z" fill="#F1F1F1"/>
<path d="M808.166 63.6128C807.455 63.6128 806.902 63.1272 806.744 62.3987C800.817 35.7697 780.113 22.3337 753.957 22.3337C708.835 22.3337 689.79 60.3753 689.79 100.845C689.79 145.119 708.914 182.027 754.273 182.027C786.672 182.027 806.191 158.798 808.799 127.474C808.799 126.665 809.51 126.098 810.3 126.098H832.426C833.296 126.098 834.007 126.907 833.928 127.798C828.396 175.39 799.632 203.719 752.139 203.719C693.504 203.719 664.582 159.202 664.582 102.707C664.582 46.2109 695.875 0.561035 754.194 0.561035C793.152 0.561035 825.63 21.6862 831.873 61.8322C832.031 62.7225 831.32 63.6128 830.372 63.6128H808.087H808.166Z" fill="#F1F1F1"/>
<path d="M857.239 5.17456H879.445C880.235 5.17456 880.946 5.82208 880.946 6.71241V197.568C880.946 198.377 880.314 199.105 879.445 199.105H857.239C856.449 199.105 855.738 198.458 855.738 197.568V6.71241C855.738 5.90302 856.37 5.17456 857.239 5.17456Z" fill="#F1F1F1"/>
<path d="M1077 61.9131C1076.21 61.9131 1075.66 61.3465 1075.5 60.5371C1072.18 33.5034 1054.56 22.2528 1028.72 22.2528C1007.22 22.2528 986.284 30.1039 986.284 55.357C986.284 103.192 1107.5 69.5214 1107.5 145.847C1107.5 187.126 1067.99 203.719 1033.54 203.719C991.578 203.719 956.097 182.756 955.307 136.863C955.307 135.973 955.939 135.325 956.808 135.325H977.67C978.46 135.325 979.093 135.973 979.172 136.863C979.962 168.348 1006.12 182.108 1034.33 182.108C1057.17 182.108 1082.3 174.743 1082.3 146.819C1082.3 93.5604 961.075 128.607 961.075 57.4614C961.075 18.3677 995.055 0.7229 1029.75 0.7229C1067.99 0.7229 1097.39 19.0152 1099.44 60.4562C1099.44 61.3465 1098.81 62.075 1097.94 62.075H1077V61.9131Z" fill="#F1F1F1"/>
<path d="M285.588 118.975C315.459 114.847 331.264 94.3698 331.264 62.4797C331.264 26.3807 311.113 5.17456 273.182 5.17456H191.63C190.84 5.17456 190.129 5.82208 190.129 6.71241V197.568C190.129 198.377 190.761 199.105 191.63 199.105H213.836C214.626 199.105 215.337 198.458 215.337 197.568V121.323C215.337 120.513 215.969 119.785 216.839 119.785H259.037L308.426 198.377C308.663 198.782 309.137 199.105 309.69 199.105H334.425C335.61 199.105 336.321 197.729 335.689 196.758L285.667 119.056L285.588 118.975ZM215.337 98.0121V28.4042C215.337 27.5948 215.969 26.8663 216.839 26.8663H264.647C293.254 26.8663 306.055 39.331 306.055 62.4797C306.055 85.6283 293.333 98.3358 264.647 98.093H215.337V98.0121Z" fill="#F1F1F1"/>
<path d="M932.469 5.17456H912.476C911.647 5.17456 910.975 5.86308 910.975 6.71241V62.075C910.975 62.9243 911.647 63.6128 912.476 63.6128H932.469C933.298 63.6128 933.97 62.9243 933.97 62.075V6.71241C933.97 5.86308 933.298 5.17456 932.469 5.17456Z" fill="#F1F1F1"/>
<path d="M1136.59 5.17456C1148.2 5.17456 1158 14.5635 1158 26.9473C1158 39.331 1148.28 48.9628 1136.59 48.9628C1124.89 48.9628 1115.09 39.5738 1115.09 26.9473C1115.09 14.3207 1124.89 5.17456 1136.59 5.17456ZM1136.59 45.6443C1146.46 45.6443 1154.13 37.5503 1154.13 26.8663C1154.13 16.1823 1146.46 8.3312 1136.59 8.3312C1126.71 8.3312 1118.96 16.4251 1118.96 26.8663C1118.96 37.3075 1126.55 45.6443 1136.59 45.6443ZM1128.29 14.1588H1137.93C1143.86 14.1588 1146.62 16.587 1146.62 21.4434C1146.62 26.0569 1143.78 27.9995 1140.06 28.4042L1147.17 39.6547H1142.99L1136.19 28.647H1132.08V39.6547H1128.21V14.2398L1128.29 14.1588ZM1132.16 25.4904H1136.19C1139.59 25.4904 1142.75 25.3285 1142.75 21.2815C1142.75 17.882 1139.9 17.3964 1137.3 17.3964H1132.16V25.4904Z" fill="#F1F1F1"/>
</g>
<defs>
<clipPath id="clip0_1_57">
<rect width="1158" height="203.158" fill="white" transform="translate(0 0.561035)"/>
</clipPath>
</defs>
</svg>
