<svg width="269" height="42" viewBox="0 0 269 42" fill="none" xmlns="http://www.w3.org/2000/svg">
<path d="M260.462 4.06495C260.462 3.11424 260.786 2.33467 261.432 1.72622C262.117 1.07974 263.048 0.7565 264.227 0.7565C265.596 0.7565 266.68 1.32692 267.479 2.46777C268.315 3.57058 268.733 4.9396 268.733 6.57481C268.733 8.97058 268.011 10.872 266.566 12.279C265.159 13.648 263.2 14.3706 260.691 14.4466V11.7657C262.364 11.7276 263.581 11.2523 264.341 10.3396C265.102 9.42692 265.482 8.38114 265.482 7.20227C265.482 6.86002 265.463 6.61283 265.425 6.46072C264.969 6.91706 264.322 7.14523 263.486 7.14523C262.611 7.14523 261.888 6.87903 261.318 6.34663C260.748 5.81424 260.462 5.05368 260.462 4.06495Z" fill="#15161A"/>
<path d="M248.852 1.09875H254.556V26.8819H261.002V31.2741H254.556V41.0283H249.764V31.2741H228.83V26.9959L248.852 1.09875ZM249.764 26.8819V6.46073L233.964 26.8819H249.764Z" fill="#15161A"/>
<path d="M215.023 23.5164C215.137 23.4023 215.251 23.2882 215.366 23.1741C215.518 23.06 215.651 22.965 215.765 22.8889C217.058 21.7481 218.123 20.6833 218.959 19.6945C219.834 18.7058 220.518 17.66 221.013 16.5572C221.545 15.4164 221.811 14.1995 221.811 12.9065C221.811 10.3966 221.032 8.45721 219.473 7.0882C217.913 5.68115 215.784 4.97763 213.084 4.97763C210.498 4.97763 208.425 5.77622 206.866 7.37341C205.307 8.97059 204.528 11.1382 204.528 13.8762V14.6178H199.736V13.591C199.736 11.0812 200.287 8.85651 201.39 6.91707C202.493 4.97763 204.052 3.4565 206.068 2.35368C208.121 1.25087 210.46 0.699463 213.084 0.699463C217.343 0.699463 220.67 1.78326 223.066 3.95087C225.5 6.11847 226.717 9.02763 226.717 12.6783C226.717 14.4276 226.394 16.0438 225.747 17.5269C225.101 19.01 224.245 20.379 223.18 21.634C222.116 22.8509 220.766 24.1819 219.13 25.6269L218.104 26.4826L206.125 36.6361H227.002V41.0283H199.508V36.9783L215.023 23.5164Z" fill="#15161A"/>
<path d="M197.177 22.8318V26.7107H150.574V22.8318H197.177Z" fill="#15161A"/>
<g clip-path="url(#clip0_1_21)">
<path d="M30.7004 12.7381C30.5517 12.7381 30.4247 12.6362 30.3903 12.4957C29.1225 7.1103 24.6916 4.393 19.1055 4.393C9.46748 4.393 5.38486 12.0794 5.38486 20.2612C5.38486 29.2105 9.46749 36.6792 19.1617 36.6792C26.0882 36.6792 30.2633 31.9876 30.8183 25.6536C30.8328 25.4938 30.9688 25.3691 31.1339 25.3691H35.8658C36.0581 25.3691 36.2086 25.5342 36.1868 25.7186C35.0025 35.3372 28.8486 41.0722 18.7083 41.0722C6.17926 41.0704 0 32.0666 0 20.6459C0 9.22512 6.69072 0 19.1635 0C27.4902 0 34.4384 4.26653 35.7769 12.378C35.8078 12.566 35.6554 12.7381 35.4577 12.7381H30.7004Z" fill="#15161A"/>
<path d="M104.841 12.4099C104.679 12.4099 104.547 12.2922 104.525 12.1377C103.81 6.67846 100.045 4.39326 94.5225 4.39326C89.9302 4.39326 85.4522 5.98464 85.4522 11.0925C85.4522 20.7568 111.363 13.9486 111.363 29.3777C111.363 37.7228 102.914 41.0724 95.5436 41.0724C86.5731 41.0724 78.99 36.8305 78.8213 27.5509C78.8177 27.377 78.9646 27.2348 79.1442 27.2348H83.6095C83.7836 27.2348 83.9215 27.37 83.9251 27.5386C84.0974 33.9112 89.6854 36.6794 95.7141 36.6794C100.589 36.6794 105.976 35.197 105.976 29.541C105.976 18.779 80.0655 25.8629 80.0655 11.4772C80.0655 3.57122 87.3221 0.00201416 94.7492 0.00201416C102.922 0.00201416 109.215 3.69417 109.647 12.085C109.656 12.2624 109.507 12.4117 109.324 12.4117H104.839L104.841 12.4099Z" fill="#15161A"/>
<path d="M59.9462 23.9432C66.3323 23.1088 69.7076 18.9775 69.7076 12.5189C69.7076 5.21538 65.3982 0.933044 57.291 0.933044H39.865C39.6891 0.933044 39.5458 1.07181 39.5458 1.24219V39.8272C39.5458 39.9975 39.6891 40.1363 39.865 40.1363H44.6115C44.7874 40.1363 44.9307 39.9975 44.9307 39.8272V24.4139C44.9307 24.2435 45.074 24.1048 45.2499 24.1048H54.273L64.8251 39.9958C64.8831 40.0836 64.9847 40.1381 65.0935 40.1381H70.3786C70.6325 40.1381 70.7849 39.8641 70.6452 39.6585L59.9462 23.9449V23.9432ZM44.9307 19.7118V5.63519C44.9307 5.46481 45.074 5.32604 45.2499 5.32604H55.4755C61.5985 5.32604 64.3191 7.85189 64.3191 12.5189C64.3191 17.1859 61.5967 19.7662 55.4755 19.7118H44.9307Z" fill="#15161A"/>
<path d="M77.0258 0.933044H72.7473C72.571 0.933044 72.4281 1.07145 72.4281 1.24219V13.7063C72.4281 13.877 72.571 14.0154 72.7473 14.0154H77.0258C77.2021 14.0154 77.345 13.877 77.345 13.7063V1.24219C77.345 1.07145 77.2021 0.933044 77.0258 0.933044Z" fill="#15161A"/>
<path d="M125.575 0.000152588C118.393 0.000152588 112.367 5.46286 112.367 12.6206C112.367 19.7783 118.393 25.3763 125.573 25.3763C132.753 25.3763 138.71 19.9136 138.71 12.6206C138.71 5.32761 132.721 0.000152588 125.575 0.000152588ZM132.293 19.8222L128.248 13.7746C130.744 13.3601 132.057 11.8899 132.057 9.49929C132.057 6.43947 130.2 4.95172 126.38 4.95172H120.143V20.3913H123.159V14.0135H125.19L129.358 20.3913H131.56C131.643 20.3913 131.681 20.495 131.616 20.5441C129.964 21.8211 127.876 22.5641 125.569 22.5641C119.943 22.5641 115.692 18.2923 115.692 12.6259C115.692 6.95939 119.943 2.81055 125.569 2.81055C131.195 2.81055 135.383 7.08235 135.383 12.6259C135.383 15.5223 134.262 18.0517 132.429 19.8363C132.389 19.8749 132.322 19.8679 132.291 19.8222H132.293ZM125.328 11.5333H123.159V7.43189H125.994C128.128 7.43189 129.039 8.02032 129.039 9.39741C129.039 11.384 127.57 11.5333 125.328 11.5333Z" fill="#15161A"/>
</g>
<defs>
<clipPath id="clip0_1_21">
<rect width="138.71" height="41.0704" fill="white"/>
</clipPath>
</defs>
</svg>
