<svg width="311" height="91" viewBox="0 0 311 91" fill="none" xmlns="http://www.w3.org/2000/svg">
<g clip-path="url(#clip0_1_23)">
<path d="M220.011 36.6453C225.415 32.0294 229.55 32.2421 233.035 37.2707C233.414 37.1886 233.544 36.8264 233.763 36.5737C236.128 33.8467 239.132 33.017 242.538 33.6256C245.202 34.1015 246.834 35.8346 247.544 38.4731C247.837 39.5576 247.986 40.6652 247.984 41.7982C247.975 46.5004 247.957 51.2047 248 55.907C248.008 56.8103 247.726 57.0778 246.888 56.9999C246.205 56.9346 245.512 57.0104 244.827 56.9788C242.811 56.8861 241.872 55.9428 241.851 53.8791C241.816 50.2992 241.831 46.7194 241.839 43.1395C241.839 42.4678 241.783 41.8087 241.628 41.1601C241.292 39.7534 240.298 39.0712 238.872 39.2459C236.794 39.5007 235.571 40.8358 234.782 42.67C234.139 44.1693 233.945 45.7676 233.949 47.3953C233.955 50.274 233.93 53.1505 233.963 56.0291C233.971 56.7409 233.794 57.0293 233.049 57.002C231.607 56.9514 230.16 56.9493 228.718 57.002C227.973 57.0293 227.806 56.7472 227.81 56.0333C227.839 51.8933 227.827 47.7512 227.823 43.6091C227.823 42.9437 227.817 42.2825 227.656 41.6234C227.148 39.5365 225.532 38.6858 223.568 39.5028C222.458 39.964 221.736 40.84 221.175 41.8719C220.302 43.4744 219.986 45.2285 219.97 47.0332C219.941 50.015 219.939 52.9989 219.978 55.9828C219.988 56.7661 219.757 57.0336 218.983 57.002C217.609 56.9472 216.233 56.9641 214.857 56.9957C214.227 57.0104 213.928 56.8609 213.93 56.1281C213.951 49.0042 213.951 41.8803 213.93 34.7564C213.93 34.0889 214.176 33.8909 214.78 33.9499C215.189 33.9899 215.606 33.9583 216.018 33.9583C218.558 33.9583 219.014 34.2594 220.013 36.6453H220.011Z" fill="black"/>
<path d="M0.0122743 42.0888C0.0122743 37.6687 0.00608429 33.2486 0.0122743 28.8307C0.0184643 26.2321 1.27297 24.9308 3.8088 24.9581C6.76143 24.9897 9.71818 24.815 12.6667 25.095C16.5478 25.4635 19.5665 27.8768 20.2556 31.404C20.8581 34.489 20.1855 37.2623 17.7466 39.3954C17.2617 39.8208 17.0244 40.0904 17.7961 40.4757C22.8946 43.0216 23.2062 52.066 17.4206 55.2963C15.6998 56.2565 13.8593 56.7977 11.9136 56.8251C8.23671 56.8777 4.55779 56.8209 0.880937 56.863C0.105124 56.8714 -0.00423237 56.5555 -0.00216903 55.8754C0.0205276 51.2805 0.010211 46.6857 0.010211 42.0909L0.0122743 42.0888ZM5.96086 47.8144C5.96086 47.8144 5.95673 47.8144 5.95467 47.8144C5.95467 48.7957 5.96499 49.777 5.95054 50.7583C5.94435 51.211 6.05371 51.5016 6.57367 51.4827C8.38734 51.4153 10.1989 51.7417 12.0188 51.4722C14.0471 51.1731 15.413 49.7391 15.5079 47.707C15.6317 45.02 14.5629 43.388 12.3592 42.8995C10.9995 42.5984 9.62121 42.7521 8.25322 42.7479C6.75111 42.7437 6.04958 43.4407 5.97324 44.9779C5.92785 45.9213 5.96499 46.8689 5.96499 47.8144H5.96086ZM5.96499 34.6701C5.96499 34.6701 5.95467 34.6701 5.95054 34.6701C5.95054 35.4745 5.97324 36.281 5.94229 37.0854C5.91959 37.6666 6.12799 37.9109 6.70985 37.9024C8.15005 37.8793 9.59438 37.9467 11.0305 37.8793C12.9948 37.7866 14.2843 36.3421 14.4081 34.2152C14.534 32.0736 13.4404 30.5322 11.439 30.2437C10.3619 30.0879 9.25187 30.1363 8.15624 30.1552C6.74492 30.1784 6.07847 30.8207 5.97324 32.2568C5.91547 33.057 5.96292 33.8656 5.96292 34.6701H5.96499Z" fill="black"/>
<path d="M154.139 45.6538C154.139 48.7409 154.143 51.8301 154.139 54.9172C154.129 60.6365 151.071 64.5007 145.601 65.642C141.848 66.4254 138.241 65.8926 134.756 64.2796C134.015 63.9363 133.888 63.5804 134.249 62.8645C134.577 62.2138 134.787 61.502 135.059 60.8219C135.711 59.2067 136.415 58.8593 138.041 59.3983C140.17 60.1038 142.329 60.426 144.526 59.8216C146.558 59.2636 147.834 57.4821 147.753 55.4774C147.732 54.9867 147.716 54.7445 147.128 55.0752C141.19 58.4086 134.434 55.6332 132.616 48.9894C131.397 44.5294 131.721 40.1893 134.802 36.4894C137.839 32.8401 143.847 32.1831 147.666 34.9901C148.182 35.3692 148.436 35.4787 148.849 34.8406C149.408 33.9772 150.365 33.8214 151.319 33.7961C153.2 33.7456 154.141 34.6799 154.141 36.5989C154.141 39.6165 154.141 42.6341 154.141 45.6517L154.139 45.6538ZM138.58 44.5041C138.563 46.0919 138.811 47.4606 139.57 48.682C140.626 50.3813 142.207 50.9836 144.091 50.7372C145.921 50.4993 147.054 49.3579 147.534 47.5659C147.9 46.2035 147.957 44.8178 147.786 43.4028C147.464 40.7516 146.092 39.267 143.69 39.1048C140.961 38.9195 139.428 40.084 138.763 42.7879C138.61 43.4133 138.633 44.0387 138.58 44.502V44.5041Z" fill="black"/>
<path d="M96.0687 33.8951C93.7289 37.3886 91.5768 40.6378 89.3732 43.8513C89.0451 44.3293 88.9378 44.5778 89.3443 45.0747C89.8003 45.6307 90.1242 46.3087 90.4482 46.9636C91.9812 50.0655 93.7516 53.0283 95.5178 55.9933C95.6911 56.2839 95.9573 56.5366 95.9531 57.0377C93.9373 56.983 91.9317 57.1536 89.922 56.9072C88.6593 56.7514 87.8958 55.9469 87.3367 54.8835C86.2802 52.8767 85.2445 50.8594 84.1983 48.8462C84.0704 48.5977 83.9342 48.3535 83.8084 48.105C83.3916 47.2837 82.6343 47.2795 81.9245 47.408C81.2313 47.5343 81.5222 48.204 81.5181 48.6356C81.4892 51.1268 81.4789 53.62 81.5181 56.1112C81.5304 56.8566 81.2911 57.0714 80.5772 57.0483C79.0318 56.9977 77.4822 57.0083 75.9347 57.0462C75.326 57.0609 75.097 56.9072 75.097 56.2354C75.1156 46.0918 75.1135 35.9504 75.0991 25.8068C75.0991 25.1898 75.2455 24.9034 75.8996 24.9413C76.9622 25.0002 78.0352 24.9202 79.0875 25.0424C80.8475 25.2487 81.4851 26.0152 81.4933 27.822C81.5098 31.8925 81.4809 35.9651 81.5222 40.0356C81.5284 40.5789 81.0972 41.457 81.9803 41.6318C82.851 41.8023 83.7815 41.7139 84.3572 40.7937C85.1351 39.5534 85.9006 38.3046 86.7094 37.0854C87.4006 36.043 87.7927 34.5626 88.8346 34.0615C89.825 33.5834 91.191 33.9098 92.3918 33.8993C93.5184 33.8888 94.645 33.8972 96.0625 33.8972L96.0687 33.8951Z" fill="black"/>
<path d="M114.676 36.4536C116.201 34.8196 117.913 33.8025 119.999 33.4908C125.744 32.6337 129.309 35.3186 129.627 41.2085C129.899 46.2435 129.709 51.3037 129.736 56.3534C129.738 56.7977 129.585 57.0041 129.146 56.9872C127.912 56.9388 126.674 57.1093 125.446 56.8482C124.322 56.6082 123.61 55.9322 123.4 54.774C123.294 54.1928 123.224 53.5948 123.22 53.0031C123.204 49.7075 123.216 46.4098 123.208 43.1143C123.208 42.6278 123.185 42.1288 123.084 41.6549C122.735 40.0398 121.817 39.3638 120.195 39.4691C117.358 39.6544 115.408 41.5412 114.878 44.5588C114.628 45.9887 114.698 47.4248 114.692 48.8589C114.682 51.2426 114.67 53.6285 114.703 56.0122C114.713 56.7008 114.575 57.0293 113.807 57.002C112.262 56.9493 110.714 56.9577 109.169 56.9977C108.486 57.0146 108.284 56.764 108.288 56.0859C108.319 48.9684 108.333 41.8487 108.327 34.7311C108.327 34.0867 108.527 33.8509 109.152 33.8888C109.802 33.9288 110.458 33.8909 111.11 33.8972C113.161 33.9141 113.846 34.3858 114.678 36.4536H114.676Z" fill="black"/>
<path d="M199.6 57.3073C192.723 57.2989 187.763 52.266 187.794 45.3275C187.827 38.4226 192.876 33.3455 199.683 33.3729C206.552 33.4003 211.498 38.4184 211.498 45.3612C211.498 52.4071 206.61 57.3136 199.6 57.3052V57.3073ZM194.11 45.4896C194.065 46.0582 194.197 46.7489 194.362 47.4269C194.995 50.0255 197.1 51.7838 199.6 51.828C202.085 51.8723 204.156 50.2655 204.911 47.6838C205.429 45.915 205.37 44.1524 204.687 42.4425C203.638 39.8187 201.101 38.4857 198.428 39.1091C195.787 39.7261 194.114 42.1435 194.11 45.4854V45.4896Z" fill="black"/>
<path d="M35.3676 57.3073C28.4822 57.301 23.5261 52.2808 23.555 45.3401C23.5818 38.4331 28.6205 33.356 35.4295 33.375C42.3313 33.3939 47.2977 38.4689 47.2585 45.458C47.2173 52.4408 42.3292 57.3136 35.3696 57.3073H35.3676ZM29.8688 45.3654C29.8255 46.0771 29.9596 46.7678 30.1267 47.4459C30.7643 50.0192 32.7884 51.7312 35.2727 51.8217C37.6702 51.9102 39.8099 50.3771 40.5857 47.9702C41.1263 46.2961 41.149 44.5946 40.6187 42.9163C39.4323 39.1533 35.1076 37.7087 32.1405 40.0819C30.4672 41.4212 29.9307 43.2954 29.8667 45.3654H29.8688Z" fill="black"/>
<path d="M60.8642 57.3073C53.9623 57.3073 49.0475 52.3945 48.9814 45.4285C48.9175 38.5405 53.9995 33.3792 60.8518 33.375C67.702 33.3687 72.7593 38.4963 72.7345 45.4201C72.7097 52.346 67.7557 57.3073 60.8642 57.3073ZM66.4496 45.1148C66.4021 44.7778 66.3485 44.1461 66.2185 43.5333C65.6862 41.0548 63.8911 39.3196 61.5471 38.9806C59.3311 38.6605 57.1089 39.8166 56.0937 41.9266C55.0002 44.1966 54.9857 46.5256 56.0855 48.802C57.1832 51.0763 59.492 52.1797 61.9185 51.6848C64.6999 51.1163 66.4413 48.7051 66.4496 45.1169V45.1148Z" fill="black"/>
<path d="M184.588 48.6799C185.392 50.0486 186.16 51.3753 186.95 52.6872C187.175 53.0599 187.109 53.3189 186.822 53.6095C180.694 59.8258 169.81 58.4592 166.463 50.6614C163.117 42.8658 167.613 33.8635 176.943 33.476C178.994 33.3918 180.989 33.6235 182.873 34.5268C185.522 35.7987 186.748 38.4963 186.005 41.3707C185.898 41.7897 185.638 41.8213 185.316 41.8213C184.388 41.8213 183.457 41.8571 182.533 41.8023C181.612 41.7476 180.861 41.3285 180.554 40.3851C180.248 39.4481 179.533 39.1027 178.693 38.9469C175.057 38.273 171.838 40.9958 171.605 44.761C171.209 51.1857 177.104 53.0409 180.934 51.2826C182.299 50.6551 183.471 49.7728 184.59 48.6799H184.588Z" fill="black"/>
<path d="M98.0866 45.3906C98.0866 41.9161 98.1073 38.4436 98.0701 34.9691C98.0619 34.1626 98.2579 33.8151 99.0997 33.8825C100.022 33.9562 100.957 33.8762 101.881 33.9478C103.307 34.0573 104.126 34.8469 104.386 36.2894C104.46 36.7 104.506 37.1233 104.506 37.5402C104.514 43.6449 104.497 49.7517 104.526 55.8564C104.53 56.705 104.328 57.0441 103.441 57.0041C101.966 56.9346 100.484 56.9514 99.0069 56.9999C98.2682 57.023 98.0681 56.7408 98.0743 56.0207C98.1031 52.4766 98.0866 48.9326 98.0866 45.3885V45.3906Z" fill="black"/>
<path d="M156.826 53.3842C156.838 51.251 158.484 49.5706 160.544 49.5938C162.607 49.6148 164.247 51.3142 164.245 53.4263C164.243 55.6142 162.591 57.2799 160.455 57.2504C158.375 57.2209 156.815 55.5574 156.828 53.3842H156.826Z" fill="black"/>
<path d="M97.3624 27.723C97.3789 25.533 98.9182 23.9895 101.078 24C103.191 24.0105 104.782 25.6341 104.782 27.782C104.782 29.9404 103.117 31.5956 100.967 31.5745C98.8769 31.5535 97.3438 29.9173 97.3624 27.723Z" fill="black"/>
</g>
<defs>
<clipPath id="clip0_1_23">
<rect width="248" height="42" fill="white" transform="translate(0 24)"/>
</clipPath>
</defs>
</svg>
