<svg width="311" height="91" viewBox="0 0 311 91" fill="none" xmlns="http://www.w3.org/2000/svg">
<path d="M236.818 43.1999V59.1401H230.965V44.2528C230.965 40.6269 229.405 38.6017 226.367 38.6017C223.328 38.6017 221.323 40.7285 220.756 44.2936C220.594 45.1443 220.553 46.4603 220.553 49.2355V59.1201H214.7V33.8014H219.885C219.906 34.0244 220.027 36.2927 220.027 36.4342C220.027 36.6165 220.249 36.718 220.392 36.5965C222.539 34.8951 224.908 33.3152 228.21 33.3152C233.638 33.3152 236.818 36.9811 236.818 43.1999Z" fill="#15161A"/>
<path d="M205.262 33.8211L205.079 36.7178C205.059 36.9001 204.836 37.0008 204.715 36.8793C204.006 36.2108 201.393 33.335 196.957 33.335C190.597 33.335 185.919 38.8237 185.919 46.2777C185.919 53.8325 190.557 59.342 196.957 59.342C201.231 59.342 203.844 56.5669 204.33 55.9592C204.472 55.7978 204.735 55.8985 204.735 56.1016C204.674 56.8707 204.573 58.7952 203.925 60.4358C203.115 62.5018 201.292 64.4263 197.625 64.4263C194.608 64.4263 191.934 63.2718 189.402 60.8004L186.344 64.9931C189.118 68.1329 193.493 69.8951 198.254 69.8951C205.91 69.8951 210.507 64.6485 210.507 56.0808V33.8211H205.262ZM198.213 54.0356C194.426 54.0356 191.752 50.7543 191.752 46.2777C191.752 41.8012 194.426 38.6015 198.213 38.6015C202 38.6015 204.674 41.7812 204.674 46.2777C204.654 50.7743 201.98 54.0356 198.213 54.0356Z" fill="#15161A"/>
<path d="M173.684 51.6248C173.684 56.4251 169.654 59.6456 163.74 59.6456C159.101 59.6456 154.969 57.8435 152.498 55.2706L154.422 50.6933C156.286 52.3748 159.283 54.7845 163.557 54.7845C166.535 54.7845 168.256 53.4685 168.256 51.8071C168.256 49.8834 165.886 49.3765 163.05 48.8296C159.02 47.9789 153.673 46.6022 153.673 41.1125C153.673 36.5153 157.399 33.3556 162.909 33.3556C167.142 33.3556 170.788 34.9754 173.3 37.0821L170.424 41.1125C167.993 39.1889 165.441 38.2367 162.909 38.2367C160.377 38.2367 159.122 39.2896 159.122 40.8087C159.122 42.9355 161.856 43.4823 163.861 43.8877C168.905 44.86 173.684 46.3791 173.684 51.6248Z" fill="#15161A"/>
<path d="M88.0881 33.3152C80.9378 33.3152 75.7928 38.8648 75.7928 46.4811C75.7928 54.0966 80.9378 59.6461 88.0881 59.6461C95.2374 59.6461 100.402 54.0966 100.402 46.4811C100.402 38.8648 95.2582 33.3152 88.0881 33.3152ZM88.0881 54.3397C84.2998 54.3397 81.6262 51.1192 81.6262 46.4603C81.6262 41.8222 84.2391 38.5818 88.0881 38.5818C91.9162 38.5818 94.549 41.8023 94.549 46.4603C94.549 51.1192 91.8754 54.3397 88.0881 54.3397Z" fill="#15161A"/>
<path d="M102.468 46.4811C102.468 38.9663 107.613 33.3152 114.48 33.3152C119.928 33.3152 123.918 36.0496 125.782 41.1946L120.596 43.1591C119.179 39.9793 117.315 38.6217 114.5 38.6217C110.975 38.6217 108.343 41.9438 108.343 46.5011C108.343 51.0384 110.955 54.3805 114.5 54.3805C117.336 54.3805 119.179 53.0228 120.596 49.8431L125.782 51.8075C123.918 56.9525 119.928 59.6869 114.48 59.6869C107.613 59.6461 102.468 53.995 102.468 46.4811Z" fill="#15161A"/>
<path d="M71.175 22.0539C71.0735 22.0539 70.9519 22.0739 70.8512 22.1347L67.0431 24.1598C66.9623 24.2006 66.9215 24.2814 66.9215 24.363V36.4142C66.9215 36.6165 66.6785 36.6981 66.537 36.5766C65.9693 36.0905 64.6533 34.8543 62.8304 34.0036C61.8781 33.5583 60.4805 33.3153 59.2045 33.3153C52.8043 33.3153 48.1653 38.8648 48.1653 46.4811C48.1653 54.0966 52.8043 59.6462 59.2045 59.6462C62.5665 59.6462 65.0986 57.884 66.6377 56.3041C66.7392 56.2034 66.8 56.1427 66.9016 56.0411C67.0431 55.8996 67.2861 55.9803 67.2861 56.1826L67.4884 59.1401H72.7749V22.2154C72.7749 22.1347 72.7141 22.0539 72.6134 22.0539H71.175ZM60.4605 54.3397C56.6324 54.3397 53.9987 51.1192 53.9987 46.4603C53.9987 41.8023 56.6932 38.6018 60.4605 38.6018C64.2479 38.6018 66.9215 41.8223 66.9215 46.4811C66.9215 51.1192 64.3087 54.3397 60.4605 54.3397Z" fill="#15161A"/>
<path d="M180.571 33.903L176.905 35.8474C176.824 35.8874 176.783 35.969 176.783 36.0497V59.1401H182.637V33.9638C182.637 33.8822 182.577 33.8014 182.475 33.8014H180.895C180.774 33.8214 180.672 33.8422 180.571 33.903Z" fill="#15161A"/>
<path d="M179.7 29.7102C181.644 29.7102 183.224 28.1303 183.224 26.1859C183.224 24.2414 181.644 22.6615 179.7 22.6615C177.756 22.6615 176.176 24.2414 176.176 26.1859C176.176 28.1303 177.756 29.7102 179.7 29.7102Z" fill="#15161A"/>
<path d="M150.391 33.8014V47.5541C150.391 57.9856 144.558 59.6262 139.352 59.6262C134.147 59.6262 128.313 57.9656 128.313 47.5541V33.8014H134.147V49.0124C134.147 50.4916 134.511 54.3397 139.352 54.3397C144.193 54.3397 144.558 50.5116 144.558 49.0124V33.8014H150.391Z" fill="#15161A"/>
<path d="M240.16 56.5477V56.9123H239.33V59.1197H238.925V56.9123H238.094V56.5477H240.16ZM243.057 59.1197H242.652V57.0945L241.862 58.6136H241.64L240.85 57.1145V59.1197H240.444V56.5477H240.971L241.74 58.026L242.51 56.5477H243.037L243.057 59.1197Z" fill="#15161A"/>
<path d="M28.2554 49.2357V59.2618C28.2554 59.7887 27.83 60.214 27.3034 60.214H0.952001C0.425349 60.214 0 59.7887 0 59.2618V32.9309C0 32.404 0.425349 31.9786 0.952001 31.9786H10.9578V48.2834C10.9578 48.8103 11.3831 49.2357 11.9098 49.2357H28.2554Z" fill="#15161A"/>
<path d="M39.2328 35.0974C39.2328 43.5236 34.3114 49.2155 28.2552 49.2355V38.6217C28.2552 38.3179 28.1336 38.014 27.9109 37.8118L22.4016 32.3022C22.1788 32.08 21.8952 31.9584 21.5914 31.9584H10.9779V21.9523C10.9779 21.4254 11.4033 21.0001 11.9299 21.0001H26.7766C33.8253 20.9801 39.2328 26.6511 39.2328 35.0974Z" fill="#15161A"/>
</svg>
