<svg width="311" height="91" viewBox="0 0 311 91" fill="none" xmlns="http://www.w3.org/2000/svg">
<path d="M44.0961 20.1773C43.9735 20.3101 43.8867 20.4123 43.7947 20.5043C42.3439 21.955 40.888 23.4007 39.4473 24.8617C39.2123 25.1018 39.0744 25.1273 38.8037 24.8872C35.856 22.2207 32.418 20.6013 28.4537 20.2233C22.7883 19.6818 17.7922 21.2501 13.6185 25.1682C10.2775 28.3047 8.37196 32.2024 7.88665 36.7335C7.28384 42.414 8.8113 47.4814 12.6734 51.7469C15.8815 55.287 19.9122 57.2588 24.6683 57.6726C28.2392 57.9842 31.6976 57.5142 34.9314 55.8745C39.5342 53.5399 42.349 49.8721 43.1255 44.7229C43.1664 44.4522 43.2021 44.1763 43.2481 43.8596C43.0182 43.8494 42.8343 43.8341 42.6504 43.8341C37.4243 43.8341 32.1983 43.8341 26.9722 43.8341C26.5431 43.8341 26.3286 43.6144 26.3286 43.1751C26.3286 41.1931 26.3388 39.2059 26.3183 37.2239C26.3183 36.8356 26.4409 36.7284 26.819 36.7284C34.4563 36.7386 42.0936 36.7386 49.7309 36.7233C50.2264 36.7233 50.2622 36.9838 50.3081 37.326C50.6095 39.5124 50.63 41.7039 50.4103 43.9005C50.1753 46.2605 49.6696 48.5542 48.8062 50.761C46.9212 55.5935 43.5546 59.1387 39.1357 61.7286C36.0604 63.5319 32.6887 64.4105 29.1485 64.7272C25.2149 65.0797 21.3528 64.7425 17.6542 63.3531C8.84706 60.0378 2.98243 53.8924 0.755101 44.6821C-1.21169 36.5445 0.709124 29.1374 5.98627 22.6651C9.85856 17.9245 14.8649 14.8902 20.8624 13.6233C26.9058 12.3462 32.7398 13.0001 38.2621 15.8761C40.3056 16.9437 42.1344 18.3179 43.8254 19.881C43.9122 19.9628 43.9888 20.0547 44.1012 20.1722L44.0961 20.1773Z" fill="#15161A"/>
<path d="M157.675 48.3963C157.675 53.3923 157.706 58.3832 157.665 63.3791C157.639 66.0355 157.179 68.6305 156.127 71.0876C154.165 75.6596 150.676 78.3823 145.844 79.3989C142.528 80.0936 139.243 79.9966 136.045 78.7757C132.428 77.3913 129.726 74.9342 127.81 71.5985C127.565 71.1745 127.371 70.7198 127.141 70.2805C127.029 70.0659 127.08 69.9434 127.305 69.8514C129.251 69.0494 131.192 68.2423 133.133 67.4249C133.425 67.3023 133.476 67.5016 133.563 67.6804C134.114 68.8502 134.845 69.8923 135.78 70.7811C137.68 72.5946 139.938 73.3864 142.564 73.2076C143.938 73.1105 145.256 72.8296 146.472 72.1655C148.689 70.9548 149.844 68.9881 150.395 66.5974C150.799 64.8657 150.712 63.1033 150.712 61.346C150.712 61.2592 150.64 61.1672 150.6 61.0804C150.503 61.1366 150.38 61.1723 150.308 61.2541C149.481 62.1787 148.515 62.9245 147.412 63.4864C144.556 64.9372 141.552 65.2079 138.467 64.4825C131.882 62.9347 126.814 57.4586 125.879 50.7564C125.067 44.9533 126.814 39.9574 131.024 35.8809C133.547 33.434 136.597 31.9628 140.107 31.5797C143.611 31.1965 146.804 31.9883 149.552 34.2871C149.808 34.5016 150.027 34.7571 150.273 34.9767C150.37 35.0636 150.508 35.1146 150.625 35.1811C150.656 35.0585 150.717 34.941 150.717 34.8184C150.727 34.1798 150.732 33.5413 150.717 32.9027C150.712 32.6167 150.799 32.4992 151.105 32.4992C153.169 32.5094 155.238 32.5145 157.302 32.4992C157.726 32.4992 157.685 32.7495 157.685 33.0202C157.685 38.149 157.685 43.2778 157.685 48.4015H157.68L157.675 48.3963ZM151.223 48.2329C151.223 46.6442 151.008 45.3671 150.487 44.0083C149.593 41.6891 148.112 39.8705 145.823 38.8335C142.13 37.158 137.803 38.2869 135.279 41.5461C133.353 44.0287 132.735 46.869 133.174 49.9442C133.547 52.5392 134.727 54.7205 136.806 56.35C140.428 59.1903 145.394 58.8787 148.49 55.6093C150.436 53.5507 151.223 51.0271 151.228 48.2329H151.223Z" fill="#15161A"/>
<path d="M86.9514 48.171C86.885 57.9943 79.2273 64.9161 70.088 64.8702C61.0152 64.8242 53.4035 57.9381 53.3984 48.1659C53.3984 38.3783 60.9642 31.436 70.2311 31.4616C79.4469 31.4871 86.8901 38.4345 86.9514 48.171ZM60.7751 47.8696C60.7751 49.8925 61.1276 51.5578 61.9246 53.1159C65.0408 59.2101 73.1327 60.0479 77.3831 54.7148C80.0344 51.3841 80.2949 46.2094 77.9961 42.465C74.885 37.4026 67.8811 36.5648 63.687 40.769C61.6538 42.8021 60.8058 45.3205 60.7751 47.8696Z" fill="#15161A"/>
<path d="M123.049 48.1554C123.054 57.5752 115.749 64.8648 106.303 64.8648C96.8985 64.8648 89.5524 57.5599 89.5371 48.1912C89.5217 38.7765 96.873 31.4562 106.329 31.4664C115.78 31.4818 123.044 38.7305 123.049 48.1554ZM115.708 47.9306C115.688 47.6395 115.667 47.1337 115.606 46.6331C115.013 41.6882 110.957 37.7037 105.568 38.1022C103.254 38.2708 101.282 39.226 99.6776 40.9016C97.9968 42.6537 97.1233 44.7737 96.9445 47.1797C96.6942 50.5206 97.6086 53.4477 100.081 55.8026C103.555 59.1128 109.179 59.0822 112.618 55.7311C114.753 53.652 115.698 51.0876 115.713 47.9306H115.708Z" fill="#15161A"/>
<path d="M180.771 53.254C181.905 55.4301 183.447 57.1006 185.797 57.7953C189.818 58.9855 193.894 57.9741 196.704 54.0969C197.067 53.5962 196.965 53.5911 197.522 53.9589C199.12 55.0215 200.714 56.084 202.313 57.1517C202.446 57.2385 202.569 57.3356 202.737 57.453C202.579 57.6829 202.451 57.8924 202.298 58.0865C199.529 61.7032 195.943 64.0122 191.401 64.6763C182.109 66.03 173.894 60.14 172.459 50.9859C171.769 46.5978 172.469 42.4192 174.875 38.639C177.44 34.6085 181.138 32.2127 185.884 31.6099C192.316 30.7926 197.143 33.4081 200.633 38.7412C201.644 40.2941 202.278 42.0207 202.962 43.7269C203.095 44.0539 202.85 44.0845 202.666 44.1611C200.204 45.1828 197.741 46.1994 195.279 47.2159C190.574 49.1622 185.874 51.1085 181.174 53.0548C181.052 53.1058 180.939 53.1671 180.765 53.2489L180.771 53.254ZM179.539 47.6144C179.759 47.5326 179.892 47.4816 180.025 47.4305C183.422 46.0206 186.819 44.6107 190.211 43.2059C191.493 42.6746 192.765 42.1331 194.053 41.6172C194.354 41.4946 194.421 41.3464 194.237 41.0859C193.976 40.7181 193.751 40.3145 193.44 39.9927C192.101 38.5879 190.39 38.026 188.505 37.9596C184.719 37.8268 180.96 40.713 179.912 44.5034C179.642 45.4944 179.504 46.5059 179.529 47.6195L179.539 47.6144Z" fill="#15161A"/>
<path d="M161.992 39.3689C161.992 31.4204 161.992 23.4667 161.992 15.5181C161.992 15.1128 162.196 14.9102 162.605 14.9102C164.633 14.9102 166.656 14.9204 168.684 14.9C169.098 14.9 169.2 15.0328 169.2 15.4261C169.19 31.3948 169.19 47.3635 169.2 63.3322C169.2 63.7409 169.077 63.8481 168.674 63.8481C166.62 63.8277 164.566 63.8379 162.518 63.8379C161.997 63.8379 161.992 63.8379 161.992 63.3015C161.992 55.3223 161.992 47.3482 161.992 39.3689Z" fill="#15161A"/>
</svg>
