<svg width="311" height="91" viewBox="0 0 311 91" fill="none" xmlns="http://www.w3.org/2000/svg">
<path d="M114.952 40.5984V43.8947H104.911V41.3947L104.798 41.366C104.733 41.5238 104.662 41.678 104.605 41.8359C104.409 42.3918 104.217 42.9478 104.025 43.5037C103.858 43.9844 103.907 43.9234 103.402 43.9234C100.457 43.9234 97.5129 43.9234 94.5684 43.9234C91.7343 43.9234 88.9003 43.9234 86.0697 43.9234C85.9024 43.9234 85.7386 43.9234 85.5499 43.9234C85.2473 43.0733 84.9482 42.2484 84.6527 41.4234C84.6206 41.4234 84.5886 41.427 84.5601 41.4306V43.8911H74.4805V40.602H93.6285C93.9667 41.5561 94.3085 42.5281 94.6824 43.5826C94.7643 43.4284 94.8141 43.3567 94.8426 43.2742C95.1274 42.4815 95.4194 41.6924 95.6864 40.8925C95.7683 40.6522 95.8822 40.5733 96.135 40.5769C102.305 40.5841 108.472 40.5805 114.642 40.5805C114.724 40.5805 114.809 40.5877 114.948 40.5984H114.952Z" fill="#15161A"/>
<path d="M64.5826 30.8745H27.0557V27.5926C27.2515 27.5818 27.4509 27.5567 27.6538 27.5567C38.8336 27.5567 50.0133 27.5567 61.193 27.5567C61.8624 27.5567 62.5317 27.5603 63.2011 27.5567C63.3969 27.5567 63.5607 27.5782 63.6319 27.797C63.9381 28.744 64.2514 29.6873 64.5576 30.6342C64.579 30.6988 64.5719 30.7705 64.5826 30.8745Z" fill="#15161A"/>
<path d="M27.0521 63.4895V60.1717H64.522C64.49 60.369 64.4829 60.534 64.433 60.6882C64.1624 61.5132 63.8811 62.3346 63.607 63.1595C63.5251 63.407 63.3649 63.5218 63.0979 63.4895C63.016 63.4788 62.9305 63.4895 62.8451 63.4895C51.117 63.4895 39.389 63.4895 27.6609 63.4895H27.0521Z" fill="#15161A"/>
<path d="M27.0628 21.0036H27.5007C35.0915 21.0036 42.6859 20.9964 50.2803 21.0108C52.1068 21.0108 53.9262 21.122 55.7135 21.5847C57.5472 22.0617 59.1387 22.9871 60.6091 24.16C60.6732 24.2102 60.7302 24.2748 60.8334 24.3752H27.0628V21.0036Z" fill="#15161A"/>
<path d="M60.8156 66.6818C60.132 67.2736 59.4413 67.765 58.7114 68.1954C56.8315 69.3074 54.7771 69.8131 52.616 69.9207C51.765 69.9637 50.9176 69.9924 50.0667 69.9924C42.5862 69.9996 35.1093 69.9924 27.6289 69.9924C27.4509 69.9924 27.2729 69.9924 27.0663 69.9924V66.6782H60.8192L60.8156 66.6818Z" fill="#15161A"/>
<path d="M33.8418 43.927V40.6092H62.8415C62.667 40.8423 62.5317 41.0504 62.3751 41.2369C61.7663 41.9506 61.1467 42.6537 60.5343 43.3639C60.189 43.7656 59.7867 43.9413 59.2241 43.9377C50.9176 43.9162 42.6112 43.9234 34.3083 43.9234H33.8418V43.927Z" fill="#15161A"/>
<path d="M62.7881 50.4012H33.8418V47.1121C33.9914 47.1049 34.1267 47.0942 34.262 47.0942C42.6539 47.0942 51.0458 47.0942 59.4377 47.0906C59.7689 47.0906 60.0466 47.1659 60.2638 47.4134C61.0933 48.3639 61.9158 49.3144 62.7383 50.2685C62.7632 50.2972 62.7667 50.3438 62.7881 50.4012Z" fill="#15161A"/>
<path d="M0 21.0215H23.5914V24.3752H0V21.0215Z" fill="#15161A"/>
<path d="M0.00718019 60.1574H23.5914V63.4572H0.00718019V60.1574Z" fill="#15161A"/>
<path d="M0 30.8674V27.65C0.309757 27.5388 22.8686 27.4993 23.5878 27.6105V30.8674H0Z" fill="#15161A"/>
<path d="M23.5987 66.6746V69.9602H0.0215406V66.6746H23.6022H23.5987Z" fill="#15161A"/>
<path d="M90.2034 30.8853H67.7122V27.5567H68.2355C75.0039 27.5567 81.7723 27.5567 88.5371 27.5567C89.0177 27.5567 89.0213 27.5567 89.1851 28.0158C89.5162 28.952 89.8473 29.8882 90.1998 30.8853H90.2034Z" fill="#15161A"/>
<path d="M121.727 27.5567V30.8781H99.2433C99.3679 30.4979 99.4783 30.1428 99.5993 29.7877C99.8236 29.1529 100.059 28.5216 100.283 27.8867C100.361 27.6643 100.482 27.5316 100.739 27.5531C100.945 27.5711 101.159 27.5531 101.365 27.5531C107.941 27.5531 114.518 27.5531 121.094 27.5531C121.289 27.5531 121.482 27.5531 121.724 27.5531L121.727 27.5567Z" fill="#15161A"/>
<path d="M87.8891 24.3824H67.7122V21.0323C67.8047 21.0215 67.8973 21.0072 67.9899 21.0072C74.0996 21.0072 80.2128 21.0072 86.3225 21C86.6038 21 86.7498 21.0789 86.8423 21.3479C87.1663 22.3056 87.5081 23.2525 87.8428 24.2066C87.8606 24.2568 87.8677 24.3071 87.8855 24.3824H87.8891Z" fill="#15161A"/>
<path d="M101.526 24.3788C101.924 23.2418 102.316 22.137 102.708 21.0215H121.72V24.3788H101.522H101.526Z" fill="#15161A"/>
<path d="M74.4698 37.3954V34.0955C74.6016 34.0847 74.7333 34.0668 74.8651 34.0668C80.2235 34.0668 85.5819 34.0668 90.9404 34.0668C91.1647 34.0668 91.3356 34.0704 91.4246 34.3394C91.7415 35.2827 92.0797 36.2189 92.4073 37.1586C92.4286 37.2232 92.4286 37.2914 92.4429 37.3954H74.4698Z" fill="#15161A"/>
<path d="M114.952 34.0668V37.3918H96.9717C97.0109 37.2483 97.0358 37.13 97.075 37.0152C97.3598 36.1938 97.6518 35.3724 97.9402 34.5546C98.0541 34.2318 98.2772 34.0704 98.6095 34.0704C103.733 34.0704 108.856 34.0704 113.98 34.0704C114.297 34.0704 114.614 34.0704 114.955 34.0704L114.952 34.0668Z" fill="#15161A"/>
<path d="M67.7122 66.6639H84.5067V69.9602H67.7122V66.6639Z" fill="#15161A"/>
<path d="M67.7015 63.4465V60.1789H84.5103V63.4465H67.7015Z" fill="#15161A"/>
<path d="M121.717 69.9745H104.922V66.671H121.717V69.9745Z" fill="#15161A"/>
<path d="M104.926 60.1574H121.72V63.4465H104.926V60.1574Z" fill="#15161A"/>
<path d="M86.675 47.1157H102.786C102.401 48.2383 102.031 49.318 101.65 50.4299C101.465 50.4299 101.301 50.4299 101.134 50.4299C96.8222 50.4299 92.5105 50.4299 88.1989 50.4371C87.9069 50.4371 87.7467 50.3617 87.6506 50.0676C87.355 49.1602 87.0346 48.2635 86.7284 47.3596C86.707 47.295 86.6999 47.2269 86.6786 47.1157H86.675Z" fill="#15161A"/>
<path d="M54.1505 53.6258C54.3463 53.615 54.4959 53.6007 54.649 53.6007C57.7608 53.6007 60.869 53.6007 63.9808 53.5935C64.2479 53.5935 64.4473 53.6222 64.4971 53.9306C64.6466 54.8166 64.8033 55.6989 64.9493 56.5849C64.9671 56.6925 64.9422 56.8073 64.935 56.9472H54.1505V53.6258Z" fill="#15161A"/>
<path d="M100.543 53.6258C100.173 54.6875 99.8236 55.7205 99.4498 56.7427C99.4142 56.8431 99.2611 56.9221 99.1436 56.9615C99.0297 57.001 98.8944 56.9794 98.7698 56.9794C96.0353 56.9794 93.3009 56.9794 90.563 56.9794C90.2164 56.9794 89.9886 56.8192 89.8794 56.4988C89.5803 55.638 89.2848 54.7771 88.9893 53.9127C88.9643 53.8338 88.9501 53.7549 88.9181 53.6258H100.543Z" fill="#15161A"/>
<path d="M54.1469 37.4312V34.0955H64.8638C64.8638 34.3394 64.8923 34.5761 64.8567 34.8057C64.7463 35.5266 64.6253 36.2476 64.4829 36.9614C64.3903 37.4241 64.3689 37.4241 63.9025 37.4241C61.5989 37.4241 59.2989 37.4241 56.9953 37.4241C56.2156 37.4241 55.4323 37.4241 54.6525 37.4277C54.4994 37.4277 54.3499 37.4277 54.1469 37.4277V37.4312Z" fill="#15161A"/>
<path d="M33.8383 56.94V53.6329H43.8965V56.94H33.8383Z" fill="#15161A"/>
<path d="M16.8408 56.9472H6.77549V53.6293H16.8408V56.9472Z" fill="#15161A"/>
<path d="M84.5138 56.9507H74.4627V53.6975C74.7903 53.5791 84.0225 53.5504 84.5138 53.6688V56.9507Z" fill="#15161A"/>
<path d="M114.959 56.9507H104.915V53.6329H114.959V56.9507Z" fill="#15161A"/>
<path d="M43.8929 37.4026H33.8525V34.0955H43.8929V37.4026Z" fill="#15161A"/>
<path d="M16.8444 34.0919V37.3882H6.78617V34.0919H16.8444Z" fill="#15161A"/>
<path d="M74.4877 47.13H84.5281V50.394H74.4877V47.13Z" fill="#15161A"/>
<path d="M6.76837 50.3976V47.13H16.8444V50.3976H6.76837Z" fill="#15161A"/>
<path d="M6.77905 43.8947V40.6092H16.8266V43.8947H6.77905Z" fill="#15161A"/>
<path d="M104.915 50.394V47.13H114.945V50.394H104.915Z" fill="#15161A"/>
<path d="M98.2784 60.1645C97.8832 61.3016 97.5094 62.3848 97.1248 63.4859C96.7154 63.4859 96.338 63.4859 95.9641 63.4859C94.8604 63.4859 93.7602 63.4859 92.6565 63.4895C92.4642 63.4895 92.3005 63.4788 92.2257 63.26C91.891 62.2772 91.5528 61.2944 91.2216 60.3152C91.2074 60.2793 91.2216 60.2327 91.2216 60.1645H98.282H98.2784Z" fill="#15161A"/>
<path d="M133.997 66.0182C134.089 68.0699 132.284 70.0319 130.048 69.9996C127.898 69.9709 126.153 68.1883 126.16 65.9788C126.167 63.8374 127.93 62.0727 130.066 62.0691C132.441 62.0691 134.075 64.0706 133.997 66.0182ZM130.094 62.5605C128.464 62.4924 126.762 63.7621 126.737 65.9608C126.708 68.2636 128.403 69.5226 130.08 69.5226C131.996 69.5226 133.43 68.0233 133.434 66.0182C133.434 64.0383 132.013 62.5605 130.094 62.5605Z" fill="#15161A"/>
<path d="M93.4683 66.671H95.9677C95.9784 66.7033 95.9997 66.732 95.9962 66.7535C95.6544 67.7471 95.3161 68.7406 94.9637 69.727C94.9281 69.8274 94.8212 69.9028 94.7465 69.9888C94.6575 69.8992 94.5293 69.8274 94.4901 69.7198C94.1483 68.7729 93.8243 67.8188 93.4968 66.8647C93.479 66.8145 93.479 66.7571 93.4683 66.671Z" fill="#15161A"/>
<path d="M130.725 66.2191C131.163 66.9042 131.568 67.5355 131.981 68.1811C131.593 68.2959 131.369 68.1883 131.191 67.8619C130.938 67.3956 130.628 66.958 130.369 66.4917C130.244 66.2693 130.098 66.1581 129.838 66.1868C129.621 66.2083 129.4 66.1904 129.14 66.1904V68.1847H128.674V63.8769C128.788 63.8626 128.88 63.841 128.973 63.841C129.532 63.841 130.087 63.8339 130.646 63.841C130.842 63.841 131.038 63.859 131.227 63.902C131.832 64.0347 132.081 64.354 132.078 64.9673C132.078 65.5878 131.789 65.9716 131.234 66.1079C131.088 66.1438 130.938 66.1725 130.725 66.2155V66.2191ZM129.169 64.1746V65.8281C129.785 65.7994 130.365 65.7851 130.942 65.7349C131.202 65.7134 131.401 65.5555 131.504 65.2901C131.721 64.7306 131.398 64.2177 130.76 64.1782C130.247 64.1459 129.731 64.171 129.172 64.171L129.169 64.1746Z" fill="#15161A"/>
</svg>
