<svg width="311" height="91" viewBox="0 0 311 91" fill="none" xmlns="http://www.w3.org/2000/svg">
<path d="M68.6733 60.6189V19H62.9606V60.6189H68.6733Z" fill="#15161A"/>
<path d="M81.1824 60.6189V19H75.4697V60.6189H81.1824Z" fill="#15161A"/>
<path d="M50.4646 60.6189H56.1639V30.8901H50.4579V60.6122L50.4646 60.6189Z" fill="#15161A"/>
<path d="M32.5036 51.2857L25.7474 30.8968H19.553L12.8436 51.2857L6.14753 30.8901L0 30.9036L9.78655 60.6189H15.9341L22.6636 40.1492L29.3931 60.6189H35.5339L45.3071 30.8901H39.2064L32.5036 51.2857Z" fill="#15161A"/>
<path d="M148.19 51.2857L141.44 30.8968H135.239L128.536 51.2857L121.834 30.8901L115.693 30.9036L125.473 60.6189H131.627L138.356 40.1492L145.086 60.6189H151.227L161 30.8901H154.899L148.19 51.2857Z" fill="#15161A"/>
<path d="M86.1593 45.7144C86.1593 43.4332 86.5339 41.3338 87.2764 39.416C88.0189 37.505 89.0959 35.8765 90.5074 34.5442C93.0694 32.1083 96.4743 30.8971 100.722 30.8971C104.97 30.8971 108.375 32.115 110.877 34.5442C113.773 37.2964 115.218 41.0175 115.218 45.7144C115.218 48.0157 114.843 50.1353 114.101 52.0665C113.358 53.9978 112.281 55.6329 110.87 56.972C108.368 59.4079 104.983 60.6191 100.715 60.6191C96.4475 60.6191 93.0025 59.4012 90.5007 56.972C89.0892 55.6329 88.0122 53.9978 87.2697 52.0665C86.5272 50.1353 86.1526 48.0157 86.1526 45.7144H86.1593ZM92.2934 45.7144C92.2934 48.8501 93.0828 51.286 94.6682 53.0153C96.2535 54.7581 98.267 55.6329 100.715 55.6329C103.164 55.6329 105.117 54.7783 106.702 53.0692C108.288 51.3802 109.077 48.9308 109.077 45.7144C109.077 42.4979 108.288 40.062 106.702 38.3865C105.117 36.7311 103.124 35.9102 100.715 35.9102C98.3072 35.9102 96.1866 36.785 94.6414 38.5278C93.0761 40.2908 92.2934 42.6863 92.2934 45.7144Z" fill="#15161A"/>
</svg>
