<svg width="311" height="91" viewBox="0 0 311 91" fill="none" xmlns="http://www.w3.org/2000/svg">
<path d="M82.5637 18.6655H81.4711V72.2723H82.5637V18.6655Z" fill="#15161A"/>
<path d="M98.4478 30.1104H96.3999V43.5964H98.4478V30.1104Z" fill="#15161A"/>
<path d="M110.592 43.5963L104.361 34.1124V43.5963H102.313V30.1165H104.186L110.417 39.5817V30.1165H112.465V43.5963H110.592Z" fill="#15161A"/>
<path d="M120.888 31.9521V43.5963H118.847V31.9521H115.132V30.1165H124.603V31.9521H120.888Z" fill="#15161A"/>
<path d="M127.274 43.5963V30.1165H135.89V31.9521H129.315V35.8918H134.922V37.7087H129.315V41.7607H135.89V43.5963H127.274Z" fill="#15161A"/>
<path d="M144.107 31.9521H141.079V36.179H144.107C145.468 36.179 146.398 35.4048 146.398 34.0749C146.398 32.7451 145.474 31.9521 144.107 31.9521ZM146.473 43.6025L143.632 37.9209H141.079V43.6025H139.031V30.1165H144.257C146.81 30.1165 148.446 31.7648 148.446 34.0562C148.446 35.9854 147.272 37.2217 145.755 37.6337L148.864 43.5963H146.479L146.473 43.6025Z" fill="#15161A"/>
<path d="M160.052 43.5963L153.821 34.1124V43.5963H151.779V30.1165H153.652L159.883 39.5817V30.1165H161.931V43.5963H160.052Z" fill="#15161A"/>
<path d="M169.998 33.1635L167.894 39.151H172.046L169.998 33.1635ZM173.538 43.5964L172.614 40.8867H167.289L166.358 43.5964H164.179L169.118 30.1104H170.766L175.711 43.5964H173.532H173.538Z" fill="#15161A"/>
<path d="M181.398 31.9521V43.5963H179.35V31.9521H175.642V30.1165H185.107V31.9521H181.398Z" fill="#15161A"/>
<path d="M189.827 30.1104H187.779V43.5964H189.827V30.1104Z" fill="#15161A"/>
<path d="M200.053 32.6698C199.579 32.1578 198.836 31.8394 198.043 31.8394C197.25 31.8394 196.507 32.1578 196.033 32.6698C195.371 33.3878 195.24 34.1495 195.24 36.853C195.24 39.5564 195.371 40.3181 196.033 41.0424C196.507 41.5543 197.244 41.8727 198.043 41.8727C198.842 41.8727 199.573 41.5543 200.053 41.0424C200.715 40.3243 200.846 39.5626 200.846 36.853C200.846 34.1433 200.715 33.3878 200.053 32.6698ZM201.608 42.2723C200.678 43.1964 199.485 43.7083 198.049 43.7083C196.613 43.7083 195.433 43.1964 194.509 42.2723C193.186 40.9425 193.204 39.4503 193.204 36.853C193.204 34.2557 193.186 32.7635 194.509 31.4336C195.439 30.5096 196.613 29.9976 198.049 29.9976C199.485 29.9976 200.684 30.5096 201.608 31.4336C202.932 32.7635 202.894 34.2557 202.894 36.853C202.894 39.4503 202.932 40.9425 201.608 42.2723Z" fill="#15161A"/>
<path d="M214.539 43.5963L208.308 34.1124V43.5963H206.266V30.1165H208.139L214.37 39.5817V30.1165H216.418V43.5963H214.539Z" fill="#15161A"/>
<path d="M224.486 33.1635L222.382 39.151H226.528L224.48 33.1635H224.486ZM228.033 43.5964L227.102 40.8867H221.783L220.853 43.5964H218.674L223.612 30.1104H225.26L230.205 43.5964H228.026H228.033Z" fill="#15161A"/>
<path d="M232.459 43.5963V30.1165H234.501V41.7607H241V43.5963H232.459Z" fill="#15161A"/>
<path d="M100.283 60.9155C98.8849 60.9155 97.6674 60.4035 96.7434 59.4732C95.4198 58.1496 95.4385 56.6512 95.4385 54.0539C95.4385 51.4566 95.4198 49.9644 96.7434 48.6345C97.6674 47.7105 98.8849 47.1985 100.283 47.1985C102.762 47.1985 104.623 48.6595 105.091 51.3504H103.012C102.687 49.9831 101.782 49.0341 100.283 49.0341C99.4843 49.0341 98.7663 49.34 98.2918 49.852C97.63 50.57 97.4801 51.3504 97.4801 54.0539C97.4801 56.7573 97.63 57.5378 98.2918 58.262C98.7663 58.774 99.4843 59.0737 100.283 59.0737C101.776 59.0737 102.706 58.1247 103.031 56.7636H105.097C104.641 59.4545 102.731 60.9093 100.29 60.9093" fill="#15161A"/>
<path d="M115.681 60.7965V54.9089H110.211V60.7965H108.163V47.3105H110.211V53.0733H115.681V47.3105H117.728V60.7965H115.681Z" fill="#15161A"/>
<path d="M125.794 50.3636L123.689 56.3511H127.835L125.787 50.3636H125.794ZM129.334 60.7965L128.403 58.0868H123.078L122.147 60.7965H119.975L124.913 47.3105H126.562L131.506 60.7965H129.327H129.334Z" fill="#15161A"/>
<path d="M142.045 60.7965L135.814 51.3064V60.7965H133.766V47.3105H135.639L141.87 56.7819V47.3105H143.918V60.7965H142.045Z" fill="#15161A"/>
<path d="M156.056 60.7965L149.825 51.3064V60.7965H147.784V47.3105H149.657L155.888 56.7819V47.3105H157.936V60.7965H156.056Z" fill="#15161A"/>
<path d="M161.794 60.7965V47.3105H170.416V49.1524H163.842V53.092H169.449V54.9089H163.842V58.9609H170.416V60.7965H161.794Z" fill="#15161A"/>
<path d="M173.557 60.7965V47.3105H175.605V58.9609H182.098V60.7965H173.557Z" fill="#15161A"/>
<path d="M187.592 60.9156C185.569 60.9156 184.108 60.4411 182.822 59.1362L184.189 57.7938C185.175 58.7803 186.249 59.08 187.635 59.08C189.396 59.08 190.42 58.3245 190.42 57.0134C190.42 56.4265 190.251 55.9333 189.889 55.6148C189.546 55.2964 189.209 55.1591 188.409 55.0467L186.817 54.8219C185.725 54.6721 184.851 54.2912 184.264 53.7418C183.602 53.1174 183.277 52.2683 183.277 51.1695C183.277 48.8157 184.982 47.2111 187.785 47.2111C189.565 47.2111 190.813 47.6669 191.968 48.747L190.657 50.0394C189.827 49.2465 188.859 48.9967 187.723 48.9967C186.131 48.9967 185.263 49.902 185.263 51.1008C185.263 51.594 185.413 52.0311 185.775 52.3495C186.112 52.6554 186.661 52.8802 187.292 52.9738L188.828 53.1986C190.076 53.3859 190.782 53.6918 191.344 54.2038C192.081 54.8469 192.443 55.8146 192.443 56.9697C192.443 59.4484 190.414 60.9281 187.592 60.9281" fill="#15161A"/>
<path d="M18.8991 38.3509H8.49117V42.5153H16.8138V50.6818L8.64725 50.6007V60.7651H0V30.1844H18.256L18.8991 38.3509Z" fill="#15161A"/>
<path d="M53.1638 30.1847L56.8412 36.5905L60.4874 30.1597H69.8152L61.4864 44.8507L70.5395 60.7903H60.9307L56.6914 53.0859L52.4458 60.7903H42.9994L52.2086 44.8507L43.5551 30.1847H53.1638Z" fill="#15161A"/>
<path d="M35.5688 52.0434C35.5688 53.0985 34.5948 53.9664 33.396 53.9664H32.9403C31.7415 53.9664 30.7613 53.1048 30.7613 52.0434V38.907C30.7613 37.8456 31.7415 36.984 32.9403 36.984H33.396C34.601 36.984 35.5688 37.8456 35.5688 38.907V52.0434ZM33.165 30.6656C24.986 30.6656 18.3492 37.3025 18.3492 45.4815C18.3492 53.6604 24.9798 60.291 33.165 60.291C41.3503 60.291 47.9746 53.6604 47.9746 45.4815C47.9746 37.3025 41.3378 30.6656 33.165 30.6656Z" fill="#15161A"/>
</svg>
