<svg width="311" height="91" viewBox="0 0 311 91" fill="none" xmlns="http://www.w3.org/2000/svg">
<path d="M9.64025 36.4458C7.2299 30.4537 7.17016 24.5058 9.69219 18.5916C11.4168 14.5527 14.1674 11.3398 17.783 8.8567C18.9544 8.05411 20.2115 7.41257 21.5024 6.83595C22.7933 6.25934 24.1413 5.83078 25.5283 5.53727C26.9101 5.24377 28.3101 5.06715 29.723 5.01261C31.1594 4.95806 32.5853 5.08533 34.0035 5.30091C35.4034 5.5139 36.7671 5.88013 38.0969 6.36323C39.4268 6.84634 40.7047 7.44374 41.9176 8.17879C43.128 8.91384 44.2552 9.75538 45.3435 10.6593C46.4344 11.5631 47.2967 12.6748 48.2526 13.7345C48.4266 13.6125 48.5539 13.5449 48.6526 13.4462C49.9149 12.1969 51.3227 11.1398 52.8551 10.2489C54.8862 9.06968 57.0602 8.25671 59.3797 7.88269C60.4628 7.70867 61.5614 7.63075 62.6549 7.51386C62.8186 7.49568 62.9874 7.50088 63.1536 7.50867C65.7847 7.63594 68.3509 8.0723 70.7925 9.11384C72.6392 9.90084 74.3404 10.9268 75.8911 12.2021C77.5716 13.5839 79.0001 15.1917 80.1819 17.0202C80.4053 17.3656 80.6442 17.7007 80.904 18.0851C81.2053 17.9708 81.4754 17.8773 81.7403 17.7682C83.652 16.9786 85.6415 16.4825 87.6883 16.2098C89.0908 16.0228 90.4986 15.9163 91.909 15.9916C93.9037 16.0981 95.8725 16.389 97.7946 16.9553C99.2725 17.389 100.714 17.9241 102.085 18.6254C103.997 19.6046 105.75 20.8123 107.381 22.2175C108.584 23.2565 109.657 24.4071 110.623 25.6512C111.322 26.5499 111.935 27.5213 112.532 28.4927C113.503 30.0745 114.228 31.7758 114.781 33.5472C115.259 35.077 115.623 36.6329 115.776 38.2302C115.859 39.0977 115.945 39.9627 115.994 40.8328C116.018 41.2432 115.963 41.6613 115.942 42.0743C115.929 42.3029 115.901 42.5289 115.898 42.7574C115.88 43.986 115.688 45.1963 115.449 46.3963C115.124 48.0327 114.628 49.6196 113.979 51.1495C113.28 52.7962 112.41 54.3572 111.381 55.8273C110.329 57.3338 109.111 58.6896 107.768 59.9363C106.379 61.2272 104.857 62.3467 103.2 63.2714C101.083 64.448 98.8543 65.3492 96.4803 65.8713C94.7946 66.2427 93.096 66.4843 91.3609 66.4895C89.7999 66.4947 88.2519 66.409 86.7117 66.1414C86.4935 66.1025 86.2623 66.1362 86 66.1362C83.5637 70.2323 80.1092 73.0894 75.5586 74.5153C71.0314 75.9335 66.5821 75.5699 62.2991 73.6296C61.9874 73.7569 61.9303 74.0218 61.8264 74.24C61.19 75.5776 60.4212 76.8322 59.5225 78.0062C57.8628 80.175 55.8524 81.9464 53.4966 83.3385C51.9097 84.2762 50.2266 84.9723 48.4604 85.4632C47.3409 85.7749 46.1981 85.9697 45.0345 86.0892C43.7462 86.2242 42.4553 86.2372 41.1774 86.1411C39.0995 85.9827 37.0813 85.5021 35.1411 84.7022C33.0113 83.8242 31.0399 82.6762 29.31 81.162C27.5023 79.5802 25.962 77.762 24.7802 75.653C24.3205 74.8348 23.9127 73.9984 23.5673 73.1283C23.4998 72.9595 23.3959 72.8063 23.2946 72.6218C17.983 73.5699 13.048 72.6842 8.59091 69.6479C4.93903 67.1596 2.37284 63.7908 1.00922 59.5805C-0.406337 55.2092 -0.341403 50.8248 1.25857 46.5028C2.85335 42.199 5.68966 38.9003 9.64025 36.4406V36.4458ZM65.4731 37.8432C65.3744 37.4666 65.4912 37.1445 65.5796 36.8328C65.9796 35.4303 66.7354 35.0614 67.9613 35.1887C68.1639 35.2095 68.3639 35.2329 68.6159 35.2614C68.8133 34.7498 69.1016 34.2978 69.0886 33.7368C68.9587 33.6719 68.873 33.6121 68.7769 33.5861C68.2315 33.4329 67.6704 33.4069 67.1094 33.4537C65.5406 33.5862 64.403 34.3212 63.8627 35.8459C63.6913 36.3316 63.5692 36.838 63.4237 37.3341C63.3718 37.5082 63.3225 37.6822 63.2809 37.8302C62.7199 38.0614 62.1458 37.7913 61.6004 38.0822C61.5199 38.5601 61.3095 39.0406 61.4264 39.5653C61.9225 39.8068 62.4835 39.4925 62.9666 39.8094C62.9588 39.9237 62.9614 40.025 62.9432 40.1237C62.8549 40.6354 62.7614 41.1445 62.6705 41.6561C62.2497 44.0042 61.842 46.3548 61.3978 48.6976C61.2939 49.243 61.1147 49.7859 60.8861 50.2898C60.4809 51.1807 59.7459 51.5131 58.7901 51.3313C58.5901 51.2923 58.3901 51.2612 58.1745 51.2248C57.9147 51.7365 57.681 52.2092 57.6316 52.7858C57.842 52.8585 58.0109 52.9417 58.1901 52.9728C58.803 53.0845 59.4056 53.1391 60.042 53.0352C61.2446 52.8378 62.0887 52.2196 62.6523 51.1495C63.1043 50.2898 63.3199 49.3573 63.4939 48.4223C63.9432 46.0171 64.3458 43.6016 64.7796 41.1938C64.8679 40.7107 64.9068 40.2094 65.125 39.7419C65.8783 39.5263 66.6653 39.812 67.3899 39.5627C67.6081 39.0666 67.6756 38.5835 67.6678 38.0354C66.9432 37.7939 66.1744 38.0796 65.4705 37.8432H65.4731ZM103.883 43.6145C103.937 43.2172 104.026 42.8925 104.02 42.5704C104.01 41.7782 103.87 41.0068 103.594 40.2588C103.093 38.8926 101.737 37.8692 100.285 37.8095C99.8699 37.7913 99.4543 37.7887 99.0413 37.8095C97.9115 37.8744 96.9557 38.3523 96.1842 39.1601C95.6492 39.7211 95.2959 40.412 95.1011 41.1678C94.7946 42.3496 94.7297 43.5366 94.9921 44.7392C95.3349 46.308 96.1764 47.4768 97.6959 48.0664C98.7348 48.469 99.8283 48.5807 100.94 48.4742C101.187 48.4508 101.436 48.4223 101.68 48.3833C102.314 48.282 102.937 48.1547 103.527 47.7833C103.511 47.2327 103.293 46.7807 103.023 46.3002C102.802 46.36 102.605 46.4119 102.41 46.4664C101.584 46.6976 100.745 46.8431 99.8881 46.7703C98.2985 46.6301 97.405 45.9781 97.0985 44.4249C97.0518 44.1834 96.992 43.9314 97.2466 43.6769C97.4491 43.6691 97.6933 43.6509 97.94 43.6483C99.6413 43.6483 101.345 43.6483 103.046 43.6483C103.291 43.6483 103.537 43.6275 103.883 43.612V43.6145ZM50.0448 43.6016C50.0993 43.4899 50.146 43.4379 50.1512 43.3808C50.2214 42.425 50.2551 41.4665 49.9435 40.5419C49.5123 39.264 48.6863 38.3731 47.3669 37.9575C46.7331 37.7575 46.0916 37.7731 45.4526 37.8095C43.6267 37.9133 42.3072 38.7965 41.5878 40.4873C40.9202 42.0587 40.9047 43.6873 41.3826 45.308C41.8215 46.7963 42.8423 47.7521 44.315 48.1963C45.9565 48.6924 47.5954 48.5885 49.2162 48.0664C49.4058 48.0041 49.5824 47.8976 49.8214 47.7859C49.6681 47.256 49.559 46.7625 49.2422 46.321C49.1019 46.3444 48.9824 46.36 48.8656 46.3859C48.2993 46.5106 47.7383 46.6768 47.1669 46.7496C46.4422 46.8431 45.7176 46.7833 45.0163 46.5314C44.0137 46.1703 43.328 45.2171 43.328 44.1496C43.328 44.0119 43.3799 43.8769 43.4189 43.6951C43.6864 43.6795 43.9306 43.6509 44.1721 43.6509C45.8968 43.6483 47.6214 43.6509 49.3461 43.6483C49.5876 43.6483 49.8292 43.6171 50.0474 43.6016H50.0448ZM32.5567 41.8354C32.484 41.8432 32.4035 41.8639 32.323 41.8613C31.5568 41.838 30.7905 41.8068 30.0243 41.7912C29.3256 41.7756 28.6789 41.973 28.0451 42.2587C26.9646 42.7418 26.3517 43.5782 26.1802 44.7236C25.9672 46.147 26.5854 47.7833 28.3542 48.2275C28.9932 48.3885 29.6607 48.4846 30.3178 48.5002C31.6295 48.5313 32.9152 48.2742 34.1879 47.9651C34.3437 47.9288 34.4866 47.8353 34.6684 47.7547C34.684 47.5184 34.7151 47.295 34.7151 47.0716C34.7177 45.2249 34.7281 43.3782 34.7074 41.5315C34.7022 41.0795 34.6372 40.6198 34.5255 40.1808C34.3203 39.3679 33.884 38.6952 33.123 38.2874C32.5879 38.0017 32.0191 37.8121 31.4009 37.8043C30.923 37.7991 30.4477 37.7991 29.9698 37.7991C29.0633 37.7991 28.2062 38.0276 27.362 38.3315C27.1283 38.4172 26.8971 38.5185 26.7854 38.8172C26.8426 39.264 27.0244 39.6899 27.2971 40.1081C27.4373 40.0821 27.5672 40.0847 27.6737 40.0354C28.4036 39.7107 29.1698 39.5705 29.9568 39.4718C30.5568 39.3964 31.1204 39.4822 31.6658 39.677C32.4061 39.9419 32.8606 40.8795 32.671 41.6665C32.658 41.7211 32.6035 41.7678 32.5567 41.8328V41.8354ZM72.8652 37.8017C72.6755 37.8017 72.5093 37.7913 72.3431 37.8017C70.5665 37.9185 69.2548 38.7757 68.5613 40.4068C67.873 42.0276 67.8419 43.721 68.3795 45.4041C68.7561 46.5833 69.4964 47.4794 70.6262 48.0171C71.9301 48.6378 73.2807 48.6664 74.6236 48.1859C75.6573 47.8171 76.4521 47.1236 76.9378 46.1262C77.7612 44.4379 77.7975 42.6847 77.2755 40.9107C77.0884 40.2717 76.7924 39.6692 76.3118 39.1861C75.356 38.225 74.221 37.7082 72.8677 37.7991L72.8652 37.8017ZM16.931 47.1937C17.2843 47.6093 17.7076 47.8223 18.1518 47.9963C19.2713 48.4352 20.4375 48.6015 21.6348 48.5028C22.3907 48.4404 23.0998 48.1989 23.7101 47.734C24.3777 47.2249 24.6919 46.521 24.7958 45.7054C24.9283 44.6717 24.6192 43.8145 23.7491 43.2146C23.0244 42.7133 22.1985 42.4302 21.3673 42.1574C20.8193 41.9782 20.2582 41.7834 19.7673 41.4873C18.97 41.0094 19.0531 40.012 19.8946 39.6068C20.1284 39.4925 20.4063 39.438 20.6712 39.4198C21.5595 39.3575 22.4011 39.5731 23.2192 39.8977C23.4634 39.9938 23.6972 40.1653 24.0088 40.0588C24.2582 39.6614 24.4244 39.2276 24.4556 38.6822C24.253 38.5601 24.053 38.425 23.8374 38.3159C23.1387 37.9679 22.3803 37.8406 21.6167 37.7419C20.4894 37.5965 19.4323 37.8043 18.4583 38.4172C17.3388 39.1211 16.9103 40.7782 17.4349 42.012C17.7362 42.7185 18.3128 43.1133 18.9648 43.399C19.5518 43.6561 20.1777 43.8249 20.7829 44.0379C21.2141 44.1886 21.653 44.321 22.0634 44.5158C22.7231 44.8275 22.9621 45.3989 22.7257 45.9989C22.5985 46.3236 22.3543 46.5651 22.0374 46.682C21.7309 46.7937 21.3985 46.8846 21.0764 46.895C20.0323 46.9288 19.0739 46.6015 18.1674 46.108C17.9726 46.0015 17.7752 45.8976 17.57 45.7885C17.1414 46.1859 17.0895 46.6898 16.9284 47.1937H16.931ZM51.7226 47.1859C52.1123 47.5963 52.4317 47.7989 52.9486 48.0041C53.9486 48.4015 54.9849 48.5521 56.0576 48.5236C56.8031 48.5028 57.494 48.321 58.1433 47.9677C59.2732 47.3495 59.7537 46.0665 59.5615 44.8275C59.4368 44.0223 58.9745 43.399 58.2472 43.0353C57.5823 42.7029 56.8732 42.4561 56.1823 42.173C55.6291 41.9444 55.0369 41.7756 54.5304 41.4717C53.7901 41.0276 53.8421 40.0588 54.5979 39.6536C54.8447 39.5211 55.1434 39.4432 55.4239 39.425C56.3537 39.3575 57.2368 39.5757 58.0888 39.9419C58.2758 40.0224 58.4654 40.0899 58.6758 40.1705C59.0706 39.7601 59.1433 39.2692 59.2732 38.7393C59.0862 38.6068 58.9225 38.4406 58.7225 38.3627C57.4342 37.8458 56.1174 37.5211 54.7148 37.8146C53.2057 38.1315 52.1564 39.0562 51.9902 40.6432C51.9045 41.4535 52.1174 42.2276 52.772 42.7808C53.0837 43.0457 53.4499 43.2665 53.8265 43.4301C54.3772 43.6665 54.9616 43.8301 55.5278 44.0301C55.9771 44.1886 56.4369 44.3288 56.868 44.5288C57.3018 44.7314 57.6213 45.0847 57.6135 45.5937C57.6057 46.1236 57.2732 46.4664 56.8187 46.695C56.7096 46.7496 56.5875 46.7885 56.468 46.8223C56.0187 46.9496 55.5641 46.9236 55.1096 46.8561C54.2758 46.734 53.507 46.4301 52.7798 46.0145C52.6421 45.9366 52.4915 45.8742 52.3356 45.8015C51.9304 46.1989 51.8655 46.6976 51.7252 47.1859H51.7226ZM93.9012 38.3263C93.6804 38.0458 93.3817 38.0146 93.1038 37.9471C92.0986 37.7108 91.0778 37.7627 90.0649 37.8354C89.3038 37.89 88.6155 38.2458 88.0285 38.7081C87.5974 39.0484 87.1818 39.4718 86.9117 39.9445C85.8935 41.7289 85.813 43.6223 86.5039 45.5366C86.9714 46.8353 87.8649 47.7625 89.2077 48.1885C90.748 48.6768 92.2804 48.5547 93.7973 48.0638C93.8856 48.0353 93.9505 47.9417 94.0362 47.869C93.9219 47.3651 93.8128 46.8872 93.5142 46.4561C93.3973 46.4639 93.296 46.4561 93.1973 46.4768C92.8103 46.5548 92.4285 46.6457 92.0414 46.7184C91.257 46.8664 90.5038 46.721 89.7999 46.3807C89.1792 46.082 88.7272 45.5963 88.5038 44.934C88.2545 44.199 88.1402 43.4379 88.2207 42.6613C88.2961 41.9107 88.4831 41.1964 88.935 40.5627C89.3921 39.9185 90.0103 39.586 90.7739 39.5419C91.4778 39.5003 92.1869 39.4822 92.883 39.6562C93.057 39.7003 93.2414 39.7029 93.431 39.7263C93.6648 39.2432 93.9245 38.8198 93.9089 38.3211L93.9012 38.3263ZM39.0397 48.2171C39.0553 47.8898 39.0761 47.6456 39.0761 47.3989C39.0761 45.2795 39.0761 43.1626 39.0761 41.0432C39.0761 38.8614 39.0761 36.6822 39.0735 34.5004C39.0735 34.2589 39.0345 34.0199 39.0112 33.742C38.3229 33.6693 37.6969 33.6355 37.0242 33.7706C37.0086 34.0563 36.9826 34.3004 36.9826 34.542C36.98 36.3705 36.9826 38.1965 36.9826 40.025C36.9826 42.4769 36.9826 44.9262 36.9852 47.3781C36.9852 47.6405 36.9229 47.9236 37.1645 48.2067C37.7307 48.3158 38.3385 48.282 39.0423 48.2171H39.0397ZM79.5585 38.0043C79.5326 38.3159 79.4962 38.5601 79.4962 38.8016C79.491 40.5678 79.4936 42.334 79.4936 44.0977C79.4936 45.2197 79.491 46.3418 79.4936 47.4638C79.4936 47.708 79.4417 47.9677 79.6469 48.1677C80.2702 48.334 81.0962 48.3106 81.5611 48.095C81.5715 47.8716 81.5897 47.6249 81.5897 47.3781C81.5923 45.9028 81.5897 44.4275 81.5897 42.9548C81.5897 42.7263 81.5845 42.4977 81.6053 42.2691C81.7377 40.773 82.439 39.9523 83.7948 39.7211C84.0156 39.6821 84.2494 39.7029 84.4753 39.7081C84.6364 39.7133 84.7974 39.7393 84.9896 39.7601C85.2961 39.2614 85.4364 38.7341 85.5558 38.2017C85.0987 37.8354 84.6052 37.9471 84.1403 37.9237C83.6805 37.9004 83.2208 37.9237 82.8026 38.1445C82.3923 38.3601 81.9949 38.6017 81.5559 38.8562C81.4962 38.5471 81.4468 38.2926 81.3923 38.012C80.7897 37.8978 80.2235 37.9159 79.5585 38.0043Z" fill="#15161A"/>
<path d="M97.1634 41.9862C97.1244 41.0485 97.7062 40.0122 98.4828 39.6537C99.3841 39.2382 100.285 39.3057 101.062 39.9161C101.688 40.4096 101.976 41.1083 101.872 41.942C101.324 42.142 100.805 42.0303 100.296 42.0485C99.7581 42.0667 99.2205 42.0615 98.6802 42.0485C98.1711 42.0381 97.6543 42.1082 97.1608 41.9836L97.1634 41.9862Z" fill="#15161A"/>
<path d="M48.1301 41.9366C48.0236 41.9781 47.9483 42.0327 47.8729 42.0327C46.4859 42.0405 45.099 42.0457 43.7146 42.0431C43.6185 42.0431 43.5198 41.9937 43.434 41.9703C43.3172 41.2613 43.8081 40.2119 44.4262 39.8119C45.2106 39.3002 46.4002 39.2639 47.0729 39.7652C47.7898 40.2976 48.2054 40.9937 48.1301 41.934V41.9366Z" fill="#15161A"/>
<path d="M32.6159 46.6224C31.5224 46.825 30.5198 47.0561 29.4808 46.7548C28.3328 46.425 27.8653 45.3055 28.4341 44.2536C28.6731 43.812 29.086 43.6146 29.5172 43.4822C30.5328 43.1757 31.5561 43.2718 32.6314 43.5081C32.6626 43.7289 32.7249 43.9471 32.7197 44.1627C32.6938 44.9601 32.821 45.7653 32.6184 46.6198L32.6159 46.6224Z" fill="#15161A"/>
<path d="M70.2498 43.0956C70.1979 42.3398 70.294 41.6099 70.5771 40.9008C71.2758 39.1632 73.6628 38.9658 74.7251 40.3476C75.0316 40.7476 75.2134 41.2099 75.3121 41.706C75.5173 42.7579 75.4939 43.8021 75.2316 44.841C75.1848 45.0202 75.1329 45.2021 75.0575 45.3709C74.6446 46.2826 73.9822 46.8254 72.9329 46.789C72.7459 46.7838 72.5589 46.7942 72.3745 46.7787C71.6654 46.7111 71.1303 46.3813 70.7849 45.7371C70.3407 44.906 70.1849 44.0229 70.2524 43.093L70.2498 43.0956Z" fill="#15161A"/>
</svg>
