<svg width="270" height="100" viewBox="0 0 270 100" fill="none" xmlns="http://www.w3.org/2000/svg">
<path d="M260.462 62.0366C260.462 61.0859 260.786 60.3063 261.432 59.6979C262.117 59.0514 263.048 58.7282 264.227 58.7282C265.596 58.7282 266.68 59.2986 267.479 60.4394C268.315 61.5423 268.733 62.9113 268.733 64.5465C268.733 66.9423 268.011 68.8437 266.566 70.2507C265.159 71.6197 263.2 72.3423 260.691 72.4183V69.7373C262.364 69.6993 263.581 69.2239 264.341 68.3113C265.102 67.3986 265.482 66.3528 265.482 65.1739C265.482 64.8317 265.463 64.5845 265.425 64.4324C264.969 64.8887 264.322 65.1169 263.486 65.1169C262.611 65.1169 261.888 64.8507 261.318 64.3183C260.748 63.7859 260.462 63.0254 260.462 62.0366Z" fill="#15161A"/>
<path d="M248.852 59.0704H254.556V84.8535H261.002V89.2458H254.556V99H249.764V89.2458H228.83V84.9676L248.852 59.0704ZM249.764 84.8535V64.4324L233.964 84.8535H249.764Z" fill="#15161A"/>
<path d="M215.023 81.488C215.137 81.3739 215.251 81.2599 215.366 81.1458C215.518 81.0317 215.651 80.9366 215.765 80.8606C217.058 79.7197 218.123 78.6549 218.959 77.6662C219.834 76.6775 220.518 75.6317 221.013 74.5289C221.545 73.388 221.811 72.1711 221.811 70.8782C221.811 68.3683 221.032 66.4289 219.473 65.0599C217.913 63.6528 215.784 62.9493 213.084 62.9493C210.498 62.9493 208.425 63.7479 206.866 65.3451C205.307 66.9423 204.528 69.1099 204.528 71.8479V72.5894H199.736V71.5627C199.736 69.0528 200.287 66.8282 201.39 64.8887C202.493 62.9493 204.052 61.4282 206.068 60.3253C208.121 59.2225 210.46 58.6711 213.084 58.6711C217.343 58.6711 220.67 59.7549 223.066 61.9225C225.5 64.0901 226.717 66.9993 226.717 70.65C226.717 72.3993 226.394 74.0155 225.747 75.4986C225.101 76.9817 224.245 78.3507 223.18 79.6056C222.116 80.8225 220.766 82.1535 219.13 83.5986L218.104 84.4542L206.125 94.6077H227.002V99H199.508V94.95L215.023 81.488Z" fill="#15161A"/>
<path d="M197.177 80.8035V84.6824H150.574V80.8035H197.177Z" fill="#15161A"/>
<path d="M246.089 0.0704193H251.052V35.4366H269.249V40H246.089V0.0704193Z" fill="#15161A"/>
<path d="M241.337 0.0704193V4.6338H221.486V17.9817H237.914V22.5451H221.486V40H216.523V0.0704193H241.337Z" fill="#15161A"/>
<path d="M203.001 37.319C203.001 36.3683 203.324 35.5887 203.971 34.9803C204.655 34.3338 205.587 34.0106 206.766 34.0106C208.135 34.0106 209.219 34.581 210.017 35.7218C210.854 36.8246 211.272 38.1937 211.272 39.8289C211.272 42.2246 210.55 44.107 209.105 45.4761C207.698 46.8831 205.739 47.6246 203.229 47.7007V45.0197C204.903 44.9817 206.12 44.5063 206.88 43.5937C207.641 42.681 208.021 41.6352 208.021 40.4563C208.021 40.1141 208.002 39.8669 207.964 39.7148C207.508 40.1711 206.861 40.3993 206.024 40.3993C205.15 40.3993 204.427 40.1331 203.857 39.6007C203.286 39.0683 203.001 38.3077 203.001 37.319Z" fill="#15161A"/>
<path d="M179.341 0.0704193H185.216L200.39 40H195.085L190.864 29.219H173.466L169.245 40H164.111L179.341 0.0704193ZM189.381 24.7127L182.136 5.48944L174.949 24.7127H189.381Z" fill="#15161A"/>
<path d="M160.195 0.0704193V40H155.232V0.0704193H160.195Z" fill="#15161A"/>
<path d="M113.78 0.0704193L127.927 33.212L141.902 0.0704193H148.063V40H143.214V8.51267L129.98 40H125.588L112.354 8.51267V40H107.506V0.0704193H113.78Z" fill="#15161A"/>
<g clip-path="url(#clip0_1_21)">
<path d="M30.7004 70.7098C30.5517 70.7098 30.4247 70.6079 30.3903 70.4674C29.1225 65.082 24.6916 62.3647 19.1055 62.3647C9.46748 62.3647 5.38486 70.0511 5.38486 78.2329C5.38486 87.1822 9.46749 94.6509 19.1617 94.6509C26.0882 94.6509 30.2633 89.9593 30.8183 83.6253C30.8328 83.4655 30.9688 83.3408 31.1339 83.3408H35.8658C36.0581 83.3408 36.2086 83.5059 36.1868 83.6903C35.0025 93.3089 28.8486 99.0439 18.7083 99.0439C6.17926 99.0421 0 90.0383 0 78.6175C0 67.1968 6.69072 57.9717 19.1635 57.9717C27.4902 57.9717 34.4384 62.2382 35.7769 70.3497C35.8078 70.5377 35.6554 70.7098 35.4577 70.7098H30.7004Z" fill="#15161A"/>
<path d="M104.841 70.3816C104.679 70.3816 104.547 70.2639 104.525 70.1093C103.81 64.6501 100.045 62.3649 94.5225 62.3649C89.9302 62.3649 85.4522 63.9563 85.4522 69.0642C85.4522 78.7285 111.363 71.9203 111.363 87.3493C111.363 95.6945 102.914 99.0441 95.5436 99.0441C86.5731 99.0441 78.99 94.8022 78.8213 85.5226C78.8177 85.3487 78.9646 85.2064 79.1442 85.2064H83.6095C83.7836 85.2064 83.9215 85.3417 83.9251 85.5103C84.0974 91.8829 89.6854 94.6511 95.7141 94.6511C100.589 94.6511 105.976 93.1686 105.976 87.5127C105.976 76.7506 80.0655 83.8346 80.0655 69.4489C80.0655 61.5429 87.3221 57.9737 94.7492 57.9737C102.922 57.9737 109.215 61.6658 109.647 70.0566C109.656 70.234 109.507 70.3833 109.324 70.3833H104.839L104.841 70.3816Z" fill="#15161A"/>
<path d="M59.9463 81.9148C66.3323 81.0805 69.7076 76.9492 69.7076 70.4906C69.7076 63.187 65.3982 58.9047 57.291 58.9047H39.865C39.6891 58.9047 39.5458 59.0435 39.5458 59.2139V97.7988C39.5458 97.9692 39.6891 98.108 39.865 98.108H44.6115C44.7874 98.108 44.9307 97.9692 44.9307 97.7988V82.3856C44.9307 82.2152 45.074 82.0764 45.2499 82.0764H54.273L64.8251 97.9675C64.8831 98.0553 64.9847 98.1097 65.0935 98.1097H70.3786C70.6325 98.1097 70.7849 97.8357 70.6452 97.6302L59.9463 81.9166V81.9148ZM44.9307 77.6834V63.6069C44.9307 63.4365 45.074 63.2977 45.2499 63.2977H55.4755C61.5985 63.2977 64.3191 65.8236 64.3191 70.4906C64.3191 75.1576 61.5967 77.7379 55.4755 77.6834H44.9307Z" fill="#15161A"/>
<path d="M77.0258 58.9047H72.7473C72.571 58.9047 72.4281 59.0431 72.4281 59.2139V71.678C72.4281 71.8487 72.571 71.9871 72.7473 71.9871H77.0258C77.2021 71.9871 77.345 71.8487 77.345 71.678V59.2139C77.345 59.0431 77.2021 58.9047 77.0258 58.9047Z" fill="#15161A"/>
<path d="M125.575 57.9718C118.393 57.9718 112.367 63.4345 112.367 70.5923C112.367 77.75 118.393 83.3479 125.573 83.3479C132.753 83.3479 138.71 77.8852 138.71 70.5923C138.71 63.2993 132.721 57.9718 125.575 57.9718ZM132.293 77.7939L128.248 71.7463C130.744 71.3317 132.057 69.8616 132.057 67.471C132.057 64.4112 130.2 62.9234 126.38 62.9234H120.143V78.363H123.159V71.9852H125.19L129.358 78.363H131.56C131.643 78.363 131.681 78.4666 131.616 78.5158C129.964 79.7928 127.876 80.5358 125.569 80.5358C119.943 80.5358 115.692 76.264 115.692 70.5975C115.692 64.9311 119.943 60.7822 125.569 60.7822C131.195 60.7822 135.383 65.054 135.383 70.5975C135.383 73.494 134.262 76.0234 132.429 77.808C132.389 77.8466 132.322 77.8396 132.291 77.7939H132.293ZM125.328 69.505H123.159V65.4036H125.994C128.128 65.4036 129.039 65.992 129.039 67.3691C129.039 69.3557 127.57 69.505 125.328 69.505Z" fill="#15161A"/>
</g>
<defs>
<clipPath id="clip0_1_21">
<rect width="138.71" height="41.0704" fill="white" transform="translate(0 57.9717)"/>
</clipPath>
</defs>
</svg>
