<svg width="1426" height="234" viewBox="0 0 1426 234" fill="none" xmlns="http://www.w3.org/2000/svg">
<g clip-path="url(#clip0_1_16)">
<path d="M1356.8 8.31818H1389.04V154.044H1425.47V178.869H1389.04V234H1361.96V178.869H1243.64V154.689L1356.8 8.31818ZM1361.96 154.044V38.624L1272.65 154.044H1361.96Z" fill="#F1F1F1"/>
<path d="M1165.6 135.022C1166.25 134.378 1166.89 133.733 1167.54 133.088C1168.4 132.443 1169.15 131.906 1169.79 131.476C1177.1 125.028 1183.12 119.01 1187.85 113.421C1192.79 107.833 1196.66 101.922 1199.45 95.6893C1202.46 89.2412 1203.97 82.3633 1203.97 75.0555C1203.97 60.8698 1199.56 49.9081 1190.75 42.1704C1181.94 34.2178 1169.9 30.2415 1154.64 30.2415C1140.03 30.2415 1128.31 34.7552 1119.5 43.7824C1110.69 52.8097 1106.28 65.061 1106.28 80.5363V84.7276H1079.2V78.9243C1079.2 64.7386 1082.31 52.1649 1088.55 41.2032C1094.78 30.2415 1103.59 21.6441 1114.99 15.411C1126.59 9.1779 1139.81 6.06134 1154.64 6.06134C1178.71 6.06134 1197.52 12.187 1211.06 24.4383C1224.82 36.6896 1231.69 53.1321 1231.69 73.7659C1231.69 83.6529 1229.87 92.7876 1226.21 101.17C1222.56 109.553 1217.72 117.29 1211.71 124.383C1205.69 131.261 1198.06 138.784 1188.82 146.951L1183.01 151.787L1115.31 209.175H1233.31V234H1077.91V211.109L1165.6 135.022Z" fill="#F1F1F1"/>
<path d="M1064.74 131.154V153.077H801.333V131.154H1064.74Z" fill="#F1F1F1"/>
<mask id="mask0_1_16" style="mask-type:luminance" maskUnits="userSpaceOnUse" x="0" y="0" width="765" height="234">
<path d="M764.79 0H0V233.82H764.79V0Z" fill="white"/>
</mask>
<g mask="url(#mask0_1_16)">
<path d="M169.27 72.52C168.45 72.52 167.75 71.94 167.56 71.14C160.57 40.48 136.14 25.01 105.34 25.01C52.2 25.01 29.69 68.77 29.69 115.35C29.69 166.3 52.2 208.82 105.65 208.82C143.84 208.82 166.86 182.11 169.92 146.05C170 145.14 170.75 144.43 171.66 144.43H197.75C198.81 144.43 199.64 145.37 199.52 146.42C192.99 201.18 159.06 233.83 103.15 233.83C34.07 233.82 0 182.56 0 117.54C0 52.52 36.89 0 105.66 0C151.57 0 189.88 24.29 197.26 70.47C197.43 71.54 196.59 72.52 195.5 72.52H169.27Z" fill="#F1F1F1"/>
<path d="M578.05 70.65C577.16 70.65 576.43 69.98 576.31 69.1C572.37 38.02 551.61 25.01 521.16 25.01C495.84 25.01 471.15 34.07 471.15 63.15C471.15 118.17 614.01 79.41 614.01 167.25C614.01 214.76 567.43 233.83 526.79 233.83C477.33 233.83 435.52 209.68 434.59 156.85C434.57 155.86 435.38 155.05 436.37 155.05H460.99C461.95 155.05 462.71 155.82 462.73 156.78C463.68 193.06 494.49 208.82 527.73 208.82C554.61 208.82 584.31 200.38 584.31 168.18C584.31 106.91 441.45 147.24 441.45 65.34C441.45 20.33 481.46 0.0100098 522.41 0.0100098C567.47 0.0100098 602.17 21.03 604.55 68.8C604.6 69.81 603.78 70.66 602.77 70.66H578.04L578.05 70.65Z" fill="#F1F1F1"/>
<path d="M330.52 136.31C365.73 131.56 384.34 108.04 384.34 71.27C384.34 29.69 360.58 5.31 315.88 5.31H219.8C218.83 5.31 218.04 6.1 218.04 7.07V226.74C218.04 227.71 218.83 228.5 219.8 228.5H245.97C246.94 228.5 247.73 227.71 247.73 226.74V138.99C247.73 138.02 248.52 137.23 249.49 137.23H299.24L357.42 227.7C357.74 228.2 358.3 228.51 358.9 228.51H388.04C389.44 228.51 390.28 226.95 389.51 225.78L330.52 136.32V136.31ZM247.73 112.22V32.08C247.73 31.11 248.52 30.32 249.49 30.32H305.87C339.63 30.32 354.63 44.7 354.63 71.27C354.63 97.84 339.62 112.53 305.87 112.22H247.73Z" fill="#F1F1F1"/>
<path d="M424.69 5.31H401.1C400.128 5.31 399.34 6.09798 399.34 7.07V78.03C399.34 79.002 400.128 79.79 401.1 79.79H424.69C425.662 79.79 426.45 79.002 426.45 78.03V7.07C426.45 6.09798 425.662 5.31 424.69 5.31Z" fill="#F1F1F1"/>
<path d="M692.37 0C652.77 0 619.55 31.1 619.55 71.85C619.55 112.6 652.77 144.47 692.36 144.47C731.95 144.47 764.79 113.37 764.79 71.85C764.79 30.33 731.77 0 692.37 0ZM729.41 112.85L707.11 78.42C720.87 76.06 728.11 67.69 728.11 54.08C728.11 36.66 717.87 28.19 696.81 28.19H662.42V116.09H679.05V79.78H690.25L713.23 116.09H725.37C725.83 116.09 726.04 116.68 725.68 116.96C716.57 124.23 705.06 128.46 692.34 128.46C661.32 128.46 637.88 104.14 637.88 71.88C637.88 39.62 661.32 16 692.34 16C723.36 16 746.45 40.32 746.45 71.88C746.45 88.37 740.27 102.77 730.16 112.93C729.94 113.15 729.57 113.11 729.4 112.85H729.41ZM691.01 65.66H679.05V42.31H694.68C706.45 42.31 711.47 45.66 711.47 53.5C711.47 64.81 703.37 65.66 691.01 65.66Z" fill="#F1F1F1"/>
</g>
</g>
<defs>
<clipPath id="clip0_1_16">
<rect width="1426" height="234" fill="white"/>
</clipPath>
</defs>
</svg>
