<svg width="136" height="25" viewBox="0 0 136 25" fill="none" xmlns="http://www.w3.org/2000/svg">
<g clip-path="url(#clip0_2_2)">
<mask id="mask0_2_2" style="mask-type:luminance" maskUnits="userSpaceOnUse" x="0" y="0" width="136" height="25">
<path d="M136 0.876953H0V24.7366H136V0.876953Z" fill="white"/>
</mask>
<g mask="url(#mask0_2_2)">
<path d="M16.8631 8.282C16.7796 8.282 16.7146 8.22497 16.6961 8.13941C16 5.01199 13.5684 3.43402 10.4965 3.43402C5.19722 3.42452 2.96056 7.89226 2.96056 12.6452C2.96056 17.8449 5.2065 22.1795 10.5336 22.1795C14.3387 22.1795 16.6311 19.4514 16.9374 15.7726C16.9374 15.6775 17.0209 15.611 17.1137 15.611H19.7123C19.8144 15.611 19.8979 15.7061 19.8886 15.8106C19.239 21.4001 15.8608 24.7271 10.2831 24.7271C3.39675 24.7366 0 19.5084 0 12.8733C0 6.23825 3.67517 0.876953 10.5244 0.876953C15.0998 0.876953 18.9142 3.35798 19.6473 8.07287C19.6659 8.17744 19.5824 8.282 19.471 8.282H16.8538H16.8631Z" fill="#F1F1F1"/>
<path d="M42.5986 1.41895H57.6056C57.6984 1.41895 57.7819 1.49499 57.7819 1.59956V3.7954C57.7819 3.89046 57.7077 3.97602 57.6056 3.97602H45.5592C45.4664 3.97602 45.3829 4.05206 45.3829 4.15663V11.0389C45.3829 11.1339 45.4571 11.2195 45.5592 11.2195H56.7611C56.8539 11.2195 56.9374 11.2955 56.9374 11.4001V13.5959C56.9374 13.691 56.8631 13.7765 56.7611 13.7765H45.5592C45.4664 13.7765 45.3829 13.8526 45.3829 13.9571V21.4763C45.3829 21.5713 45.4571 21.6569 45.5592 21.6569H57.6984C57.7912 21.6569 57.8747 21.7329 57.8747 21.8375V24.0333C57.8747 24.1284 57.8005 24.2139 57.6984 24.2139H42.5986C42.5058 24.2139 42.4223 24.1379 42.4223 24.0333V1.59956C42.4223 1.5045 42.4966 1.41895 42.5986 1.41895Z" fill="#F1F1F1"/>
<path d="M73.2251 8.08241C73.1323 8.08241 73.0673 8.01587 73.0487 7.92081C72.659 4.74586 70.5894 3.42455 67.5546 3.42455C65.0302 3.42455 62.5708 4.34662 62.5708 7.31244C62.5708 12.9304 76.8075 8.97596 76.8075 17.94C76.8075 22.7879 72.1671 24.7366 68.1207 24.7366C63.1926 24.7366 59.0255 22.2746 58.9327 16.8848C58.9327 16.7802 59.007 16.7042 59.1091 16.7042H61.5592C61.652 16.7042 61.7262 16.7802 61.7355 16.8848C61.8283 20.5826 64.9003 22.1986 68.2135 22.1986C70.8956 22.1986 73.8469 21.3335 73.8469 18.054C73.8469 11.7992 59.6102 15.9152 59.6102 7.55959C59.6102 2.96827 63.601 0.895996 67.6752 0.895996C72.1671 0.895996 75.6195 3.04432 75.8608 7.9113C75.8608 8.01587 75.7866 8.10142 75.6845 8.10142H73.2251V8.08241Z" fill="#F1F1F1"/>
<path d="M94.9141 8.282C94.8306 8.282 94.7656 8.22496 94.7471 8.13941C94.051 5.01199 91.6195 3.43402 88.5476 3.43402C83.2482 3.43402 81.0116 7.90177 81.0116 12.6547C81.0116 17.8544 83.2575 22.189 88.5847 22.189C92.3898 22.189 94.6821 19.4609 94.9884 15.7821C94.9884 15.687 95.0719 15.6205 95.1647 15.6205H97.7633C97.8654 15.6205 97.9489 15.7156 97.9397 15.8201C97.29 21.4096 93.9118 24.7366 88.3341 24.7366C81.4478 24.7366 78.051 19.5084 78.051 12.8733C78.051 6.23824 81.7262 0.876953 88.5754 0.876953C93.1508 0.876953 96.9652 3.35798 97.6984 8.07287C97.7169 8.17744 97.6334 8.282 97.522 8.282H94.9049H94.9141Z" fill="#F1F1F1"/>
<path d="M100.677 1.41895H103.285C103.378 1.41895 103.462 1.49499 103.462 1.59956V24.0143C103.462 24.1094 103.387 24.1949 103.285 24.1949H100.677C100.585 24.1949 100.501 24.1189 100.501 24.0143V1.59956C100.501 1.5045 100.575 1.41895 100.677 1.41895Z" fill="#F1F1F1"/>
<path d="M126.487 8.08241C126.394 8.08241 126.329 8.01587 126.311 7.92081C125.921 4.74586 123.851 3.42455 120.817 3.42455C118.292 3.42455 115.833 4.34662 115.833 7.31244C115.833 12.9304 130.07 8.97596 130.07 17.94C130.07 22.7879 125.429 24.7366 121.383 24.7366C116.455 24.7366 112.288 22.2746 112.195 16.8848C112.195 16.7802 112.269 16.7042 112.371 16.7042H114.821C114.914 16.7042 114.988 16.7802 114.998 16.8848C115.09 20.5826 118.162 22.1986 121.476 22.1986C124.158 22.1986 127.109 21.3335 127.109 18.054C127.109 11.7992 112.872 15.9152 112.872 7.55959C112.872 2.96827 116.863 0.895996 120.937 0.895996C125.429 0.895996 128.882 3.04432 129.123 7.9113C129.123 8.01587 129.049 8.10142 128.947 8.10142H126.487V8.08241Z" fill="#F1F1F1"/>
<path d="M33.5406 14.7842C37.0487 14.2994 38.9049 11.8944 38.9049 8.14908C38.9049 3.90947 36.5383 1.41895 32.0835 1.41895H22.5058C22.413 1.41895 22.3295 1.49499 22.3295 1.59956V24.0143C22.3295 24.1094 22.4037 24.1949 22.5058 24.1949H25.1137C25.2065 24.1949 25.29 24.1189 25.29 24.0143V15.0598C25.29 14.9648 25.3643 14.8792 25.4664 14.8792H30.4223L36.2227 24.1094C36.2506 24.1569 36.3063 24.1949 36.3712 24.1949H39.2761C39.4153 24.1949 39.4988 24.0333 39.4246 23.9193L33.5499 14.7937L33.5406 14.7842ZM25.29 12.3221V4.14712C25.29 4.05206 25.3643 3.96651 25.4664 3.96651H31.0812C34.4408 3.96651 35.9443 5.43041 35.9443 8.14908C35.9443 10.8677 34.4501 12.3602 31.0812 12.3316H25.29V12.3221Z" fill="#F1F1F1"/>
<path d="M109.513 1.41895H107.165C107.067 1.41895 106.988 1.49981 106.988 1.59956V8.10155C106.988 8.2013 107.067 8.28216 107.165 8.28216H109.513C109.61 8.28216 109.689 8.2013 109.689 8.10155V1.59956C109.689 1.49981 109.61 1.41895 109.513 1.41895Z" fill="#F1F1F1"/>
<path d="M133.485 1.41895C134.849 1.41895 136 2.52162 136 3.97602C136 5.43041 134.858 6.5616 133.485 6.5616C132.111 6.5616 130.961 5.45893 130.961 3.97602C130.961 2.4931 132.111 1.41895 133.485 1.41895ZM133.485 6.17186C134.645 6.17186 135.545 5.22128 135.545 3.96651C135.545 2.71174 134.645 1.78967 133.485 1.78967C132.325 1.78967 131.415 2.74026 131.415 3.96651C131.415 5.19276 132.306 6.17186 133.485 6.17186ZM132.51 2.47409H133.643C134.339 2.47409 134.664 2.75927 134.664 3.32962C134.664 3.87145 134.329 4.09959 133.893 4.14712L134.729 5.46843H134.237L133.439 4.17564H132.956V5.46843H132.501V2.4836L132.51 2.47409ZM132.965 3.80491H133.439C133.838 3.80491 134.209 3.7859 134.209 3.31061C134.209 2.91136 133.875 2.85433 133.568 2.85433H132.965V3.80491Z" fill="#F1F1F1"/>
</g>
</g>
<defs>
<clipPath id="clip0_2_2">
<rect width="136" height="25" fill="white"/>
</clipPath>
</defs>
</svg>
