<svg width="311" height="91" viewBox="0 0 311 91" fill="none" xmlns="http://www.w3.org/2000/svg">
<path d="M35.1868 29.1723C36.3696 26.0889 38.504 24.3381 41.8906 24.2862C45.3292 24.2343 47.3508 26.1351 48.632 29.1636C48.7043 29.005 48.7505 28.9156 48.7881 28.8233C50.2313 25.414 53.4067 24.018 56.5533 24.3352C58.6327 24.5458 60.3708 25.4111 61.6549 27.0927C62.4878 28.18 62.8088 29.4492 62.936 30.776C63.0055 31.5172 63.0257 32.2643 63.0257 33.0084C63.0257 39.2617 63.0141 45.5178 63.0055 51.7711C63.0055 52.6364 62.6526 52.9882 61.785 52.9882C60.2464 52.9882 58.705 52.9882 57.1664 52.9882C56.3017 52.9882 55.9489 52.6364 55.9517 51.7653C55.9604 46.4494 55.9749 41.1365 55.9749 35.8207C55.9749 34.99 55.9662 34.1506 55.8361 33.3344C55.5035 31.2201 53.4183 30.2279 51.4228 31.1971C50.2313 31.7768 49.595 32.7748 49.4331 34.0468C49.3058 35.0505 49.2335 36.0687 49.2306 37.0811C49.2104 41.9845 49.2219 46.8879 49.2219 51.7941C49.2219 52.6392 48.8662 52.9911 48.0159 52.9911C46.4542 52.9911 44.8925 52.9911 43.3337 52.9911C42.5442 52.9911 42.174 52.6335 42.1769 51.846C42.1798 46.7379 42.1885 41.6268 42.1914 36.5187C42.1914 35.3736 42.1914 34.2285 41.8877 33.1094C41.503 31.6961 40.6268 30.9144 39.3542 30.8336C37.7087 30.7298 36.627 31.3413 36.0342 32.7258C35.5686 33.8103 35.4644 34.964 35.45 36.1206C35.4211 38.3127 35.4355 40.5048 35.4326 42.6998C35.4326 45.7457 35.4326 48.7915 35.4326 51.8374C35.4326 52.619 35.0596 52.994 34.2816 52.994C32.6881 52.994 31.0945 52.994 29.501 52.994C28.7549 52.994 28.3789 52.6219 28.3789 51.8778C28.3789 43.2478 28.3789 34.615 28.3789 25.9851C28.3789 25.2092 28.7317 24.8573 29.5126 24.8573C31.0078 24.8544 32.5059 24.8544 34.0011 24.8573C34.7327 24.8573 35.0971 25.2294 35.1 25.9562C35.1 27.0119 35.1 28.0704 35.1 29.1261C35.129 29.1434 35.1608 29.1607 35.1897 29.1809L35.1868 29.1723Z" fill="#15161A"/>
<path d="M16.2354 49.6462C15.5991 50.2029 15.0033 50.7509 14.3787 51.2672C12.7938 52.5738 10.9487 53.2055 8.90979 53.3122C7.61704 53.3785 6.33007 53.367 5.07782 52.9747C2.82491 52.268 1.26898 50.8143 0.5344 48.579C-0.223317 46.2657 -0.191505 43.9352 0.733952 41.6681C1.74906 39.1847 3.67228 37.6387 6.15077 36.7272C7.7761 36.1302 9.47374 35.8446 11.1829 35.637C12.4092 35.487 13.6383 35.3687 14.8645 35.2331C14.9715 35.2216 15.0728 35.1957 15.2607 35.161C15.1913 34.0967 15.2116 33.0295 15.038 31.994C14.7835 30.4798 13.6499 29.5885 12.0361 29.476C11.235 29.4212 10.457 29.525 9.71667 29.8481C8.60323 30.3355 7.89178 31.1633 7.58233 32.3402C7.52449 32.5565 7.46376 32.7815 7.35965 32.9776C7.14853 33.3785 6.83908 33.5083 6.39081 33.4564C4.88405 33.2891 3.37729 33.1218 1.86764 32.9689C1.10703 32.8911 0.765765 32.4526 0.921936 31.7114C1.61603 28.4521 3.54214 26.2081 6.65398 25.0457C10.2141 23.716 13.835 23.6266 17.4269 24.9447C19.6075 25.7437 21.2155 27.1772 21.9385 29.4529C22.3173 30.6499 22.4041 31.8902 22.407 33.1334C22.4186 36.4503 22.4417 39.7644 22.3983 43.0814C22.3781 44.7428 22.8235 46.2081 23.853 47.5031C24.0555 47.7569 24.2492 48.0165 24.4199 48.2934C24.7525 48.827 24.683 49.2222 24.2087 49.6346C23.0057 50.673 21.7997 51.7143 20.5966 52.7526C19.943 53.3151 19.4773 53.3093 18.8266 52.7526C18.04 52.0806 17.3546 51.3191 16.7848 50.4567C16.6055 50.1856 16.4204 49.9231 16.2354 49.652V49.6462ZM15.2087 39.3029C13.5024 39.3087 11.8712 39.4183 10.324 40.076C9.63858 40.3673 9.02836 40.7711 8.54828 41.3451C7.41749 42.6949 7.19191 45.1524 8.04795 46.6926C8.48465 47.4772 9.14115 47.9617 10.0232 48.129C10.9227 48.2992 11.7671 48.1233 12.5451 47.6502C13.5573 47.033 14.1907 46.1071 14.6274 45.037C15.3764 43.1968 15.1624 41.2643 15.2087 39.3029Z" fill="#15161A"/>
<path d="M83.7267 49.666C82.9458 50.3208 82.217 50.9842 81.4362 51.5812C79.9439 52.7234 78.2115 53.2195 76.3519 53.3147C75.1257 53.3753 73.9053 53.3638 72.7108 53.0176C70.3509 52.3312 68.743 50.84 67.991 48.5152C67.2738 46.3 67.2969 44.0618 68.1298 41.8783C69.1131 39.2968 71.0566 37.6874 73.6016 36.7384C75.2356 36.1298 76.9448 35.8472 78.6656 35.6395C79.8918 35.4924 81.1209 35.3713 82.3472 35.2357C82.4426 35.2242 82.538 35.204 82.674 35.1809C82.6306 33.9724 82.8012 32.7638 82.4224 31.5841C82.1476 30.7304 81.5923 30.1362 80.7652 29.7872C79.1225 29.0949 76.9564 29.5564 75.8372 30.8429C75.4381 31.3015 75.198 31.8351 75.0418 32.4177C74.9724 32.6715 74.8683 32.9282 74.7237 33.1503C74.556 33.4099 74.287 33.5166 73.9631 33.4791C72.3927 33.3061 70.8194 33.1388 69.2462 32.9686C68.5984 32.8994 68.2658 32.4264 68.3959 31.7803C69.064 28.4806 71.0045 26.2164 74.1366 25.0453C77.6967 23.7128 81.3176 23.6262 84.9095 24.9473C87.0554 25.7347 88.649 27.1365 89.3893 29.3632C89.7335 30.3987 89.8636 31.4716 89.8694 32.5533C89.8868 36.0952 89.8954 39.6372 89.8752 43.1792C89.8665 44.7511 90.2887 46.1558 91.2605 47.399C91.4745 47.6701 91.6827 47.9499 91.8707 48.2383C92.2351 48.795 92.1628 49.2276 91.6654 49.6545C90.4594 50.6929 89.2563 51.7341 88.0532 52.7725C87.7495 53.0349 87.4198 53.2426 86.9947 53.1417C86.8241 53.1013 86.6448 53.0205 86.5088 52.9109C85.6181 52.1927 84.8517 51.3591 84.227 50.3987C84.0622 50.1477 83.8857 49.9026 83.7238 49.666H83.7267ZM82.6769 39.3026C80.852 39.3142 79.0965 39.4266 77.4712 40.2314C76.2218 40.8515 75.4265 41.8379 75.1402 43.208C74.9753 43.9868 74.9724 44.7742 75.117 45.5559C75.5132 47.6989 77.5174 48.769 79.5245 47.9008C80.9272 47.2951 81.7051 46.1385 82.2084 44.7684C82.8533 43.0061 82.6277 41.1659 82.6798 39.2997L82.6769 39.3026Z" fill="#15161A"/>
<path d="M151.968 29.6021C152.04 29.4377 152.115 29.2762 152.187 29.1118C152.612 28.1369 153.121 27.2139 153.83 26.4091C154.912 25.1804 156.282 24.5257 157.902 24.3526C159.441 24.1882 160.939 24.3209 162.341 25.0102C164.351 25.9996 165.465 27.6667 165.922 29.8184C166.266 31.4337 166.327 33.072 166.327 34.7132C166.332 40.4472 166.332 46.1842 166.332 51.9182C166.332 52.596 165.953 52.9854 165.271 52.9883C163.622 52.9941 161.977 52.9941 160.328 52.9883C159.663 52.9883 159.287 52.5989 159.287 51.9355C159.287 46.7091 159.287 41.4798 159.287 36.2534C159.287 35.1833 159.25 34.1132 158.958 33.0748C158.637 31.9326 158.018 31.0587 156.757 30.8251C155.25 30.5482 153.897 31.2433 153.171 32.6739C152.74 33.519 152.482 34.4247 152.393 35.365C152.312 36.213 152.263 37.0668 152.26 37.9176C152.248 42.5499 152.254 47.185 152.254 51.8173C152.254 52.6105 151.878 52.9883 151.083 52.9883C149.501 52.9883 147.919 52.9883 146.334 52.9883C145.588 52.9883 145.209 52.6191 145.209 51.875C145.203 43.2133 145.197 34.5516 145.194 25.89C145.194 25.2381 145.562 24.8574 146.218 24.8545C147.768 24.8429 149.318 24.8574 150.869 24.8458C151.406 24.8429 151.895 25.2641 151.875 25.8669C151.835 26.9889 151.863 28.1138 151.863 29.2358C151.863 29.3483 151.863 29.4637 151.863 29.5761C151.898 29.5848 151.93 29.5934 151.965 29.5992L151.968 29.6021Z" fill="#15161A"/>
<path d="M118.041 38.8353C118.021 36.0548 118.435 33.3493 119.626 30.8082C120.78 28.3421 122.484 26.3923 125.005 25.2357C126.634 24.4886 128.354 24.2233 130.133 24.3011C132.713 24.4136 134.997 25.2703 136.912 27.0326C138.425 28.4257 139.486 30.1246 140.151 32.0485C141.669 36.4269 141.805 40.8486 140.336 45.2674C139.466 47.8835 137.979 50.0958 135.671 51.685C133.34 53.2887 130.74 53.8022 127.964 53.4157C123.941 52.859 121.295 50.4938 119.62 46.9288C118.617 44.7886 118.16 42.51 118.041 40.1621C118.018 39.7208 118.038 39.2766 118.038 38.8353H118.041ZM125.54 38.4863C125.601 39.6949 125.65 40.9034 125.726 42.109C125.754 42.5821 125.833 43.0522 125.911 43.5195C126.102 44.6213 126.379 45.6943 126.995 46.6461C127.79 47.872 128.996 48.3508 130.419 48.0191C131.614 47.7393 132.319 46.9172 132.808 45.8645C133.256 44.8924 133.479 43.857 133.58 42.8013C133.855 39.966 133.844 37.1278 133.456 34.3011C133.317 33.2859 133.086 32.2908 132.638 31.3505C131.617 29.2218 128.366 29.1468 127.105 30.8024C126.521 31.5697 126.185 32.435 125.977 33.358C125.598 35.0453 125.564 36.7615 125.538 38.4834L125.54 38.4863Z" fill="#15161A"/>
<path d="M67.3524 73.9375C66.0972 73.9029 64.8363 73.9145 63.584 73.8251C61.9038 73.7039 60.2264 73.5251 58.5519 73.3289C55.949 73.0232 53.3867 72.4954 50.8503 71.8406C47.1196 70.8773 43.5045 69.5908 40.008 67.9814C34.9816 65.671 30.3428 62.7492 26.0683 59.2505C25.3222 58.6419 24.5963 58.0073 23.8906 57.3526C23.7026 57.1767 23.5522 56.894 23.5118 56.6402C23.4452 56.2191 23.8733 55.8758 24.2926 55.9768C24.5211 56.0316 24.7438 56.1296 24.9491 56.245C31.6269 60.0754 38.7095 62.9049 46.1594 64.8375C49.2713 65.6451 52.4178 66.2825 55.5962 66.7498C57.1232 66.9748 58.6618 67.1449 60.2003 67.2834C61.8488 67.4305 63.5002 67.5487 65.1515 67.6035C67.1008 67.667 69.0529 67.7074 70.9993 67.6555C72.8039 67.6064 74.6056 67.4536 76.4016 67.2891C83.4611 66.6431 90.3269 65.1086 97.0046 62.755C98.575 62.2012 100.119 61.5666 101.672 60.9609C102.092 60.7965 102.505 60.6754 102.965 60.8167C103.839 61.0849 104.148 62.0656 103.509 62.7146C103.11 63.1184 102.627 63.4443 102.155 63.7674C98.627 66.2046 94.8124 68.0939 90.8098 69.611C86.894 71.0965 82.8682 72.1925 78.7413 72.9049C76.9106 73.2222 75.0626 73.4587 73.2146 73.6347C71.2653 73.8164 69.3074 73.8799 67.3524 73.9981C67.3524 73.9779 67.3495 73.9577 67.3466 73.9375H67.3524Z" fill="#15161A"/>
<path d="M105.969 30.4306H105.518C102.808 30.4306 100.099 30.4306 97.3888 30.4306C97.2586 30.4306 97.1285 30.4306 96.9983 30.4133C96.4864 30.3354 96.177 30.0066 96.1712 29.4932C96.1596 28.2299 96.1596 26.9665 96.1712 25.7032C96.177 25.1725 96.5038 24.8465 97.033 24.7888C97.1516 24.7744 97.2702 24.7744 97.3888 24.7744C102.84 24.7744 108.292 24.7744 113.746 24.7744C113.908 24.7744 114.073 24.7802 114.232 24.8061C114.669 24.8783 114.981 25.2099 114.984 25.6513C114.996 26.7733 115.039 27.901 114.961 29.0202C114.929 29.4615 114.666 29.9201 114.408 30.3066C113.576 31.5555 112.699 32.7756 111.835 34.0072C109.616 37.1655 107.398 40.321 105.18 43.4793C105.119 43.5659 105.064 43.6553 104.966 43.8024C105.137 43.8024 105.261 43.8024 105.382 43.8024C107.696 43.7764 109.972 44.0216 112.161 44.7946C112.974 45.0802 113.755 45.4609 114.536 45.8358C115.195 46.1502 115.496 46.7185 115.499 47.4367C115.505 48.7115 115.505 49.9864 115.499 51.2613C115.496 52.0891 114.845 52.4929 114.114 52.1208C110.892 50.4969 107.47 49.8595 103.884 50.1018C101.328 50.2748 98.8984 50.9469 96.6108 52.1122C95.8242 52.5131 95.2053 52.1324 95.2024 51.244C95.1995 49.8941 95.2024 48.5442 95.2053 47.1944C95.2053 46.2743 95.4684 45.4436 96.0064 44.6792C99.257 40.0556 102.493 35.4205 105.732 30.7883C105.799 30.6931 105.86 30.5921 105.964 30.4364L105.969 30.4306Z" fill="#15161A"/>
<path d="M105.402 54.2496C107.091 54.2351 108.662 54.362 110.186 54.8351C110.342 54.8841 110.489 54.9505 110.643 55.0024C111.279 55.2216 111.525 55.6917 111.583 56.3349C111.75 58.2646 111.334 60.1105 110.79 61.9334C110.056 64.388 108.954 66.6637 107.262 68.6164C106.817 69.1299 106.313 69.5942 105.801 70.0413C105.613 70.2028 105.324 70.2807 105.07 70.3297C104.833 70.373 104.668 70.2086 104.682 69.9634C104.694 69.7529 104.746 69.5394 104.815 69.3375C105.495 67.4483 106.215 65.5764 106.854 63.6727C107.282 62.3949 107.609 61.0826 107.606 59.7183C107.606 58.6741 107.239 58.155 106.218 57.8867C105.605 57.7252 104.966 57.5983 104.335 57.5867C102.985 57.5608 101.628 57.5694 100.281 57.6531C98.8894 57.7396 97.507 57.9271 96.1217 58.08C95.6243 58.1348 95.338 58.0598 95.2281 57.8031C95.1327 57.581 95.2946 57.2291 95.6561 56.9666C97.0125 55.9773 98.5337 55.3427 100.147 54.913C101.903 54.4428 103.69 54.2207 105.405 54.2496H105.402Z" fill="#15161A"/>
</svg>
