<svg width="311" height="91" viewBox="0 0 311 91" fill="none" xmlns="http://www.w3.org/2000/svg">
<path d="M149.747 61.4491C149.542 61.5467 149.451 61.6872 149.341 61.8023C148.47 62.7035 147.535 63.5248 146.455 64.172C145.052 65.0121 143.535 65.4541 141.904 65.5583C140.419 65.6531 138.97 65.5021 137.583 64.9592C135.116 63.9925 133.295 62.2924 132.066 59.9598C131.064 58.0598 130.559 56.0219 130.395 53.8863C130.253 52.0344 130.354 50.202 130.741 48.3871C131.21 46.1897 132.153 44.2348 133.77 42.6401C135.318 41.113 137.178 40.2114 139.331 39.8939C140.741 39.686 142.147 39.7132 143.55 39.9326C145.344 40.213 146.889 41.0299 148.282 42.1643C148.672 42.4817 149.037 42.8253 149.393 43.1798C149.485 43.2714 149.555 43.4012 149.725 43.4163C149.824 43.2718 149.783 43.1045 149.784 42.9486C149.786 40.0331 149.787 37.1181 149.784 34.2027C149.783 33.6166 149.822 33.0362 149.984 32.4716C150.199 31.7195 150.558 31.0463 151.267 30.6592C152.331 30.078 153.432 30.0841 154.502 30.6445C155.248 31.0349 155.631 31.7195 155.82 32.5164C155.936 33.0052 156 33.5018 156 34.0065C155.998 43.3218 155.999 52.6376 155.999 61.9529C155.999 62.5826 155.905 63.1943 155.672 63.7829C155.147 65.111 153.917 65.6853 152.602 65.5746C151.147 65.452 149.966 64.3889 149.803 62.5366C149.772 62.1894 149.819 61.8373 149.749 61.4495L149.747 61.4491ZM136.929 52.6091C136.915 53.8831 137.062 55.1708 137.51 56.411C137.938 57.5958 138.597 58.6284 139.601 59.4079C140.779 60.3228 142.133 60.6741 143.613 60.5756C144.946 60.4869 146.125 60.0294 147.103 59.1034C148.217 58.0484 148.847 56.7317 149.149 55.249C149.432 53.8558 149.458 52.4475 149.293 51.0396C149.121 49.5646 148.701 48.1673 147.799 46.9614C146.355 45.0309 144.434 44.1802 142.035 44.5819C140.186 44.8917 138.91 46.0159 138.038 47.6264C137.202 49.1682 136.915 50.8378 136.93 52.6091H136.929Z" fill="#15161A"/>
<path d="M69.7677 61.4558C69.5994 61.5526 69.4942 61.6951 69.3736 61.8196C68.3098 62.917 67.158 63.8966 65.7714 64.5768C64.5833 65.1596 63.3287 65.4584 62.0131 65.554C60.739 65.6464 59.4934 65.528 58.2678 65.1682C56.8743 64.7587 55.6548 64.0411 54.571 63.0887C52.7031 61.4472 51.5635 59.3625 50.9595 56.9843C50.181 53.9191 50.1785 50.838 50.9489 47.7675C51.4127 45.9192 52.2755 44.2728 53.5875 42.8784C54.997 41.3806 56.7182 40.4233 58.7328 40.0081C60.4838 39.6471 62.2417 39.6597 63.9931 40.0081C65.6731 40.3423 67.1131 41.1636 68.4166 42.2459C68.7924 42.5581 69.1551 42.8857 69.4971 43.2358C69.5598 43.3001 69.6075 43.3949 69.7481 43.3868C69.8256 43.2463 69.7917 43.0823 69.7917 42.9276C69.7942 40.0529 69.7889 37.1781 69.7962 34.3034C69.7983 33.5561 69.8594 32.8117 70.1353 32.1051C70.6689 30.7384 71.7506 30.1771 73.1584 30.2516C73.912 30.2915 74.591 30.5381 75.1241 31.1096C75.418 31.425 75.6112 31.7929 75.7424 32.1967C75.8904 32.6509 75.9544 33.1206 75.9776 33.596C75.987 33.7857 75.9845 33.9758 75.9845 34.1654C75.9845 43.3729 75.9845 52.5804 75.9862 61.7879C75.9862 62.2775 75.9641 62.7639 75.8574 63.243C75.5378 64.6785 74.5824 65.5068 73.0736 65.5837C71.7624 65.6505 70.6334 64.9793 70.1133 63.6573C69.8908 63.0924 69.837 62.501 69.8362 61.9002C69.8362 61.7582 69.8749 61.6043 69.7677 61.4566V61.4558ZM56.9884 52.9862C56.9884 53.9496 57.1274 55.0347 57.4453 56.0502C57.74 56.9908 58.1675 57.8663 58.8201 58.6124C60.0974 60.0727 61.729 60.6853 63.6495 60.5754C64.9558 60.5009 66.1076 60.0438 67.0809 59.1647C68.1781 58.1736 68.8042 56.9139 69.1237 55.493C69.5244 53.7107 69.539 51.917 69.1893 50.1269C68.8751 48.518 68.1993 47.0877 66.9529 45.9778C65.3687 44.5667 63.5317 44.1377 61.4999 44.7222C59.7066 45.2379 58.558 46.5033 57.8138 48.1586C57.18 49.5681 56.977 51.0663 56.988 52.9862H56.9884Z" fill="#15161A"/>
<path d="M91.8496 54.2069C89.636 54.2069 87.4225 54.2069 85.2089 54.2069C84.6073 54.2069 84.5922 54.2358 84.6513 54.8313C84.7418 55.7401 84.9061 56.6307 85.2819 57.4695C86.1716 59.4554 87.6193 60.7855 89.806 61.1734C91.634 61.4978 93.3748 61.21 94.9823 60.2478C95.8358 59.737 96.6155 59.1277 97.3532 58.4631C97.7665 58.0906 98.1875 57.7264 98.5873 57.3401C99.3035 56.6482 101.092 56.5997 101.835 57.4561C102.287 57.9775 102.446 58.562 102.349 59.227C102.242 59.9556 101.912 60.5958 101.493 61.1852C100.44 62.663 99.0177 63.6777 97.3687 64.3953C95.654 65.1409 93.8574 65.5003 91.9902 65.5655C89.9939 65.6355 88.0302 65.4584 86.1141 64.8788C84.3004 64.3306 82.7007 63.4054 81.3658 62.0594C79.7257 60.4057 78.6958 58.4134 78.2287 56.1398C77.6246 53.1987 77.7351 50.289 78.7267 47.4387C79.3944 45.52 80.4557 43.8553 82.02 42.5321C83.2623 41.4816 84.6799 40.7587 86.234 40.2959C88.0897 39.7432 89.9841 39.5808 91.9136 39.7139C93.2232 39.8043 94.5062 40.0188 95.7286 40.4958C99.3348 41.9028 101.665 44.4512 102.564 48.2413C102.816 49.3036 102.886 50.3846 102.708 51.4705C102.646 51.8474 102.52 52.2048 102.339 52.5426C102.079 53.0282 101.696 53.3762 101.185 53.5834C100.346 53.924 99.4673 54.0807 98.5694 54.1499C97.729 54.2146 96.8873 54.2085 96.0453 54.2073C94.6464 54.2053 93.2476 54.2069 91.8488 54.2069H91.8496ZM90.5299 50.5584C92.3077 50.5584 94.0852 50.5584 95.8631 50.558C95.9849 50.558 96.1072 50.5544 96.2291 50.5478C96.3591 50.5405 96.4255 50.4636 96.4292 50.3378C96.432 50.2296 96.4325 50.1201 96.4194 50.013C96.313 49.1359 96.141 48.2734 95.795 47.4553C95.0813 45.7687 93.8525 44.6815 92.0526 44.2607C91.4249 44.1142 90.7887 44.104 90.15 44.1284C88.4867 44.1927 87.1449 44.8883 86.1402 46.2095C85.2248 47.4134 84.871 48.8278 84.657 50.2898C84.633 50.455 84.6933 50.5523 84.8718 50.5543C84.9941 50.5556 85.116 50.558 85.2383 50.558C87.0023 50.558 88.7663 50.558 90.5307 50.558L90.5299 50.5584Z" fill="#15161A"/>
<path d="M117.681 54.2154C115.631 54.2154 113.58 54.2154 111.53 54.2154C111.421 54.2154 111.312 54.2137 111.204 54.2162C110.808 54.2255 110.792 54.2512 110.817 54.6411C110.879 55.6228 111.063 56.5797 111.459 57.4829C112.328 59.4687 113.796 60.7699 115.948 61.1737C117.844 61.5294 119.649 61.2123 121.304 60.1761C122.204 59.6124 123.032 58.955 123.815 58.2399C124.086 57.9929 124.372 57.7625 124.628 57.5012C125.249 56.8662 126.014 56.7511 126.844 56.8605C127.101 56.8943 127.35 56.9643 127.582 57.0832C128.216 57.408 128.573 57.907 128.574 58.6372C128.574 59.1728 128.489 59.6864 128.265 60.1789C127.824 61.1468 127.182 61.956 126.385 62.654C124.765 64.0708 122.847 64.8572 120.769 65.2792C119.356 65.5666 117.924 65.6541 116.476 65.567C115.17 65.4884 113.878 65.3456 112.621 64.9793C108.593 63.8054 105.91 61.2152 104.716 57.2089C103.685 53.7542 103.823 50.2885 105.141 46.9159C106.444 43.5796 108.88 41.4335 112.284 40.3516C113.92 39.8319 115.601 39.6393 117.306 39.6804C119.124 39.7244 120.902 40.0056 122.573 40.7733C126.185 42.4319 128.291 45.2366 128.924 49.1431C129.061 49.9881 129.062 50.8424 128.875 51.6902C128.647 52.7196 128.058 53.4066 127.043 53.7302C126.393 53.9374 125.729 54.0749 125.052 54.1364C124.485 54.1877 123.916 54.2215 123.344 54.219C121.457 54.2101 119.569 54.2158 117.682 54.2158L117.681 54.2154ZM116.733 50.5583C118.498 50.5583 120.262 50.5583 122.027 50.5583C122.135 50.5583 122.244 50.5624 122.352 50.5559C122.621 50.5392 122.663 50.4977 122.639 50.2364C122.567 49.4521 122.44 48.6775 122.185 47.929C121.698 46.4979 120.852 45.3603 119.469 44.6786C118.282 44.0929 117.013 43.9997 115.731 44.1906C113.921 44.46 112.638 45.4934 111.785 47.0828C111.292 48.0031 111.057 49.0039 110.903 50.0276C110.826 50.5408 110.834 50.5575 111.358 50.5575C113.15 50.5587 114.941 50.5579 116.733 50.5579V50.5583Z" fill="#15161A"/>
<path d="M31.2671 43.8041C31.4623 43.6706 31.5789 43.5033 31.7073 43.3527C32.1931 42.7829 32.7331 42.2696 33.3131 41.7975C34.906 40.5007 36.7486 39.8727 38.7829 39.7282C40.028 39.6395 41.252 39.7302 42.4535 40.0624C44.1637 40.5353 45.6384 41.3839 46.6859 42.8521C47.5361 44.0434 48.0684 45.3621 48.1943 46.8359C48.2987 48.0525 48.3468 49.2699 48.3451 50.4909C48.3398 54.1654 48.3435 57.8404 48.3427 61.5149C48.3427 62.1136 48.2881 62.7054 48.1169 63.2834C47.6836 64.7466 46.3757 65.7906 44.4792 65.4988C43.0661 65.2814 42.0667 64.2118 41.8332 62.7294C41.7741 62.3542 41.7427 61.9773 41.7431 61.5959C41.7452 57.9214 41.7484 54.2464 41.7374 50.5719C41.7342 49.4428 41.5956 48.3272 41.2504 47.245C41.2092 47.1159 41.1591 46.9898 41.1138 46.862C40.6936 45.682 39.8479 44.9938 38.6333 44.7548C37.0323 44.4398 35.5194 44.6474 34.1625 45.6039C32.7706 46.5848 31.9461 47.9149 31.7256 49.6166C31.5544 50.9378 31.5202 52.2659 31.5096 53.5928C31.4884 56.2502 31.5027 58.908 31.5035 61.5658C31.5035 62.1918 31.47 62.81 31.261 63.4108C30.8265 64.6591 29.7549 65.4609 28.4576 65.5415C26.8253 65.6429 25.7757 64.7356 25.2952 63.6945C25.0943 63.259 24.9891 62.7974 24.9549 62.32C24.9414 62.1307 24.9361 61.9406 24.9361 61.751C24.9353 55.5814 24.9353 49.4115 24.9353 43.242C24.9353 42.7662 24.9651 42.294 25.0955 41.8325C25.4105 40.7169 26.1067 39.9818 27.2597 39.7559C28.5228 39.5084 29.5895 39.8458 30.4059 40.8886C30.9761 41.6168 31.2222 42.4369 31.2173 43.3478C31.2165 43.4813 31.1953 43.6189 31.2675 43.8045L31.2671 43.8041Z" fill="#15161A"/>
<path d="M20.7313 53.5312C20.7313 56.1466 20.7288 58.7621 20.7333 61.3776C20.7341 61.9092 20.6889 62.433 20.5593 62.9483C20.1537 64.5588 18.9122 65.5255 17.2521 65.5483C16.4688 65.5593 15.7461 65.3961 15.1017 64.9337C14.4178 64.4428 14.0343 63.755 13.8073 62.9686C13.6561 62.4448 13.6137 61.9055 13.6149 61.3601C13.6198 59.5037 13.6165 57.6469 13.6165 55.7905C13.6165 52.7823 13.6165 49.7736 13.6165 46.7653C13.6165 46.1622 13.6186 46.1495 14.2189 46.1792C16.1937 46.2773 18.0852 45.9485 19.8802 45.1072C20.0767 45.0152 20.2654 44.9069 20.4618 44.8149C20.6587 44.7225 20.7068 44.7486 20.7256 44.9533C20.7366 45.0742 20.7308 45.1971 20.7313 45.3188C20.7313 48.0564 20.7313 50.7936 20.7313 53.5312Z" fill="#15161A"/>
<path d="M11.7424 37.1898C11.6964 34.6125 13.729 31.9657 16.9619 31.9625C20.214 31.9592 22.2111 34.6109 22.2124 37.2121C22.2136 40.0006 19.8847 42.4626 16.9383 42.4455C14.0334 42.4289 11.6768 39.9929 11.7424 37.1898Z" fill="#15161A"/>
<path d="M0.0603677 44.9262C-0.0305229 44.4883 -0.00321495 44.126 0.0412114 43.7707C0.49974 40.1104 1.71963 36.7183 3.66542 33.5851C5.29615 30.9595 7.35525 28.736 9.90956 26.9809C10.9754 26.2487 12.1056 25.6284 13.2953 25.1241C14.4639 24.6288 15.6923 24.3308 16.9469 24.1603C18.8466 23.9027 20.739 23.9259 22.5996 24.4497C24.6595 25.0297 26.4468 26.0574 27.8541 27.6948C28.1117 27.9944 28.3371 28.3167 28.5063 28.6737C28.5813 28.832 28.6497 28.9981 28.6905 29.1678C28.7753 29.5211 28.6167 29.6579 28.2666 29.5325C28.1023 29.4735 27.9446 29.3868 27.7967 29.2928C27.213 28.922 26.6469 28.5239 26.0441 28.1824C24.5303 27.3248 22.935 26.7127 21.2016 26.464C19.0989 26.1624 17.0333 26.3008 14.9982 26.9028C12.5503 27.6273 10.3978 28.8813 8.46469 30.5321C7.02307 31.7633 5.75631 33.1545 4.66033 34.6975C3.8737 35.8054 3.22605 36.998 2.63995 38.2223C1.70047 40.1837 0.96805 42.2228 0.370537 44.3116C0.315106 44.5058 0.259267 44.6999 0.0611828 44.9258L0.0603677 44.9262Z" fill="#15161A"/>
</svg>
